<?xml version="1.0" encoding="UTF-8"?>
<svg xmlns="http://www.w3.org/2000/svg" xmlns:xlink="http://www.w3.org/1999/xlink" width="334.666667" height="116" viewBox="0 0 334.666667 116" version="1.1">
<g id="surface1">
<path style="fill:none;stroke-width:1;stroke-linecap:round;stroke-linejoin:round;stroke:rgb(0%,0%,0%);stroke-opacity:1;stroke-miterlimit:10;" d="M 29.999023 30.000977 L 59.999023 30.000977 L 59.999023 60.000977 L 29.999023 60.000977 Z M 29.999023 30.000977 " transform="matrix(1.333333,0,0,1.333333,-38.666667,34.666667)"/>
<path style=" stroke:none;fill-rule:nonzero;fill:rgb(0%,0%,0%);fill-opacity:1;" d="M 24.144531 98 L 24.144531 97.707031 C 23.957031 97.644531 23.875 97.605469 23.792969 97.480469 L 22 94.730469 L 23.207031 93.230469 C 23.4375 92.957031 23.6875 92.8125 24.0625 92.75 L 24.0625 92.457031 L 22.042969 92.457031 L 22.042969 92.75 L 22.292969 92.769531 C 22.5625 92.8125 22.644531 92.855469 22.644531 93.042969 C 22.644531 93.230469 22.519531 93.394531 22.1875 93.8125 L 21.769531 94.355469 C 21.707031 94.292969 21.667969 94.230469 21.605469 94.167969 C 21.207031 93.644531 20.917969 93.144531 20.917969 92.980469 C 20.917969 92.832031 21.082031 92.769531 21.480469 92.75 L 21.480469 92.457031 L 18.480469 92.457031 L 18.480469 92.75 C 18.792969 92.8125 18.855469 92.855469 19.105469 93.230469 L 20.644531 95.582031 C 20.457031 95.8125 20.5625 95.6875 20.375 95.917969 L 19.855469 96.605469 C 19.1875 97.5 18.9375 97.6875 18.5 97.707031 L 18.5 98 L 20.519531 98 L 20.519531 97.707031 C 20.105469 97.6875 19.9375 97.605469 19.9375 97.417969 C 19.9375 97.230469 20.230469 96.75 20.6875 96.1875 C 20.769531 96.105469 20.832031 96.019531 20.894531 95.957031 C 21.042969 96.207031 21.207031 96.457031 21.394531 96.707031 C 21.6875 97.125 21.792969 97.332031 21.792969 97.480469 C 21.792969 97.625 21.625 97.6875 21.25 97.707031 L 21.25 98 Z M 24.144531 98 "/>
<path style="fill:none;stroke-width:1;stroke-linecap:round;stroke-linejoin:round;stroke:rgb(0%,0%,0%);stroke-opacity:1;stroke-miterlimit:10;" d="M 80 30.000977 L 110 30.000977 L 110 60.000977 L 80 60.000977 Z M 80 30.000977 " transform="matrix(1.333333,0,0,1.333333,-38.666667,34.666667)"/>
<path style=" stroke:none;fill-rule:nonzero;fill:rgb(0%,0%,0%);fill-opacity:1;" d="M 77.835938 91.519531 L 77.753906 91.917969 L 78.835938 91.917969 L 77.773438 96.957031 C 77.503906 98.25 77.128906 98.894531 76.605469 98.894531 C 76.480469 98.894531 76.378906 98.8125 76.378906 98.707031 C 76.378906 98.582031 76.480469 98.519531 76.480469 98.355469 C 76.480469 98.105469 76.292969 97.917969 76.023438 97.917969 C 75.773438 97.917969 75.566406 98.144531 75.566406 98.417969 C 75.566406 98.832031 75.980469 99.144531 76.523438 99.144531 C 77.605469 99.144531 78.417969 97.980469 78.917969 95.75 L 79.792969 91.917969 L 81.085938 91.917969 L 81.148438 91.519531 L 79.878906 91.519531 C 80.210938 89.625 80.667969 88.792969 81.335938 88.792969 C 81.503906 88.792969 81.585938 88.855469 81.585938 88.957031 C 81.585938 89.0625 81.480469 89.125 81.480469 89.3125 C 81.480469 89.605469 81.710938 89.792969 81.917969 89.792969 C 82.191406 89.792969 82.417969 89.542969 82.417969 89.269531 C 82.417969 88.832031 81.980469 88.519531 81.398438 88.519531 C 80.667969 88.519531 80.167969 88.9375 79.816406 89.457031 C 79.417969 90.019531 79.210938 90.6875 78.941406 91.519531 Z M 77.835938 91.519531 "/>
<path style=" stroke:none;fill-rule:nonzero;fill:rgb(0%,0%,0%);fill-opacity:1;" d="M 83.816406 100.667969 L 83.816406 100.542969 C 83.214844 100.542969 83.066406 100.394531 83.066406 100.0625 L 83.066406 95.292969 L 82.984375 95.25 L 81.566406 95.980469 L 81.566406 96.105469 L 81.777344 96.019531 C 81.921875 95.957031 82.046875 95.917969 82.128906 95.917969 C 82.296875 95.917969 82.378906 96.042969 82.378906 96.3125 L 82.378906 99.917969 C 82.378906 100.355469 82.214844 100.519531 81.609375 100.542969 L 81.609375 100.667969 Z M 83.816406 100.667969 "/>
<path style=" stroke:none;fill-rule:nonzero;fill:rgb(0%,0%,0%);fill-opacity:1;" d="M 88.316406 98.605469 C 86.628906 97.1875 86.277344 95.832031 86.277344 93.605469 C 86.277344 91.292969 86.652344 90.167969 88.316406 88.75 L 88.214844 88.5625 C 86.296875 89.6875 85.253906 91.417969 85.253906 93.644531 C 85.253906 95.6875 86.277344 97.707031 88.171875 98.792969 Z M 88.316406 98.605469 "/>
<path style=" stroke:none;fill-rule:nonzero;fill:rgb(0%,0%,0%);fill-opacity:1;" d="M 94.480469 96.667969 L 94.480469 96.375 C 94.292969 96.3125 94.210938 96.269531 94.125 96.144531 L 92.335938 93.394531 L 93.542969 91.894531 C 93.773438 91.625 94.023438 91.480469 94.398438 91.417969 L 94.398438 91.125 L 92.375 91.125 L 92.375 91.417969 L 92.625 91.4375 C 92.898438 91.480469 92.980469 91.519531 92.980469 91.707031 C 92.980469 91.894531 92.855469 92.0625 92.523438 92.480469 L 92.105469 93.019531 C 92.042969 92.957031 92 92.894531 91.9375 92.832031 C 91.542969 92.3125 91.25 91.8125 91.25 91.644531 C 91.25 91.5 91.417969 91.4375 91.8125 91.417969 L 91.8125 91.125 L 88.8125 91.125 L 88.8125 91.417969 C 89.125 91.480469 89.1875 91.519531 89.4375 91.894531 L 90.980469 94.25 C 90.792969 94.480469 90.898438 94.355469 90.710938 94.582031 L 90.1875 95.269531 C 89.523438 96.167969 89.273438 96.355469 88.835938 96.375 L 88.835938 96.667969 L 90.855469 96.667969 L 90.855469 96.375 C 90.4375 96.355469 90.273438 96.269531 90.273438 96.082031 C 90.273438 95.894531 90.5625 95.417969 91.023438 94.855469 C 91.105469 94.769531 91.167969 94.6875 91.230469 94.625 C 91.375 94.875 91.542969 95.125 91.730469 95.375 C 92.023438 95.792969 92.125 96 92.125 96.144531 C 92.125 96.292969 91.960938 96.355469 91.585938 96.375 L 91.585938 96.667969 Z M 94.480469 96.667969 "/>
<path style=" stroke:none;fill-rule:nonzero;fill:rgb(0%,0%,0%);fill-opacity:1;" d="M 95.023438 88.75 C 96.75 90.125 97.0625 91.5 97.0625 93.730469 C 97.0625 96.0625 96.710938 97.1875 95.023438 98.605469 L 95.125 98.792969 C 97.023438 97.625 98.085938 95.917969 98.085938 93.707031 C 98.085938 91.667969 97 89.667969 95.167969 88.5625 Z M 95.023438 88.75 "/>
<path style="fill:none;stroke-width:1;stroke-linecap:round;stroke-linejoin:round;stroke:rgb(0%,0%,0%);stroke-opacity:1;stroke-miterlimit:10;" d="M 130.000977 30.000977 L 160.000977 30.000977 L 160.000977 60.000977 L 130.000977 60.000977 Z M 130.000977 30.000977 " transform="matrix(1.333333,0,0,1.333333,-38.666667,34.666667)"/>
<path style=" stroke:none;fill-rule:nonzero;fill:rgb(0%,0%,0%);fill-opacity:1;" d="M 144.503906 91.519531 L 144.417969 91.917969 L 145.503906 91.917969 L 144.441406 96.957031 C 144.167969 98.25 143.792969 98.894531 143.273438 98.894531 C 143.148438 98.894531 143.042969 98.8125 143.042969 98.707031 C 143.042969 98.582031 143.148438 98.519531 143.148438 98.355469 C 143.148438 98.105469 142.960938 97.917969 142.691406 97.917969 C 142.441406 97.917969 142.230469 98.144531 142.230469 98.417969 C 142.230469 98.832031 142.648438 99.144531 143.191406 99.144531 C 144.273438 99.144531 145.085938 97.980469 145.585938 95.75 L 146.460938 91.917969 L 147.753906 91.917969 L 147.816406 91.519531 L 146.542969 91.519531 C 146.878906 89.625 147.335938 88.792969 148.003906 88.792969 C 148.167969 88.792969 148.253906 88.855469 148.253906 88.957031 C 148.253906 89.0625 148.148438 89.125 148.148438 89.3125 C 148.148438 89.605469 148.378906 89.792969 148.585938 89.792969 C 148.855469 89.792969 149.085938 89.542969 149.085938 89.269531 C 149.085938 88.832031 148.648438 88.519531 148.066406 88.519531 C 147.335938 88.519531 146.835938 88.9375 146.480469 89.457031 C 146.085938 90.019531 145.878906 90.6875 145.605469 91.519531 Z M 144.503906 91.519531 "/>
<path style=" stroke:none;fill-rule:nonzero;fill:rgb(0%,0%,0%);fill-opacity:1;" d="M 151.128906 99.5625 L 151.027344 99.519531 C 150.753906 99.980469 150.589844 100.0625 150.253906 100.0625 L 148.378906 100.0625 L 149.691406 98.644531 C 150.402344 97.894531 150.714844 97.292969 150.714844 96.667969 C 150.714844 95.875 150.152344 95.25 149.234375 95.25 C 148.253906 95.25 147.753906 95.917969 147.589844 96.855469 L 147.753906 96.894531 C 148.066406 96.105469 148.339844 95.855469 148.921875 95.855469 C 149.609375 95.855469 150.027344 96.25 150.027344 96.980469 C 150.027344 97.667969 149.753906 98.269531 148.984375 99.0625 L 147.566406 100.5625 L 147.566406 100.667969 L 150.691406 100.667969 Z M 151.128906 99.5625 "/>
<path style=" stroke:none;fill-rule:nonzero;fill:rgb(0%,0%,0%);fill-opacity:1;" d="M 154.984375 98.605469 C 153.296875 97.1875 152.941406 95.832031 152.941406 93.605469 C 152.941406 91.292969 153.316406 90.167969 154.984375 88.75 L 154.878906 88.5625 C 152.964844 89.6875 151.921875 91.417969 151.921875 93.644531 C 151.921875 95.6875 152.941406 97.707031 154.839844 98.792969 Z M 154.984375 98.605469 "/>
<path style=" stroke:none;fill-rule:nonzero;fill:rgb(0%,0%,0%);fill-opacity:1;" d="M 161.148438 96.667969 L 161.148438 96.375 C 160.960938 96.3125 160.875 96.269531 160.792969 96.144531 L 159 93.394531 L 160.210938 91.894531 C 160.4375 91.625 160.6875 91.480469 161.0625 91.417969 L 161.0625 91.125 L 159.042969 91.125 L 159.042969 91.417969 L 159.292969 91.4375 C 159.5625 91.480469 159.648438 91.519531 159.648438 91.707031 C 159.648438 91.894531 159.523438 92.0625 159.1875 92.480469 L 158.773438 93.019531 C 158.710938 92.957031 158.667969 92.894531 158.605469 92.832031 C 158.210938 92.3125 157.917969 91.8125 157.917969 91.644531 C 157.917969 91.5 158.085938 91.4375 158.480469 91.417969 L 158.480469 91.125 L 155.480469 91.125 L 155.480469 91.417969 C 155.792969 91.480469 155.855469 91.519531 156.105469 91.894531 L 157.648438 94.25 C 157.460938 94.480469 157.5625 94.355469 157.375 94.582031 L 156.855469 95.269531 C 156.1875 96.167969 155.9375 96.355469 155.5 96.375 L 155.5 96.667969 L 157.523438 96.667969 L 157.523438 96.375 C 157.105469 96.355469 156.9375 96.269531 156.9375 96.082031 C 156.9375 95.894531 157.230469 95.417969 157.6875 94.855469 C 157.773438 94.769531 157.835938 94.6875 157.898438 94.625 C 158.042969 94.875 158.210938 95.125 158.398438 95.375 C 158.6875 95.792969 158.792969 96 158.792969 96.144531 C 158.792969 96.292969 158.625 96.355469 158.25 96.375 L 158.25 96.667969 Z M 161.148438 96.667969 "/>
<path style=" stroke:none;fill-rule:nonzero;fill:rgb(0%,0%,0%);fill-opacity:1;" d="M 161.6875 88.75 C 163.417969 90.125 163.730469 91.5 163.730469 93.730469 C 163.730469 96.0625 163.375 97.1875 161.6875 98.605469 L 161.792969 98.792969 C 163.6875 97.625 164.75 95.917969 164.75 93.707031 C 164.75 91.667969 163.667969 89.667969 161.835938 88.5625 Z M 161.6875 88.75 "/>
<path style="fill:none;stroke-width:1;stroke-linecap:round;stroke-linejoin:round;stroke:rgb(0%,0%,0%);stroke-opacity:1;stroke-miterlimit:10;" d="M 179 30.000977 L 209 30.000977 L 209 60.000977 L 179 60.000977 Z M 179 30.000977 " transform="matrix(1.333333,0,0,1.333333,-38.666667,34.666667)"/>
<path style=" stroke:none;fill-rule:nonzero;fill:rgb(0%,0%,0%);fill-opacity:1;" d="M 209.835938 91.519531 L 209.753906 91.917969 L 210.835938 91.917969 L 209.773438 96.957031 C 209.503906 98.25 209.128906 98.894531 208.605469 98.894531 C 208.480469 98.894531 208.378906 98.8125 208.378906 98.707031 C 208.378906 98.582031 208.480469 98.519531 208.480469 98.355469 C 208.480469 98.105469 208.292969 97.917969 208.023438 97.917969 C 207.773438 97.917969 207.566406 98.144531 207.566406 98.417969 C 207.566406 98.832031 207.980469 99.144531 208.523438 99.144531 C 209.605469 99.144531 210.417969 97.980469 210.917969 95.75 L 211.792969 91.917969 L 213.085938 91.917969 L 213.148438 91.519531 L 211.878906 91.519531 C 212.210938 89.625 212.667969 88.792969 213.335938 88.792969 C 213.503906 88.792969 213.585938 88.855469 213.585938 88.957031 C 213.585938 89.0625 213.480469 89.125 213.480469 89.3125 C 213.480469 89.605469 213.710938 89.792969 213.917969 89.792969 C 214.191406 89.792969 214.417969 89.542969 214.417969 89.269531 C 214.417969 88.832031 213.980469 88.519531 213.398438 88.519531 C 212.667969 88.519531 212.167969 88.9375 211.816406 89.457031 C 211.417969 90.019531 211.210938 90.6875 210.941406 91.519531 Z M 209.835938 91.519531 "/>
<path style=" stroke:none;fill-rule:nonzero;fill:rgb(0%,0%,0%);fill-opacity:1;" d="M 213.152344 96.582031 C 213.484375 96 213.859375 95.730469 214.359375 95.730469 C 214.878906 95.730469 215.214844 96.019531 215.214844 96.5625 C 215.214844 97.042969 214.964844 97.394531 214.566406 97.625 C 214.402344 97.730469 214.191406 97.8125 213.902344 97.917969 L 213.902344 98.019531 C 214.359375 98.019531 214.527344 98.042969 214.714844 98.105469 C 215.253906 98.269531 215.546875 98.667969 215.546875 99.269531 C 215.546875 99.9375 215.089844 100.5 214.503906 100.5 C 214.277344 100.5 214.109375 100.457031 213.816406 100.25 C 213.589844 100.082031 213.464844 100.042969 213.316406 100.042969 C 213.152344 100.042969 213.003906 100.144531 213.003906 100.3125 C 213.003906 100.605469 213.316406 100.769531 213.902344 100.769531 C 214.609375 100.769531 215.359375 100.542969 215.753906 100.042969 C 215.984375 99.730469 216.128906 99.332031 216.128906 98.917969 C 216.128906 98.5 215.984375 98.125 215.777344 97.875 C 215.609375 97.707031 215.464844 97.605469 215.109375 97.457031 C 215.628906 97.144531 215.839844 96.730469 215.839844 96.355469 C 215.839844 95.707031 215.339844 95.25 214.609375 95.25 C 213.777344 95.25 213.253906 95.792969 213.027344 96.5625 Z M 213.152344 96.582031 "/>
<path style=" stroke:none;fill-rule:nonzero;fill:rgb(0%,0%,0%);fill-opacity:1;" d="M 220.316406 98.605469 C 218.628906 97.1875 218.277344 95.832031 218.277344 93.605469 C 218.277344 91.292969 218.652344 90.167969 220.316406 88.75 L 220.214844 88.5625 C 218.296875 89.6875 217.253906 91.417969 217.253906 93.644531 C 217.253906 95.6875 218.277344 97.707031 220.171875 98.792969 Z M 220.316406 98.605469 "/>
<path style=" stroke:none;fill-rule:nonzero;fill:rgb(0%,0%,0%);fill-opacity:1;" d="M 226.480469 96.667969 L 226.480469 96.375 C 226.292969 96.3125 226.210938 96.269531 226.125 96.144531 L 224.335938 93.394531 L 225.542969 91.894531 C 225.773438 91.625 226.023438 91.480469 226.398438 91.417969 L 226.398438 91.125 L 224.375 91.125 L 224.375 91.417969 L 224.625 91.4375 C 224.898438 91.480469 224.980469 91.519531 224.980469 91.707031 C 224.980469 91.894531 224.855469 92.0625 224.523438 92.480469 L 224.105469 93.019531 C 224.042969 92.957031 224 92.894531 223.9375 92.832031 C 223.542969 92.3125 223.25 91.8125 223.25 91.644531 C 223.25 91.5 223.417969 91.4375 223.8125 91.417969 L 223.8125 91.125 L 220.8125 91.125 L 220.8125 91.417969 C 221.125 91.480469 221.1875 91.519531 221.4375 91.894531 L 222.980469 94.25 C 222.792969 94.480469 222.898438 94.355469 222.710938 94.582031 L 222.1875 95.269531 C 221.523438 96.167969 221.273438 96.355469 220.835938 96.375 L 220.835938 96.667969 L 222.855469 96.667969 L 222.855469 96.375 C 222.4375 96.355469 222.273438 96.269531 222.273438 96.082031 C 222.273438 95.894531 222.5625 95.417969 223.023438 94.855469 C 223.105469 94.769531 223.167969 94.6875 223.230469 94.625 C 223.375 94.875 223.542969 95.125 223.730469 95.375 C 224.023438 95.792969 224.125 96 224.125 96.144531 C 224.125 96.292969 223.960938 96.355469 223.585938 96.375 L 223.585938 96.667969 Z M 226.480469 96.667969 "/>
<path style=" stroke:none;fill-rule:nonzero;fill:rgb(0%,0%,0%);fill-opacity:1;" d="M 227.023438 88.75 C 228.75 90.125 229.0625 91.5 229.0625 93.730469 C 229.0625 96.0625 228.710938 97.1875 227.023438 98.605469 L 227.125 98.792969 C 229.023438 97.625 230.085938 95.917969 230.085938 93.707031 C 230.085938 91.667969 229 89.667969 227.167969 88.5625 Z M 227.023438 88.75 "/>
<path style="fill:none;stroke-width:1;stroke-linecap:round;stroke-linejoin:round;stroke:rgb(0%,0%,0%);stroke-opacity:1;stroke-miterlimit:10;" d="M 227.999023 30.000977 L 257.999023 30.000977 L 257.999023 60.000977 L 227.999023 60.000977 Z M 227.999023 30.000977 " transform="matrix(1.333333,0,0,1.333333,-38.666667,34.666667)"/>
<path style=" stroke:none;fill-rule:nonzero;fill:rgb(0%,0%,0%);fill-opacity:1;" d="M 275.167969 91.519531 L 275.085938 91.917969 L 276.167969 91.917969 L 275.105469 96.957031 C 274.835938 98.25 274.460938 98.894531 273.941406 98.894531 C 273.816406 98.894531 273.710938 98.8125 273.710938 98.707031 C 273.710938 98.582031 273.816406 98.519531 273.816406 98.355469 C 273.816406 98.105469 273.628906 97.917969 273.355469 97.917969 C 273.105469 97.917969 272.898438 98.144531 272.898438 98.417969 C 272.898438 98.832031 273.316406 99.144531 273.855469 99.144531 C 274.941406 99.144531 275.753906 97.980469 276.253906 95.75 L 277.128906 91.917969 L 278.417969 91.917969 L 278.480469 91.519531 L 277.210938 91.519531 C 277.542969 89.625 278.003906 88.792969 278.667969 88.792969 C 278.835938 88.792969 278.917969 88.855469 278.917969 88.957031 C 278.917969 89.0625 278.816406 89.125 278.816406 89.3125 C 278.816406 89.605469 279.042969 89.792969 279.253906 89.792969 C 279.523438 89.792969 279.753906 89.542969 279.753906 89.269531 C 279.753906 88.832031 279.316406 88.519531 278.730469 88.519531 C 278.003906 88.519531 277.503906 88.9375 277.148438 89.457031 C 276.753906 90.019531 276.542969 90.6875 276.273438 91.519531 Z M 275.167969 91.519531 "/>
<path style=" stroke:none;fill-rule:nonzero;fill:rgb(0%,0%,0%);fill-opacity:1;" d="M 281.796875 99.332031 L 281.796875 98.8125 L 280.964844 98.8125 L 280.964844 95.25 L 280.609375 95.25 L 278.109375 98.8125 L 278.109375 99.332031 L 280.339844 99.332031 L 280.339844 100.667969 L 280.964844 100.667969 L 280.964844 99.332031 Z M 280.339844 98.8125 L 278.421875 98.8125 L 280.339844 96.082031 Z M 280.339844 98.8125 "/>
<path style=" stroke:none;fill-rule:nonzero;fill:rgb(0%,0%,0%);fill-opacity:1;" d="M 285.652344 98.605469 C 283.964844 97.1875 283.609375 95.832031 283.609375 93.605469 C 283.609375 91.292969 283.984375 90.167969 285.652344 88.75 L 285.546875 88.5625 C 283.628906 89.6875 282.589844 91.417969 282.589844 93.644531 C 282.589844 95.6875 283.609375 97.707031 285.503906 98.792969 Z M 285.652344 98.605469 "/>
<path style=" stroke:none;fill-rule:nonzero;fill:rgb(0%,0%,0%);fill-opacity:1;" d="M 291.8125 96.667969 L 291.8125 96.375 C 291.625 96.3125 291.542969 96.269531 291.460938 96.144531 L 289.667969 93.394531 L 290.875 91.894531 C 291.105469 91.625 291.355469 91.480469 291.730469 91.417969 L 291.730469 91.125 L 289.710938 91.125 L 289.710938 91.417969 L 289.960938 91.4375 C 290.230469 91.480469 290.3125 91.519531 290.3125 91.707031 C 290.3125 91.894531 290.1875 92.0625 289.855469 92.480469 L 289.4375 93.019531 C 289.375 92.957031 289.335938 92.894531 289.273438 92.832031 C 288.875 92.3125 288.585938 91.8125 288.585938 91.644531 C 288.585938 91.5 288.75 91.4375 289.148438 91.417969 L 289.148438 91.125 L 286.148438 91.125 L 286.148438 91.417969 C 286.460938 91.480469 286.523438 91.519531 286.773438 91.894531 L 288.3125 94.25 C 288.125 94.480469 288.230469 94.355469 288.042969 94.582031 L 287.523438 95.269531 C 286.855469 96.167969 286.605469 96.355469 286.167969 96.375 L 286.167969 96.667969 L 288.1875 96.667969 L 288.1875 96.375 C 287.773438 96.355469 287.605469 96.269531 287.605469 96.082031 C 287.605469 95.894531 287.898438 95.417969 288.355469 94.855469 C 288.4375 94.769531 288.5 94.6875 288.5625 94.625 C 288.710938 94.875 288.875 95.125 289.0625 95.375 C 289.355469 95.792969 289.460938 96 289.460938 96.144531 C 289.460938 96.292969 289.292969 96.355469 288.917969 96.375 L 288.917969 96.667969 Z M 291.8125 96.667969 "/>
<path style=" stroke:none;fill-rule:nonzero;fill:rgb(0%,0%,0%);fill-opacity:1;" d="M 292.355469 88.75 C 294.085938 90.125 294.398438 91.5 294.398438 93.730469 C 294.398438 96.0625 294.042969 97.1875 292.355469 98.605469 L 292.460938 98.792969 C 294.355469 97.625 295.417969 95.917969 295.417969 93.707031 C 295.417969 91.667969 294.335938 89.667969 292.5 88.5625 Z M 292.355469 88.75 "/>
<path style="fill:none;stroke-width:1;stroke-linecap:round;stroke-linejoin:miter;stroke:rgb(0%,0%,0%);stroke-opacity:1;stroke-miterlimit:10;" d="M 59.999023 45.000977 L 74.102539 45.000977 " transform="matrix(1.333333,0,0,1.333333,-38.666667,34.666667)"/>
<path style="fill:none;stroke-width:1;stroke-linecap:butt;stroke-linejoin:miter;stroke:rgb(0%,0%,0%);stroke-opacity:1;stroke-miterlimit:10;" d="M 78.101562 45.000977 L 74.102539 45.000977 M 74.102539 43.500977 L 78.101562 45.000977 L 74.102539 46.500977 " transform="matrix(1.333333,0,0,1.333333,-38.666667,34.666667)"/>
<path style="fill:none;stroke-width:1;stroke-linecap:round;stroke-linejoin:miter;stroke:rgb(0%,0%,0%);stroke-opacity:1;stroke-miterlimit:10;" d="M 110 45.000977 L 124.100586 45.000977 " transform="matrix(1.333333,0,0,1.333333,-38.666667,34.666667)"/>
<path style="fill:none;stroke-width:1;stroke-linecap:butt;stroke-linejoin:miter;stroke:rgb(0%,0%,0%);stroke-opacity:1;stroke-miterlimit:10;" d="M 128.102539 45.000977 L 124.100586 45.000977 M 124.100586 43.500977 L 128.102539 45.000977 L 124.100586 46.500977 " transform="matrix(1.333333,0,0,1.333333,-38.666667,34.666667)"/>
<path style="fill:none;stroke-width:1;stroke-linecap:round;stroke-linejoin:miter;stroke:rgb(0%,0%,0%);stroke-opacity:1;stroke-miterlimit:10;" d="M 160.000977 45.000977 L 173.102539 45.000977 " transform="matrix(1.333333,0,0,1.333333,-38.666667,34.666667)"/>
<path style="fill:none;stroke-width:1;stroke-linecap:butt;stroke-linejoin:miter;stroke:rgb(0%,0%,0%);stroke-opacity:1;stroke-miterlimit:10;" d="M 177.101562 45.000977 L 173.102539 45.000977 M 173.102539 43.500977 L 177.101562 45.000977 L 173.102539 46.500977 " transform="matrix(1.333333,0,0,1.333333,-38.666667,34.666667)"/>
<path style="fill:none;stroke-width:1;stroke-linecap:round;stroke-linejoin:miter;stroke:rgb(0%,0%,0%);stroke-opacity:1;stroke-miterlimit:10;" d="M 209 45.000977 L 222.101562 45.000977 " transform="matrix(1.333333,0,0,1.333333,-38.666667,34.666667)"/>
<path style="fill:none;stroke-width:1;stroke-linecap:butt;stroke-linejoin:miter;stroke:rgb(0%,0%,0%);stroke-opacity:1;stroke-miterlimit:10;" d="M 226.100586 45.000977 L 222.101562 45.000977 M 222.101562 43.500977 L 226.100586 45.000977 L 222.101562 46.500977 " transform="matrix(1.333333,0,0,1.333333,-38.666667,34.666667)"/>
<path style="fill:none;stroke-width:1;stroke-linecap:round;stroke-linejoin:miter;stroke:rgb(0%,0%,0%);stroke-opacity:1;stroke-miterlimit:10;" d="M 59.999023 36.897461 L 94.967773 18.012695 C 96.848633 16.999023 99.12207 17.057617 100.941406 18.167969 L 124.961914 32.795898 " transform="matrix(1.333333,0,0,1.333333,-38.666667,34.666667)"/>
<path style="fill:none;stroke-width:1;stroke-linecap:butt;stroke-linejoin:miter;stroke:rgb(0%,0%,0%);stroke-opacity:1;stroke-miterlimit:10;" d="M 128.37793 34.875977 L 124.961914 32.795898 M 125.741211 31.515625 L 128.37793 34.875977 L 124.179687 34.079102 " transform="matrix(1.333333,0,0,1.333333,-38.666667,34.666667)"/>
<path style="fill:none;stroke-width:1;stroke-linecap:round;stroke-linejoin:miter;stroke:rgb(0%,0%,0%);stroke-opacity:1;stroke-miterlimit:10;" d="M 110 36.915039 L 135.995117 22.899414 M 146.336914 20.816406 L 173.738281 34.717773 " transform="matrix(1.333333,0,0,1.333333,-38.666667,34.666667)"/>
<path style="fill:none;stroke-width:1;stroke-linecap:butt;stroke-linejoin:miter;stroke:rgb(0%,0%,0%);stroke-opacity:1;stroke-miterlimit:10;" d="M 177.303711 36.53125 L 173.738281 34.717773 M 174.417969 33.381836 L 177.303711 36.53125 L 173.058594 36.05957 " transform="matrix(1.333333,0,0,1.333333,-38.666667,34.666667)"/>
<path style="fill:none;stroke-width:1;stroke-linecap:round;stroke-linejoin:miter;stroke:rgb(0%,0%,0%);stroke-opacity:1;stroke-miterlimit:10;" d="M 160.000977 37.114258 L 168.78125 32.49707 M 178.516602 27.375977 L 190.499023 21.071289 C 192.22168 20.163086 194.28125 20.151367 196.018555 21.036133 L 222.746094 34.667969 " transform="matrix(1.333333,0,0,1.333333,-38.666667,34.666667)"/>
<path style="fill:none;stroke-width:1;stroke-linecap:butt;stroke-linejoin:miter;stroke:rgb(0%,0%,0%);stroke-opacity:1;stroke-miterlimit:10;" d="M 226.308594 36.484375 L 222.746094 34.667969 M 223.425781 33.332031 L 226.308594 36.484375 L 222.063477 36.003906 " transform="matrix(1.333333,0,0,1.333333,-38.666667,34.666667)"/>
<path style="fill:none;stroke-width:1;stroke-linecap:round;stroke-linejoin:miter;stroke:rgb(0%,0%,0%);stroke-opacity:1;stroke-miterlimit:10;" d="M 59.999023 36.639648 L 126.620117 -0.491211 C 128.676758 -1.636719 131.213867 -1.472656 133.109375 -0.0751953 L 147.907227 10.878906 M 156.746094 17.426758 L 174.256836 30.387695 " transform="matrix(1.333333,0,0,1.333333,-38.666667,34.666667)"/>
<path style="fill:none;stroke-width:1;stroke-linecap:butt;stroke-linejoin:miter;stroke:rgb(0%,0%,0%);stroke-opacity:1;stroke-miterlimit:10;" d="M 177.473633 32.766602 L 174.256836 30.387695 M 175.147461 29.180664 L 177.473633 32.766602 L 173.366211 31.594727 " transform="matrix(1.333333,0,0,1.333333,-38.666667,34.666667)"/>
<path style="fill:none;stroke-width:1;stroke-linecap:round;stroke-linejoin:miter;stroke:rgb(0%,0%,0%);stroke-opacity:1;stroke-miterlimit:10;" d="M 110 36.929688 L 170.714844 4.257812 C 172.592773 3.24707 174.87207 3.308594 176.691406 4.424805 L 222.96875 32.743164 " transform="matrix(1.333333,0,0,1.333333,-38.666667,34.666667)"/>
<path style="fill:none;stroke-width:1;stroke-linecap:butt;stroke-linejoin:miter;stroke:rgb(0%,0%,0%);stroke-opacity:1;stroke-miterlimit:10;" d="M 226.378906 34.829102 L 222.96875 32.743164 M 223.750977 31.459961 L 226.378906 34.829102 L 222.183594 34.020508 " transform="matrix(1.333333,0,0,1.333333,-38.666667,34.666667)"/>
<path style="fill:none;stroke-width:1;stroke-linecap:round;stroke-linejoin:miter;stroke:rgb(0%,0%,0%);stroke-opacity:1;stroke-miterlimit:10;" d="M 59.999023 36.604492 L 152.679687 -15.265625 C 154.707031 -16.402344 157.206055 -16.261719 159.098633 -14.914062 L 223.200195 30.859375 " transform="matrix(1.333333,0,0,1.333333,-38.666667,34.666667)"/>
<path style="fill:none;stroke-width:1;stroke-linecap:butt;stroke-linejoin:miter;stroke:rgb(0%,0%,0%);stroke-opacity:1;stroke-miterlimit:10;" d="M 226.452148 33.182617 L 223.200195 30.859375 M 224.070312 29.640625 L 226.452148 33.182617 L 222.327148 32.081055 " transform="matrix(1.333333,0,0,1.333333,-38.666667,34.666667)"/>
<path style=" stroke:none;fill-rule:nonzero;fill:rgb(0%,0%,0%);fill-opacity:1;" d="M 317.128906 95.199219 L 317.128906 93.992188 L 318.335938 93.992188 L 318.335938 95.199219 Z M 321.128906 95.199219 L 321.128906 93.992188 L 322.335938 93.992188 L 322.335938 95.199219 Z M 325.128906 95.199219 L 325.128906 93.992188 L 326.335938 93.992188 L 326.335938 95.199219 Z M 325.128906 95.199219 "/>
</g>
</svg>
