<?xml version="1.0" encoding="UTF-8"?>
<svg xmlns="http://www.w3.org/2000/svg" xmlns:xlink="http://www.w3.org/1999/xlink" width="236" height="122.666667" viewBox="0 0 236 122.666667" version="1.1">
<g id="surface1">
<path style="fill:none;stroke-width:1;stroke-linecap:round;stroke-linejoin:round;stroke:rgb(0%,0%,0%);stroke-opacity:1;stroke-miterlimit:10;" d="M 103.500977 184.499023 L 166.500977 184.499023 L 166.500977 202.499023 L 103.500977 202.499023 Z M 103.500977 184.499023 " transform="matrix(1.333333,0,0,1.333333,-137.333333,-202.666667)"/>
<path style=" stroke:none;fill-rule:nonzero;fill:rgb(0%,0%,0%);fill-opacity:1;" d="M 39.539062 59.136719 L 39.539062 50.554688 L 42.769531 50.554688 C 43.417969 50.554688 43.941406 50.648438 44.332031 50.824219 C 44.730469 50.992188 45.042969 51.257812 45.269531 51.617188 C 45.503906 51.980469 45.621094 52.355469 45.621094 52.742188 C 45.621094 53.117188 45.519531 53.464844 45.308594 53.78125 C 45.113281 54.105469 44.816406 54.367188 44.414062 54.574219 C 44.925781 54.730469 45.320312 54.984375 45.601562 55.34375 C 45.894531 55.710938 46.039062 56.136719 46.039062 56.636719 C 46.039062 57.042969 45.945312 57.417969 45.769531 57.761719 C 45.601562 58.109375 45.394531 58.382812 45.144531 58.574219 C 44.894531 58.757812 44.582031 58.898438 44.207031 58.992188 C 43.832031 59.089844 43.363281 59.136719 42.808594 59.136719 Z M 40.683594 54.15625 L 42.539062 54.15625 C 43.039062 54.15625 43.398438 54.125 43.621094 54.054688 C 43.914062 53.96875 44.128906 53.835938 44.269531 53.636719 C 44.417969 53.429688 44.496094 53.179688 44.496094 52.886719 C 44.496094 52.59375 44.425781 52.34375 44.289062 52.136719 C 44.148438 51.917969 43.957031 51.761719 43.707031 51.679688 C 43.457031 51.59375 43.019531 51.554688 42.394531 51.554688 L 40.683594 51.554688 Z M 40.683594 58.117188 L 42.808594 58.117188 C 43.183594 58.117188 43.445312 58.105469 43.601562 58.074219 C 43.851562 58.03125 44.066406 57.960938 44.246094 57.84375 C 44.425781 57.734375 44.570312 57.574219 44.683594 57.367188 C 44.792969 57.15625 44.851562 56.917969 44.851562 56.636719 C 44.851562 56.320312 44.769531 56.042969 44.601562 55.804688 C 44.433594 55.570312 44.207031 55.40625 43.914062 55.324219 C 43.621094 55.230469 43.207031 55.179688 42.664062 55.179688 L 40.683594 55.179688 Z M 40.683594 58.117188 "/>
<path style="fill-rule:nonzero;fill:rgb(69.803923%,85.09804%,100%);fill-opacity:1;stroke-width:1;stroke-linecap:round;stroke-linejoin:round;stroke:rgb(0%,0%,0%);stroke-opacity:1;stroke-miterlimit:10;" d="M 103.500977 224.999023 L 166.500977 224.999023 L 166.500977 242.999023 L 103.500977 242.999023 Z M 103.500977 224.999023 " transform="matrix(1.333333,0,0,1.333333,-137.333333,-202.666667)"/>
<path style=" stroke:none;fill-rule:nonzero;fill:rgb(0%,0%,0%);fill-opacity:1;" d="M 38.644531 113.136719 L 41.957031 104.554688 L 43.164062 104.554688 L 46.683594 113.136719 L 45.394531 113.136719 L 44.394531 110.53125 L 40.789062 110.53125 L 39.851562 113.136719 Z M 41.121094 109.617188 L 44.039062 109.617188 L 43.144531 107.21875 C 42.863281 106.5 42.664062 105.90625 42.539062 105.449219 C 42.425781 106.007812 42.269531 106.554688 42.058594 107.09375 Z M 41.121094 109.617188 "/>
<path style="fill-rule:nonzero;fill:rgb(40.000001%,74.901962%,100%);fill-opacity:1;stroke-width:1;stroke-linecap:round;stroke-linejoin:round;stroke:rgb(0%,0%,0%);stroke-opacity:1;stroke-miterlimit:10;" d="M 140.075195 154.976562 C 142.711914 157.613281 142.711914 161.887695 140.075195 164.524414 C 137.438477 167.161133 133.164062 167.161133 130.527344 164.524414 C 127.893555 161.887695 127.893555 157.613281 130.527344 154.976562 C 133.164062 152.339844 137.438477 152.339844 140.075195 154.976562 " transform="matrix(1.333333,0,0,1.333333,-137.333333,-202.666667)"/>
<path style=" stroke:none;fill-rule:nonzero;fill:rgb(0%,0%,0%);fill-opacity:1;" d="M 42.566406 12.742188 L 42.566406 10.386719 L 40.230469 10.386719 L 40.230469 9.40625 L 42.566406 9.40625 L 42.566406 7.074219 L 43.566406 7.074219 L 43.566406 9.40625 L 45.898438 9.40625 L 45.898438 10.386719 L 43.566406 10.386719 L 43.566406 12.742188 Z M 42.566406 12.742188 "/>
<path style="fill:none;stroke-width:1;stroke-linecap:round;stroke-linejoin:round;stroke:rgb(0%,0%,0%);stroke-opacity:1;stroke-miterlimit:10;" d="M 135.000977 224.999023 L 135.000977 208.399414 " transform="matrix(1.333333,0,0,1.333333,-137.333333,-202.666667)"/>
<path style="fill:none;stroke-width:1;stroke-linecap:butt;stroke-linejoin:miter;stroke:rgb(0%,0%,0%);stroke-opacity:1;stroke-miterlimit:10;" d="M 135.000977 204.397461 L 135.000977 208.399414 M 133.500977 208.399414 L 135.000977 204.397461 L 136.500977 208.399414 " transform="matrix(1.333333,0,0,1.333333,-137.333333,-202.666667)"/>
<path style="fill:none;stroke-width:1;stroke-linecap:round;stroke-linejoin:round;stroke:rgb(0%,0%,0%);stroke-opacity:1;stroke-miterlimit:10;" d="M 135.083008 184.499023 L 135.188477 172.399414 " transform="matrix(1.333333,0,0,1.333333,-137.333333,-202.666667)"/>
<path style="fill:none;stroke-width:1;stroke-linecap:butt;stroke-linejoin:miter;stroke:rgb(0%,0%,0%);stroke-opacity:1;stroke-miterlimit:10;" d="M 135.223633 168.397461 L 135.188477 172.399414 M 133.688477 172.387695 L 135.223633 168.397461 L 136.688477 172.414062 " transform="matrix(1.333333,0,0,1.333333,-137.333333,-202.666667)"/>
<path style="fill:none;stroke-width:1;stroke-linecap:round;stroke-linejoin:round;stroke:rgb(0%,0%,0%);stroke-opacity:1;stroke-miterlimit:10;" d="M 135.000977 217.083008 L 172.500977 217.083008 C 174.15625 217.083008 175.500977 215.738281 175.500977 214.083008 L 175.500977 162.749023 C 175.500977 161.09375 174.15625 159.749023 172.500977 159.749023 L 147.953125 159.749023 " transform="matrix(1.333333,0,0,1.333333,-137.333333,-202.666667)"/>
<path style="fill:none;stroke-width:1;stroke-linecap:butt;stroke-linejoin:miter;stroke:rgb(0%,0%,0%);stroke-opacity:1;stroke-miterlimit:10;" d="M 143.954102 159.749023 L 147.953125 159.749023 M 147.953125 161.249023 L 143.954102 159.749023 L 147.953125 158.249023 " transform="matrix(1.333333,0,0,1.333333,-137.333333,-202.666667)"/>
<path style="fill:none;stroke-width:1;stroke-linecap:round;stroke-linejoin:round;stroke:rgb(0%,0%,0%);stroke-opacity:1;stroke-miterlimit:10;" d="M 207.000977 184.499023 L 270.000977 184.499023 L 270.000977 202.499023 L 207.000977 202.499023 Z M 207.000977 184.499023 " transform="matrix(1.333333,0,0,1.333333,-137.333333,-202.666667)"/>
<path style=" stroke:none;fill-rule:nonzero;fill:rgb(0%,0%,0%);fill-opacity:1;" d="M 177.539062 59.136719 L 177.539062 50.554688 L 180.769531 50.554688 C 181.417969 50.554688 181.941406 50.648438 182.332031 50.824219 C 182.730469 50.992188 183.042969 51.257812 183.269531 51.617188 C 183.503906 51.980469 183.621094 52.355469 183.621094 52.742188 C 183.621094 53.117188 183.519531 53.464844 183.308594 53.78125 C 183.113281 54.105469 182.816406 54.367188 182.414062 54.574219 C 182.925781 54.730469 183.320312 54.984375 183.601562 55.34375 C 183.894531 55.710938 184.039062 56.136719 184.039062 56.636719 C 184.039062 57.042969 183.945312 57.417969 183.769531 57.761719 C 183.601562 58.109375 183.394531 58.382812 183.144531 58.574219 C 182.894531 58.757812 182.582031 58.898438 182.207031 58.992188 C 181.832031 59.089844 181.363281 59.136719 180.808594 59.136719 Z M 178.683594 54.15625 L 180.539062 54.15625 C 181.039062 54.15625 181.398438 54.125 181.621094 54.054688 C 181.914062 53.96875 182.128906 53.835938 182.269531 53.636719 C 182.417969 53.429688 182.496094 53.179688 182.496094 52.886719 C 182.496094 52.59375 182.425781 52.34375 182.289062 52.136719 C 182.148438 51.917969 181.957031 51.761719 181.707031 51.679688 C 181.457031 51.59375 181.019531 51.554688 180.394531 51.554688 L 178.683594 51.554688 Z M 178.683594 58.117188 L 180.808594 58.117188 C 181.183594 58.117188 181.445312 58.105469 181.601562 58.074219 C 181.851562 58.03125 182.066406 57.960938 182.246094 57.84375 C 182.425781 57.734375 182.570312 57.574219 182.683594 57.367188 C 182.792969 57.15625 182.851562 56.917969 182.851562 56.636719 C 182.851562 56.320312 182.769531 56.042969 182.601562 55.804688 C 182.433594 55.570312 182.207031 55.40625 181.914062 55.324219 C 181.621094 55.230469 181.207031 55.179688 180.664062 55.179688 L 178.683594 55.179688 Z M 178.683594 58.117188 "/>
<path style="fill-rule:nonzero;fill:rgb(69.803923%,85.09804%,100%);fill-opacity:1;stroke-width:1;stroke-linecap:round;stroke-linejoin:round;stroke:rgb(0%,0%,0%);stroke-opacity:1;stroke-miterlimit:10;" d="M 207.000977 224.999023 L 270.000977 224.999023 L 270.000977 242.999023 L 207.000977 242.999023 Z M 207.000977 224.999023 " transform="matrix(1.333333,0,0,1.333333,-137.333333,-202.666667)"/>
<path style=" stroke:none;fill-rule:nonzero;fill:rgb(0%,0%,0%);fill-opacity:1;" d="M 176.644531 113.136719 L 179.957031 104.554688 L 181.164062 104.554688 L 184.683594 113.136719 L 183.394531 113.136719 L 182.394531 110.53125 L 178.789062 110.53125 L 177.851562 113.136719 Z M 179.121094 109.617188 L 182.039062 109.617188 L 181.144531 107.21875 C 180.863281 106.5 180.664062 105.90625 180.539062 105.449219 C 180.425781 106.007812 180.269531 106.554688 180.058594 107.09375 Z M 179.121094 109.617188 "/>
<path style="fill-rule:nonzero;fill:rgb(40.000001%,74.901962%,100%);fill-opacity:1;stroke-width:1;stroke-linecap:round;stroke-linejoin:round;stroke:rgb(0%,0%,0%);stroke-opacity:1;stroke-miterlimit:10;" d="M 230.708008 152.999023 L 248.242188 152.999023 C 250.316406 152.999023 252.000977 156.022461 252.000977 159.749023 C 252.000977 163.475586 250.316406 166.499023 248.242188 166.499023 L 230.708008 166.499023 C 228.633789 166.499023 226.949219 163.475586 226.949219 159.749023 C 226.949219 156.022461 228.633789 152.999023 230.708008 152.999023 Z M 230.708008 152.999023 " transform="matrix(1.333333,0,0,1.333333,-137.333333,-202.666667)"/>
<path style=" stroke:none;fill-rule:nonzero;fill:rgb(0%,0%,0%);fill-opacity:1;" d="M 174.441406 16.511719 L 174.441406 5.554688 L 176.777344 5.554688 L 176.777344 6.429688 L 175.503906 6.429688 L 175.503906 15.65625 L 176.777344 15.65625 L 176.777344 16.511719 Z M 174.441406 16.511719 "/>
<path style=" stroke:none;fill-rule:nonzero;fill:rgb(0%,0%,0%);fill-opacity:1;" d="M 181.359375 14.136719 L 181.359375 12.929688 L 182.570312 12.929688 L 182.570312 14.136719 C 182.570312 14.578125 182.484375 14.933594 182.320312 15.199219 C 182.164062 15.476562 181.921875 15.6875 181.589844 15.84375 L 181.296875 15.386719 C 181.515625 15.289062 181.679688 15.140625 181.777344 14.949219 C 181.886719 14.765625 181.949219 14.496094 181.964844 14.136719 Z M 181.359375 14.136719 "/>
<path style=" stroke:none;fill-rule:nonzero;fill:rgb(0%,0%,0%);fill-opacity:1;" d="M 189.527344 16.511719 L 187.195312 16.511719 L 187.195312 15.65625 L 188.464844 15.65625 L 188.464844 6.429688 L 187.195312 6.429688 L 187.195312 5.554688 L 189.527344 5.554688 Z M 189.527344 16.511719 "/>
<path style="fill:none;stroke-width:1;stroke-linecap:round;stroke-linejoin:round;stroke:rgb(0%,0%,0%);stroke-opacity:1;stroke-miterlimit:10;" d="M 238.500977 224.999023 L 238.500977 208.399414 " transform="matrix(1.333333,0,0,1.333333,-137.333333,-202.666667)"/>
<path style="fill:none;stroke-width:1;stroke-linecap:butt;stroke-linejoin:miter;stroke:rgb(0%,0%,0%);stroke-opacity:1;stroke-miterlimit:10;" d="M 238.500977 204.397461 L 238.500977 208.399414 M 237.000977 208.399414 L 238.500977 204.397461 L 240.000977 208.399414 " transform="matrix(1.333333,0,0,1.333333,-137.333333,-202.666667)"/>
<path style="fill:none;stroke-width:1;stroke-linecap:round;stroke-linejoin:round;stroke:rgb(0%,0%,0%);stroke-opacity:1;stroke-miterlimit:10;" d="M 238.758789 184.499023 L 239.110352 172.399414 " transform="matrix(1.333333,0,0,1.333333,-137.333333,-202.666667)"/>
<path style="fill:none;stroke-width:1;stroke-linecap:butt;stroke-linejoin:miter;stroke:rgb(0%,0%,0%);stroke-opacity:1;stroke-miterlimit:10;" d="M 239.22168 168.397461 L 239.110352 172.399414 M 237.610352 172.355469 L 239.22168 168.397461 L 240.610352 172.44043 " transform="matrix(1.333333,0,0,1.333333,-137.333333,-202.666667)"/>
<path style="fill:none;stroke-width:1;stroke-linecap:round;stroke-linejoin:round;stroke:rgb(0%,0%,0%);stroke-opacity:1;stroke-miterlimit:10;" d="M 238.500977 216.666992 L 276.000977 216.666992 C 277.65625 216.666992 279.000977 215.325195 279.000977 213.666992 L 279.000977 162.749023 C 279.000977 161.09375 277.65625 159.749023 276.000977 159.749023 L 257.898438 159.749023 " transform="matrix(1.333333,0,0,1.333333,-137.333333,-202.666667)"/>
<path style="fill:none;stroke-width:1;stroke-linecap:butt;stroke-linejoin:miter;stroke:rgb(0%,0%,0%);stroke-opacity:1;stroke-miterlimit:10;" d="M 253.899414 159.749023 L 257.898438 159.749023 M 257.898438 161.249023 L 253.899414 159.749023 L 257.898438 158.249023 " transform="matrix(1.333333,0,0,1.333333,-137.333333,-202.666667)"/>
</g>
</svg>
