<?xml version="1.0" encoding="UTF-8"?>
<svg xmlns="http://www.w3.org/2000/svg" xmlns:xlink="http://www.w3.org/1999/xlink" width="360" height="134.666667" viewBox="0 0 360 134.666667" version="1.1">
<g id="surface1">
<path style=" stroke:none;fill-rule:nonzero;fill:rgb(40.000001%,74.901962%,100%);fill-opacity:1;" d="M 73.332031 109.332031 L 97.332031 109.332031 L 97.332031 85.332031 L 73.332031 85.332031 Z M 73.332031 109.332031 "/>
<path style="fill:none;stroke-width:1;stroke-linecap:round;stroke-linejoin:round;stroke:rgb(0%,0%,0%);stroke-opacity:1;stroke-miterlimit:10;" d="M 62.999023 107.999023 L 80.999023 107.999023 L 80.999023 125.999023 L 62.999023 125.999023 Z M 62.999023 107.999023 " transform="matrix(1.333333,0,0,1.333333,-10.666667,-58.666667)"/>
<path style=" stroke:none;fill-rule:nonzero;fill:rgb(100%,100%,100%);fill-opacity:1;" d="M 73.332031 61.332031 L 97.332031 61.332031 L 97.332031 37.332031 L 73.332031 37.332031 Z M 73.332031 61.332031 "/>
<path style="fill:none;stroke-width:1;stroke-linecap:round;stroke-linejoin:round;stroke:rgb(0%,0%,0%);stroke-opacity:1;stroke-miterlimit:10;" d="M 62.999023 71.999023 L 80.999023 71.999023 L 80.999023 89.999023 L 62.999023 89.999023 Z M 62.999023 71.999023 " transform="matrix(1.333333,0,0,1.333333,-10.666667,-58.666667)"/>
<path style=" stroke:none;fill-rule:nonzero;fill:rgb(100%,100%,100%);fill-opacity:1;" d="M 73.332031 85.332031 L 97.332031 85.332031 L 97.332031 61.332031 L 73.332031 61.332031 Z M 73.332031 85.332031 "/>
<path style="fill:none;stroke-width:1;stroke-linecap:round;stroke-linejoin:round;stroke:rgb(0%,0%,0%);stroke-opacity:1;stroke-miterlimit:10;" d="M 62.999023 89.999023 L 80.999023 89.999023 L 80.999023 107.999023 L 62.999023 107.999023 Z M 62.999023 89.999023 " transform="matrix(1.333333,0,0,1.333333,-10.666667,-58.666667)"/>
<path style=" stroke:none;fill-rule:nonzero;fill:rgb(100%,100%,100%);fill-opacity:1;" d="M 25.332031 109.332031 L 49.332031 109.332031 L 49.332031 85.332031 L 25.332031 85.332031 Z M 25.332031 109.332031 "/>
<path style="fill:none;stroke-width:1;stroke-linecap:round;stroke-linejoin:round;stroke:rgb(0%,0%,0%);stroke-opacity:1;stroke-miterlimit:10;" d="M 26.999023 107.999023 L 44.999023 107.999023 L 44.999023 125.999023 L 26.999023 125.999023 Z M 26.999023 107.999023 " transform="matrix(1.333333,0,0,1.333333,-10.666667,-58.666667)"/>
<path style=" stroke:none;fill-rule:nonzero;fill:rgb(100%,100%,100%);fill-opacity:1;" d="M 49.332031 109.332031 L 73.332031 109.332031 L 73.332031 85.332031 L 49.332031 85.332031 Z M 49.332031 109.332031 "/>
<path style="fill:none;stroke-width:1;stroke-linecap:round;stroke-linejoin:round;stroke:rgb(0%,0%,0%);stroke-opacity:1;stroke-miterlimit:10;" d="M 44.999023 107.999023 L 62.999023 107.999023 L 62.999023 125.999023 L 44.999023 125.999023 Z M 44.999023 107.999023 " transform="matrix(1.333333,0,0,1.333333,-10.666667,-58.666667)"/>
<path style=" stroke:none;fill-rule:nonzero;fill:rgb(69.803923%,85.09804%,100%);fill-opacity:1;" d="M 25.332031 61.332031 L 49.332031 61.332031 L 49.332031 37.332031 L 25.332031 37.332031 Z M 25.332031 61.332031 "/>
<path style="fill:none;stroke-width:1;stroke-linecap:round;stroke-linejoin:round;stroke:rgb(0%,0%,0%);stroke-opacity:1;stroke-miterlimit:10;" d="M 26.999023 71.999023 L 44.999023 71.999023 L 44.999023 89.999023 L 26.999023 89.999023 Z M 26.999023 71.999023 " transform="matrix(1.333333,0,0,1.333333,-10.666667,-58.666667)"/>
<path style=" stroke:none;fill-rule:nonzero;fill:rgb(100%,100%,100%);fill-opacity:1;" d="M 25.332031 85.332031 L 49.332031 85.332031 L 49.332031 61.332031 L 25.332031 61.332031 Z M 25.332031 85.332031 "/>
<path style="fill:none;stroke-width:1;stroke-linecap:round;stroke-linejoin:round;stroke:rgb(0%,0%,0%);stroke-opacity:1;stroke-miterlimit:10;" d="M 26.999023 89.999023 L 44.999023 89.999023 L 44.999023 107.999023 L 26.999023 107.999023 Z M 26.999023 89.999023 " transform="matrix(1.333333,0,0,1.333333,-10.666667,-58.666667)"/>
<path style=" stroke:none;fill-rule:nonzero;fill:rgb(100%,100%,100%);fill-opacity:1;" d="M 49.332031 61.332031 L 73.332031 61.332031 L 73.332031 37.332031 L 49.332031 37.332031 Z M 49.332031 61.332031 "/>
<path style="fill:none;stroke-width:1;stroke-linecap:round;stroke-linejoin:round;stroke:rgb(0%,0%,0%);stroke-opacity:1;stroke-miterlimit:10;" d="M 44.999023 71.999023 L 62.999023 71.999023 L 62.999023 89.999023 L 44.999023 89.999023 Z M 44.999023 71.999023 " transform="matrix(1.333333,0,0,1.333333,-10.666667,-58.666667)"/>
<path style=" stroke:none;fill-rule:nonzero;fill:rgb(100%,100%,100%);fill-opacity:1;" d="M 49.332031 85.332031 L 73.332031 85.332031 L 73.332031 61.332031 L 49.332031 61.332031 Z M 49.332031 85.332031 "/>
<path style="fill:none;stroke-width:1;stroke-linecap:round;stroke-linejoin:round;stroke:rgb(0%,0%,0%);stroke-opacity:1;stroke-miterlimit:10;" d="M 44.999023 89.999023 L 62.999023 89.999023 L 62.999023 107.999023 L 44.999023 107.999023 Z M 44.999023 89.999023 " transform="matrix(1.333333,0,0,1.333333,-10.666667,-58.666667)"/>
<path style=" stroke:none;fill-rule:nonzero;fill:rgb(40.000001%,74.901962%,100%);fill-opacity:1;" d="M 61.332031 121.332031 L 85.332031 121.332031 L 85.332031 97.332031 L 61.332031 97.332031 Z M 61.332031 121.332031 "/>
<path style="fill:none;stroke-width:1;stroke-linecap:round;stroke-linejoin:round;stroke:rgb(0%,0%,0%);stroke-opacity:1;stroke-miterlimit:10;" d="M 53.999023 116.999023 L 71.999023 116.999023 L 71.999023 134.999023 L 53.999023 134.999023 Z M 53.999023 116.999023 " transform="matrix(1.333333,0,0,1.333333,-10.666667,-58.666667)"/>
<path style=" stroke:none;fill-rule:nonzero;fill:rgb(100%,100%,100%);fill-opacity:1;" d="M 61.332031 73.332031 L 85.332031 73.332031 L 85.332031 49.332031 L 61.332031 49.332031 Z M 61.332031 73.332031 "/>
<path style="fill:none;stroke-width:1;stroke-linecap:round;stroke-linejoin:round;stroke:rgb(0%,0%,0%);stroke-opacity:1;stroke-miterlimit:10;" d="M 53.999023 80.999023 L 71.999023 80.999023 L 71.999023 98.999023 L 53.999023 98.999023 Z M 53.999023 80.999023 " transform="matrix(1.333333,0,0,1.333333,-10.666667,-58.666667)"/>
<path style=" stroke:none;fill-rule:nonzero;fill:rgb(100%,100%,100%);fill-opacity:1;" d="M 61.332031 97.332031 L 85.332031 97.332031 L 85.332031 73.332031 L 61.332031 73.332031 Z M 61.332031 97.332031 "/>
<path style="fill:none;stroke-width:1;stroke-linecap:round;stroke-linejoin:round;stroke:rgb(0%,0%,0%);stroke-opacity:1;stroke-miterlimit:10;" d="M 53.999023 98.999023 L 71.999023 98.999023 L 71.999023 116.999023 L 53.999023 116.999023 Z M 53.999023 98.999023 " transform="matrix(1.333333,0,0,1.333333,-10.666667,-58.666667)"/>
<path style=" stroke:none;fill-rule:nonzero;fill:rgb(100%,100%,100%);fill-opacity:1;" d="M 13.332031 121.332031 L 37.332031 121.332031 L 37.332031 97.332031 L 13.332031 97.332031 Z M 13.332031 121.332031 "/>
<path style="fill:none;stroke-width:1;stroke-linecap:round;stroke-linejoin:round;stroke:rgb(0%,0%,0%);stroke-opacity:1;stroke-miterlimit:10;" d="M 17.999023 116.999023 L 35.999023 116.999023 L 35.999023 134.999023 L 17.999023 134.999023 Z M 17.999023 116.999023 " transform="matrix(1.333333,0,0,1.333333,-10.666667,-58.666667)"/>
<path style=" stroke:none;fill-rule:nonzero;fill:rgb(100%,100%,100%);fill-opacity:1;" d="M 37.332031 121.332031 L 61.332031 121.332031 L 61.332031 97.332031 L 37.332031 97.332031 Z M 37.332031 121.332031 "/>
<path style="fill:none;stroke-width:1;stroke-linecap:round;stroke-linejoin:round;stroke:rgb(0%,0%,0%);stroke-opacity:1;stroke-miterlimit:10;" d="M 35.999023 116.999023 L 53.999023 116.999023 L 53.999023 134.999023 L 35.999023 134.999023 Z M 35.999023 116.999023 " transform="matrix(1.333333,0,0,1.333333,-10.666667,-58.666667)"/>
<path style=" stroke:none;fill-rule:nonzero;fill:rgb(69.803923%,85.09804%,100%);fill-opacity:1;" d="M 13.332031 73.332031 L 37.332031 73.332031 L 37.332031 49.332031 L 13.332031 49.332031 Z M 13.332031 73.332031 "/>
<path style="fill:none;stroke-width:1;stroke-linecap:round;stroke-linejoin:round;stroke:rgb(0%,0%,0%);stroke-opacity:1;stroke-miterlimit:10;" d="M 17.999023 80.999023 L 35.999023 80.999023 L 35.999023 98.999023 L 17.999023 98.999023 Z M 17.999023 80.999023 " transform="matrix(1.333333,0,0,1.333333,-10.666667,-58.666667)"/>
<path style=" stroke:none;fill-rule:nonzero;fill:rgb(100%,100%,100%);fill-opacity:1;" d="M 13.332031 97.332031 L 37.332031 97.332031 L 37.332031 73.332031 L 13.332031 73.332031 Z M 13.332031 97.332031 "/>
<path style="fill:none;stroke-width:1;stroke-linecap:round;stroke-linejoin:round;stroke:rgb(0%,0%,0%);stroke-opacity:1;stroke-miterlimit:10;" d="M 17.999023 98.999023 L 35.999023 98.999023 L 35.999023 116.999023 L 17.999023 116.999023 Z M 17.999023 98.999023 " transform="matrix(1.333333,0,0,1.333333,-10.666667,-58.666667)"/>
<path style=" stroke:none;fill-rule:nonzero;fill:rgb(100%,100%,100%);fill-opacity:1;" d="M 37.332031 73.332031 L 61.332031 73.332031 L 61.332031 49.332031 L 37.332031 49.332031 Z M 37.332031 73.332031 "/>
<path style="fill:none;stroke-width:1;stroke-linecap:round;stroke-linejoin:round;stroke:rgb(0%,0%,0%);stroke-opacity:1;stroke-miterlimit:10;" d="M 35.999023 80.999023 L 53.999023 80.999023 L 53.999023 98.999023 L 35.999023 98.999023 Z M 35.999023 80.999023 " transform="matrix(1.333333,0,0,1.333333,-10.666667,-58.666667)"/>
<path style=" stroke:none;fill-rule:nonzero;fill:rgb(100%,100%,100%);fill-opacity:1;" d="M 37.332031 97.332031 L 61.332031 97.332031 L 61.332031 73.332031 L 37.332031 73.332031 Z M 37.332031 97.332031 "/>
<path style="fill:none;stroke-width:1;stroke-linecap:round;stroke-linejoin:round;stroke:rgb(0%,0%,0%);stroke-opacity:1;stroke-miterlimit:10;" d="M 35.999023 98.999023 L 53.999023 98.999023 L 53.999023 116.999023 L 35.999023 116.999023 Z M 35.999023 98.999023 " transform="matrix(1.333333,0,0,1.333333,-10.666667,-58.666667)"/>
<path style=" stroke:none;fill-rule:nonzero;fill:rgb(0%,0%,0%);fill-opacity:1;" d="M 307.519531 13.542969 L 307.519531 15.3125 L 306.332031 15.3125 C 306.621094 14.542969 306.914062 13.667969 307.164062 12.6875 L 309.476562 12.6875 L 309.476562 11.875 L 307.371094 11.875 C 307.476562 11.394531 307.582031 10.875 307.707031 10.332031 L 306.914062 10.167969 C 306.789062 10.75 306.683594 11.332031 306.558594 11.875 L 305.371094 11.875 L 305.371094 12.6875 L 306.371094 12.6875 C 306.101562 13.75 305.808594 14.667969 305.457031 15.375 L 305.644531 16.105469 L 307.519531 16.105469 L 307.519531 17.894531 C 306.808594 18.019531 306.082031 18.144531 305.289062 18.230469 L 305.394531 19.082031 C 306.121094 18.957031 306.832031 18.855469 307.519531 18.707031 L 307.519531 21.207031 L 308.308594 21.207031 L 308.308594 18.542969 L 309.457031 18.25 L 309.457031 17.4375 C 309.101562 17.519531 308.726562 17.625 308.308594 17.730469 L 308.308594 16.105469 L 309.414062 16.105469 L 309.414062 15.3125 L 308.308594 15.3125 L 308.308594 13.542969 Z M 311.058594 12.917969 L 311.058594 13.625 L 314.496094 13.625 L 314.496094 12.917969 L 311.058594 12.917969 C 311.664062 12.332031 312.246094 11.6875 312.808594 11 C 313.726562 12.167969 314.746094 13.167969 315.871094 13.980469 L 316.332031 13.3125 C 315.246094 12.542969 314.183594 11.519531 313.121094 10.230469 L 312.519531 10.230469 C 311.539062 11.417969 310.433594 12.480469 309.207031 13.375 L 309.683594 14.105469 C 310.144531 13.730469 310.601562 13.332031 311.058594 12.917969 Z M 311.894531 21.125 C 312.476562 21.125 312.789062 20.8125 312.789062 20.1875 L 312.789062 14.582031 L 309.957031 14.582031 L 309.957031 21.207031 L 310.707031 21.207031 L 310.707031 18.957031 L 312.058594 18.957031 L 312.058594 20.042969 C 312.058594 20.292969 311.914062 20.4375 311.664062 20.4375 L 311.121094 20.417969 L 311.308594 21.125 Z M 310.707031 18.292969 L 310.707031 17.144531 L 312.058594 17.144531 L 312.058594 18.292969 Z M 310.707031 16.480469 L 310.707031 15.292969 L 312.058594 15.292969 L 312.058594 16.480469 Z M 313.496094 14.917969 L 313.496094 19.230469 L 314.183594 19.230469 L 314.183594 14.917969 Z M 314.808594 21.144531 C 315.394531 21.144531 315.683594 20.792969 315.683594 20.105469 L 315.683594 14.375 L 314.933594 14.375 L 314.933594 19.917969 C 314.933594 20.25 314.808594 20.4375 314.539062 20.4375 C 314.246094 20.4375 313.933594 20.417969 313.621094 20.375 L 313.789062 21.144531 Z M 314.808594 21.144531 "/>
<path style=" stroke:none;fill-rule:nonzero;fill:rgb(0%,0%,0%);fill-opacity:1;" d="M 326.019531 14.375 L 323.207031 14.375 L 323.207031 10.1875 L 322.332031 10.1875 L 322.332031 14.375 L 319.519531 14.375 L 319.519531 11.105469 L 318.644531 11.105469 L 318.644531 15.207031 L 322.332031 15.207031 L 322.332031 19.625 L 318.933594 19.625 L 318.933594 16.332031 L 318.058594 16.332031 L 318.058594 21.125 L 318.933594 21.125 L 318.933594 20.4375 L 326.601562 20.4375 L 326.601562 21.125 L 327.476562 21.125 L 327.476562 16.332031 L 326.601562 16.332031 L 326.601562 19.625 L 323.207031 19.625 L 323.207031 15.207031 L 326.894531 15.207031 L 326.894531 11.105469 L 326.019531 11.105469 Z M 326.019531 14.375 "/>
<path style=" stroke:none;fill-rule:nonzero;fill:rgb(0%,0%,0%);fill-opacity:1;" d="M 178.382812 15.082031 C 178.757812 15.605469 179.171875 16.292969 179.652344 17.125 L 180.132812 16.394531 C 179.546875 15.5625 178.964844 14.8125 178.382812 14.144531 L 178.382812 13.375 L 179.796875 13.375 L 179.796875 12.542969 L 178.382812 12.542969 L 178.382812 10.207031 L 177.570312 10.207031 L 177.570312 12.542969 L 175.902344 12.542969 L 175.902344 13.375 L 177.527344 13.375 C 177.171875 14.957031 176.546875 16.375 175.695312 17.625 L 176.070312 18.5 C 176.671875 17.519531 177.171875 16.417969 177.570312 15.1875 L 177.570312 21.207031 L 178.382812 21.207031 Z M 180.109375 11.519531 L 180.109375 12.292969 L 182.421875 12.292969 C 181.671875 13.605469 181.046875 14.417969 180.570312 14.730469 C 180.527344 14.75 180.484375 14.769531 180.402344 14.792969 L 180.589844 15.5 C 181.527344 15.457031 182.421875 15.417969 183.277344 15.375 C 182.296875 16.480469 181.070312 17.269531 179.632812 17.792969 L 180.089844 18.519531 C 182.421875 17.644531 184.171875 16.019531 185.382812 13.644531 L 184.671875 13.269531 C 184.445312 13.75 184.152344 14.1875 183.839844 14.625 C 183.109375 14.6875 182.339844 14.730469 181.589844 14.769531 C 182.089844 14.292969 182.652344 13.457031 183.320312 12.292969 L 186.609375 12.292969 L 186.609375 11.519531 L 183.945312 11.519531 C 183.777344 11.019531 183.589844 10.5625 183.421875 10.1875 L 182.527344 10.332031 C 182.734375 10.6875 182.945312 11.082031 183.109375 11.519531 Z M 183.945312 18.769531 C 184.839844 19.605469 185.546875 20.394531 186.070312 21.144531 L 186.695312 20.519531 C 186.089844 19.75 185.339844 19 184.484375 18.230469 C 185.257812 17.4375 185.945312 16.5 186.527344 15.4375 L 185.796875 15.042969 C 184.382812 17.667969 182.277344 19.457031 179.464844 20.375 L 179.921875 21.125 C 181.464844 20.582031 182.796875 19.792969 183.945312 18.769531 Z M 183.945312 18.769531 "/>
<path style=" stroke:none;fill-rule:nonzero;fill:rgb(0%,0%,0%);fill-opacity:1;" d="M 189.796875 18.542969 C 190.945312 17.8125 192.027344 16.957031 193.046875 15.980469 L 193.046875 17.832031 C 193.046875 18.230469 192.882812 18.417969 192.546875 18.417969 C 192.195312 18.417969 191.859375 18.394531 191.546875 18.394531 L 191.777344 19.1875 L 192.859375 19.1875 C 193.507812 19.1875 193.839844 18.832031 193.839844 18.144531 L 193.839844 16.125 C 194.570312 16.6875 195.464844 17.457031 196.507812 18.480469 L 197.007812 17.730469 C 195.921875 16.792969 194.882812 15.980469 193.839844 15.25 L 193.839844 13.417969 C 195.027344 12.769531 196.089844 12.125 197.046875 11.457031 L 197.046875 10.644531 L 189.609375 10.644531 L 189.609375 11.457031 L 195.757812 11.457031 C 195.152344 11.855469 194.257812 12.355469 193.046875 12.9375 L 193.046875 15 C 191.902344 16.082031 190.734375 16.980469 189.484375 17.6875 Z M 197.257812 12.832031 L 197.257812 19.75 L 189.257812 19.75 L 189.257812 12.832031 L 188.421875 12.832031 L 188.421875 21.207031 L 189.257812 21.207031 L 189.257812 20.542969 L 197.257812 20.542969 L 197.257812 21.230469 L 198.089844 21.230469 L 198.089844 12.832031 Z M 190.546875 13.207031 L 189.921875 13.605469 C 190.609375 14.269531 191.171875 14.855469 191.589844 15.417969 L 192.257812 14.957031 C 191.859375 14.457031 191.296875 13.875 190.546875 13.207031 Z M 196.007812 13.125 C 195.570312 13.855469 195.007812 14.5 194.382812 15.019531 L 195.007812 15.457031 C 195.652344 14.894531 196.234375 14.230469 196.714844 13.457031 Z M 196.007812 13.125 "/>
<path style=" stroke:none;fill-rule:nonzero;fill:rgb(0%,0%,0%);fill-opacity:1;" d="M 207.152344 12.855469 L 208.921875 12.855469 C 208.882812 14.480469 208.632812 15.894531 208.152344 17.105469 C 207.671875 16.105469 207.296875 14.894531 207.007812 13.480469 Z M 207.757812 17.980469 C 207.214844 19 206.484375 19.8125 205.546875 20.457031 L 205.984375 21.1875 C 206.882812 20.542969 207.632812 19.730469 208.214844 18.769531 C 208.796875 19.792969 209.527344 20.605469 210.359375 21.207031 L 210.839844 20.5 C 209.964844 19.894531 209.234375 19.082031 208.609375 18 C 209.296875 16.582031 209.652344 14.855469 209.714844 12.855469 L 210.507812 12.855469 L 210.507812 12.042969 L 207.339844 12.042969 C 207.421875 11.5 207.527344 10.9375 207.589844 10.3125 L 206.757812 10.167969 C 206.507812 12.457031 206.027344 14.269531 205.320312 15.605469 L 205.859375 16.269531 C 206.109375 15.832031 206.359375 15.355469 206.570312 14.792969 C 206.902344 16 207.296875 17.042969 207.757812 17.980469 Z M 202.070312 15.769531 C 201.984375 16.019531 201.902344 16.269531 201.796875 16.542969 L 200.027344 16.542969 L 200.027344 17.292969 L 201.445312 17.292969 C 201.214844 17.769531 200.945312 18.25 200.632812 18.792969 C 201.214844 19 201.757812 19.230469 202.296875 19.457031 C 201.589844 19.855469 200.734375 20.1875 199.757812 20.4375 L 200.171875 21.167969 C 201.359375 20.832031 202.359375 20.375 203.152344 19.832031 C 203.859375 20.144531 204.484375 20.457031 205.007812 20.769531 L 205.464844 20.105469 C 204.945312 19.8125 204.402344 19.5625 203.820312 19.292969 C 204.445312 18.707031 204.882812 18.042969 205.152344 17.25 L 205.152344 16.542969 L 202.632812 16.542969 C 202.714844 16.3125 202.796875 16.105469 202.882812 15.875 Z M 203.027344 18.957031 C 202.589844 18.769531 202.132812 18.605469 201.652344 18.4375 C 201.902344 18.082031 202.109375 17.6875 202.296875 17.292969 L 204.359375 17.292969 C 204.089844 17.917969 203.632812 18.480469 203.027344 18.957031 Z M 200.984375 10.417969 L 200.296875 10.644531 C 200.589844 11.105469 200.859375 11.625 201.109375 12.207031 L 201.734375 11.917969 C 201.507812 11.394531 201.277344 10.894531 200.984375 10.417969 Z M 204.632812 10.394531 C 204.421875 10.894531 204.109375 11.394531 203.714844 11.917969 L 204.339844 12.230469 C 204.714844 11.730469 205.007812 11.207031 205.257812 10.667969 Z M 200.070312 12.5 L 200.070312 13.25 L 201.757812 13.25 C 201.402344 13.917969 200.757812 14.519531 199.839844 15.0625 L 200.257812 15.75 C 201.277344 15.0625 202.007812 14.25 202.402344 13.292969 L 202.402344 15.5625 L 203.214844 15.5625 L 203.214844 14.019531 C 203.632812 14.292969 204.152344 14.6875 204.757812 15.167969 L 205.195312 14.5 C 204.527344 14.082031 203.859375 13.707031 203.214844 13.394531 L 203.214844 13.25 L 205.382812 13.25 L 205.382812 12.5 L 203.214844 12.5 L 203.214844 10.207031 L 202.402344 10.207031 L 202.402344 12.5 Z M 200.070312 12.5 "/>
<path style=" stroke:none;fill-rule:nonzero;fill:rgb(0%,0%,0%);fill-opacity:1;" d="M 45.417969 13.542969 L 45.417969 15.3125 L 44.230469 15.3125 C 44.519531 14.542969 44.8125 13.667969 45.0625 12.6875 L 47.375 12.6875 L 47.375 11.875 L 45.269531 11.875 C 45.375 11.394531 45.480469 10.875 45.605469 10.332031 L 44.8125 10.167969 C 44.6875 10.75 44.582031 11.332031 44.457031 11.875 L 43.269531 11.875 L 43.269531 12.6875 L 44.269531 12.6875 C 44 13.75 43.707031 14.667969 43.355469 15.375 L 43.542969 16.105469 L 45.417969 16.105469 L 45.417969 17.894531 C 44.707031 18.019531 43.980469 18.144531 43.1875 18.230469 L 43.292969 19.082031 C 44.019531 18.957031 44.730469 18.855469 45.417969 18.707031 L 45.417969 21.207031 L 46.207031 21.207031 L 46.207031 18.542969 L 47.355469 18.25 L 47.355469 17.4375 C 47 17.519531 46.625 17.625 46.207031 17.730469 L 46.207031 16.105469 L 47.3125 16.105469 L 47.3125 15.3125 L 46.207031 15.3125 L 46.207031 13.542969 Z M 48.957031 12.917969 L 48.957031 13.625 L 52.394531 13.625 L 52.394531 12.917969 L 48.957031 12.917969 C 49.5625 12.332031 50.144531 11.6875 50.707031 11 C 51.625 12.167969 52.644531 13.167969 53.769531 13.980469 L 54.230469 13.3125 C 53.144531 12.542969 52.082031 11.519531 51.019531 10.230469 L 50.417969 10.230469 C 49.4375 11.417969 48.332031 12.480469 47.105469 13.375 L 47.582031 14.105469 C 48.042969 13.730469 48.5 13.332031 48.957031 12.917969 Z M 49.792969 21.125 C 50.375 21.125 50.6875 20.8125 50.6875 20.1875 L 50.6875 14.582031 L 47.855469 14.582031 L 47.855469 21.207031 L 48.605469 21.207031 L 48.605469 18.957031 L 49.957031 18.957031 L 49.957031 20.042969 C 49.957031 20.292969 49.8125 20.4375 49.5625 20.4375 L 49.019531 20.417969 L 49.207031 21.125 Z M 48.605469 18.292969 L 48.605469 17.144531 L 49.957031 17.144531 L 49.957031 18.292969 Z M 48.605469 16.480469 L 48.605469 15.292969 L 49.957031 15.292969 L 49.957031 16.480469 Z M 51.394531 14.917969 L 51.394531 19.230469 L 52.082031 19.230469 L 52.082031 14.917969 Z M 52.707031 21.144531 C 53.292969 21.144531 53.582031 20.792969 53.582031 20.105469 L 53.582031 14.375 L 52.832031 14.375 L 52.832031 19.917969 C 52.832031 20.25 52.707031 20.4375 52.4375 20.4375 C 52.144531 20.4375 51.832031 20.417969 51.519531 20.375 L 51.6875 21.144531 Z M 52.707031 21.144531 "/>
<path style=" stroke:none;fill-rule:nonzero;fill:rgb(0%,0%,0%);fill-opacity:1;" d="M 60.144531 12.980469 C 59.375 16.167969 57.707031 18.625 55.125 20.292969 L 55.644531 21.042969 C 58.167969 19.394531 59.832031 17.042969 60.625 13.980469 C 60.6875 14.125 60.730469 14.292969 60.8125 14.5 C 62.042969 17.667969 63.625 19.855469 65.582031 21.019531 L 66.125 20.332031 C 64.207031 19.144531 62.707031 17.105469 61.582031 14.25 C 60.855469 12.292969 59.9375 10.9375 58.875 10.1875 L 58.167969 10.644531 C 58.917969 11.207031 59.582031 11.980469 60.144531 12.980469 Z M 60.144531 12.980469 "/>
<path style=" stroke:none;fill-rule:nonzero;fill:rgb(40.000001%,74.901962%,100%);fill-opacity:1;" d="M 49.332031 133.332031 L 73.332031 133.332031 L 73.332031 109.332031 L 49.332031 109.332031 Z M 49.332031 133.332031 "/>
<path style="fill:none;stroke-width:1;stroke-linecap:round;stroke-linejoin:round;stroke:rgb(0%,0%,0%);stroke-opacity:1;stroke-miterlimit:10;" d="M 44.999023 125.999023 L 62.999023 125.999023 L 62.999023 143.999023 L 44.999023 143.999023 Z M 44.999023 125.999023 " transform="matrix(1.333333,0,0,1.333333,-10.666667,-58.666667)"/>
<path style=" stroke:none;fill-rule:nonzero;fill:rgb(100%,100%,100%);fill-opacity:1;" d="M 49.332031 85.332031 L 73.332031 85.332031 L 73.332031 61.332031 L 49.332031 61.332031 Z M 49.332031 85.332031 "/>
<path style="fill:none;stroke-width:1;stroke-linecap:round;stroke-linejoin:round;stroke:rgb(0%,0%,0%);stroke-opacity:1;stroke-miterlimit:10;" d="M 44.999023 89.999023 L 62.999023 89.999023 L 62.999023 107.999023 L 44.999023 107.999023 Z M 44.999023 89.999023 " transform="matrix(1.333333,0,0,1.333333,-10.666667,-58.666667)"/>
<path style=" stroke:none;fill-rule:nonzero;fill:rgb(100%,100%,100%);fill-opacity:1;" d="M 49.332031 109.332031 L 73.332031 109.332031 L 73.332031 85.332031 L 49.332031 85.332031 Z M 49.332031 109.332031 "/>
<path style="fill:none;stroke-width:1;stroke-linecap:round;stroke-linejoin:round;stroke:rgb(0%,0%,0%);stroke-opacity:1;stroke-miterlimit:10;" d="M 44.999023 107.999023 L 62.999023 107.999023 L 62.999023 125.999023 L 44.999023 125.999023 Z M 44.999023 107.999023 " transform="matrix(1.333333,0,0,1.333333,-10.666667,-58.666667)"/>
<path style=" stroke:none;fill-rule:nonzero;fill:rgb(100%,100%,100%);fill-opacity:1;" d="M 1.332031 133.332031 L 25.332031 133.332031 L 25.332031 109.332031 L 1.332031 109.332031 Z M 1.332031 133.332031 "/>
<path style="fill:none;stroke-width:1;stroke-linecap:round;stroke-linejoin:round;stroke:rgb(0%,0%,0%);stroke-opacity:1;stroke-miterlimit:10;" d="M 8.999023 125.999023 L 26.999023 125.999023 L 26.999023 143.999023 L 8.999023 143.999023 Z M 8.999023 125.999023 " transform="matrix(1.333333,0,0,1.333333,-10.666667,-58.666667)"/>
<path style=" stroke:none;fill-rule:nonzero;fill:rgb(100%,100%,100%);fill-opacity:1;" d="M 25.332031 133.332031 L 49.332031 133.332031 L 49.332031 109.332031 L 25.332031 109.332031 Z M 25.332031 133.332031 "/>
<path style="fill:none;stroke-width:1;stroke-linecap:round;stroke-linejoin:round;stroke:rgb(0%,0%,0%);stroke-opacity:1;stroke-miterlimit:10;" d="M 26.999023 125.999023 L 44.999023 125.999023 L 44.999023 143.999023 L 26.999023 143.999023 Z M 26.999023 125.999023 " transform="matrix(1.333333,0,0,1.333333,-10.666667,-58.666667)"/>
<path style=" stroke:none;fill-rule:nonzero;fill:rgb(69.803923%,85.09804%,100%);fill-opacity:1;" d="M 1.332031 85.332031 L 25.332031 85.332031 L 25.332031 61.332031 L 1.332031 61.332031 Z M 1.332031 85.332031 "/>
<path style="fill:none;stroke-width:1;stroke-linecap:round;stroke-linejoin:round;stroke:rgb(0%,0%,0%);stroke-opacity:1;stroke-miterlimit:10;" d="M 8.999023 89.999023 L 26.999023 89.999023 L 26.999023 107.999023 L 8.999023 107.999023 Z M 8.999023 89.999023 " transform="matrix(1.333333,0,0,1.333333,-10.666667,-58.666667)"/>
<path style=" stroke:none;fill-rule:nonzero;fill:rgb(100%,100%,100%);fill-opacity:1;" d="M 1.332031 109.332031 L 25.332031 109.332031 L 25.332031 85.332031 L 1.332031 85.332031 Z M 1.332031 109.332031 "/>
<path style="fill:none;stroke-width:1;stroke-linecap:round;stroke-linejoin:round;stroke:rgb(0%,0%,0%);stroke-opacity:1;stroke-miterlimit:10;" d="M 8.999023 107.999023 L 26.999023 107.999023 L 26.999023 125.999023 L 8.999023 125.999023 Z M 8.999023 107.999023 " transform="matrix(1.333333,0,0,1.333333,-10.666667,-58.666667)"/>
<path style=" stroke:none;fill-rule:nonzero;fill:rgb(100%,100%,100%);fill-opacity:1;" d="M 25.332031 85.332031 L 49.332031 85.332031 L 49.332031 61.332031 L 25.332031 61.332031 Z M 25.332031 85.332031 "/>
<path style="fill:none;stroke-width:1;stroke-linecap:round;stroke-linejoin:round;stroke:rgb(0%,0%,0%);stroke-opacity:1;stroke-miterlimit:10;" d="M 26.999023 89.999023 L 44.999023 89.999023 L 44.999023 107.999023 L 26.999023 107.999023 Z M 26.999023 89.999023 " transform="matrix(1.333333,0,0,1.333333,-10.666667,-58.666667)"/>
<path style=" stroke:none;fill-rule:nonzero;fill:rgb(100%,100%,100%);fill-opacity:1;" d="M 25.332031 109.332031 L 49.332031 109.332031 L 49.332031 85.332031 L 25.332031 85.332031 Z M 25.332031 109.332031 "/>
<path style="fill:none;stroke-width:1;stroke-linecap:round;stroke-linejoin:round;stroke:rgb(0%,0%,0%);stroke-opacity:1;stroke-miterlimit:10;" d="M 26.999023 107.999023 L 44.999023 107.999023 L 44.999023 125.999023 L 26.999023 125.999023 Z M 26.999023 107.999023 " transform="matrix(1.333333,0,0,1.333333,-10.666667,-58.666667)"/>
<path style=" stroke:none;fill-rule:nonzero;fill:rgb(0%,0%,0%);fill-opacity:1;" d="M 121.921875 83.429688 L 122.460938 81.761719 C 123.695312 82.195312 124.597656 82.570312 125.171875 82.886719 C 125.015625 81.484375 124.941406 80.511719 124.941406 79.96875 L 126.628906 79.96875 C 126.597656 80.75 126.507812 81.71875 126.359375 82.886719 C 127.160156 82.484375 128.085938 82.109375 129.128906 81.761719 L 129.671875 83.429688 C 128.671875 83.75 127.695312 83.964844 126.753906 84.074219 C 127.222656 84.492188 127.898438 85.230469 128.773438 86.28125 L 127.359375 87.28125 C 126.898438 86.671875 126.363281 85.835938 125.753906 84.761719 C 125.171875 85.875 124.660156 86.714844 124.234375 87.28125 L 122.835938 86.28125 C 123.753906 85.171875 124.40625 84.4375 124.796875 84.074219 C 123.78125 83.882812 122.820312 83.667969 121.921875 83.429688 Z M 121.921875 83.429688 "/>
<path style=" stroke:none;fill-rule:nonzero;fill:rgb(0%,0%,0%);fill-opacity:1;" d="M 243.757812 82.835938 L 232.40625 82.835938 L 232.40625 80.878906 L 243.757812 80.878906 Z M 243.757812 88.042969 L 232.40625 88.042969 L 232.40625 86.085938 L 243.757812 86.085938 Z M 243.757812 88.042969 "/>
<path style=" stroke:none;fill-rule:nonzero;fill:rgb(69.803923%,85.09804%,100%);fill-opacity:1;" d="M 177.292969 61.332031 L 201.292969 61.332031 L 201.292969 37.332031 L 177.292969 37.332031 Z M 177.292969 61.332031 "/>
<path style="fill:none;stroke-width:1;stroke-linecap:round;stroke-linejoin:round;stroke:rgb(0%,0%,0%);stroke-opacity:1;stroke-miterlimit:10;" d="M 140.969727 71.999023 L 158.969727 71.999023 L 158.969727 89.999023 L 140.969727 89.999023 Z M 140.969727 71.999023 " transform="matrix(1.333333,0,0,1.333333,-10.666667,-58.666667)"/>
<path style=" stroke:none;fill-rule:nonzero;fill:rgb(69.803923%,85.09804%,100%);fill-opacity:1;" d="M 165.292969 73.332031 L 189.292969 73.332031 L 189.292969 49.332031 L 165.292969 49.332031 Z M 165.292969 73.332031 "/>
<path style="fill:none;stroke-width:1;stroke-linecap:round;stroke-linejoin:round;stroke:rgb(0%,0%,0%);stroke-opacity:1;stroke-miterlimit:10;" d="M 131.969727 80.999023 L 149.969727 80.999023 L 149.969727 98.999023 L 131.969727 98.999023 Z M 131.969727 80.999023 " transform="matrix(1.333333,0,0,1.333333,-10.666667,-58.666667)"/>
<path style=" stroke:none;fill-rule:nonzero;fill:rgb(69.803923%,85.09804%,100%);fill-opacity:1;" d="M 153.292969 85.332031 L 177.292969 85.332031 L 177.292969 61.332031 L 153.292969 61.332031 Z M 153.292969 85.332031 "/>
<path style="fill:none;stroke-width:1;stroke-linecap:round;stroke-linejoin:round;stroke:rgb(0%,0%,0%);stroke-opacity:1;stroke-miterlimit:10;" d="M 122.969727 89.999023 L 140.969727 89.999023 L 140.969727 107.999023 L 122.969727 107.999023 Z M 122.969727 89.999023 " transform="matrix(1.333333,0,0,1.333333,-10.666667,-58.666667)"/>
<path style=" stroke:none;fill-rule:nonzero;fill:rgb(40.000001%,74.901962%,100%);fill-opacity:1;" d="M 177.292969 109.332031 L 201.292969 109.332031 L 201.292969 85.332031 L 177.292969 85.332031 Z M 177.292969 109.332031 "/>
<path style="fill:none;stroke-width:1;stroke-linecap:round;stroke-linejoin:round;stroke:rgb(0%,0%,0%);stroke-opacity:1;stroke-miterlimit:10;" d="M 140.969727 107.999023 L 158.969727 107.999023 L 158.969727 125.999023 L 140.969727 125.999023 Z M 140.969727 107.999023 " transform="matrix(1.333333,0,0,1.333333,-10.666667,-58.666667)"/>
<path style=" stroke:none;fill-rule:nonzero;fill:rgb(40.000001%,74.901962%,100%);fill-opacity:1;" d="M 165.292969 121.332031 L 189.292969 121.332031 L 189.292969 97.332031 L 165.292969 97.332031 Z M 165.292969 121.332031 "/>
<path style="fill:none;stroke-width:1;stroke-linecap:round;stroke-linejoin:round;stroke:rgb(0%,0%,0%);stroke-opacity:1;stroke-miterlimit:10;" d="M 131.969727 116.999023 L 149.969727 116.999023 L 149.969727 134.999023 L 131.969727 134.999023 Z M 131.969727 116.999023 " transform="matrix(1.333333,0,0,1.333333,-10.666667,-58.666667)"/>
<path style=" stroke:none;fill-rule:nonzero;fill:rgb(40.000001%,74.901962%,100%);fill-opacity:1;" d="M 153.292969 133.332031 L 177.292969 133.332031 L 177.292969 109.332031 L 153.292969 109.332031 Z M 153.292969 133.332031 "/>
<path style="fill:none;stroke-width:1;stroke-linecap:round;stroke-linejoin:round;stroke:rgb(0%,0%,0%);stroke-opacity:1;stroke-miterlimit:10;" d="M 122.969727 125.999023 L 140.969727 125.999023 L 140.969727 143.999023 L 122.969727 143.999023 Z M 122.969727 125.999023 " transform="matrix(1.333333,0,0,1.333333,-10.666667,-58.666667)"/>
<path style=" stroke:none;fill-rule:nonzero;fill:rgb(40.000001%,74.901962%,100%);fill-opacity:1;" d="M 334.097656 116.484375 L 358.097656 116.484375 L 358.097656 92.484375 L 334.097656 92.484375 Z M 334.097656 116.484375 "/>
<path style="fill:none;stroke-width:1;stroke-linecap:round;stroke-linejoin:round;stroke:rgb(0%,0%,0%);stroke-opacity:1;stroke-miterlimit:10;" d="M 258.573242 113.363281 L 276.573242 113.363281 L 276.573242 131.363281 L 258.573242 131.363281 Z M 258.573242 113.363281 " transform="matrix(1.333333,0,0,1.333333,-10.666667,-58.666667)"/>
<path style=" stroke:none;fill-rule:nonzero;fill:rgb(100%,100%,100%);fill-opacity:1;" d="M 334.097656 68.484375 L 358.097656 68.484375 L 358.097656 44.484375 L 334.097656 44.484375 Z M 334.097656 68.484375 "/>
<path style="fill:none;stroke-width:1;stroke-linecap:round;stroke-linejoin:round;stroke:rgb(0%,0%,0%);stroke-opacity:1;stroke-miterlimit:10;" d="M 258.573242 77.363281 L 276.573242 77.363281 L 276.573242 95.363281 L 258.573242 95.363281 Z M 258.573242 77.363281 " transform="matrix(1.333333,0,0,1.333333,-10.666667,-58.666667)"/>
<path style=" stroke:none;fill-rule:nonzero;fill:rgb(100%,100%,100%);fill-opacity:1;" d="M 334.097656 92.484375 L 358.097656 92.484375 L 358.097656 68.484375 L 334.097656 68.484375 Z M 334.097656 92.484375 "/>
<path style="fill:none;stroke-width:1;stroke-linecap:round;stroke-linejoin:round;stroke:rgb(0%,0%,0%);stroke-opacity:1;stroke-miterlimit:10;" d="M 258.573242 95.363281 L 276.573242 95.363281 L 276.573242 113.363281 L 258.573242 113.363281 Z M 258.573242 95.363281 " transform="matrix(1.333333,0,0,1.333333,-10.666667,-58.666667)"/>
<path style=" stroke:none;fill-rule:nonzero;fill:rgb(100%,100%,100%);fill-opacity:1;" d="M 286.097656 116.484375 L 310.097656 116.484375 L 310.097656 92.484375 L 286.097656 92.484375 Z M 286.097656 116.484375 "/>
<path style="fill:none;stroke-width:1;stroke-linecap:round;stroke-linejoin:round;stroke:rgb(0%,0%,0%);stroke-opacity:1;stroke-miterlimit:10;" d="M 222.573242 113.363281 L 240.573242 113.363281 L 240.573242 131.363281 L 222.573242 131.363281 Z M 222.573242 113.363281 " transform="matrix(1.333333,0,0,1.333333,-10.666667,-58.666667)"/>
<path style=" stroke:none;fill-rule:nonzero;fill:rgb(100%,100%,100%);fill-opacity:1;" d="M 310.097656 116.484375 L 334.097656 116.484375 L 334.097656 92.484375 L 310.097656 92.484375 Z M 310.097656 116.484375 "/>
<path style="fill:none;stroke-width:1;stroke-linecap:round;stroke-linejoin:round;stroke:rgb(0%,0%,0%);stroke-opacity:1;stroke-miterlimit:10;" d="M 240.573242 113.363281 L 258.573242 113.363281 L 258.573242 131.363281 L 240.573242 131.363281 Z M 240.573242 113.363281 " transform="matrix(1.333333,0,0,1.333333,-10.666667,-58.666667)"/>
<path style=" stroke:none;fill-rule:nonzero;fill:rgb(100%,100%,100%);fill-opacity:1;" d="M 286.097656 68.484375 L 310.097656 68.484375 L 310.097656 44.484375 L 286.097656 44.484375 Z M 286.097656 68.484375 "/>
<path style="fill:none;stroke-width:1;stroke-linecap:round;stroke-linejoin:round;stroke:rgb(0%,0%,0%);stroke-opacity:1;stroke-miterlimit:10;" d="M 222.573242 77.363281 L 240.573242 77.363281 L 240.573242 95.363281 L 222.573242 95.363281 Z M 222.573242 77.363281 " transform="matrix(1.333333,0,0,1.333333,-10.666667,-58.666667)"/>
<path style=" stroke:none;fill-rule:nonzero;fill:rgb(100%,100%,100%);fill-opacity:1;" d="M 286.097656 92.484375 L 310.097656 92.484375 L 310.097656 68.484375 L 286.097656 68.484375 Z M 286.097656 92.484375 "/>
<path style="fill:none;stroke-width:1;stroke-linecap:round;stroke-linejoin:round;stroke:rgb(0%,0%,0%);stroke-opacity:1;stroke-miterlimit:10;" d="M 222.573242 95.363281 L 240.573242 95.363281 L 240.573242 113.363281 L 222.573242 113.363281 Z M 222.573242 95.363281 " transform="matrix(1.333333,0,0,1.333333,-10.666667,-58.666667)"/>
<path style=" stroke:none;fill-rule:nonzero;fill:rgb(100%,100%,100%);fill-opacity:1;" d="M 310.097656 68.484375 L 334.097656 68.484375 L 334.097656 44.484375 L 310.097656 44.484375 Z M 310.097656 68.484375 "/>
<path style="fill:none;stroke-width:1;stroke-linecap:round;stroke-linejoin:round;stroke:rgb(0%,0%,0%);stroke-opacity:1;stroke-miterlimit:10;" d="M 240.573242 77.363281 L 258.573242 77.363281 L 258.573242 95.363281 L 240.573242 95.363281 Z M 240.573242 77.363281 " transform="matrix(1.333333,0,0,1.333333,-10.666667,-58.666667)"/>
<path style=" stroke:none;fill-rule:nonzero;fill:rgb(100%,100%,100%);fill-opacity:1;" d="M 310.097656 92.484375 L 334.097656 92.484375 L 334.097656 68.484375 L 310.097656 68.484375 Z M 310.097656 92.484375 "/>
<path style="fill:none;stroke-width:1;stroke-linecap:round;stroke-linejoin:round;stroke:rgb(0%,0%,0%);stroke-opacity:1;stroke-miterlimit:10;" d="M 240.573242 95.363281 L 258.573242 95.363281 L 258.573242 113.363281 L 240.573242 113.363281 Z M 240.573242 95.363281 " transform="matrix(1.333333,0,0,1.333333,-10.666667,-58.666667)"/>
<path style=" stroke:none;fill-rule:nonzero;fill:rgb(100%,100%,100%);fill-opacity:1;" d="M 322.097656 128.484375 L 346.097656 128.484375 L 346.097656 104.484375 L 322.097656 104.484375 Z M 322.097656 128.484375 "/>
<path style="fill:none;stroke-width:1;stroke-linecap:round;stroke-linejoin:round;stroke:rgb(0%,0%,0%);stroke-opacity:1;stroke-miterlimit:10;" d="M 249.573242 122.363281 L 267.573242 122.363281 L 267.573242 140.363281 L 249.573242 140.363281 Z M 249.573242 122.363281 " transform="matrix(1.333333,0,0,1.333333,-10.666667,-58.666667)"/>
<path style=" stroke:none;fill-rule:nonzero;fill:rgb(100%,100%,100%);fill-opacity:1;" d="M 322.097656 80.484375 L 346.097656 80.484375 L 346.097656 56.484375 L 322.097656 56.484375 Z M 322.097656 80.484375 "/>
<path style="fill:none;stroke-width:1;stroke-linecap:round;stroke-linejoin:round;stroke:rgb(0%,0%,0%);stroke-opacity:1;stroke-miterlimit:10;" d="M 249.573242 86.363281 L 267.573242 86.363281 L 267.573242 104.363281 L 249.573242 104.363281 Z M 249.573242 86.363281 " transform="matrix(1.333333,0,0,1.333333,-10.666667,-58.666667)"/>
<path style=" stroke:none;fill-rule:nonzero;fill:rgb(100%,100%,100%);fill-opacity:1;" d="M 322.097656 104.484375 L 346.097656 104.484375 L 346.097656 80.484375 L 322.097656 80.484375 Z M 322.097656 104.484375 "/>
<path style="fill:none;stroke-width:1;stroke-linecap:round;stroke-linejoin:round;stroke:rgb(0%,0%,0%);stroke-opacity:1;stroke-miterlimit:10;" d="M 249.573242 104.363281 L 267.573242 104.363281 L 267.573242 122.363281 L 249.573242 122.363281 Z M 249.573242 104.363281 " transform="matrix(1.333333,0,0,1.333333,-10.666667,-58.666667)"/>
<path style=" stroke:none;fill-rule:nonzero;fill:rgb(100%,100%,100%);fill-opacity:1;" d="M 274.097656 128.484375 L 298.097656 128.484375 L 298.097656 104.484375 L 274.097656 104.484375 Z M 274.097656 128.484375 "/>
<path style="fill:none;stroke-width:1;stroke-linecap:round;stroke-linejoin:round;stroke:rgb(0%,0%,0%);stroke-opacity:1;stroke-miterlimit:10;" d="M 213.573242 122.363281 L 231.573242 122.363281 L 231.573242 140.363281 L 213.573242 140.363281 Z M 213.573242 122.363281 " transform="matrix(1.333333,0,0,1.333333,-10.666667,-58.666667)"/>
<path style=" stroke:none;fill-rule:nonzero;fill:rgb(100%,100%,100%);fill-opacity:1;" d="M 298.097656 128.484375 L 322.097656 128.484375 L 322.097656 104.484375 L 298.097656 104.484375 Z M 298.097656 128.484375 "/>
<path style="fill:none;stroke-width:1;stroke-linecap:round;stroke-linejoin:round;stroke:rgb(0%,0%,0%);stroke-opacity:1;stroke-miterlimit:10;" d="M 231.573242 122.363281 L 249.573242 122.363281 L 249.573242 140.363281 L 231.573242 140.363281 Z M 231.573242 122.363281 " transform="matrix(1.333333,0,0,1.333333,-10.666667,-58.666667)"/>
<path style=" stroke:none;fill-rule:nonzero;fill:rgb(69.803923%,85.09804%,100%);fill-opacity:1;" d="M 274.097656 80.484375 L 298.097656 80.484375 L 298.097656 56.484375 L 274.097656 56.484375 Z M 274.097656 80.484375 "/>
<path style="fill:none;stroke-width:1;stroke-linecap:round;stroke-linejoin:round;stroke:rgb(0%,0%,0%);stroke-opacity:1;stroke-miterlimit:10;" d="M 213.573242 86.363281 L 231.573242 86.363281 L 231.573242 104.363281 L 213.573242 104.363281 Z M 213.573242 86.363281 " transform="matrix(1.333333,0,0,1.333333,-10.666667,-58.666667)"/>
<path style=" stroke:none;fill-rule:nonzero;fill:rgb(100%,100%,100%);fill-opacity:1;" d="M 274.097656 104.484375 L 298.097656 104.484375 L 298.097656 80.484375 L 274.097656 80.484375 Z M 274.097656 104.484375 "/>
<path style="fill:none;stroke-width:1;stroke-linecap:round;stroke-linejoin:round;stroke:rgb(0%,0%,0%);stroke-opacity:1;stroke-miterlimit:10;" d="M 213.573242 104.363281 L 231.573242 104.363281 L 231.573242 122.363281 L 213.573242 122.363281 Z M 213.573242 104.363281 " transform="matrix(1.333333,0,0,1.333333,-10.666667,-58.666667)"/>
<path style=" stroke:none;fill-rule:nonzero;fill:rgb(100%,100%,100%);fill-opacity:1;" d="M 298.097656 80.484375 L 322.097656 80.484375 L 322.097656 56.484375 L 298.097656 56.484375 Z M 298.097656 80.484375 "/>
<path style="fill:none;stroke-width:1;stroke-linecap:round;stroke-linejoin:round;stroke:rgb(0%,0%,0%);stroke-opacity:1;stroke-miterlimit:10;" d="M 231.573242 86.363281 L 249.573242 86.363281 L 249.573242 104.363281 L 231.573242 104.363281 Z M 231.573242 86.363281 " transform="matrix(1.333333,0,0,1.333333,-10.666667,-58.666667)"/>
<path style=" stroke:none;fill-rule:nonzero;fill:rgb(100%,100%,100%);fill-opacity:1;" d="M 298.097656 104.484375 L 322.097656 104.484375 L 322.097656 80.484375 L 298.097656 80.484375 Z M 298.097656 104.484375 "/>
<path style="fill:none;stroke-width:1;stroke-linecap:round;stroke-linejoin:round;stroke:rgb(0%,0%,0%);stroke-opacity:1;stroke-miterlimit:10;" d="M 231.573242 104.363281 L 249.573242 104.363281 L 249.573242 122.363281 L 231.573242 122.363281 Z M 231.573242 104.363281 " transform="matrix(1.333333,0,0,1.333333,-10.666667,-58.666667)"/>
</g>
</svg>
