<?xml version="1.0" encoding="UTF-8"?>
<svg xmlns="http://www.w3.org/2000/svg" xmlns:xlink="http://www.w3.org/1999/xlink" width="396" height="126.666667" viewBox="0 0 396 126.666667" version="1.1">
<g id="surface1">
<path style="fill-rule:nonzero;fill:rgb(100%,100%,100%);fill-opacity:1;stroke-width:1;stroke-linecap:round;stroke-linejoin:round;stroke:rgb(0%,0%,0%);stroke-opacity:1;stroke-miterlimit:10;" d="M 91.500977 164.000977 L 166.500977 164.000977 L 166.500977 195.500977 L 91.500977 195.500977 Z M 91.500977 164.000977 " transform="matrix(1.333333,0,0,1.333333,-121.333333,-176)"/>
<path style=" stroke:none;fill-rule:nonzero;fill:rgb(0%,0%,0%);fill-opacity:1;" d="M 9.894531 67 L 9.894531 58.417969 L 12.851562 58.417969 C 13.527344 58.417969 14.042969 58.457031 14.394531 58.542969 C 14.878906 58.65625 15.292969 58.855469 15.644531 59.144531 C 16.101562 59.535156 16.441406 60.03125 16.664062 60.625 C 16.882812 61.207031 17 61.890625 17 62.667969 C 17 63.324219 16.917969 63.894531 16.769531 64.394531 C 16.613281 64.894531 16.417969 65.3125 16.1875 65.644531 C 15.945312 65.980469 15.6875 66.246094 15.394531 66.4375 C 15.113281 66.621094 14.773438 66.761719 14.375 66.855469 C 13.980469 66.953125 13.523438 67 13 67 Z M 11.039062 65.980469 L 12.875 65.980469 C 13.441406 65.980469 13.882812 65.933594 14.207031 65.832031 C 14.523438 65.722656 14.777344 65.574219 14.976562 65.375 C 15.238281 65.113281 15.445312 64.75 15.601562 64.292969 C 15.753906 63.832031 15.832031 63.285156 15.832031 62.644531 C 15.832031 61.746094 15.6875 61.058594 15.394531 60.582031 C 15.101562 60.097656 14.738281 59.769531 14.3125 59.605469 C 14.003906 59.480469 13.519531 59.417969 12.851562 59.417969 L 11.039062 59.417969 Z M 11.039062 65.980469 "/>
<path style=" stroke:none;fill-rule:nonzero;fill:rgb(0%,0%,0%);fill-opacity:1;" d="M 22.683594 65 L 23.789062 65.125 C 23.605469 65.765625 23.277344 66.265625 22.808594 66.625 C 22.351562 66.972656 21.757812 67.144531 21.039062 67.144531 C 20.132812 67.144531 19.414062 66.871094 18.871094 66.3125 C 18.339844 65.746094 18.082031 64.953125 18.082031 63.9375 C 18.082031 62.894531 18.351562 62.09375 18.894531 61.519531 C 19.433594 60.9375 20.132812 60.644531 20.996094 60.644531 C 21.832031 60.644531 22.503906 60.933594 23.019531 61.5 C 23.542969 62.058594 23.808594 62.847656 23.808594 63.875 C 23.808594 63.949219 23.808594 64.042969 23.808594 64.167969 L 19.164062 64.167969 C 19.207031 64.847656 19.398438 65.371094 19.746094 65.730469 C 20.089844 66.09375 20.527344 66.269531 21.058594 66.269531 C 21.445312 66.269531 21.773438 66.175781 22.039062 65.980469 C 22.316406 65.769531 22.527344 65.449219 22.683594 65 Z M 19.226562 63.292969 L 22.707031 63.292969 C 22.664062 62.765625 22.527344 62.371094 22.308594 62.105469 C 21.976562 61.703125 21.539062 61.5 20.996094 61.5 C 20.507812 61.5 20.101562 61.667969 19.769531 62 C 19.445312 62.324219 19.269531 62.75 19.226562 63.292969 Z M 19.226562 63.292969 "/>
<path style=" stroke:none;fill-rule:nonzero;fill:rgb(0%,0%,0%);fill-opacity:1;" d="M 24.691406 65.144531 L 25.734375 64.980469 C 25.785156 65.394531 25.949219 65.71875 26.214844 65.9375 C 26.488281 66.160156 26.863281 66.269531 27.339844 66.269531 C 27.824219 66.269531 28.183594 66.175781 28.421875 65.980469 C 28.65625 65.785156 28.777344 65.558594 28.777344 65.292969 C 28.777344 65.042969 28.671875 64.855469 28.464844 64.730469 C 28.308594 64.636719 27.949219 64.511719 27.378906 64.355469 C 26.597656 64.160156 26.058594 63.996094 25.753906 63.855469 C 25.464844 63.71875 25.238281 63.519531 25.089844 63.269531 C 24.933594 63.019531 24.859375 62.746094 24.859375 62.4375 C 24.859375 62.160156 24.921875 61.90625 25.046875 61.667969 C 25.171875 61.433594 25.34375 61.230469 25.566406 61.0625 C 25.734375 60.953125 25.953125 60.855469 26.234375 60.769531 C 26.527344 60.6875 26.828125 60.644531 27.152344 60.644531 C 27.636719 60.644531 28.058594 60.71875 28.421875 60.855469 C 28.796875 60.996094 29.074219 61.183594 29.253906 61.417969 C 29.433594 61.65625 29.558594 61.972656 29.628906 62.375 L 28.589844 62.519531 C 28.546875 62.203125 28.40625 61.953125 28.171875 61.769531 C 27.949219 61.59375 27.636719 61.5 27.234375 61.5 C 26.746094 61.5 26.402344 61.582031 26.191406 61.75 C 25.984375 61.90625 25.878906 62.09375 25.878906 62.3125 C 25.878906 62.453125 25.921875 62.574219 26.003906 62.667969 C 26.089844 62.792969 26.222656 62.890625 26.421875 62.957031 C 26.515625 63 26.824219 63.09375 27.339844 63.230469 C 28.089844 63.425781 28.609375 63.582031 28.902344 63.707031 C 29.203125 63.832031 29.441406 64.019531 29.609375 64.269531 C 29.777344 64.511719 29.859375 64.808594 29.859375 65.167969 C 29.859375 65.53125 29.753906 65.863281 29.546875 66.167969 C 29.339844 66.472656 29.035156 66.71875 28.652344 66.894531 C 28.277344 67.0625 27.839844 67.144531 27.339844 67.144531 C 26.53125 67.144531 25.910156 66.980469 25.484375 66.644531 C 25.066406 66.300781 24.800781 65.800781 24.691406 65.144531 Z M 24.691406 65.144531 "/>
<path style=" stroke:none;fill-rule:nonzero;fill:rgb(0%,0%,0%);fill-opacity:1;" d="M 31.109375 59.625 L 31.109375 58.417969 L 32.171875 58.417969 L 32.171875 59.625 Z M 31.109375 67 L 31.109375 60.769531 L 32.171875 60.769531 L 32.171875 67 Z M 31.109375 67 "/>
<path style=" stroke:none;fill-rule:nonzero;fill:rgb(0%,0%,0%);fill-opacity:1;" d="M 33.589844 67.519531 L 34.609375 67.667969 C 34.652344 67.984375 34.765625 68.214844 34.964844 68.355469 C 35.222656 68.546875 35.589844 68.644531 36.046875 68.644531 C 36.53125 68.644531 36.90625 68.546875 37.171875 68.355469 C 37.433594 68.15625 37.613281 67.886719 37.714844 67.542969 C 37.765625 67.316406 37.785156 66.871094 37.777344 66.1875 C 37.316406 66.730469 36.746094 67 36.066406 67 C 35.203125 67 34.535156 66.699219 34.066406 66.082031 C 33.609375 65.457031 33.378906 64.71875 33.378906 63.855469 C 33.378906 63.261719 33.484375 62.707031 33.691406 62.207031 C 33.910156 61.707031 34.222656 61.328125 34.628906 61.0625 C 35.03125 60.785156 35.511719 60.644531 36.066406 60.644531 C 36.800781 60.644531 37.40625 60.9375 37.878906 61.519531 L 37.878906 60.769531 L 38.859375 60.769531 L 38.859375 66.144531 C 38.859375 67.113281 38.753906 67.800781 38.546875 68.207031 C 38.347656 68.609375 38.035156 68.925781 37.609375 69.167969 C 37.191406 69.402344 36.671875 69.519531 36.046875 69.519531 C 35.296875 69.519531 34.691406 69.355469 34.234375 69.019531 C 33.785156 68.6875 33.574219 68.1875 33.589844 67.519531 Z M 34.464844 63.769531 C 34.464844 64.59375 34.621094 65.1875 34.941406 65.5625 C 35.261719 65.9375 35.660156 66.125 36.152344 66.125 C 36.636719 66.125 37.046875 65.9375 37.378906 65.5625 C 37.714844 65.1875 37.878906 64.605469 37.878906 63.8125 C 37.878906 63.050781 37.703125 62.472656 37.359375 62.082031 C 37.027344 61.699219 36.621094 61.5 36.152344 61.5 C 35.675781 61.5 35.277344 61.699219 34.941406 62.082031 C 34.621094 62.457031 34.464844 63.019531 34.464844 63.769531 Z M 34.464844 63.769531 "/>
<path style=" stroke:none;fill-rule:nonzero;fill:rgb(0%,0%,0%);fill-opacity:1;" d="M 40.449219 67 L 40.449219 60.769531 L 41.410156 60.769531 L 41.410156 61.667969 C 41.851562 60.988281 42.511719 60.644531 43.386719 60.644531 C 43.761719 60.644531 44.101562 60.71875 44.410156 60.855469 C 44.726562 60.980469 44.960938 61.15625 45.117188 61.375 C 45.269531 61.582031 45.378906 61.84375 45.449219 62.144531 C 45.492188 62.34375 45.511719 62.683594 45.511719 63.167969 L 45.511719 67 L 44.449219 67 L 44.449219 63.207031 C 44.449219 62.78125 44.410156 62.457031 44.324219 62.25 C 44.242188 62.042969 44.097656 61.875 43.886719 61.75 C 43.679688 61.613281 43.433594 61.542969 43.160156 61.542969 C 42.710938 61.542969 42.324219 61.6875 41.992188 61.980469 C 41.667969 62.261719 41.511719 62.800781 41.511719 63.605469 L 41.511719 67 Z M 40.449219 67 "/>
<path style=" stroke:none;fill-rule:nonzero;fill:rgb(0%,0%,0%);fill-opacity:1;" d="M 54.519531 66.230469 C 54.128906 66.5625 53.753906 66.800781 53.394531 66.9375 C 53.03125 67.074219 52.644531 67.144531 52.230469 67.144531 C 51.546875 67.144531 51.019531 66.980469 50.644531 66.644531 C 50.28125 66.3125 50.105469 65.886719 50.105469 65.355469 C 50.105469 65.050781 50.171875 64.769531 50.3125 64.519531 C 50.449219 64.269531 50.628906 64.074219 50.855469 63.917969 C 51.074219 63.765625 51.324219 63.644531 51.605469 63.5625 C 51.8125 63.519531 52.125 63.472656 52.542969 63.417969 C 53.402344 63.324219 54.03125 63.199219 54.4375 63.042969 C 54.4375 62.90625 54.4375 62.8125 54.4375 62.769531 C 54.4375 62.34375 54.339844 62.042969 54.144531 61.875 C 53.863281 61.625 53.464844 61.5 52.9375 61.5 C 52.4375 61.5 52.066406 61.59375 51.832031 61.769531 C 51.59375 61.9375 51.421875 62.246094 51.3125 62.6875 L 50.292969 62.5625 C 50.375 62.121094 50.519531 61.765625 50.730469 61.5 C 50.949219 61.222656 51.261719 61.015625 51.667969 60.875 C 52.082031 60.722656 52.550781 60.644531 53.082031 60.644531 C 53.625 60.644531 54.050781 60.707031 54.375 60.832031 C 54.707031 60.957031 54.949219 61.121094 55.105469 61.3125 C 55.269531 61.496094 55.378906 61.730469 55.4375 62.019531 C 55.480469 62.203125 55.5 62.519531 55.5 62.980469 L 55.5 64.394531 C 55.5 65.371094 55.519531 65.988281 55.5625 66.25 C 55.605469 66.515625 55.691406 66.765625 55.832031 67 L 54.730469 67 C 54.613281 66.78125 54.546875 66.519531 54.519531 66.230469 Z M 54.4375 63.875 C 54.046875 64.03125 53.46875 64.160156 52.707031 64.269531 C 52.277344 64.34375 51.96875 64.417969 51.792969 64.5 C 51.609375 64.574219 51.46875 64.683594 51.375 64.832031 C 51.277344 64.988281 51.230469 65.15625 51.230469 65.332031 C 51.230469 65.613281 51.332031 65.847656 51.542969 66.042969 C 51.75 66.222656 52.0625 66.3125 52.480469 66.3125 C 52.878906 66.3125 53.238281 66.222656 53.5625 66.042969 C 53.878906 65.863281 54.113281 65.621094 54.269531 65.3125 C 54.378906 65.078125 54.4375 64.730469 54.4375 64.269531 Z M 54.4375 63.875 "/>
<path style=" stroke:none;fill-rule:nonzero;fill:rgb(0%,0%,0%);fill-opacity:1;" d="M 60.464844 67 L 60.464844 60.769531 L 61.402344 60.769531 L 61.402344 61.644531 C 61.597656 61.34375 61.851562 61.097656 62.175781 60.917969 C 62.507812 60.738281 62.882812 60.644531 63.300781 60.644531 C 63.757812 60.644531 64.132812 60.746094 64.425781 60.9375 C 64.714844 61.121094 64.925781 61.386719 65.050781 61.730469 C 65.550781 61.011719 66.183594 60.644531 66.964844 60.644531 C 67.589844 60.644531 68.070312 60.824219 68.402344 61.167969 C 68.738281 61.5 68.902344 62.019531 68.902344 62.730469 L 68.902344 67 L 67.839844 67 L 67.839844 63.082031 C 67.839844 62.65625 67.804688 62.347656 67.738281 62.167969 C 67.679688 61.988281 67.558594 61.84375 67.382812 61.730469 C 67.199219 61.605469 66.988281 61.542969 66.738281 61.542969 C 66.304688 61.542969 65.945312 61.6875 65.652344 61.980469 C 65.363281 62.269531 65.214844 62.738281 65.214844 63.375 L 65.214844 67 L 64.152344 67 L 64.152344 62.957031 C 64.152344 62.488281 64.070312 62.136719 63.902344 61.894531 C 63.738281 61.660156 63.457031 61.542969 63.070312 61.542969 C 62.761719 61.542969 62.488281 61.625 62.238281 61.792969 C 61.988281 61.949219 61.804688 62.175781 61.695312 62.480469 C 61.582031 62.769531 61.527344 63.203125 61.527344 63.769531 L 61.527344 67 Z M 60.464844 67 "/>
<path style=" stroke:none;fill-rule:nonzero;fill:rgb(0%,0%,0%);fill-opacity:1;" d="M 70.066406 63.894531 C 70.066406 62.746094 70.382812 61.890625 71.023438 61.332031 C 71.566406 60.875 72.21875 60.644531 72.984375 60.644531 C 73.84375 60.644531 74.546875 60.925781 75.085938 61.480469 C 75.628906 62.035156 75.898438 62.808594 75.898438 63.792969 C 75.898438 64.597656 75.773438 65.230469 75.523438 65.6875 C 75.285156 66.144531 74.941406 66.511719 74.484375 66.769531 C 74.023438 67.019531 73.523438 67.144531 72.984375 67.144531 C 72.109375 67.144531 71.398438 66.871094 70.859375 66.3125 C 70.328125 65.746094 70.066406 64.9375 70.066406 63.894531 Z M 71.148438 63.894531 C 71.148438 64.6875 71.320312 65.285156 71.671875 65.6875 C 72.015625 66.078125 72.453125 66.269531 72.984375 66.269531 C 73.507812 66.269531 73.945312 66.078125 74.296875 65.6875 C 74.640625 65.285156 74.816406 64.675781 74.816406 63.855469 C 74.816406 63.09375 74.640625 62.511719 74.296875 62.105469 C 73.945312 61.703125 73.507812 61.5 72.984375 61.5 C 72.453125 61.5 72.015625 61.703125 71.671875 62.105469 C 71.320312 62.496094 71.148438 63.09375 71.148438 63.894531 Z M 71.148438 63.894531 "/>
<path style=" stroke:none;fill-rule:nonzero;fill:rgb(0%,0%,0%);fill-opacity:1;" d="M 81.179688 67 L 81.179688 66.207031 C 80.773438 66.832031 80.1875 67.144531 79.429688 67.144531 C 78.9375 67.144531 78.492188 67.003906 78.074219 66.730469 C 77.65625 66.453125 77.328125 66.074219 77.09375 65.582031 C 76.871094 65.097656 76.761719 64.535156 76.761719 63.894531 C 76.761719 63.269531 76.867188 62.707031 77.074219 62.207031 C 77.28125 61.699219 77.585938 61.308594 77.992188 61.042969 C 78.40625 60.78125 78.871094 60.644531 79.386719 60.644531 C 79.761719 60.644531 80.09375 60.722656 80.386719 60.875 C 80.679688 61.03125 80.914062 61.238281 81.09375 61.5 L 81.09375 58.417969 L 82.15625 58.417969 L 82.15625 67 Z M 77.84375 63.894531 C 77.84375 64.6875 78.011719 65.285156 78.34375 65.6875 C 78.679688 66.078125 79.074219 66.269531 79.53125 66.269531 C 79.992188 66.269531 80.375 66.082031 80.699219 65.707031 C 81.03125 65.332031 81.199219 64.761719 81.199219 63.980469 C 81.199219 63.136719 81.03125 62.511719 80.699219 62.105469 C 80.367188 61.703125 79.960938 61.5 79.492188 61.5 C 79.015625 61.5 78.621094 61.699219 78.304688 62.082031 C 77.996094 62.472656 77.84375 63.078125 77.84375 63.894531 Z M 77.84375 63.894531 "/>
<path style=" stroke:none;fill-rule:nonzero;fill:rgb(0%,0%,0%);fill-opacity:1;" d="M 88.0625 65 L 89.164062 65.125 C 88.984375 65.765625 88.65625 66.265625 88.1875 66.625 C 87.726562 66.972656 87.132812 67.144531 86.414062 67.144531 C 85.507812 67.144531 84.789062 66.871094 84.25 66.3125 C 83.71875 65.746094 83.457031 64.953125 83.457031 63.9375 C 83.457031 62.894531 83.726562 62.09375 84.269531 61.519531 C 84.8125 60.9375 85.507812 60.644531 86.375 60.644531 C 87.207031 60.644531 87.878906 60.933594 88.394531 61.5 C 88.921875 62.058594 89.1875 62.847656 89.1875 63.875 C 89.1875 63.949219 89.1875 64.042969 89.1875 64.167969 L 84.539062 64.167969 C 84.582031 64.847656 84.773438 65.371094 85.125 65.730469 C 85.46875 66.09375 85.90625 66.269531 86.4375 66.269531 C 86.820312 66.269531 87.148438 66.175781 87.414062 65.980469 C 87.691406 65.769531 87.90625 65.449219 88.0625 65 Z M 84.601562 63.292969 L 88.082031 63.292969 C 88.039062 62.765625 87.90625 62.371094 87.6875 62.105469 C 87.351562 61.703125 86.914062 61.5 86.375 61.5 C 85.882812 61.5 85.476562 61.667969 85.144531 62 C 84.820312 62.324219 84.644531 62.75 84.601562 63.292969 Z M 84.601562 63.292969 "/>
<path style=" stroke:none;fill-rule:nonzero;fill:rgb(0%,0%,0%);fill-opacity:1;" d="M 90.464844 67 L 90.464844 58.417969 L 91.507812 58.417969 L 91.507812 67 Z M 90.464844 67 "/>
<path style="fill-rule:nonzero;fill:rgb(69.803923%,85.09804%,100%);fill-opacity:1;stroke-width:1;stroke-linecap:round;stroke-linejoin:round;stroke:rgb(0%,0%,0%);stroke-opacity:1;stroke-miterlimit:10;" d="M 202 164.000977 L 277 164.000977 L 277 195.500977 L 202 195.500977 Z M 202 164.000977 " transform="matrix(1.333333,0,0,1.333333,-121.333333,-176)"/>
<path style=" stroke:none;fill-rule:nonzero;fill:rgb(0%,0%,0%);fill-opacity:1;" d="M 163.578125 63.625 L 163.578125 62.625 L 167.226562 62.625 L 167.226562 65.8125 C 166.667969 66.261719 166.089844 66.59375 165.496094 66.8125 C 164.898438 67.03125 164.289062 67.144531 163.664062 67.144531 C 162.828125 67.144531 162.0625 66.96875 161.371094 66.605469 C 160.671875 66.246094 160.152344 65.722656 159.808594 65.042969 C 159.460938 64.363281 159.289062 63.597656 159.289062 62.75 C 159.289062 61.917969 159.460938 61.140625 159.808594 60.417969 C 160.152344 59.683594 160.652344 59.140625 161.308594 58.792969 C 161.976562 58.449219 162.730469 58.269531 163.578125 58.269531 C 164.203125 58.269531 164.765625 58.375 165.265625 58.582031 C 165.765625 58.78125 166.152344 59.058594 166.433594 59.417969 C 166.726562 59.765625 166.945312 60.230469 167.101562 60.8125 L 166.078125 61.082031 C 165.9375 60.65625 165.773438 60.3125 165.578125 60.0625 C 165.398438 59.8125 165.125 59.613281 164.765625 59.457031 C 164.417969 59.308594 164.023438 59.230469 163.578125 59.230469 C 163.0625 59.230469 162.609375 59.3125 162.226562 59.480469 C 161.851562 59.636719 161.542969 59.84375 161.308594 60.105469 C 161.085938 60.355469 160.914062 60.636719 160.789062 60.9375 C 160.5625 61.480469 160.453125 62.058594 160.453125 62.667969 C 160.453125 63.449219 160.585938 64.09375 160.851562 64.605469 C 161.109375 65.121094 161.496094 65.5 161.996094 65.75 C 162.496094 66 163.027344 66.125 163.601562 66.125 C 164.101562 66.125 164.578125 66.035156 165.039062 65.855469 C 165.507812 65.660156 165.871094 65.453125 166.121094 65.230469 L 166.121094 63.625 Z M 163.578125 63.625 "/>
<path style=" stroke:none;fill-rule:nonzero;fill:rgb(0%,0%,0%);fill-opacity:1;" d="M 168.746094 67 L 168.746094 60.769531 L 169.707031 60.769531 L 169.707031 61.730469 C 169.941406 61.285156 170.164062 60.996094 170.371094 60.855469 C 170.582031 60.71875 170.808594 60.644531 171.058594 60.644531 C 171.402344 60.644531 171.769531 60.761719 172.144531 60.980469 L 171.769531 61.957031 C 171.519531 61.808594 171.257812 61.730469 170.996094 61.730469 C 170.773438 61.730469 170.566406 61.800781 170.371094 61.9375 C 170.191406 62.078125 170.058594 62.269531 169.976562 62.519531 C 169.863281 62.894531 169.808594 63.308594 169.808594 63.75 L 169.808594 67 Z M 168.746094 67 "/>
<path style=" stroke:none;fill-rule:nonzero;fill:rgb(0%,0%,0%);fill-opacity:1;" d="M 176.828125 66.230469 C 176.4375 66.5625 176.0625 66.800781 175.703125 66.9375 C 175.335938 67.074219 174.953125 67.144531 174.535156 67.144531 C 173.851562 67.144531 173.328125 66.980469 172.953125 66.644531 C 172.585938 66.3125 172.410156 65.886719 172.410156 65.355469 C 172.410156 65.050781 172.476562 64.769531 172.617188 64.519531 C 172.753906 64.269531 172.9375 64.074219 173.160156 63.917969 C 173.378906 63.765625 173.628906 63.644531 173.910156 63.5625 C 174.117188 63.519531 174.429688 63.472656 174.847656 63.417969 C 175.707031 63.324219 176.335938 63.199219 176.742188 63.042969 C 176.742188 62.90625 176.742188 62.8125 176.742188 62.769531 C 176.742188 62.34375 176.644531 62.042969 176.453125 61.875 C 176.171875 61.625 175.769531 61.5 175.242188 61.5 C 174.742188 61.5 174.375 61.59375 174.140625 61.769531 C 173.898438 61.9375 173.726562 62.246094 173.617188 62.6875 L 172.597656 62.5625 C 172.679688 62.121094 172.828125 61.765625 173.035156 61.5 C 173.253906 61.222656 173.566406 61.015625 173.972656 60.875 C 174.390625 60.722656 174.859375 60.644531 175.390625 60.644531 C 175.929688 60.644531 176.359375 60.707031 176.679688 60.832031 C 177.015625 60.957031 177.253906 61.121094 177.410156 61.3125 C 177.578125 61.496094 177.6875 61.730469 177.742188 62.019531 C 177.785156 62.203125 177.804688 62.519531 177.804688 62.980469 L 177.804688 64.394531 C 177.804688 65.371094 177.828125 65.988281 177.867188 66.25 C 177.910156 66.515625 178 66.765625 178.140625 67 L 177.035156 67 C 176.921875 66.78125 176.851562 66.519531 176.828125 66.230469 Z M 176.742188 63.875 C 176.351562 64.03125 175.773438 64.160156 175.015625 64.269531 C 174.582031 64.34375 174.273438 64.417969 174.097656 64.5 C 173.914062 64.574219 173.773438 64.683594 173.679688 64.832031 C 173.582031 64.988281 173.535156 65.15625 173.535156 65.332031 C 173.535156 65.613281 173.640625 65.847656 173.847656 66.042969 C 174.054688 66.222656 174.367188 66.3125 174.785156 66.3125 C 175.1875 66.3125 175.546875 66.222656 175.867188 66.042969 C 176.1875 65.863281 176.421875 65.621094 176.578125 65.3125 C 176.6875 65.078125 176.742188 64.730469 176.742188 64.269531 Z M 176.742188 63.875 "/>
<path style=" stroke:none;fill-rule:nonzero;fill:rgb(0%,0%,0%);fill-opacity:1;" d="M 180.417969 67 L 179.4375 67 L 179.4375 58.417969 L 180.480469 58.417969 L 180.480469 61.480469 C 180.921875 60.925781 181.492188 60.644531 182.1875 60.644531 C 182.574219 60.644531 182.9375 60.722656 183.273438 60.875 C 183.617188 61.03125 183.902344 61.246094 184.125 61.519531 C 184.34375 61.800781 184.523438 62.140625 184.648438 62.542969 C 184.773438 62.933594 184.835938 63.347656 184.835938 63.792969 C 184.835938 64.863281 184.570312 65.6875 184.042969 66.269531 C 183.511719 66.855469 182.882812 67.144531 182.148438 67.144531 C 181.40625 67.144531 180.835938 66.84375 180.417969 66.230469 Z M 180.398438 63.832031 C 180.398438 64.582031 180.5 65.125 180.710938 65.457031 C 181.042969 66 181.484375 66.269531 182.042969 66.269531 C 182.511719 66.269531 182.917969 66.074219 183.25 65.667969 C 183.585938 65.265625 183.75 64.667969 183.75 63.875 C 183.75 63.074219 183.589844 62.472656 183.273438 62.082031 C 182.949219 61.699219 182.5625 61.5 182.105469 61.5 C 181.632812 61.5 181.230469 61.703125 180.898438 62.105469 C 180.5625 62.511719 180.398438 63.082031 180.398438 63.832031 Z M 180.398438 63.832031 "/>
<path style=" stroke:none;fill-rule:nonzero;fill:rgb(0%,0%,0%);fill-opacity:1;" d="M 189.445312 67 L 189.445312 60.769531 L 190.40625 60.769531 L 190.40625 61.667969 C 190.847656 60.988281 191.507812 60.644531 192.382812 60.644531 C 192.757812 60.644531 193.097656 60.71875 193.40625 60.855469 C 193.722656 60.980469 193.957031 61.15625 194.113281 61.375 C 194.265625 61.582031 194.375 61.84375 194.445312 62.144531 C 194.488281 62.34375 194.507812 62.683594 194.507812 63.167969 L 194.507812 67 L 193.445312 67 L 193.445312 63.207031 C 193.445312 62.78125 193.40625 62.457031 193.320312 62.25 C 193.238281 62.042969 193.09375 61.875 192.882812 61.75 C 192.675781 61.613281 192.429688 61.542969 192.15625 61.542969 C 191.707031 61.542969 191.320312 61.6875 190.988281 61.980469 C 190.664062 62.261719 190.507812 62.800781 190.507812 63.605469 L 190.507812 67 Z M 189.445312 67 "/>
<path style=" stroke:none;fill-rule:nonzero;fill:rgb(0%,0%,0%);fill-opacity:1;" d="M 200.371094 65 L 201.476562 65.125 C 201.292969 65.765625 200.964844 66.265625 200.496094 66.625 C 200.039062 66.972656 199.445312 67.144531 198.726562 67.144531 C 197.820312 67.144531 197.101562 66.871094 196.558594 66.3125 C 196.027344 65.746094 195.765625 64.953125 195.765625 63.9375 C 195.765625 62.894531 196.039062 62.09375 196.578125 61.519531 C 197.121094 60.9375 197.820312 60.644531 198.683594 60.644531 C 199.515625 60.644531 200.1875 60.933594 200.703125 61.5 C 201.230469 62.058594 201.496094 62.847656 201.496094 63.875 C 201.496094 63.949219 201.496094 64.042969 201.496094 64.167969 L 196.851562 64.167969 C 196.890625 64.847656 197.085938 65.371094 197.433594 65.730469 C 197.777344 66.09375 198.214844 66.269531 198.746094 66.269531 C 199.132812 66.269531 199.460938 66.175781 199.726562 65.980469 C 200 65.769531 200.214844 65.449219 200.371094 65 Z M 196.914062 63.292969 L 200.390625 63.292969 C 200.351562 62.765625 200.214844 62.371094 199.996094 62.105469 C 199.664062 61.703125 199.226562 61.5 198.683594 61.5 C 198.195312 61.5 197.789062 61.667969 197.453125 62 C 197.132812 62.324219 196.953125 62.75 196.914062 63.292969 Z M 196.914062 63.292969 "/>
<path style=" stroke:none;fill-rule:nonzero;fill:rgb(0%,0%,0%);fill-opacity:1;" d="M 203.941406 67 L 202.046875 60.769531 L 203.128906 60.769531 L 204.128906 64.375 L 204.484375 65.707031 C 204.492188 65.640625 204.609375 65.207031 204.816406 64.417969 L 205.796875 60.769531 L 206.878906 60.769531 L 207.816406 64.394531 L 208.128906 65.582031 L 208.484375 64.375 L 209.546875 60.769531 L 210.566406 60.769531 L 208.628906 67 L 207.546875 67 L 206.546875 63.269531 L 206.296875 62.207031 L 205.046875 67 Z M 203.941406 67 "/>
<path style=" stroke:none;fill-rule:nonzero;fill:rgb(0%,0%,0%);fill-opacity:1;" d="M 218.835938 67 L 218.835938 66.207031 C 218.429688 66.832031 217.847656 67.144531 217.085938 67.144531 C 216.597656 67.144531 216.148438 67.003906 215.734375 66.730469 C 215.316406 66.453125 214.988281 66.074219 214.753906 65.582031 C 214.53125 65.097656 214.421875 64.535156 214.421875 63.894531 C 214.421875 63.269531 214.523438 62.707031 214.734375 62.207031 C 214.941406 61.699219 215.242188 61.308594 215.648438 61.042969 C 216.066406 60.78125 216.53125 60.644531 217.046875 60.644531 C 217.421875 60.644531 217.753906 60.722656 218.046875 60.875 C 218.335938 61.03125 218.570312 61.238281 218.753906 61.5 L 218.753906 58.417969 L 219.816406 58.417969 L 219.816406 67 Z M 215.503906 63.894531 C 215.503906 64.6875 215.671875 65.285156 216.003906 65.6875 C 216.335938 66.078125 216.734375 66.269531 217.191406 66.269531 C 217.648438 66.269531 218.035156 66.082031 218.359375 65.707031 C 218.691406 65.332031 218.859375 64.761719 218.859375 63.980469 C 218.859375 63.136719 218.691406 62.511719 218.359375 62.105469 C 218.023438 61.703125 217.617188 61.5 217.148438 61.5 C 216.675781 61.5 216.28125 61.699219 215.960938 62.082031 C 215.65625 62.472656 215.503906 63.078125 215.503906 63.894531 Z M 215.503906 63.894531 "/>
<path style=" stroke:none;fill-rule:nonzero;fill:rgb(0%,0%,0%);fill-opacity:1;" d="M 225.53125 66.230469 C 225.140625 66.5625 224.765625 66.800781 224.40625 66.9375 C 224.042969 67.074219 223.65625 67.144531 223.242188 67.144531 C 222.558594 67.144531 222.03125 66.980469 221.65625 66.644531 C 221.292969 66.3125 221.117188 65.886719 221.117188 65.355469 C 221.117188 65.050781 221.183594 64.769531 221.324219 64.519531 C 221.460938 64.269531 221.640625 64.074219 221.867188 63.917969 C 222.085938 63.765625 222.335938 63.644531 222.617188 63.5625 C 222.824219 63.519531 223.136719 63.472656 223.554688 63.417969 C 224.410156 63.324219 225.042969 63.199219 225.449219 63.042969 C 225.449219 62.90625 225.449219 62.8125 225.449219 62.769531 C 225.449219 62.34375 225.347656 62.042969 225.15625 61.875 C 224.875 61.625 224.472656 61.5 223.949219 61.5 C 223.449219 61.5 223.078125 61.59375 222.84375 61.769531 C 222.605469 61.9375 222.433594 62.246094 222.324219 62.6875 L 221.304688 62.5625 C 221.386719 62.121094 221.53125 61.765625 221.742188 61.5 C 221.960938 61.222656 222.269531 61.015625 222.679688 60.875 C 223.09375 60.722656 223.5625 60.644531 224.09375 60.644531 C 224.636719 60.644531 225.0625 60.707031 225.386719 60.832031 C 225.71875 60.957031 225.960938 61.121094 226.117188 61.3125 C 226.28125 61.496094 226.390625 61.730469 226.449219 62.019531 C 226.492188 62.203125 226.511719 62.519531 226.511719 62.980469 L 226.511719 64.394531 C 226.511719 65.371094 226.53125 65.988281 226.574219 66.25 C 226.617188 66.515625 226.703125 66.765625 226.84375 67 L 225.742188 67 C 225.625 66.78125 225.558594 66.519531 225.53125 66.230469 Z M 225.449219 63.875 C 225.058594 64.03125 224.480469 64.160156 223.71875 64.269531 C 223.285156 64.34375 222.980469 64.417969 222.804688 64.5 C 222.621094 64.574219 222.480469 64.683594 222.386719 64.832031 C 222.285156 64.988281 222.242188 65.15625 222.242188 65.332031 C 222.242188 65.613281 222.34375 65.847656 222.554688 66.042969 C 222.761719 66.222656 223.074219 66.3125 223.492188 66.3125 C 223.890625 66.3125 224.25 66.222656 224.574219 66.042969 C 224.890625 65.863281 225.125 65.621094 225.28125 65.3125 C 225.390625 65.078125 225.449219 64.730469 225.449219 64.269531 Z M 225.449219 63.875 "/>
<path style=" stroke:none;fill-rule:nonzero;fill:rgb(0%,0%,0%);fill-opacity:1;" d="M 230.457031 66.0625 L 230.601562 66.980469 C 230.292969 67.046875 230.027344 67.082031 229.808594 67.082031 C 229.417969 67.082031 229.121094 67.019531 228.914062 66.894531 C 228.707031 66.769531 228.550781 66.613281 228.457031 66.417969 C 228.371094 66.222656 228.332031 65.8125 228.332031 65.1875 L 228.332031 61.605469 L 227.558594 61.605469 L 227.558594 60.769531 L 228.332031 60.769531 L 228.332031 59.230469 L 229.394531 58.605469 L 229.394531 60.769531 L 230.457031 60.769531 L 230.457031 61.605469 L 229.394531 61.605469 L 229.394531 65.230469 C 229.394531 65.535156 229.402344 65.730469 229.433594 65.8125 C 229.476562 65.894531 229.539062 65.96875 229.621094 66.019531 C 229.707031 66.078125 229.820312 66.105469 229.976562 66.105469 C 230.101562 66.105469 230.257812 66.09375 230.457031 66.0625 Z M 230.457031 66.0625 "/>
<path style=" stroke:none;fill-rule:nonzero;fill:rgb(0%,0%,0%);fill-opacity:1;" d="M 235.539062 66.230469 C 235.148438 66.5625 234.773438 66.800781 234.414062 66.9375 C 234.050781 67.074219 233.664062 67.144531 233.25 67.144531 C 232.566406 67.144531 232.039062 66.980469 231.664062 66.644531 C 231.300781 66.3125 231.125 65.886719 231.125 65.355469 C 231.125 65.050781 231.191406 64.769531 231.332031 64.519531 C 231.46875 64.269531 231.648438 64.074219 231.875 63.917969 C 232.09375 63.765625 232.34375 63.644531 232.625 63.5625 C 232.832031 63.519531 233.144531 63.472656 233.5625 63.417969 C 234.421875 63.324219 235.050781 63.199219 235.457031 63.042969 C 235.457031 62.90625 235.457031 62.8125 235.457031 62.769531 C 235.457031 62.34375 235.359375 62.042969 235.164062 61.875 C 234.882812 61.625 234.484375 61.5 233.957031 61.5 C 233.457031 61.5 233.085938 61.59375 232.851562 61.769531 C 232.613281 61.9375 232.441406 62.246094 232.332031 62.6875 L 231.3125 62.5625 C 231.394531 62.121094 231.539062 61.765625 231.75 61.5 C 231.96875 61.222656 232.28125 61.015625 232.6875 60.875 C 233.101562 60.722656 233.570312 60.644531 234.101562 60.644531 C 234.644531 60.644531 235.070312 60.707031 235.394531 60.832031 C 235.726562 60.957031 235.96875 61.121094 236.125 61.3125 C 236.289062 61.496094 236.398438 61.730469 236.457031 62.019531 C 236.5 62.203125 236.519531 62.519531 236.519531 62.980469 L 236.519531 64.394531 C 236.519531 65.371094 236.539062 65.988281 236.582031 66.25 C 236.625 66.515625 236.710938 66.765625 236.851562 67 L 235.75 67 C 235.632812 66.78125 235.566406 66.519531 235.539062 66.230469 Z M 235.457031 63.875 C 235.066406 64.03125 234.488281 64.160156 233.726562 64.269531 C 233.296875 64.34375 232.988281 64.417969 232.8125 64.5 C 232.628906 64.574219 232.488281 64.683594 232.394531 64.832031 C 232.296875 64.988281 232.25 65.15625 232.25 65.332031 C 232.25 65.613281 232.351562 65.847656 232.5625 66.042969 C 232.769531 66.222656 233.082031 66.3125 233.5 66.3125 C 233.898438 66.3125 234.257812 66.222656 234.582031 66.042969 C 234.898438 65.863281 235.132812 65.621094 235.289062 65.3125 C 235.398438 65.078125 235.457031 64.730469 235.457031 64.269531 Z M 235.457031 63.875 "/>
<path style="fill-rule:nonzero;fill:rgb(40.000001%,74.901962%,100%);fill-opacity:1;stroke-width:1;stroke-linecap:round;stroke-linejoin:round;stroke:rgb(0%,0%,0%);stroke-opacity:1;stroke-miterlimit:10;" d="M 312.499023 194.563477 L 387.499023 194.563477 L 387.499023 226.063477 L 312.499023 226.063477 Z M 312.499023 194.563477 " transform="matrix(1.333333,0,0,1.333333,-121.333333,-176)"/>
<path style=" stroke:none;fill-rule:nonzero;fill:rgb(0%,0%,0%);fill-opacity:1;" d="M 315.707031 98.335938 L 316.832031 98.628906 C 316.59375 99.5625 316.164062 100.273438 315.539062 100.773438 C 314.925781 101.265625 314.171875 101.503906 313.269531 101.503906 C 312.351562 101.503906 311.601562 101.316406 311.019531 100.941406 C 310.4375 100.566406 309.988281 100.023438 309.6875 99.316406 C 309.394531 98.597656 309.25 97.828125 309.25 97.003906 C 309.25 96.101562 309.414062 95.316406 309.75 94.648438 C 310.09375 93.984375 310.582031 93.484375 311.207031 93.148438 C 311.84375 92.804688 312.539062 92.628906 313.289062 92.628906 C 314.148438 92.628906 314.875 92.851562 315.457031 93.296875 C 316.050781 93.726562 316.460938 94.335938 316.6875 95.128906 L 315.5625 95.378906 C 315.363281 94.753906 315.082031 94.304688 314.707031 94.023438 C 314.332031 93.734375 313.851562 93.585938 313.269531 93.585938 C 312.613281 93.585938 312.066406 93.75 311.625 94.066406 C 311.175781 94.390625 310.863281 94.816406 310.6875 95.359375 C 310.503906 95.890625 310.414062 96.429688 310.414062 96.984375 C 310.414062 97.722656 310.519531 98.367188 310.726562 98.921875 C 310.945312 99.460938 311.28125 99.867188 311.726562 100.128906 C 312.171875 100.394531 312.65625 100.523438 313.1875 100.523438 C 313.820312 100.523438 314.359375 100.347656 314.789062 99.984375 C 315.234375 99.609375 315.539062 99.0625 315.707031 98.335938 Z M 315.707031 98.335938 "/>
<path style=" stroke:none;fill-rule:nonzero;fill:rgb(0%,0%,0%);fill-opacity:1;" d="M 318.101562 101.359375 L 318.101562 92.773438 L 319.164062 92.773438 L 319.164062 95.859375 C 319.648438 95.289062 320.269531 95.003906 321.019531 95.003906 C 321.476562 95.003906 321.875 95.097656 322.207031 95.273438 C 322.550781 95.457031 322.796875 95.707031 322.9375 96.023438 C 323.085938 96.347656 323.164062 96.8125 323.164062 97.421875 L 323.164062 101.359375 L 322.125 101.359375 L 322.125 97.421875 C 322.125 96.894531 322.003906 96.515625 321.769531 96.273438 C 321.546875 96.023438 321.226562 95.898438 320.8125 95.898438 C 320.488281 95.898438 320.191406 95.984375 319.914062 96.148438 C 319.632812 96.304688 319.441406 96.519531 319.332031 96.796875 C 319.21875 97.078125 319.164062 97.460938 319.164062 97.960938 L 319.164062 101.359375 Z M 318.101562 101.359375 "/>
<path style=" stroke:none;fill-rule:nonzero;fill:rgb(0%,0%,0%);fill-opacity:1;" d="M 329.027344 99.359375 L 330.132812 99.484375 C 329.949219 100.125 329.621094 100.625 329.152344 100.984375 C 328.695312 101.332031 328.101562 101.503906 327.382812 101.503906 C 326.476562 101.503906 325.757812 101.226562 325.214844 100.671875 C 324.683594 100.101562 324.421875 99.3125 324.421875 98.296875 C 324.421875 97.253906 324.695312 96.453125 325.234375 95.878906 C 325.777344 95.296875 326.476562 95.003906 327.339844 95.003906 C 328.171875 95.003906 328.84375 95.289062 329.359375 95.859375 C 329.886719 96.414062 330.152344 97.207031 330.152344 98.234375 C 330.152344 98.304688 330.152344 98.398438 330.152344 98.523438 L 325.507812 98.523438 C 325.546875 99.207031 325.742188 99.726562 326.089844 100.085938 C 326.433594 100.453125 326.871094 100.628906 327.402344 100.628906 C 327.789062 100.628906 328.117188 100.535156 328.382812 100.335938 C 328.65625 100.128906 328.871094 99.804688 329.027344 99.359375 Z M 325.570312 97.648438 L 329.046875 97.648438 C 329.007812 97.125 328.871094 96.726562 328.652344 96.460938 C 328.320312 96.0625 327.882812 95.859375 327.339844 95.859375 C 326.851562 95.859375 326.445312 96.023438 326.109375 96.359375 C 325.789062 96.679688 325.609375 97.109375 325.570312 97.648438 Z M 325.570312 97.648438 "/>
<path style=" stroke:none;fill-rule:nonzero;fill:rgb(0%,0%,0%);fill-opacity:1;" d="M 335.515625 99.085938 L 336.554688 99.210938 C 336.441406 99.9375 336.148438 100.5 335.679688 100.898438 C 335.207031 101.304688 334.628906 101.503906 333.953125 101.503906 C 333.101562 101.503906 332.421875 101.226562 331.910156 100.671875 C 331.394531 100.117188 331.140625 99.316406 331.140625 98.273438 C 331.140625 97.597656 331.25 97.003906 331.472656 96.503906 C 331.691406 96.003906 332.023438 95.628906 332.472656 95.378906 C 332.929688 95.128906 333.429688 95.003906 333.972656 95.003906 C 334.640625 95.003906 335.1875 95.179688 335.617188 95.523438 C 336.046875 95.859375 336.328125 96.335938 336.453125 96.960938 L 335.429688 97.128906 C 335.332031 96.710938 335.160156 96.398438 334.910156 96.191406 C 334.660156 95.972656 334.359375 95.859375 334.015625 95.859375 C 333.472656 95.859375 333.035156 96.054688 332.703125 96.441406 C 332.378906 96.816406 332.222656 97.414062 332.222656 98.234375 C 332.222656 99.082031 332.378906 99.691406 332.703125 100.066406 C 333.019531 100.441406 333.4375 100.628906 333.953125 100.628906 C 334.367188 100.628906 334.710938 100.503906 334.992188 100.253906 C 335.269531 100.003906 335.441406 99.617188 335.515625 99.085938 Z M 335.515625 99.085938 "/>
<path style=" stroke:none;fill-rule:nonzero;fill:rgb(0%,0%,0%);fill-opacity:1;" d="M 337.453125 101.359375 L 337.453125 92.773438 L 338.515625 92.773438 L 338.515625 97.671875 L 341.015625 95.128906 L 342.367188 95.128906 L 339.992188 97.441406 L 342.617188 101.359375 L 341.304688 101.359375 L 339.265625 98.171875 L 338.515625 98.898438 L 338.515625 101.359375 Z M 337.453125 101.359375 "/>
<path style=" stroke:none;fill-rule:nonzero;fill:rgb(0%,0%,0%);fill-opacity:1;" d="M 346.785156 93.984375 L 346.785156 92.773438 L 347.847656 92.773438 L 347.847656 93.984375 Z M 346.785156 101.359375 L 346.785156 95.128906 L 347.847656 95.128906 L 347.847656 101.359375 Z M 346.785156 101.359375 "/>
<path style=" stroke:none;fill-rule:nonzero;fill:rgb(0%,0%,0%);fill-opacity:1;" d="M 349.703125 101.359375 L 349.703125 95.960938 L 348.765625 95.960938 L 348.765625 95.128906 L 349.703125 95.128906 L 349.703125 94.484375 C 349.703125 94.054688 349.734375 93.742188 349.804688 93.546875 C 349.914062 93.269531 350.097656 93.046875 350.347656 92.878906 C 350.609375 92.710938 350.972656 92.628906 351.429688 92.628906 C 351.722656 92.628906 352.046875 92.664062 352.410156 92.734375 L 352.242188 93.648438 C 352.035156 93.609375 351.832031 93.585938 351.640625 93.585938 C 351.316406 93.585938 351.085938 93.660156 350.953125 93.796875 C 350.8125 93.9375 350.742188 94.191406 350.742188 94.566406 L 350.742188 95.128906 L 351.972656 95.128906 L 351.972656 95.960938 L 350.742188 95.960938 L 350.742188 101.359375 Z M 349.703125 101.359375 "/>
<path style=" stroke:none;fill-rule:nonzero;fill:rgb(0%,0%,0%);fill-opacity:1;" d="M 355.929688 101.878906 L 356.953125 102.023438 C 356.992188 102.34375 357.109375 102.570312 357.304688 102.710938 C 357.566406 102.90625 357.929688 103.003906 358.390625 103.003906 C 358.875 103.003906 359.25 102.90625 359.515625 102.710938 C 359.773438 102.515625 359.957031 102.242188 360.054688 101.898438 C 360.109375 101.675781 360.128906 101.226562 360.117188 100.546875 C 359.660156 101.085938 359.085938 101.359375 358.410156 101.359375 C 357.546875 101.359375 356.878906 101.054688 356.410156 100.441406 C 355.953125 99.816406 355.722656 99.078125 355.722656 98.210938 C 355.722656 97.617188 355.828125 97.066406 356.035156 96.566406 C 356.253906 96.066406 356.566406 95.6875 356.972656 95.421875 C 357.375 95.144531 357.851562 95.003906 358.410156 95.003906 C 359.144531 95.003906 359.75 95.296875 360.222656 95.878906 L 360.222656 95.128906 L 361.203125 95.128906 L 361.203125 100.503906 C 361.203125 101.472656 361.097656 102.160156 360.890625 102.566406 C 360.691406 102.96875 360.378906 103.285156 359.953125 103.523438 C 359.535156 103.757812 359.015625 103.878906 358.390625 103.878906 C 357.640625 103.878906 357.035156 103.710938 356.578125 103.378906 C 356.128906 103.046875 355.914062 102.546875 355.929688 101.878906 Z M 356.804688 98.128906 C 356.804688 98.953125 356.960938 99.546875 357.285156 99.921875 C 357.601562 100.296875 358.003906 100.484375 358.492188 100.484375 C 358.976562 100.484375 359.390625 100.296875 359.722656 99.921875 C 360.054688 99.546875 360.222656 98.960938 360.222656 98.171875 C 360.222656 97.410156 360.046875 96.832031 359.703125 96.441406 C 359.367188 96.054688 358.960938 95.859375 358.492188 95.859375 C 358.019531 95.859375 357.617188 96.054688 357.285156 96.441406 C 356.960938 96.816406 356.804688 97.378906 356.804688 98.128906 Z M 356.804688 98.128906 "/>
<path style=" stroke:none;fill-rule:nonzero;fill:rgb(0%,0%,0%);fill-opacity:1;" d="M 362.398438 98.253906 C 362.398438 97.101562 362.714844 96.25 363.355469 95.691406 C 363.898438 95.234375 364.546875 95.003906 365.3125 95.003906 C 366.171875 95.003906 366.875 95.285156 367.417969 95.835938 C 367.960938 96.394531 368.230469 97.164062 368.230469 98.148438 C 368.230469 98.957031 368.105469 99.585938 367.855469 100.046875 C 367.617188 100.503906 367.273438 100.867188 366.8125 101.128906 C 366.355469 101.378906 365.855469 101.503906 365.3125 101.503906 C 364.4375 101.503906 363.730469 101.226562 363.1875 100.671875 C 362.65625 100.101562 362.398438 99.296875 362.398438 98.253906 Z M 363.480469 98.253906 C 363.480469 99.046875 363.652344 99.644531 364 100.046875 C 364.34375 100.4375 364.78125 100.628906 365.3125 100.628906 C 365.839844 100.628906 366.277344 100.4375 366.625 100.046875 C 366.96875 99.644531 367.148438 99.035156 367.148438 98.210938 C 367.148438 97.453125 366.96875 96.867188 366.625 96.460938 C 366.277344 96.0625 365.839844 95.859375 365.3125 95.859375 C 364.78125 95.859375 364.34375 96.0625 364 96.460938 C 363.652344 96.851562 363.480469 97.453125 363.480469 98.253906 Z M 363.480469 98.253906 "/>
<path style=" stroke:none;fill-rule:nonzero;fill:rgb(0%,0%,0%);fill-opacity:1;" d="M 369.070312 98.253906 C 369.070312 97.101562 369.390625 96.25 370.03125 95.691406 C 370.570312 95.234375 371.222656 95.003906 371.988281 95.003906 C 372.847656 95.003906 373.550781 95.285156 374.09375 95.835938 C 374.632812 96.394531 374.90625 97.164062 374.90625 98.148438 C 374.90625 98.957031 374.78125 99.585938 374.53125 100.046875 C 374.289062 100.503906 373.945312 100.867188 373.488281 101.128906 C 373.03125 101.378906 372.53125 101.503906 371.988281 101.503906 C 371.113281 101.503906 370.40625 101.226562 369.863281 100.671875 C 369.332031 100.101562 369.070312 99.296875 369.070312 98.253906 Z M 370.15625 98.253906 C 370.15625 99.046875 370.328125 99.644531 370.675781 100.046875 C 371.019531 100.4375 371.457031 100.628906 371.988281 100.628906 C 372.515625 100.628906 372.953125 100.4375 373.300781 100.046875 C 373.644531 99.644531 373.820312 99.035156 373.820312 98.210938 C 373.820312 97.453125 373.644531 96.867188 373.300781 96.460938 C 372.953125 96.0625 372.515625 95.859375 371.988281 95.859375 C 371.457031 95.859375 371.019531 96.0625 370.675781 96.460938 C 370.328125 96.851562 370.15625 97.453125 370.15625 98.253906 Z M 370.15625 98.253906 "/>
<path style=" stroke:none;fill-rule:nonzero;fill:rgb(0%,0%,0%);fill-opacity:1;" d="M 380.183594 101.359375 L 380.183594 100.566406 C 379.777344 101.191406 379.195312 101.503906 378.433594 101.503906 C 377.945312 101.503906 377.496094 101.363281 377.078125 101.085938 C 376.664062 100.8125 376.335938 100.429688 376.101562 99.941406 C 375.875 99.457031 375.765625 98.894531 375.765625 98.253906 C 375.765625 97.628906 375.871094 97.066406 376.078125 96.566406 C 376.289062 96.054688 376.589844 95.664062 376.996094 95.398438 C 377.414062 95.140625 377.875 95.003906 378.390625 95.003906 C 378.765625 95.003906 379.101562 95.082031 379.390625 95.234375 C 379.683594 95.390625 379.917969 95.597656 380.101562 95.859375 L 380.101562 92.773438 L 381.164062 92.773438 L 381.164062 101.359375 Z M 376.851562 98.253906 C 376.851562 99.046875 377.015625 99.644531 377.351562 100.046875 C 377.683594 100.4375 378.078125 100.628906 378.539062 100.628906 C 378.996094 100.628906 379.382812 100.441406 379.703125 100.066406 C 380.039062 99.691406 380.203125 99.117188 380.203125 98.335938 C 380.203125 97.492188 380.039062 96.867188 379.703125 96.460938 C 379.371094 96.0625 378.964844 95.859375 378.496094 95.859375 C 378.023438 95.859375 377.625 96.054688 377.308594 96.441406 C 377 96.832031 376.851562 97.4375 376.851562 98.253906 Z M 376.851562 98.253906 "/>
<path style=" stroke:none;fill-rule:nonzero;fill:rgb(0%,0%,0%);fill-opacity:1;" d="M 330.355469 113.082031 L 331.457031 113.207031 C 331.277344 113.847656 330.949219 114.347656 330.480469 114.707031 C 330.019531 115.058594 329.425781 115.230469 328.707031 115.230469 C 327.800781 115.230469 327.082031 114.953125 326.542969 114.394531 C 326.011719 113.828125 325.75 113.035156 325.75 112.019531 C 325.75 110.980469 326.019531 110.175781 326.5625 109.605469 C 327.105469 109.019531 327.800781 108.730469 328.667969 108.730469 C 329.5 108.730469 330.171875 109.015625 330.6875 109.582031 C 331.214844 110.140625 331.480469 110.933594 331.480469 111.957031 C 331.480469 112.03125 331.480469 112.125 331.480469 112.25 L 326.832031 112.25 C 326.875 112.933594 327.066406 113.453125 327.417969 113.8125 C 327.761719 114.175781 328.199219 114.355469 328.730469 114.355469 C 329.113281 114.355469 329.441406 114.261719 329.707031 114.0625 C 329.984375 113.855469 330.199219 113.53125 330.355469 113.082031 Z M 326.894531 111.375 L 330.375 111.375 C 330.332031 110.847656 330.199219 110.453125 329.980469 110.1875 C 329.644531 109.785156 329.207031 109.582031 328.667969 109.582031 C 328.175781 109.582031 327.769531 109.75 327.4375 110.082031 C 327.113281 110.40625 326.9375 110.832031 326.894531 111.375 Z M 326.894531 111.375 "/>
<path style=" stroke:none;fill-rule:nonzero;fill:rgb(0%,0%,0%);fill-opacity:1;" d="M 332.777344 115.082031 L 332.777344 108.855469 L 333.734375 108.855469 L 333.734375 109.75 C 334.179688 109.074219 334.839844 108.730469 335.714844 108.730469 C 336.089844 108.730469 336.429688 108.800781 336.734375 108.9375 C 337.054688 109.0625 337.289062 109.238281 337.445312 109.457031 C 337.59375 109.667969 337.703125 109.925781 337.777344 110.230469 C 337.820312 110.425781 337.839844 110.765625 337.839844 111.25 L 337.839844 115.082031 L 336.777344 115.082031 L 336.777344 111.292969 C 336.777344 110.863281 336.734375 110.542969 336.652344 110.332031 C 336.570312 110.125 336.421875 109.957031 336.214844 109.832031 C 336.007812 109.699219 335.761719 109.625 335.484375 109.625 C 335.039062 109.625 334.652344 109.769531 334.320312 110.0625 C 333.996094 110.34375 333.839844 110.886719 333.839844 111.6875 L 333.839844 115.082031 Z M 332.777344 115.082031 "/>
<path style=" stroke:none;fill-rule:nonzero;fill:rgb(0%,0%,0%);fill-opacity:1;" d="M 339.054688 111.980469 C 339.054688 110.828125 339.375 109.972656 340.015625 109.417969 C 340.554688 108.957031 341.207031 108.730469 341.972656 108.730469 C 342.832031 108.730469 343.535156 109.011719 344.078125 109.5625 C 344.617188 110.121094 344.890625 110.890625 344.890625 111.875 C 344.890625 112.683594 344.765625 113.3125 344.515625 113.769531 C 344.273438 114.230469 343.929688 114.59375 343.472656 114.855469 C 343.015625 115.105469 342.515625 115.230469 341.972656 115.230469 C 341.097656 115.230469 340.390625 114.953125 339.847656 114.394531 C 339.316406 113.828125 339.054688 113.019531 339.054688 111.980469 Z M 340.140625 111.980469 C 340.140625 112.769531 340.3125 113.371094 340.660156 113.769531 C 341.003906 114.160156 341.441406 114.355469 341.972656 114.355469 C 342.5 114.355469 342.9375 114.160156 343.285156 113.769531 C 343.628906 113.371094 343.804688 112.761719 343.804688 111.9375 C 343.804688 111.175781 343.628906 110.59375 343.285156 110.1875 C 342.9375 109.785156 342.5 109.582031 341.972656 109.582031 C 341.441406 109.582031 341.003906 109.785156 340.660156 110.1875 C 340.3125 110.578125 340.140625 111.175781 340.140625 111.980469 Z M 340.140625 111.980469 "/>
<path style=" stroke:none;fill-rule:nonzero;fill:rgb(0%,0%,0%);fill-opacity:1;" d="M 350.210938 115.082031 L 350.210938 114.167969 C 349.71875 114.875 349.0625 115.230469 348.230469 115.230469 C 347.867188 115.230469 347.527344 115.15625 347.210938 115.019531 C 346.886719 114.871094 346.648438 114.6875 346.480469 114.480469 C 346.324219 114.269531 346.21875 114.015625 346.167969 113.707031 C 346.125 113.5 346.105469 113.167969 346.105469 112.707031 L 346.105469 108.855469 L 347.148438 108.855469 L 347.148438 112.3125 C 347.148438 112.871094 347.171875 113.238281 347.230469 113.417969 C 347.28125 113.699219 347.417969 113.917969 347.625 114.082031 C 347.84375 114.238281 348.117188 114.3125 348.4375 114.3125 C 348.757812 114.3125 349.054688 114.238281 349.335938 114.082031 C 349.609375 113.917969 349.804688 113.699219 349.917969 113.417969 C 350.027344 113.140625 350.085938 112.730469 350.085938 112.1875 L 350.085938 108.855469 L 351.148438 108.855469 L 351.148438 115.082031 Z M 350.210938 115.082031 "/>
<path style=" stroke:none;fill-rule:nonzero;fill:rgb(0%,0%,0%);fill-opacity:1;" d="M 352.613281 115.605469 L 353.632812 115.75 C 353.675781 116.066406 353.789062 116.296875 353.988281 116.4375 C 354.25 116.628906 354.613281 116.730469 355.070312 116.730469 C 355.554688 116.730469 355.929688 116.628906 356.195312 116.4375 C 356.457031 116.238281 356.640625 115.96875 356.738281 115.625 C 356.789062 115.402344 356.8125 114.953125 356.800781 114.269531 C 356.34375 114.8125 355.769531 115.082031 355.09375 115.082031 C 354.226562 115.082031 353.5625 114.78125 353.09375 114.167969 C 352.632812 113.542969 352.40625 112.800781 352.40625 111.9375 C 352.40625 111.34375 352.507812 110.792969 352.71875 110.292969 C 352.9375 109.792969 353.25 109.410156 353.65625 109.144531 C 354.054688 108.871094 354.535156 108.730469 355.09375 108.730469 C 355.828125 108.730469 356.429688 109.019531 356.90625 109.605469 L 356.90625 108.855469 L 357.882812 108.855469 L 357.882812 114.230469 C 357.882812 115.199219 357.78125 115.886719 357.570312 116.292969 C 357.375 116.691406 357.0625 117.011719 356.632812 117.25 C 356.21875 117.484375 355.695312 117.605469 355.070312 117.605469 C 354.320312 117.605469 353.71875 117.4375 353.257812 117.105469 C 352.8125 116.769531 352.597656 116.269531 352.613281 115.605469 Z M 353.488281 111.855469 C 353.488281 112.675781 353.644531 113.269531 353.96875 113.644531 C 354.285156 114.019531 354.6875 114.207031 355.175781 114.207031 C 355.660156 114.207031 356.070312 114.019531 356.40625 113.644531 C 356.738281 113.269531 356.90625 112.6875 356.90625 111.894531 C 356.90625 111.136719 356.726562 110.558594 356.382812 110.167969 C 356.050781 109.78125 355.644531 109.582031 355.175781 109.582031 C 354.703125 109.582031 354.300781 109.78125 353.96875 110.167969 C 353.644531 110.542969 353.488281 111.105469 353.488281 111.855469 Z M 353.488281 111.855469 "/>
<path style=" stroke:none;fill-rule:nonzero;fill:rgb(0%,0%,0%);fill-opacity:1;" d="M 359.476562 115.082031 L 359.476562 106.5 L 360.539062 106.5 L 360.539062 109.582031 C 361.023438 109.015625 361.640625 108.730469 362.390625 108.730469 C 362.851562 108.730469 363.246094 108.824219 363.578125 109 C 363.921875 109.183594 364.167969 109.433594 364.308594 109.75 C 364.460938 110.074219 364.539062 110.535156 364.539062 111.144531 L 364.539062 115.082031 L 363.496094 115.082031 L 363.496094 111.144531 C 363.496094 110.621094 363.375 110.238281 363.140625 110 C 362.917969 109.75 362.601562 109.625 362.183594 109.625 C 361.859375 109.625 361.5625 109.707031 361.289062 109.875 C 361.007812 110.03125 360.8125 110.246094 360.703125 110.519531 C 360.589844 110.800781 360.539062 111.1875 360.539062 111.6875 L 360.539062 115.082031 Z M 359.476562 115.082031 "/>
<path style="fill-rule:nonzero;fill:rgb(100%,100%,100%);fill-opacity:1;stroke-width:1;stroke-linecap:round;stroke-linejoin:round;stroke:rgb(0%,0%,0%);stroke-opacity:1;stroke-miterlimit:10;" d="M 312.499023 133.438477 L 387.499023 133.438477 L 387.499023 164.938477 L 312.499023 164.938477 Z M 312.499023 133.438477 " transform="matrix(1.333333,0,0,1.333333,-121.333333,-176)"/>
<path style=" stroke:none;fill-rule:nonzero;fill:rgb(0%,0%,0%);fill-opacity:1;" d="M 322.539062 11.273438 L 323.6875 11.273438 L 323.6875 16.234375 C 323.6875 17.097656 323.582031 17.785156 323.375 18.296875 C 323.175781 18.796875 322.820312 19.207031 322.3125 19.523438 C 321.8125 19.847656 321.144531 20.003906 320.3125 20.003906 C 319.503906 20.003906 318.84375 19.863281 318.332031 19.585938 C 317.832031 19.3125 317.46875 18.910156 317.25 18.378906 C 317.023438 17.851562 316.914062 17.140625 316.914062 16.234375 L 316.914062 11.273438 L 318.0625 11.273438 L 318.0625 16.234375 C 318.0625 16.972656 318.128906 17.519531 318.269531 17.878906 C 318.40625 18.226562 318.644531 18.5 318.976562 18.691406 C 319.3125 18.890625 319.726562 18.984375 320.226562 18.984375 C 321.0625 18.984375 321.648438 18.796875 322 18.421875 C 322.359375 18.035156 322.539062 17.304688 322.539062 16.234375 Z M 322.539062 11.273438 "/>
<path style=" stroke:none;fill-rule:nonzero;fill:rgb(0%,0%,0%);fill-opacity:1;" d="M 325.4375 22.234375 L 325.4375 13.628906 L 326.394531 13.628906 L 326.394531 14.441406 C 326.613281 14.125 326.863281 13.890625 327.144531 13.734375 C 327.4375 13.582031 327.789062 13.503906 328.207031 13.503906 C 328.734375 13.503906 329.195312 13.644531 329.601562 13.921875 C 330.003906 14.1875 330.3125 14.566406 330.519531 15.066406 C 330.726562 15.566406 330.832031 16.109375 330.832031 16.691406 C 330.832031 17.332031 330.710938 17.910156 330.476562 18.421875 C 330.253906 18.9375 329.925781 19.332031 329.5 19.609375 C 329.066406 19.867188 328.609375 20.003906 328.125 20.003906 C 327.773438 20.003906 327.460938 19.925781 327.1875 19.773438 C 326.90625 19.625 326.675781 19.4375 326.5 19.210938 L 326.5 22.234375 Z M 326.394531 16.773438 C 326.394531 17.582031 326.550781 18.179688 326.875 18.566406 C 327.207031 18.941406 327.601562 19.128906 328.0625 19.128906 C 328.519531 19.128906 328.914062 18.9375 329.25 18.546875 C 329.59375 18.144531 329.769531 17.523438 329.769531 16.691406 C 329.769531 15.898438 329.601562 15.3125 329.269531 14.921875 C 328.945312 14.519531 328.5625 14.316406 328.101562 14.316406 C 327.65625 14.316406 327.257812 14.535156 326.914062 14.960938 C 326.566406 15.378906 326.394531 15.984375 326.394531 16.773438 Z M 326.394531 16.773438 "/>
<path style=" stroke:none;fill-rule:nonzero;fill:rgb(0%,0%,0%);fill-opacity:1;" d="M 336.152344 19.859375 L 336.152344 19.066406 C 335.746094 19.691406 335.164062 20.003906 334.402344 20.003906 C 333.914062 20.003906 333.464844 19.863281 333.046875 19.585938 C 332.632812 19.3125 332.304688 18.929688 332.070312 18.441406 C 331.84375 17.957031 331.734375 17.394531 331.734375 16.753906 C 331.734375 16.128906 331.839844 15.566406 332.046875 15.066406 C 332.257812 14.554688 332.558594 14.164062 332.964844 13.898438 C 333.382812 13.640625 333.84375 13.503906 334.359375 13.503906 C 334.734375 13.503906 335.070312 13.582031 335.359375 13.734375 C 335.652344 13.890625 335.886719 14.097656 336.070312 14.359375 L 336.070312 11.273438 L 337.132812 11.273438 L 337.132812 19.859375 Z M 332.820312 16.753906 C 332.820312 17.546875 332.984375 18.144531 333.320312 18.546875 C 333.652344 18.9375 334.046875 19.128906 334.507812 19.128906 C 334.964844 19.128906 335.351562 18.941406 335.671875 18.566406 C 336.007812 18.191406 336.171875 17.617188 336.171875 16.835938 C 336.171875 15.992188 336.007812 15.367188 335.671875 14.960938 C 335.339844 14.5625 334.933594 14.359375 334.464844 14.359375 C 333.992188 14.359375 333.59375 14.554688 333.277344 14.941406 C 332.96875 15.332031 332.820312 15.9375 332.820312 16.753906 Z M 332.820312 16.753906 "/>
<path style=" stroke:none;fill-rule:nonzero;fill:rgb(0%,0%,0%);fill-opacity:1;" d="M 342.847656 19.085938 C 342.457031 19.421875 342.082031 19.660156 341.722656 19.796875 C 341.359375 19.929688 340.972656 20.003906 340.554688 20.003906 C 339.875 20.003906 339.347656 19.835938 338.972656 19.503906 C 338.609375 19.171875 338.429688 18.742188 338.429688 18.210938 C 338.429688 17.910156 338.5 17.628906 338.640625 17.378906 C 338.773438 17.128906 338.957031 16.929688 339.179688 16.773438 C 339.398438 16.625 339.648438 16.503906 339.929688 16.421875 C 340.140625 16.378906 340.453125 16.332031 340.867188 16.273438 C 341.726562 16.179688 342.359375 16.054688 342.765625 15.898438 C 342.765625 15.765625 342.765625 15.671875 342.765625 15.628906 C 342.765625 15.203125 342.664062 14.898438 342.472656 14.734375 C 342.191406 14.484375 341.789062 14.359375 341.265625 14.359375 C 340.765625 14.359375 340.394531 14.453125 340.160156 14.628906 C 339.921875 14.796875 339.75 15.101562 339.640625 15.546875 L 338.617188 15.421875 C 338.703125 14.976562 338.847656 14.625 339.054688 14.359375 C 339.273438 14.082031 339.585938 13.875 339.992188 13.734375 C 340.410156 13.582031 340.878906 13.503906 341.410156 13.503906 C 341.953125 13.503906 342.378906 13.566406 342.703125 13.691406 C 343.035156 13.816406 343.273438 13.976562 343.429688 14.171875 C 343.597656 14.351562 343.707031 14.585938 343.765625 14.878906 C 343.804688 15.0625 343.828125 15.378906 343.828125 15.835938 L 343.828125 17.253906 C 343.828125 18.226562 343.847656 18.847656 343.890625 19.109375 C 343.929688 19.375 344.019531 19.625 344.160156 19.859375 L 343.054688 19.859375 C 342.941406 19.640625 342.875 19.378906 342.847656 19.085938 Z M 342.765625 16.734375 C 342.375 16.890625 341.796875 17.019531 341.035156 17.128906 C 340.601562 17.203125 340.296875 17.273438 340.117188 17.359375 C 339.9375 17.429688 339.796875 17.539062 339.703125 17.691406 C 339.601562 17.847656 339.554688 18.015625 339.554688 18.191406 C 339.554688 18.472656 339.660156 18.707031 339.867188 18.898438 C 340.078125 19.082031 340.390625 19.171875 340.804688 19.171875 C 341.207031 19.171875 341.566406 19.082031 341.890625 18.898438 C 342.207031 18.722656 342.441406 18.476562 342.597656 18.171875 C 342.707031 17.9375 342.765625 17.585938 342.765625 17.128906 Z M 342.765625 16.734375 "/>
<path style=" stroke:none;fill-rule:nonzero;fill:rgb(0%,0%,0%);fill-opacity:1;" d="M 347.773438 18.921875 L 347.917969 19.835938 C 347.609375 19.90625 347.34375 19.941406 347.125 19.941406 C 346.734375 19.941406 346.4375 19.878906 346.230469 19.753906 C 346.023438 19.628906 345.867188 19.472656 345.773438 19.273438 C 345.6875 19.082031 345.648438 18.671875 345.648438 18.046875 L 345.648438 14.460938 L 344.875 14.460938 L 344.875 13.628906 L 345.648438 13.628906 L 345.648438 12.085938 L 346.710938 11.460938 L 346.710938 13.628906 L 347.773438 13.628906 L 347.773438 14.460938 L 346.710938 14.460938 L 346.710938 18.085938 C 346.710938 18.394531 346.71875 18.585938 346.75 18.671875 C 346.792969 18.753906 346.855469 18.828125 346.9375 18.878906 C 347.023438 18.9375 347.136719 18.960938 347.292969 18.960938 C 347.417969 18.960938 347.574219 18.953125 347.773438 18.921875 Z M 347.773438 18.921875 "/>
<path style=" stroke:none;fill-rule:nonzero;fill:rgb(0%,0%,0%);fill-opacity:1;" d="M 353.046875 17.859375 L 354.152344 17.984375 C 353.96875 18.625 353.640625 19.125 353.171875 19.484375 C 352.714844 19.832031 352.121094 20.003906 351.402344 20.003906 C 350.496094 20.003906 349.777344 19.726562 349.234375 19.171875 C 348.703125 18.601562 348.445312 17.8125 348.445312 16.796875 C 348.445312 15.753906 348.714844 14.953125 349.257812 14.378906 C 349.796875 13.796875 350.496094 13.503906 351.359375 13.503906 C 352.195312 13.503906 352.863281 13.789062 353.382812 14.359375 C 353.90625 14.914062 354.171875 15.707031 354.171875 16.734375 C 354.171875 16.804688 354.171875 16.898438 354.171875 17.023438 L 349.527344 17.023438 C 349.570312 17.707031 349.761719 18.226562 350.109375 18.585938 C 350.453125 18.953125 350.890625 19.128906 351.421875 19.128906 C 351.808594 19.128906 352.136719 19.035156 352.402344 18.835938 C 352.675781 18.628906 352.890625 18.304688 353.046875 17.859375 Z M 349.589844 16.148438 L 353.070312 16.148438 C 353.027344 15.625 352.890625 15.226562 352.671875 14.960938 C 352.339844 14.5625 351.902344 14.359375 351.359375 14.359375 C 350.871094 14.359375 350.464844 14.523438 350.132812 14.859375 C 349.808594 15.179688 349.632812 15.609375 349.589844 16.148438 Z M 349.589844 16.148438 "/>
<path style=" stroke:none;fill-rule:nonzero;fill:rgb(0%,0%,0%);fill-opacity:1;" d="M 361.121094 18.921875 L 361.269531 19.835938 C 360.960938 19.90625 360.695312 19.941406 360.476562 19.941406 C 360.085938 19.941406 359.789062 19.878906 359.582031 19.753906 C 359.371094 19.628906 359.214844 19.472656 359.121094 19.273438 C 359.039062 19.082031 358.996094 18.671875 358.996094 18.046875 L 358.996094 14.460938 L 358.226562 14.460938 L 358.226562 13.628906 L 358.996094 13.628906 L 358.996094 12.085938 L 360.058594 11.460938 L 360.058594 13.628906 L 361.121094 13.628906 L 361.121094 14.460938 L 360.058594 14.460938 L 360.058594 18.085938 C 360.058594 18.394531 360.070312 18.585938 360.101562 18.671875 C 360.144531 18.753906 360.207031 18.828125 360.289062 18.878906 C 360.371094 18.9375 360.488281 18.960938 360.644531 18.960938 C 360.769531 18.960938 360.925781 18.953125 361.121094 18.921875 Z M 361.121094 18.921875 "/>
<path style=" stroke:none;fill-rule:nonzero;fill:rgb(0%,0%,0%);fill-opacity:1;" d="M 362.148438 19.859375 L 362.148438 11.273438 L 363.210938 11.273438 L 363.210938 14.359375 C 363.695312 13.789062 364.316406 13.503906 365.066406 13.503906 C 365.523438 13.503906 365.917969 13.597656 366.253906 13.773438 C 366.597656 13.957031 366.839844 14.207031 366.980469 14.523438 C 367.132812 14.847656 367.210938 15.3125 367.210938 15.921875 L 367.210938 19.859375 L 366.167969 19.859375 L 366.167969 15.921875 C 366.167969 15.394531 366.050781 15.015625 365.816406 14.773438 C 365.589844 14.523438 365.273438 14.398438 364.855469 14.398438 C 364.535156 14.398438 364.238281 14.484375 363.960938 14.648438 C 363.679688 14.804688 363.488281 15.019531 363.378906 15.296875 C 363.261719 15.578125 363.210938 15.960938 363.210938 16.460938 L 363.210938 19.859375 Z M 362.148438 19.859375 "/>
<path style=" stroke:none;fill-rule:nonzero;fill:rgb(0%,0%,0%);fill-opacity:1;" d="M 373.074219 17.859375 L 374.175781 17.984375 C 373.996094 18.625 373.667969 19.125 373.199219 19.484375 C 372.738281 19.832031 372.144531 20.003906 371.425781 20.003906 C 370.519531 20.003906 369.800781 19.726562 369.261719 19.171875 C 368.730469 18.601562 368.46875 17.8125 368.46875 16.796875 C 368.46875 15.753906 368.738281 14.953125 369.28125 14.378906 C 369.824219 13.796875 370.519531 13.503906 371.386719 13.503906 C 372.21875 13.503906 372.890625 13.789062 373.40625 14.359375 C 373.933594 14.914062 374.199219 15.707031 374.199219 16.734375 C 374.199219 16.804688 374.199219 16.898438 374.199219 17.023438 L 369.550781 17.023438 C 369.59375 17.707031 369.785156 18.226562 370.136719 18.585938 C 370.480469 18.953125 370.917969 19.128906 371.449219 19.128906 C 371.832031 19.128906 372.160156 19.035156 372.425781 18.835938 C 372.703125 18.628906 372.917969 18.304688 373.074219 17.859375 Z M 369.613281 16.148438 L 373.09375 16.148438 C 373.050781 15.625 372.917969 15.226562 372.699219 14.960938 C 372.363281 14.5625 371.925781 14.359375 371.386719 14.359375 C 370.894531 14.359375 370.488281 14.523438 370.15625 14.859375 C 369.832031 15.179688 369.65625 15.609375 369.613281 16.148438 Z M 369.613281 16.148438 "/>
<path style=" stroke:none;fill-rule:nonzero;fill:rgb(0%,0%,0%);fill-opacity:1;" d="M 329.785156 33.582031 L 329.785156 27.355469 L 330.722656 27.355469 L 330.722656 28.230469 C 330.914062 27.925781 331.167969 27.683594 331.492188 27.5 C 331.824219 27.324219 332.199219 27.230469 332.617188 27.230469 C 333.074219 27.230469 333.449219 27.328125 333.742188 27.519531 C 334.035156 27.703125 334.242188 27.96875 334.367188 28.3125 C 334.867188 27.59375 335.503906 27.230469 336.285156 27.230469 C 336.910156 27.230469 337.386719 27.40625 337.722656 27.75 C 338.054688 28.082031 338.222656 28.605469 338.222656 29.3125 L 338.222656 33.582031 L 337.160156 33.582031 L 337.160156 29.667969 C 337.160156 29.238281 337.121094 28.933594 337.054688 28.75 C 336.996094 28.574219 336.878906 28.425781 336.699219 28.3125 C 336.519531 28.1875 336.304688 28.125 336.054688 28.125 C 335.621094 28.125 335.261719 28.269531 334.972656 28.5625 C 334.679688 28.855469 334.535156 29.324219 334.535156 29.957031 L 334.535156 33.582031 L 333.472656 33.582031 L 333.472656 29.542969 C 333.472656 29.074219 333.386719 28.71875 333.222656 28.480469 C 333.054688 28.246094 332.773438 28.125 332.386719 28.125 C 332.082031 28.125 331.804688 28.207031 331.554688 28.375 C 331.304688 28.53125 331.121094 28.761719 331.011719 29.0625 C 330.898438 29.355469 330.847656 29.785156 330.847656 30.355469 L 330.847656 33.582031 Z M 329.785156 33.582031 "/>
<path style=" stroke:none;fill-rule:nonzero;fill:rgb(0%,0%,0%);fill-opacity:1;" d="M 339.382812 30.480469 C 339.382812 29.328125 339.699219 28.472656 340.339844 27.917969 C 340.882812 27.457031 341.535156 27.230469 342.300781 27.230469 C 343.160156 27.230469 343.863281 27.511719 344.402344 28.0625 C 344.945312 28.621094 345.214844 29.390625 345.214844 30.375 C 345.214844 31.183594 345.089844 31.8125 344.839844 32.269531 C 344.601562 32.730469 344.257812 33.09375 343.800781 33.355469 C 343.339844 33.605469 342.839844 33.730469 342.300781 33.730469 C 341.425781 33.730469 340.714844 33.453125 340.175781 32.894531 C 339.644531 32.328125 339.382812 31.519531 339.382812 30.480469 Z M 340.464844 30.480469 C 340.464844 31.269531 340.636719 31.871094 340.988281 32.269531 C 341.332031 32.660156 341.769531 32.855469 342.300781 32.855469 C 342.824219 32.855469 343.261719 32.660156 343.613281 32.269531 C 343.957031 31.871094 344.132812 31.261719 344.132812 30.4375 C 344.132812 29.675781 343.957031 29.09375 343.613281 28.6875 C 343.261719 28.285156 342.824219 28.082031 342.300781 28.082031 C 341.769531 28.082031 341.332031 28.285156 340.988281 28.6875 C 340.636719 29.078125 340.464844 29.675781 340.464844 30.480469 Z M 340.464844 30.480469 "/>
<path style=" stroke:none;fill-rule:nonzero;fill:rgb(0%,0%,0%);fill-opacity:1;" d="M 350.496094 33.582031 L 350.496094 32.792969 C 350.089844 33.417969 349.503906 33.730469 348.746094 33.730469 C 348.253906 33.730469 347.808594 33.589844 347.390625 33.3125 C 346.972656 33.035156 346.644531 32.65625 346.410156 32.167969 C 346.1875 31.683594 346.078125 31.121094 346.078125 30.480469 C 346.078125 29.855469 346.183594 29.292969 346.390625 28.792969 C 346.597656 28.28125 346.902344 27.890625 347.308594 27.625 C 347.722656 27.363281 348.1875 27.230469 348.703125 27.230469 C 349.078125 27.230469 349.410156 27.308594 349.703125 27.457031 C 349.996094 27.613281 350.230469 27.824219 350.410156 28.082031 L 350.410156 25 L 351.472656 25 L 351.472656 33.582031 Z M 347.160156 30.480469 C 347.160156 31.269531 347.328125 31.871094 347.660156 32.269531 C 347.996094 32.660156 348.390625 32.855469 348.847656 32.855469 C 349.308594 32.855469 349.691406 32.667969 350.015625 32.292969 C 350.347656 31.917969 350.515625 31.34375 350.515625 30.5625 C 350.515625 29.71875 350.347656 29.09375 350.015625 28.6875 C 349.683594 28.285156 349.277344 28.082031 348.808594 28.082031 C 348.332031 28.082031 347.9375 28.28125 347.621094 28.667969 C 347.3125 29.058594 347.160156 29.660156 347.160156 30.480469 Z M 347.160156 30.480469 "/>
<path style=" stroke:none;fill-rule:nonzero;fill:rgb(0%,0%,0%);fill-opacity:1;" d="M 357.378906 31.582031 L 358.480469 31.707031 C 358.300781 32.347656 357.972656 32.847656 357.503906 33.207031 C 357.042969 33.558594 356.449219 33.730469 355.730469 33.730469 C 354.824219 33.730469 354.105469 33.453125 353.566406 32.894531 C 353.035156 32.328125 352.773438 31.535156 352.773438 30.519531 C 352.773438 29.480469 353.042969 28.675781 353.585938 28.105469 C 354.128906 27.519531 354.824219 27.230469 355.691406 27.230469 C 356.523438 27.230469 357.195312 27.515625 357.710938 28.082031 C 358.238281 28.640625 358.503906 29.433594 358.503906 30.457031 C 358.503906 30.53125 358.503906 30.625 358.503906 30.75 L 353.855469 30.75 C 353.898438 31.433594 354.089844 31.953125 354.441406 32.3125 C 354.785156 32.675781 355.222656 32.855469 355.753906 32.855469 C 356.136719 32.855469 356.464844 32.761719 356.730469 32.5625 C 357.007812 32.355469 357.222656 32.03125 357.378906 31.582031 Z M 353.917969 29.875 L 357.398438 29.875 C 357.355469 29.347656 357.222656 28.953125 357.003906 28.6875 C 356.667969 28.285156 356.230469 28.082031 355.691406 28.082031 C 355.199219 28.082031 354.792969 28.25 354.460938 28.582031 C 354.136719 28.90625 353.960938 29.332031 353.917969 29.875 Z M 353.917969 29.875 "/>
<path style=" stroke:none;fill-rule:nonzero;fill:rgb(0%,0%,0%);fill-opacity:1;" d="M 359.78125 33.582031 L 359.78125 25 L 360.824219 25 L 360.824219 33.582031 Z M 359.78125 33.582031 "/>
<path style="fill:none;stroke-width:1;stroke-linecap:round;stroke-linejoin:miter;stroke:rgb(0%,0%,0%);stroke-opacity:1;stroke-miterlimit:10;" d="M 167.5 179.499023 L 196.102539 179.598633 " transform="matrix(1.333333,0,0,1.333333,-121.333333,-176)"/>
<path style="fill:none;stroke-width:1;stroke-linecap:butt;stroke-linejoin:miter;stroke:rgb(0%,0%,0%);stroke-opacity:1;stroke-miterlimit:10;" d="M 200.101562 179.613281 L 196.102539 179.598633 M 196.105469 178.098633 L 200.101562 179.613281 L 196.09375 181.098633 " transform="matrix(1.333333,0,0,1.333333,-121.333333,-176)"/>
<path style="fill:none;stroke-width:1;stroke-linecap:round;stroke-linejoin:miter;stroke:rgb(0%,0%,0%);stroke-opacity:1;stroke-miterlimit:10;" d="M 239.5 164.000977 L 239.5 154.450195 C 239.5 151.6875 241.738281 149.449219 244.500977 149.449219 L 269.851562 149.449219 C 269.87207 149.449219 269.886719 149.449219 269.901367 149.449219 L 296.573242 149.188477 C 296.59375 149.188477 296.608398 149.188477 296.625977 149.188477 L 306.601562 149.188477 " transform="matrix(1.333333,0,0,1.333333,-121.333333,-176)"/>
<path style="fill:none;stroke-width:1;stroke-linecap:butt;stroke-linejoin:miter;stroke:rgb(0%,0%,0%);stroke-opacity:1;stroke-miterlimit:10;" d="M 310.600586 149.188477 L 306.601562 149.188477 M 306.601562 147.688477 L 310.600586 149.188477 L 306.601562 150.688477 " transform="matrix(1.333333,0,0,1.333333,-121.333333,-176)"/>
<path style="fill:none;stroke-width:1;stroke-linecap:round;stroke-linejoin:miter;stroke:rgb(0%,0%,0%);stroke-opacity:1;stroke-miterlimit:10;" d="M 349.999023 164.938477 L 349.999023 188.663086 " transform="matrix(1.333333,0,0,1.333333,-121.333333,-176)"/>
<path style="fill:none;stroke-width:1;stroke-linecap:butt;stroke-linejoin:miter;stroke:rgb(0%,0%,0%);stroke-opacity:1;stroke-miterlimit:10;" d="M 349.999023 192.665039 L 349.999023 188.663086 M 351.499023 188.663086 L 349.999023 192.665039 L 348.499023 188.663086 " transform="matrix(1.333333,0,0,1.333333,-121.333333,-176)"/>
<path style="fill:none;stroke-width:1;stroke-linecap:round;stroke-linejoin:miter;stroke:rgb(0%,0%,0%);stroke-opacity:1;stroke-miterlimit:10;" d="M 312.499023 210.313477 L 302.514648 210.313477 C 302.50293 210.313477 302.49707 210.313477 302.485352 210.313477 L 260.207031 210.56543 C 260.198242 210.56543 260.186523 210.56543 260.180664 210.56543 L 244.500977 210.56543 C 241.738281 210.56543 239.5 208.327148 239.5 205.567383 L 239.5 201.398438 " transform="matrix(1.333333,0,0,1.333333,-121.333333,-176)"/>
<path style="fill:none;stroke-width:1;stroke-linecap:butt;stroke-linejoin:miter;stroke:rgb(0%,0%,0%);stroke-opacity:1;stroke-miterlimit:10;" d="M 239.5 197.399414 L 239.5 201.398438 M 238 201.398438 L 239.5 197.399414 L 241 201.398438 " transform="matrix(1.333333,0,0,1.333333,-121.333333,-176)"/>
</g>
</svg>
