<?xml version="1.0" encoding="UTF-8"?>
<svg xmlns="http://www.w3.org/2000/svg" xmlns:xlink="http://www.w3.org/1999/xlink" width="402.666667" height="182.666667" viewBox="0 0 402.666667 182.666667" version="1.1">
<g id="surface1">
<path style="fill:none;stroke-width:1;stroke-linecap:round;stroke-linejoin:miter;stroke:rgb(0%,0%,0%);stroke-opacity:1;stroke-miterlimit:10;" d="M 168.999023 98.514648 L 198.061523 98.488281 " transform="matrix(1.333333,0,0,1.333333,-124,-33.333333)"/>
<path style="fill:none;stroke-width:1;stroke-linecap:butt;stroke-linejoin:miter;stroke:rgb(0%,0%,0%);stroke-opacity:1;stroke-miterlimit:10;" d="M 202.063477 98.485352 L 198.061523 98.488281 M 198.061523 96.988281 L 202.063477 98.485352 L 198.061523 99.988281 " transform="matrix(1.333333,0,0,1.333333,-124,-33.333333)"/>
<path style="fill-rule:nonzero;fill:rgb(100%,100%,100%);fill-opacity:1;stroke-width:1;stroke-linecap:round;stroke-linejoin:round;stroke:rgb(0%,0%,0%);stroke-opacity:1;stroke-miterlimit:10;" d="M 93.999023 129.499023 L 168.999023 129.499023 L 168.999023 160.999023 L 93.999023 160.999023 Z M 93.999023 129.499023 " transform="matrix(1.333333,0,0,1.333333,-124,-33.333333)"/>
<path style=" stroke:none;fill-rule:nonzero;fill:rgb(0%,0%,0%);fill-opacity:1;" d="M 39.113281 163.667969 L 39.113281 155.082031 L 40.238281 155.082031 L 40.238281 163.667969 Z M 39.113281 163.667969 "/>
<path style=" stroke:none;fill-rule:nonzero;fill:rgb(0%,0%,0%);fill-opacity:1;" d="M 42.113281 163.667969 L 42.113281 157.4375 L 43.074219 157.4375 L 43.074219 158.332031 C 43.515625 157.65625 44.175781 157.3125 45.050781 157.3125 C 45.425781 157.3125 45.765625 157.386719 46.074219 157.519531 C 46.390625 157.644531 46.625 157.824219 46.78125 158.042969 C 46.929688 158.25 47.039062 158.511719 47.113281 158.8125 C 47.15625 159.011719 47.175781 159.347656 47.175781 159.832031 L 47.175781 163.667969 L 46.113281 163.667969 L 46.113281 159.875 C 46.113281 159.449219 46.074219 159.125 45.988281 158.917969 C 45.90625 158.707031 45.761719 158.542969 45.550781 158.417969 C 45.34375 158.28125 45.097656 158.207031 44.824219 158.207031 C 44.375 158.207031 43.988281 158.355469 43.65625 158.644531 C 43.332031 158.925781 43.175781 159.46875 43.175781 160.269531 L 43.175781 163.667969 Z M 42.113281 163.667969 "/>
<path style=" stroke:none;fill-rule:nonzero;fill:rgb(0%,0%,0%);fill-opacity:1;" d="M 48.785156 166.042969 L 48.785156 157.4375 L 49.742188 157.4375 L 49.742188 158.25 C 49.960938 157.933594 50.210938 157.699219 50.492188 157.542969 C 50.785156 157.390625 51.136719 157.3125 51.554688 157.3125 C 52.082031 157.3125 52.542969 157.453125 52.949219 157.730469 C 53.351562 157.996094 53.660156 158.375 53.867188 158.875 C 54.074219 159.375 54.179688 159.917969 54.179688 160.5 C 54.179688 161.140625 54.058594 161.71875 53.824219 162.230469 C 53.601562 162.746094 53.273438 163.140625 52.847656 163.417969 C 52.414062 163.675781 51.957031 163.8125 51.472656 163.8125 C 51.121094 163.8125 50.808594 163.734375 50.535156 163.582031 C 50.253906 163.433594 50.023438 163.246094 49.847656 163.019531 L 49.847656 166.042969 Z M 49.742188 160.582031 C 49.742188 161.390625 49.898438 161.988281 50.222656 162.375 C 50.554688 162.75 50.949219 162.9375 51.410156 162.9375 C 51.867188 162.9375 52.261719 162.746094 52.597656 162.355469 C 52.941406 161.953125 53.117188 161.332031 53.117188 160.5 C 53.117188 159.707031 52.949219 159.121094 52.617188 158.730469 C 52.292969 158.328125 51.910156 158.125 51.449219 158.125 C 51.003906 158.125 50.605469 158.34375 50.261719 158.769531 C 49.914062 159.1875 49.742188 159.792969 49.742188 160.582031 Z M 49.742188 160.582031 "/>
<path style=" stroke:none;fill-rule:nonzero;fill:rgb(0%,0%,0%);fill-opacity:1;" d="M 59.535156 163.667969 L 59.535156 162.75 C 59.046875 163.457031 58.390625 163.8125 57.558594 163.8125 C 57.191406 163.8125 56.855469 163.738281 56.535156 163.605469 C 56.214844 163.453125 55.972656 163.269531 55.808594 163.0625 C 55.652344 162.855469 55.546875 162.597656 55.496094 162.292969 C 55.453125 162.082031 55.433594 161.75 55.433594 161.292969 L 55.433594 157.4375 L 56.472656 157.4375 L 56.472656 160.894531 C 56.472656 161.453125 56.5 161.824219 56.558594 162 C 56.609375 162.28125 56.746094 162.5 56.953125 162.667969 C 57.171875 162.824219 57.441406 162.894531 57.765625 162.894531 C 58.082031 162.894531 58.378906 162.824219 58.660156 162.667969 C 58.9375 162.5 59.128906 162.28125 59.246094 162 C 59.355469 161.722656 59.410156 161.3125 59.410156 160.769531 L 59.410156 157.4375 L 60.472656 157.4375 L 60.472656 163.667969 Z M 59.535156 163.667969 "/>
<path style=" stroke:none;fill-rule:nonzero;fill:rgb(0%,0%,0%);fill-opacity:1;" d="M 64.433594 162.730469 L 64.582031 163.644531 C 64.273438 163.714844 64.007812 163.75 63.789062 163.75 C 63.398438 163.75 63.101562 163.6875 62.894531 163.5625 C 62.683594 163.4375 62.527344 163.28125 62.433594 163.082031 C 62.351562 162.890625 62.308594 162.480469 62.308594 161.855469 L 62.308594 158.269531 L 61.539062 158.269531 L 61.539062 157.4375 L 62.308594 157.4375 L 62.308594 155.894531 L 63.371094 155.269531 L 63.371094 157.4375 L 64.433594 157.4375 L 64.433594 158.269531 L 63.371094 158.269531 L 63.371094 161.894531 C 63.371094 162.203125 63.382812 162.394531 63.414062 162.480469 C 63.457031 162.5625 63.519531 162.636719 63.601562 162.6875 C 63.683594 162.746094 63.800781 162.769531 63.957031 162.769531 C 64.082031 162.769531 64.238281 162.761719 64.433594 162.730469 Z M 64.433594 162.730469 "/>
<path style="fill-rule:nonzero;fill:rgb(100%,100%,100%);fill-opacity:1;stroke-width:1;stroke-linecap:round;stroke-linejoin:round;stroke:rgb(0%,0%,0%);stroke-opacity:1;stroke-miterlimit:10;" d="M 106.625977 70.799805 L 181.625977 70.799805 L 181.625977 102.299805 L 106.625977 102.299805 Z M 106.625977 70.799805 " transform="matrix(1.333333,0,0,1.333333,-124,-33.333333)"/>
<path style="fill-rule:nonzero;fill:rgb(100%,100%,100%);fill-opacity:1;stroke-width:1;stroke-linecap:round;stroke-linejoin:round;stroke:rgb(0%,0%,0%);stroke-opacity:1;stroke-miterlimit:10;" d="M 101.000977 76.799805 L 176.000977 76.799805 L 176.000977 108.299805 L 101.000977 108.299805 Z M 101.000977 76.799805 " transform="matrix(1.333333,0,0,1.333333,-124,-33.333333)"/>
<path style="fill-rule:nonzero;fill:rgb(100%,100%,100%);fill-opacity:1;stroke-width:1;stroke-linecap:round;stroke-linejoin:round;stroke:rgb(0%,0%,0%);stroke-opacity:1;stroke-miterlimit:10;" d="M 93.999023 82.799805 L 168.999023 82.799805 L 168.999023 114.299805 L 93.999023 114.299805 Z M 93.999023 82.799805 " transform="matrix(1.333333,0,0,1.333333,-124,-33.333333)"/>
<path style=" stroke:none;fill-rule:nonzero;fill:rgb(0%,0%,0%);fill-opacity:1;" d="M 15.304688 101.398438 L 15.304688 93.816406 L 12.492188 93.816406 L 12.492188 92.816406 L 19.285156 92.816406 L 19.285156 93.816406 L 16.453125 93.816406 L 16.453125 101.398438 Z M 15.304688 101.398438 "/>
<path style=" stroke:none;fill-rule:nonzero;fill:rgb(0%,0%,0%);fill-opacity:1;" d="M 19.855469 101.398438 L 19.855469 95.171875 L 20.816406 95.171875 L 20.816406 96.128906 C 21.050781 95.6875 21.273438 95.394531 21.480469 95.253906 C 21.691406 95.117188 21.917969 95.046875 22.167969 95.046875 C 22.511719 95.046875 22.878906 95.160156 23.253906 95.378906 L 22.878906 96.359375 C 22.628906 96.207031 22.367188 96.128906 22.105469 96.128906 C 21.882812 96.128906 21.675781 96.203125 21.480469 96.335938 C 21.300781 96.476562 21.167969 96.671875 21.085938 96.921875 C 20.972656 97.296875 20.917969 97.707031 20.917969 98.148438 L 20.917969 101.398438 Z M 19.855469 101.398438 "/>
<path style=" stroke:none;fill-rule:nonzero;fill:rgb(0%,0%,0%);fill-opacity:1;" d="M 27.9375 100.628906 C 27.546875 100.960938 27.171875 101.203125 26.8125 101.335938 C 26.445312 101.472656 26.0625 101.546875 25.644531 101.546875 C 24.960938 101.546875 24.4375 101.378906 24.0625 101.046875 C 23.695312 100.710938 23.519531 100.285156 23.519531 99.753906 C 23.519531 99.453125 23.585938 99.171875 23.726562 98.921875 C 23.863281 98.671875 24.046875 98.472656 24.269531 98.316406 C 24.488281 98.164062 24.738281 98.046875 25.019531 97.960938 C 25.226562 97.921875 25.539062 97.875 25.957031 97.816406 C 26.816406 97.722656 27.445312 97.597656 27.851562 97.441406 C 27.851562 97.304688 27.851562 97.210938 27.851562 97.171875 C 27.851562 96.742188 27.753906 96.441406 27.5625 96.273438 C 27.28125 96.023438 26.878906 95.898438 26.351562 95.898438 C 25.851562 95.898438 25.484375 95.992188 25.25 96.171875 C 25.007812 96.335938 24.835938 96.644531 24.726562 97.085938 L 23.707031 96.960938 C 23.789062 96.519531 23.9375 96.164062 24.144531 95.898438 C 24.363281 95.625 24.675781 95.414062 25.082031 95.273438 C 25.5 95.125 25.96875 95.046875 26.5 95.046875 C 27.039062 95.046875 27.46875 95.109375 27.789062 95.234375 C 28.125 95.359375 28.363281 95.519531 28.519531 95.710938 C 28.6875 95.894531 28.796875 96.128906 28.851562 96.421875 C 28.894531 96.601562 28.914062 96.921875 28.914062 97.378906 L 28.914062 98.796875 C 28.914062 99.769531 28.9375 100.390625 28.976562 100.648438 C 29.019531 100.914062 29.109375 101.164062 29.25 101.398438 L 28.144531 101.398438 C 28.03125 101.179688 27.960938 100.921875 27.9375 100.628906 Z M 27.851562 98.273438 C 27.460938 98.429688 26.882812 98.5625 26.125 98.671875 C 25.691406 98.742188 25.382812 98.816406 25.207031 98.898438 C 25.023438 98.972656 24.882812 99.082031 24.789062 99.234375 C 24.691406 99.390625 24.644531 99.554688 24.644531 99.734375 C 24.644531 100.015625 24.75 100.25 24.957031 100.441406 C 25.164062 100.625 25.476562 100.710938 25.894531 100.710938 C 26.296875 100.710938 26.65625 100.625 26.976562 100.441406 C 27.296875 100.265625 27.53125 100.019531 27.6875 99.710938 C 27.796875 99.476562 27.851562 99.128906 27.851562 98.671875 Z M 27.851562 98.273438 "/>
<path style=" stroke:none;fill-rule:nonzero;fill:rgb(0%,0%,0%);fill-opacity:1;" d="M 30.546875 94.023438 L 30.546875 92.816406 L 31.609375 92.816406 L 31.609375 94.023438 Z M 30.546875 101.398438 L 30.546875 95.171875 L 31.609375 95.171875 L 31.609375 101.398438 Z M 30.546875 101.398438 "/>
<path style=" stroke:none;fill-rule:nonzero;fill:rgb(0%,0%,0%);fill-opacity:1;" d="M 33.214844 101.398438 L 33.214844 95.171875 L 34.171875 95.171875 L 34.171875 96.066406 C 34.617188 95.390625 35.277344 95.046875 36.152344 95.046875 C 36.527344 95.046875 36.867188 95.117188 37.171875 95.253906 C 37.492188 95.378906 37.726562 95.554688 37.882812 95.773438 C 38.03125 95.984375 38.140625 96.242188 38.214844 96.546875 C 38.257812 96.742188 38.277344 97.082031 38.277344 97.566406 L 38.277344 101.398438 L 37.214844 101.398438 L 37.214844 97.609375 C 37.214844 97.179688 37.171875 96.859375 37.089844 96.648438 C 37.007812 96.441406 36.859375 96.273438 36.652344 96.148438 C 36.445312 96.015625 36.199219 95.941406 35.921875 95.941406 C 35.476562 95.941406 35.089844 96.085938 34.757812 96.378906 C 34.433594 96.660156 34.277344 97.203125 34.277344 98.003906 L 34.277344 101.398438 Z M 33.214844 101.398438 "/>
<path style=" stroke:none;fill-rule:nonzero;fill:rgb(0%,0%,0%);fill-opacity:1;" d="M 39.890625 94.023438 L 39.890625 92.816406 L 40.953125 92.816406 L 40.953125 94.023438 Z M 39.890625 101.398438 L 39.890625 95.171875 L 40.953125 95.171875 L 40.953125 101.398438 Z M 39.890625 101.398438 "/>
<path style=" stroke:none;fill-rule:nonzero;fill:rgb(0%,0%,0%);fill-opacity:1;" d="M 42.554688 101.398438 L 42.554688 95.171875 L 43.511719 95.171875 L 43.511719 96.066406 C 43.957031 95.390625 44.617188 95.046875 45.492188 95.046875 C 45.867188 95.046875 46.207031 95.117188 46.511719 95.253906 C 46.832031 95.378906 47.066406 95.554688 47.222656 95.773438 C 47.371094 95.984375 47.480469 96.242188 47.554688 96.546875 C 47.597656 96.742188 47.617188 97.082031 47.617188 97.566406 L 47.617188 101.398438 L 46.554688 101.398438 L 46.554688 97.609375 C 46.554688 97.179688 46.511719 96.859375 46.429688 96.648438 C 46.347656 96.441406 46.199219 96.273438 45.992188 96.148438 C 45.785156 96.015625 45.539062 95.941406 45.261719 95.941406 C 44.816406 95.941406 44.429688 96.085938 44.097656 96.378906 C 43.773438 96.660156 43.617188 97.203125 43.617188 98.003906 L 43.617188 101.398438 Z M 42.554688 101.398438 "/>
<path style=" stroke:none;fill-rule:nonzero;fill:rgb(0%,0%,0%);fill-opacity:1;" d="M 49.042969 101.921875 L 50.0625 102.066406 C 50.105469 102.382812 50.21875 102.613281 50.417969 102.753906 C 50.675781 102.945312 51.042969 103.046875 51.5 103.046875 C 51.984375 103.046875 52.359375 102.945312 52.625 102.753906 C 52.886719 102.554688 53.066406 102.285156 53.167969 101.941406 C 53.21875 101.71875 53.238281 101.269531 53.230469 100.585938 C 52.769531 101.128906 52.199219 101.398438 51.519531 101.398438 C 50.65625 101.398438 49.988281 101.097656 49.519531 100.484375 C 49.0625 99.859375 48.832031 99.117188 48.832031 98.253906 C 48.832031 97.660156 48.9375 97.109375 49.144531 96.609375 C 49.363281 96.109375 49.675781 95.726562 50.082031 95.460938 C 50.484375 95.1875 50.964844 95.046875 51.519531 95.046875 C 52.253906 95.046875 52.859375 95.335938 53.332031 95.921875 L 53.332031 95.171875 L 54.3125 95.171875 L 54.3125 100.546875 C 54.3125 101.515625 54.207031 102.203125 54 102.609375 C 53.800781 103.007812 53.488281 103.328125 53.0625 103.566406 C 52.644531 103.800781 52.125 103.921875 51.5 103.921875 C 50.75 103.921875 50.144531 103.753906 49.6875 103.421875 C 49.238281 103.085938 49.027344 102.585938 49.042969 101.921875 Z M 49.917969 98.171875 C 49.917969 98.992188 50.074219 99.585938 50.394531 99.960938 C 50.714844 100.335938 51.113281 100.523438 51.605469 100.523438 C 52.089844 100.523438 52.5 100.335938 52.832031 99.960938 C 53.167969 99.585938 53.332031 99.003906 53.332031 98.210938 C 53.332031 97.453125 53.15625 96.875 52.8125 96.484375 C 52.480469 96.097656 52.074219 95.898438 51.605469 95.898438 C 51.128906 95.898438 50.730469 96.097656 50.394531 96.484375 C 50.074219 96.859375 49.917969 97.421875 49.917969 98.171875 Z M 49.917969 98.171875 "/>
<path style=" stroke:none;fill-rule:nonzero;fill:rgb(0%,0%,0%);fill-opacity:1;" d="M 59.238281 94.023438 L 59.238281 92.816406 L 60.300781 92.816406 L 60.300781 94.023438 Z M 59.238281 101.398438 L 59.238281 95.171875 L 60.300781 95.171875 L 60.300781 101.398438 Z M 59.238281 101.398438 "/>
<path style=" stroke:none;fill-rule:nonzero;fill:rgb(0%,0%,0%);fill-opacity:1;" d="M 61.902344 101.398438 L 61.902344 95.171875 L 62.863281 95.171875 L 62.863281 96.066406 C 63.304688 95.390625 63.964844 95.046875 64.839844 95.046875 C 65.214844 95.046875 65.554688 95.117188 65.863281 95.253906 C 66.179688 95.378906 66.414062 95.554688 66.570312 95.773438 C 66.722656 95.984375 66.832031 96.242188 66.902344 96.546875 C 66.945312 96.742188 66.964844 97.082031 66.964844 97.566406 L 66.964844 101.398438 L 65.902344 101.398438 L 65.902344 97.609375 C 65.902344 97.179688 65.863281 96.859375 65.777344 96.648438 C 65.695312 96.441406 65.550781 96.273438 65.339844 96.148438 C 65.132812 96.015625 64.886719 95.941406 64.613281 95.941406 C 64.164062 95.941406 63.777344 96.085938 63.445312 96.378906 C 63.121094 96.660156 62.964844 97.203125 62.964844 98.003906 L 62.964844 101.398438 Z M 61.902344 101.398438 "/>
<path style=" stroke:none;fill-rule:nonzero;fill:rgb(0%,0%,0%);fill-opacity:1;" d="M 68.578125 103.773438 L 68.578125 95.171875 L 69.535156 95.171875 L 69.535156 95.984375 C 69.753906 95.664062 70.003906 95.429688 70.285156 95.273438 C 70.578125 95.125 70.933594 95.046875 71.347656 95.046875 C 71.875 95.046875 72.339844 95.1875 72.746094 95.460938 C 73.144531 95.726562 73.453125 96.109375 73.660156 96.609375 C 73.871094 97.109375 73.972656 97.648438 73.972656 98.234375 C 73.972656 98.875 73.855469 99.453125 73.621094 99.960938 C 73.394531 100.476562 73.066406 100.875 72.640625 101.148438 C 72.207031 101.410156 71.75 101.546875 71.265625 101.546875 C 70.917969 101.546875 70.605469 101.46875 70.328125 101.316406 C 70.046875 101.164062 69.816406 100.976562 69.640625 100.753906 L 69.640625 103.773438 Z M 69.535156 98.316406 C 69.535156 99.125 69.691406 99.722656 70.015625 100.109375 C 70.347656 100.484375 70.746094 100.671875 71.203125 100.671875 C 71.660156 100.671875 72.058594 100.476562 72.390625 100.085938 C 72.734375 99.6875 72.910156 99.066406 72.910156 98.234375 C 72.910156 97.441406 72.746094 96.851562 72.410156 96.460938 C 72.089844 96.0625 71.703125 95.859375 71.246094 95.859375 C 70.796875 95.859375 70.402344 96.078125 70.058594 96.503906 C 69.707031 96.921875 69.535156 97.523438 69.535156 98.316406 Z M 69.535156 98.316406 "/>
<path style=" stroke:none;fill-rule:nonzero;fill:rgb(0%,0%,0%);fill-opacity:1;" d="M 79.335938 101.398438 L 79.335938 100.484375 C 78.847656 101.191406 78.191406 101.546875 77.355469 101.546875 C 76.992188 101.546875 76.652344 101.472656 76.335938 101.335938 C 76.011719 101.1875 75.773438 101.003906 75.605469 100.796875 C 75.449219 100.585938 75.347656 100.332031 75.292969 100.023438 C 75.253906 99.816406 75.230469 99.484375 75.230469 99.023438 L 75.230469 95.171875 L 76.273438 95.171875 L 76.273438 98.628906 C 76.273438 99.1875 76.300781 99.554688 76.355469 99.734375 C 76.410156 100.015625 76.542969 100.234375 76.753906 100.398438 C 76.972656 100.554688 77.242188 100.628906 77.566406 100.628906 C 77.882812 100.628906 78.179688 100.554688 78.460938 100.398438 C 78.738281 100.234375 78.929688 100.015625 79.042969 99.734375 C 79.152344 99.457031 79.210938 99.046875 79.210938 98.503906 L 79.210938 95.171875 L 80.273438 95.171875 L 80.273438 101.398438 Z M 79.335938 101.398438 "/>
<path style=" stroke:none;fill-rule:nonzero;fill:rgb(0%,0%,0%);fill-opacity:1;" d="M 84.238281 100.460938 L 84.386719 101.378906 C 84.078125 101.445312 83.8125 101.484375 83.59375 101.484375 C 83.203125 101.484375 82.90625 101.421875 82.699219 101.296875 C 82.488281 101.171875 82.332031 101.015625 82.238281 100.816406 C 82.15625 100.625 82.113281 100.210938 82.113281 99.585938 L 82.113281 96.003906 L 81.34375 96.003906 L 81.34375 95.171875 L 82.113281 95.171875 L 82.113281 93.628906 L 83.175781 93.003906 L 83.175781 95.171875 L 84.238281 95.171875 L 84.238281 96.003906 L 83.175781 96.003906 L 83.175781 99.628906 C 83.175781 99.9375 83.1875 100.128906 83.21875 100.210938 C 83.261719 100.296875 83.324219 100.367188 83.40625 100.421875 C 83.488281 100.476562 83.605469 100.503906 83.761719 100.503906 C 83.886719 100.503906 84.042969 100.492188 84.238281 100.460938 Z M 84.238281 100.460938 "/>
<path style=" stroke:none;fill-rule:nonzero;fill:rgb(0%,0%,0%);fill-opacity:1;" d="M 84.84375 99.546875 L 85.886719 99.378906 C 85.9375 99.796875 86.097656 100.117188 86.363281 100.335938 C 86.640625 100.5625 87.015625 100.671875 87.488281 100.671875 C 87.972656 100.671875 88.332031 100.578125 88.574219 100.378906 C 88.808594 100.1875 88.925781 99.957031 88.925781 99.691406 C 88.925781 99.441406 88.824219 99.253906 88.613281 99.128906 C 88.457031 99.035156 88.097656 98.910156 87.53125 98.753906 C 86.75 98.5625 86.207031 98.394531 85.90625 98.253906 C 85.613281 98.117188 85.390625 97.921875 85.238281 97.671875 C 85.082031 97.421875 85.011719 97.144531 85.011719 96.835938 C 85.011719 96.5625 85.074219 96.304688 85.199219 96.066406 C 85.324219 95.832031 85.496094 95.628906 85.71875 95.460938 C 85.886719 95.351562 86.105469 95.253906 86.386719 95.171875 C 86.675781 95.085938 86.980469 95.046875 87.300781 95.046875 C 87.785156 95.046875 88.207031 95.117188 88.574219 95.253906 C 88.949219 95.394531 89.222656 95.582031 89.40625 95.816406 C 89.582031 96.054688 89.707031 96.375 89.78125 96.773438 L 88.738281 96.921875 C 88.699219 96.601562 88.558594 96.351562 88.324219 96.171875 C 88.097656 95.992188 87.785156 95.898438 87.386719 95.898438 C 86.894531 95.898438 86.550781 95.984375 86.34375 96.148438 C 86.136719 96.304688 86.03125 96.492188 86.03125 96.710938 C 86.03125 96.851562 86.074219 96.972656 86.15625 97.066406 C 86.238281 97.191406 86.375 97.289062 86.574219 97.359375 C 86.667969 97.398438 86.972656 97.492188 87.488281 97.628906 C 88.238281 97.828125 88.761719 97.984375 89.050781 98.109375 C 89.355469 98.234375 89.59375 98.421875 89.761719 98.671875 C 89.925781 98.910156 90.011719 99.207031 90.011719 99.566406 C 90.011719 99.929688 89.90625 100.265625 89.699219 100.566406 C 89.488281 100.875 89.1875 101.117188 88.800781 101.296875 C 88.425781 101.460938 87.988281 101.546875 87.488281 101.546875 C 86.683594 101.546875 86.0625 101.378906 85.636719 101.046875 C 85.21875 100.703125 84.953125 100.203125 84.84375 99.546875 Z M 84.84375 99.546875 "/>
<path style="fill-rule:nonzero;fill:rgb(100%,100%,100%);fill-opacity:1;stroke-width:1;stroke-linecap:round;stroke-linejoin:round;stroke:rgb(0%,0%,0%);stroke-opacity:1;stroke-miterlimit:10;" d="M 319.03418 69.991211 L 394.03418 69.991211 L 394.03418 101.491211 L 319.03418 101.491211 Z M 319.03418 69.991211 " transform="matrix(1.333333,0,0,1.333333,-124,-33.333333)"/>
<path style="fill-rule:nonzero;fill:rgb(100%,100%,100%);fill-opacity:1;stroke-width:1;stroke-linecap:round;stroke-linejoin:round;stroke:rgb(0%,0%,0%);stroke-opacity:1;stroke-miterlimit:10;" d="M 312.199219 76.700195 L 387.199219 76.700195 L 387.199219 108.200195 L 312.199219 108.200195 Z M 312.199219 76.700195 " transform="matrix(1.333333,0,0,1.333333,-124,-33.333333)"/>
<path style="fill-rule:nonzero;fill:rgb(100%,100%,100%);fill-opacity:1;stroke-width:1;stroke-linecap:round;stroke-linejoin:round;stroke:rgb(0%,0%,0%);stroke-opacity:1;stroke-miterlimit:10;" d="M 305.200195 82.700195 L 380.200195 82.700195 L 380.200195 114.200195 L 305.200195 114.200195 Z M 305.200195 82.700195 " transform="matrix(1.333333,0,0,1.333333,-124,-33.333333)"/>
<path style=" stroke:none;fill-rule:nonzero;fill:rgb(0%,0%,0%);fill-opacity:1;" d="M 297.238281 101.265625 L 297.238281 93.683594 L 294.425781 93.683594 L 294.425781 92.683594 L 301.21875 92.683594 L 301.21875 93.683594 L 298.386719 93.683594 L 298.386719 101.265625 Z M 297.238281 101.265625 "/>
<path style=" stroke:none;fill-rule:nonzero;fill:rgb(0%,0%,0%);fill-opacity:1;" d="M 301.789062 101.265625 L 301.789062 95.039062 L 302.75 95.039062 L 302.75 95.996094 C 302.984375 95.554688 303.207031 95.261719 303.414062 95.121094 C 303.625 94.984375 303.851562 94.914062 304.101562 94.914062 C 304.445312 94.914062 304.8125 95.027344 305.1875 95.246094 L 304.8125 96.226562 C 304.5625 96.074219 304.300781 95.996094 304.039062 95.996094 C 303.816406 95.996094 303.609375 96.070312 303.414062 96.203125 C 303.234375 96.34375 303.101562 96.539062 303.019531 96.789062 C 302.90625 97.164062 302.851562 97.574219 302.851562 98.015625 L 302.851562 101.265625 Z M 301.789062 101.265625 "/>
<path style=" stroke:none;fill-rule:nonzero;fill:rgb(0%,0%,0%);fill-opacity:1;" d="M 309.871094 100.496094 C 309.480469 100.828125 309.105469 101.070312 308.746094 101.203125 C 308.378906 101.339844 307.996094 101.414062 307.578125 101.414062 C 306.894531 101.414062 306.371094 101.246094 305.996094 100.914062 C 305.628906 100.578125 305.453125 100.152344 305.453125 99.621094 C 305.453125 99.320312 305.519531 99.039062 305.660156 98.789062 C 305.796875 98.539062 305.980469 98.339844 306.203125 98.183594 C 306.421875 98.03125 306.671875 97.914062 306.953125 97.828125 C 307.160156 97.789062 307.472656 97.742188 307.890625 97.683594 C 308.75 97.589844 309.378906 97.464844 309.785156 97.308594 C 309.785156 97.171875 309.785156 97.078125 309.785156 97.039062 C 309.785156 96.609375 309.6875 96.308594 309.496094 96.140625 C 309.214844 95.890625 308.8125 95.765625 308.285156 95.765625 C 307.785156 95.765625 307.417969 95.859375 307.183594 96.039062 C 306.941406 96.203125 306.769531 96.511719 306.660156 96.953125 L 305.640625 96.828125 C 305.722656 96.386719 305.871094 96.03125 306.078125 95.765625 C 306.296875 95.492188 306.609375 95.28125 307.015625 95.140625 C 307.433594 94.992188 307.902344 94.914062 308.433594 94.914062 C 308.972656 94.914062 309.402344 94.976562 309.722656 95.101562 C 310.058594 95.226562 310.296875 95.386719 310.453125 95.578125 C 310.621094 95.761719 310.730469 95.996094 310.785156 96.289062 C 310.828125 96.46875 310.847656 96.789062 310.847656 97.246094 L 310.847656 98.664062 C 310.847656 99.636719 310.871094 100.257812 310.910156 100.515625 C 310.953125 100.78125 311.042969 101.03125 311.183594 101.265625 L 310.078125 101.265625 C 309.964844 101.046875 309.894531 100.789062 309.871094 100.496094 Z M 309.785156 98.140625 C 309.394531 98.296875 308.816406 98.429688 308.058594 98.539062 C 307.625 98.609375 307.316406 98.683594 307.140625 98.765625 C 306.957031 98.839844 306.816406 98.949219 306.722656 99.101562 C 306.625 99.257812 306.578125 99.421875 306.578125 99.601562 C 306.578125 99.882812 306.683594 100.117188 306.890625 100.308594 C 307.097656 100.492188 307.410156 100.578125 307.828125 100.578125 C 308.230469 100.578125 308.589844 100.492188 308.910156 100.308594 C 309.230469 100.132812 309.464844 99.886719 309.621094 99.578125 C 309.730469 99.34375 309.785156 98.996094 309.785156 98.539062 Z M 309.785156 98.140625 "/>
<path style=" stroke:none;fill-rule:nonzero;fill:rgb(0%,0%,0%);fill-opacity:1;" d="M 312.480469 93.890625 L 312.480469 92.683594 L 313.542969 92.683594 L 313.542969 93.890625 Z M 312.480469 101.265625 L 312.480469 95.039062 L 313.542969 95.039062 L 313.542969 101.265625 Z M 312.480469 101.265625 "/>
<path style=" stroke:none;fill-rule:nonzero;fill:rgb(0%,0%,0%);fill-opacity:1;" d="M 315.148438 101.265625 L 315.148438 95.039062 L 316.105469 95.039062 L 316.105469 95.933594 C 316.550781 95.257812 317.210938 94.914062 318.085938 94.914062 C 318.460938 94.914062 318.800781 94.984375 319.105469 95.121094 C 319.425781 95.246094 319.660156 95.421875 319.816406 95.640625 C 319.964844 95.851562 320.074219 96.109375 320.148438 96.414062 C 320.191406 96.609375 320.210938 96.949219 320.210938 97.433594 L 320.210938 101.265625 L 319.148438 101.265625 L 319.148438 97.476562 C 319.148438 97.046875 319.105469 96.726562 319.023438 96.515625 C 318.941406 96.308594 318.792969 96.140625 318.585938 96.015625 C 318.378906 95.882812 318.132812 95.808594 317.855469 95.808594 C 317.410156 95.808594 317.023438 95.953125 316.691406 96.246094 C 316.367188 96.527344 316.210938 97.070312 316.210938 97.871094 L 316.210938 101.265625 Z M 315.148438 101.265625 "/>
<path style=" stroke:none;fill-rule:nonzero;fill:rgb(0%,0%,0%);fill-opacity:1;" d="M 321.824219 93.890625 L 321.824219 92.683594 L 322.886719 92.683594 L 322.886719 93.890625 Z M 321.824219 101.265625 L 321.824219 95.039062 L 322.886719 95.039062 L 322.886719 101.265625 Z M 321.824219 101.265625 "/>
<path style=" stroke:none;fill-rule:nonzero;fill:rgb(0%,0%,0%);fill-opacity:1;" d="M 324.488281 101.265625 L 324.488281 95.039062 L 325.449219 95.039062 L 325.449219 95.933594 C 325.890625 95.257812 326.550781 94.914062 327.425781 94.914062 C 327.800781 94.914062 328.140625 94.984375 328.449219 95.121094 C 328.765625 95.246094 329 95.421875 329.15625 95.640625 C 329.308594 95.851562 329.417969 96.109375 329.488281 96.414062 C 329.53125 96.609375 329.550781 96.949219 329.550781 97.433594 L 329.550781 101.265625 L 328.488281 101.265625 L 328.488281 97.476562 C 328.488281 97.046875 328.449219 96.726562 328.363281 96.515625 C 328.28125 96.308594 328.136719 96.140625 327.925781 96.015625 C 327.71875 95.882812 327.472656 95.808594 327.199219 95.808594 C 326.75 95.808594 326.363281 95.953125 326.03125 96.246094 C 325.707031 96.527344 325.550781 97.070312 325.550781 97.871094 L 325.550781 101.265625 Z M 324.488281 101.265625 "/>
<path style=" stroke:none;fill-rule:nonzero;fill:rgb(0%,0%,0%);fill-opacity:1;" d="M 330.976562 101.789062 L 331.996094 101.933594 C 332.039062 102.25 332.152344 102.480469 332.351562 102.621094 C 332.613281 102.8125 332.976562 102.914062 333.433594 102.914062 C 333.917969 102.914062 334.292969 102.8125 334.558594 102.621094 C 334.820312 102.421875 335.003906 102.152344 335.101562 101.808594 C 335.152344 101.585938 335.175781 101.136719 335.164062 100.453125 C 334.707031 100.996094 334.132812 101.265625 333.457031 101.265625 C 332.589844 101.265625 331.925781 100.964844 331.457031 100.351562 C 330.996094 99.726562 330.769531 98.984375 330.769531 98.121094 C 330.769531 97.527344 330.871094 96.976562 331.082031 96.476562 C 331.300781 95.976562 331.613281 95.59375 332.019531 95.328125 C 332.417969 95.054688 332.898438 94.914062 333.457031 94.914062 C 334.191406 94.914062 334.792969 95.203125 335.269531 95.789062 L 335.269531 95.039062 L 336.246094 95.039062 L 336.246094 100.414062 C 336.246094 101.382812 336.144531 102.070312 335.933594 102.476562 C 335.738281 102.875 335.425781 103.195312 334.996094 103.433594 C 334.582031 103.667969 334.058594 103.789062 333.433594 103.789062 C 332.683594 103.789062 332.082031 103.621094 331.621094 103.289062 C 331.175781 102.953125 330.960938 102.453125 330.976562 101.789062 Z M 331.851562 98.039062 C 331.851562 98.859375 332.007812 99.453125 332.332031 99.828125 C 332.648438 100.203125 333.050781 100.390625 333.539062 100.390625 C 334.023438 100.390625 334.433594 100.203125 334.769531 99.828125 C 335.101562 99.453125 335.269531 98.871094 335.269531 98.078125 C 335.269531 97.320312 335.089844 96.742188 334.746094 96.351562 C 334.414062 95.964844 334.007812 95.765625 333.539062 95.765625 C 333.066406 95.765625 332.664062 95.964844 332.332031 96.351562 C 332.007812 96.726562 331.851562 97.289062 331.851562 98.039062 Z M 331.851562 98.039062 "/>
<path style=" stroke:none;fill-rule:nonzero;fill:rgb(0%,0%,0%);fill-opacity:1;" d="M 341.152344 101.265625 L 341.152344 92.683594 L 342.191406 92.683594 L 342.191406 101.265625 Z M 341.152344 101.265625 "/>
<path style=" stroke:none;fill-rule:nonzero;fill:rgb(0%,0%,0%);fill-opacity:1;" d="M 347.902344 100.496094 C 347.511719 100.828125 347.136719 101.070312 346.777344 101.203125 C 346.410156 101.339844 346.027344 101.414062 345.609375 101.414062 C 344.925781 101.414062 344.402344 101.246094 344.027344 100.914062 C 343.660156 100.578125 343.484375 100.152344 343.484375 99.621094 C 343.484375 99.320312 343.550781 99.039062 343.691406 98.789062 C 343.828125 98.539062 344.011719 98.339844 344.234375 98.183594 C 344.453125 98.03125 344.703125 97.914062 344.984375 97.828125 C 345.191406 97.789062 345.503906 97.742188 345.921875 97.683594 C 346.78125 97.589844 347.410156 97.464844 347.816406 97.308594 C 347.816406 97.171875 347.816406 97.078125 347.816406 97.039062 C 347.816406 96.609375 347.71875 96.308594 347.527344 96.140625 C 347.246094 95.890625 346.84375 95.765625 346.316406 95.765625 C 345.816406 95.765625 345.449219 95.859375 345.214844 96.039062 C 344.972656 96.203125 344.800781 96.511719 344.691406 96.953125 L 343.671875 96.828125 C 343.753906 96.386719 343.902344 96.03125 344.109375 95.765625 C 344.328125 95.492188 344.640625 95.28125 345.046875 95.140625 C 345.464844 94.992188 345.933594 94.914062 346.464844 94.914062 C 347.003906 94.914062 347.433594 94.976562 347.753906 95.101562 C 348.089844 95.226562 348.328125 95.386719 348.484375 95.578125 C 348.652344 95.761719 348.761719 95.996094 348.816406 96.289062 C 348.859375 96.46875 348.878906 96.789062 348.878906 97.246094 L 348.878906 98.664062 C 348.878906 99.636719 348.902344 100.257812 348.941406 100.515625 C 348.984375 100.78125 349.074219 101.03125 349.214844 101.265625 L 348.109375 101.265625 C 347.996094 101.046875 347.925781 100.789062 347.902344 100.496094 Z M 347.816406 98.140625 C 347.425781 98.296875 346.847656 98.429688 346.089844 98.539062 C 345.65625 98.609375 345.347656 98.683594 345.171875 98.765625 C 344.988281 98.839844 344.847656 98.949219 344.753906 99.101562 C 344.65625 99.257812 344.609375 99.421875 344.609375 99.601562 C 344.609375 99.882812 344.714844 100.117188 344.921875 100.308594 C 345.128906 100.492188 345.441406 100.578125 345.859375 100.578125 C 346.261719 100.578125 346.621094 100.492188 346.941406 100.308594 C 347.261719 100.132812 347.496094 99.886719 347.652344 99.578125 C 347.761719 99.34375 347.816406 98.996094 347.816406 98.539062 Z M 347.816406 98.140625 "/>
<path style=" stroke:none;fill-rule:nonzero;fill:rgb(0%,0%,0%);fill-opacity:1;" d="M 351.492188 101.265625 L 350.511719 101.265625 L 350.511719 92.683594 L 351.554688 92.683594 L 351.554688 95.746094 C 351.996094 95.195312 352.5625 94.914062 353.261719 94.914062 C 353.648438 94.914062 354.011719 94.992188 354.34375 95.140625 C 354.6875 95.296875 354.976562 95.511719 355.199219 95.789062 C 355.417969 96.070312 355.59375 96.40625 355.71875 96.808594 C 355.84375 97.199219 355.90625 97.617188 355.90625 98.058594 C 355.90625 99.132812 355.640625 99.953125 355.117188 100.539062 C 354.585938 101.121094 353.953125 101.414062 353.21875 101.414062 C 352.480469 101.414062 351.90625 101.109375 351.492188 100.496094 Z M 351.46875 98.101562 C 351.46875 98.851562 351.574219 99.390625 351.78125 99.726562 C 352.117188 100.265625 352.558594 100.539062 353.117188 100.539062 C 353.585938 100.539062 353.992188 100.339844 354.324219 99.933594 C 354.65625 99.53125 354.824219 98.933594 354.824219 98.140625 C 354.824219 97.339844 354.664062 96.742188 354.34375 96.351562 C 354.023438 95.964844 353.636719 95.765625 353.179688 95.765625 C 352.703125 95.765625 352.304688 95.96875 351.96875 96.371094 C 351.636719 96.777344 351.46875 97.351562 351.46875 98.101562 Z M 351.46875 98.101562 "/>
<path style=" stroke:none;fill-rule:nonzero;fill:rgb(0%,0%,0%);fill-opacity:1;" d="M 361.4375 99.265625 L 362.539062 99.390625 C 362.359375 100.03125 362.03125 100.53125 361.5625 100.890625 C 361.101562 101.242188 360.507812 101.414062 359.789062 101.414062 C 358.882812 101.414062 358.164062 101.136719 357.625 100.578125 C 357.09375 100.011719 356.832031 99.21875 356.832031 98.203125 C 356.832031 97.164062 357.101562 96.359375 357.644531 95.789062 C 358.1875 95.203125 358.882812 94.914062 359.75 94.914062 C 360.582031 94.914062 361.253906 95.199219 361.769531 95.765625 C 362.296875 96.324219 362.5625 97.117188 362.5625 98.140625 C 362.5625 98.214844 362.5625 98.308594 362.5625 98.433594 L 357.914062 98.433594 C 357.957031 99.117188 358.148438 99.636719 358.5 99.996094 C 358.84375 100.359375 359.28125 100.539062 359.8125 100.539062 C 360.195312 100.539062 360.523438 100.445312 360.789062 100.246094 C 361.066406 100.039062 361.28125 99.714844 361.4375 99.265625 Z M 357.976562 97.558594 L 361.457031 97.558594 C 361.414062 97.03125 361.28125 96.636719 361.0625 96.371094 C 360.726562 95.96875 360.289062 95.765625 359.75 95.765625 C 359.257812 95.765625 358.851562 95.933594 358.519531 96.265625 C 358.195312 96.589844 358.019531 97.015625 357.976562 97.558594 Z M 357.976562 97.558594 "/>
<path style=" stroke:none;fill-rule:nonzero;fill:rgb(0%,0%,0%);fill-opacity:1;" d="M 363.839844 101.265625 L 363.839844 92.683594 L 364.882812 92.683594 L 364.882812 101.265625 Z M 363.839844 101.265625 "/>
<path style=" stroke:none;fill-rule:nonzero;fill:rgb(0%,0%,0%);fill-opacity:1;" d="M 366.109375 99.414062 L 367.152344 99.246094 C 367.203125 99.664062 367.367188 99.984375 367.632812 100.203125 C 367.90625 100.429688 368.28125 100.539062 368.757812 100.539062 C 369.242188 100.539062 369.601562 100.445312 369.839844 100.246094 C 370.074219 100.054688 370.195312 99.824219 370.195312 99.558594 C 370.195312 99.308594 370.089844 99.121094 369.882812 98.996094 C 369.726562 98.902344 369.367188 98.777344 368.796875 98.621094 C 368.015625 98.429688 367.476562 98.261719 367.171875 98.121094 C 366.882812 97.984375 366.65625 97.789062 366.507812 97.539062 C 366.351562 97.289062 366.277344 97.011719 366.277344 96.703125 C 366.277344 96.429688 366.339844 96.171875 366.464844 95.933594 C 366.589844 95.699219 366.761719 95.496094 366.984375 95.328125 C 367.152344 95.21875 367.371094 95.121094 367.652344 95.039062 C 367.945312 94.953125 368.246094 94.914062 368.570312 94.914062 C 369.054688 94.914062 369.476562 94.984375 369.839844 95.121094 C 370.214844 95.261719 370.492188 95.449219 370.671875 95.683594 C 370.851562 95.921875 370.976562 96.242188 371.046875 96.640625 L 370.007812 96.789062 C 369.964844 96.46875 369.824219 96.21875 369.589844 96.039062 C 369.367188 95.859375 369.054688 95.765625 368.652344 95.765625 C 368.164062 95.765625 367.820312 95.851562 367.609375 96.015625 C 367.402344 96.171875 367.296875 96.359375 367.296875 96.578125 C 367.296875 96.71875 367.339844 96.839844 367.421875 96.933594 C 367.507812 97.058594 367.640625 97.15625 367.839844 97.226562 C 367.933594 97.265625 368.242188 97.359375 368.757812 97.496094 C 369.507812 97.695312 370.027344 97.851562 370.320312 97.976562 C 370.621094 98.101562 370.859375 98.289062 371.027344 98.539062 C 371.195312 98.777344 371.277344 99.074219 371.277344 99.433594 C 371.277344 99.796875 371.171875 100.132812 370.964844 100.433594 C 370.757812 100.742188 370.453125 100.984375 370.070312 101.164062 C 369.695312 101.328125 369.257812 101.414062 368.757812 101.414062 C 367.949219 101.414062 367.328125 101.246094 366.902344 100.914062 C 366.484375 100.570312 366.21875 100.070312 366.109375 99.414062 Z M 366.109375 99.414062 "/>
<path style="fill-rule:nonzero;fill:rgb(100%,100%,100%);fill-opacity:1;stroke-width:1;stroke-linecap:round;stroke-linejoin:round;stroke:rgb(0%,0%,0%);stroke-opacity:1;stroke-miterlimit:10;" d="M 203.961914 82.700195 L 278.961914 82.700195 L 278.961914 114.200195 L 203.961914 114.200195 Z M 203.961914 82.700195 " transform="matrix(1.333333,0,0,1.333333,-124,-33.333333)"/>
<path style=" stroke:none;fill-rule:nonzero;fill:rgb(0%,0%,0%);fill-opacity:1;" d="M 168.472656 92.125 L 169.535156 92.019531 C 169.589844 92.453125 169.707031 92.804688 169.890625 93.082031 C 170.082031 93.363281 170.375 93.582031 170.765625 93.75 C 171.152344 93.914062 171.589844 94 172.078125 94 C 172.503906 94 172.890625 93.9375 173.222656 93.8125 C 173.558594 93.6875 173.808594 93.515625 173.972656 93.289062 C 174.140625 93.054688 174.222656 92.804688 174.222656 92.539062 C 174.222656 92.28125 174.140625 92.050781 173.972656 91.851562 C 173.816406 91.644531 173.5625 91.472656 173.203125 91.332031 C 172.980469 91.238281 172.472656 91.097656 171.683594 90.914062 C 170.890625 90.722656 170.332031 90.539062 170.015625 90.375 C 169.609375 90.164062 169.308594 89.90625 169.097656 89.582031 C 168.902344 89.265625 168.808594 88.90625 168.808594 88.5 C 168.808594 88.070312 168.921875 87.664062 169.160156 87.289062 C 169.410156 86.914062 169.769531 86.632812 170.246094 86.4375 C 170.714844 86.242188 171.246094 86.144531 171.828125 86.144531 C 172.464844 86.144531 173.027344 86.25 173.515625 86.457031 C 174 86.65625 174.371094 86.953125 174.621094 87.351562 C 174.878906 87.757812 175.027344 88.207031 175.058594 88.707031 L 173.953125 88.789062 C 173.894531 88.25 173.703125 87.84375 173.371094 87.5625 C 173.035156 87.285156 172.535156 87.144531 171.871094 87.144531 C 171.1875 87.144531 170.6875 87.269531 170.371094 87.519531 C 170.046875 87.769531 169.890625 88.078125 169.890625 88.4375 C 169.890625 88.742188 170 88.992188 170.222656 89.1875 C 170.441406 89.394531 171.015625 89.601562 171.933594 89.8125 C 172.859375 90.019531 173.5 90.203125 173.847656 90.351562 C 174.347656 90.578125 174.714844 90.867188 174.953125 91.226562 C 175.1875 91.578125 175.308594 91.988281 175.308594 92.457031 C 175.308594 92.90625 175.171875 93.332031 174.910156 93.75 C 174.644531 94.15625 174.269531 94.46875 173.785156 94.6875 C 173.296875 94.90625 172.75 95.019531 172.140625 95.019531 C 171.359375 95.019531 170.707031 94.90625 170.183594 94.6875 C 169.652344 94.453125 169.234375 94.113281 168.933594 93.664062 C 168.640625 93.207031 168.484375 92.695312 168.472656 92.125 Z M 168.472656 92.125 "/>
<path style=" stroke:none;fill-rule:nonzero;fill:rgb(0%,0%,0%);fill-opacity:1;" d="M 180.8125 94.875 L 180.8125 93.957031 C 180.320312 94.664062 179.664062 95.019531 178.832031 95.019531 C 178.46875 95.019531 178.128906 94.945312 177.8125 94.8125 C 177.488281 94.660156 177.25 94.476562 177.082031 94.269531 C 176.925781 94.0625 176.820312 93.804688 176.769531 93.5 C 176.726562 93.289062 176.707031 92.957031 176.707031 92.5 L 176.707031 88.644531 L 177.75 88.644531 L 177.75 92.101562 C 177.75 92.660156 177.773438 93.03125 177.832031 93.207031 C 177.882812 93.488281 178.019531 93.707031 178.226562 93.875 C 178.445312 94.03125 178.71875 94.101562 179.039062 94.101562 C 179.359375 94.101562 179.65625 94.03125 179.9375 93.875 C 180.210938 93.707031 180.40625 93.488281 180.519531 93.207031 C 180.628906 92.929688 180.6875 92.519531 180.6875 91.976562 L 180.6875 88.644531 L 181.75 88.644531 L 181.75 94.875 Z M 180.8125 94.875 "/>
<path style=" stroke:none;fill-rule:nonzero;fill:rgb(0%,0%,0%);fill-opacity:1;" d="M 183.402344 97.25 L 183.402344 88.644531 L 184.359375 88.644531 L 184.359375 89.457031 C 184.578125 89.140625 184.828125 88.90625 185.109375 88.75 C 185.402344 88.597656 185.757812 88.519531 186.171875 88.519531 C 186.699219 88.519531 187.164062 88.660156 187.570312 88.9375 C 187.96875 89.203125 188.277344 89.582031 188.484375 90.082031 C 188.695312 90.582031 188.796875 91.125 188.796875 91.707031 C 188.796875 92.347656 188.679688 92.925781 188.445312 93.4375 C 188.21875 93.953125 187.890625 94.347656 187.464844 94.625 C 187.03125 94.882812 186.574219 95.019531 186.089844 95.019531 C 185.742188 95.019531 185.429688 94.941406 185.152344 94.789062 C 184.871094 94.640625 184.640625 94.453125 184.464844 94.226562 L 184.464844 97.25 Z M 184.359375 91.789062 C 184.359375 92.597656 184.515625 93.195312 184.839844 93.582031 C 185.171875 93.957031 185.570312 94.144531 186.027344 94.144531 C 186.484375 94.144531 186.882812 93.953125 187.214844 93.5625 C 187.558594 93.160156 187.734375 92.539062 187.734375 91.707031 C 187.734375 90.914062 187.570312 90.328125 187.234375 89.9375 C 186.914062 89.535156 186.527344 89.332031 186.070312 89.332031 C 185.621094 89.332031 185.226562 89.550781 184.882812 89.976562 C 184.53125 90.394531 184.359375 91 184.359375 91.789062 Z M 184.359375 91.789062 "/>
<path style=" stroke:none;fill-rule:nonzero;fill:rgb(0%,0%,0%);fill-opacity:1;" d="M 194.328125 92.875 L 195.429688 93 C 195.25 93.640625 194.921875 94.140625 194.453125 94.5 C 193.992188 94.847656 193.398438 95.019531 192.679688 95.019531 C 191.773438 95.019531 191.054688 94.742188 190.515625 94.1875 C 189.984375 93.617188 189.722656 92.828125 189.722656 91.8125 C 189.722656 90.769531 189.992188 89.96875 190.535156 89.394531 C 191.078125 88.8125 191.773438 88.519531 192.640625 88.519531 C 193.472656 88.519531 194.144531 88.804688 194.660156 89.375 C 195.1875 89.929688 195.453125 90.722656 195.453125 91.75 C 195.453125 91.820312 195.453125 91.914062 195.453125 92.039062 L 190.804688 92.039062 C 190.847656 92.722656 191.039062 93.242188 191.390625 93.601562 C 191.734375 93.96875 192.171875 94.144531 192.703125 94.144531 C 193.085938 94.144531 193.414062 94.050781 193.679688 93.851562 C 193.957031 93.644531 194.171875 93.320312 194.328125 92.875 Z M 190.867188 91.164062 L 194.347656 91.164062 C 194.304688 90.640625 194.171875 90.242188 193.953125 89.976562 C 193.617188 89.578125 193.179688 89.375 192.640625 89.375 C 192.148438 89.375 191.742188 89.539062 191.410156 89.875 C 191.085938 90.195312 190.910156 90.625 190.867188 91.164062 Z M 190.867188 91.164062 "/>
<path style=" stroke:none;fill-rule:nonzero;fill:rgb(0%,0%,0%);fill-opacity:1;" d="M 196.730469 94.875 L 196.730469 88.644531 L 197.6875 88.644531 L 197.6875 89.601562 C 197.921875 89.160156 198.148438 88.867188 198.355469 88.726562 C 198.5625 88.59375 198.792969 88.519531 199.042969 88.519531 C 199.386719 88.519531 199.75 88.632812 200.125 88.851562 L 199.75 89.832031 C 199.5 89.679688 199.242188 89.601562 198.980469 89.601562 C 198.757812 89.601562 198.546875 89.675781 198.355469 89.8125 C 198.171875 89.953125 198.042969 90.144531 197.960938 90.394531 C 197.84375 90.769531 197.792969 91.179688 197.792969 91.625 L 197.792969 94.875 Z M 196.730469 94.875 "/>
<path style=" stroke:none;fill-rule:nonzero;fill:rgb(0%,0%,0%);fill-opacity:1;" d="M 202.476562 94.875 L 200.101562 88.644531 L 201.226562 88.644531 L 202.558594 92.375 C 202.695312 92.78125 202.832031 93.195312 202.957031 93.625 C 203.050781 93.304688 203.183594 92.914062 203.351562 92.457031 L 204.726562 88.644531 L 205.808594 88.644531 L 203.457031 94.875 Z M 202.476562 94.875 "/>
<path style=" stroke:none;fill-rule:nonzero;fill:rgb(0%,0%,0%);fill-opacity:1;" d="M 206.746094 87.5 L 206.746094 86.289062 L 207.808594 86.289062 L 207.808594 87.5 Z M 206.746094 94.875 L 206.746094 88.644531 L 207.808594 88.644531 L 207.808594 94.875 Z M 206.746094 94.875 "/>
<path style=" stroke:none;fill-rule:nonzero;fill:rgb(0%,0%,0%);fill-opacity:1;" d="M 208.996094 93.019531 L 210.039062 92.851562 C 210.089844 93.269531 210.253906 93.59375 210.519531 93.8125 C 210.792969 94.035156 211.167969 94.144531 211.644531 94.144531 C 212.128906 94.144531 212.488281 94.050781 212.726562 93.851562 C 212.960938 93.660156 213.082031 93.429688 213.082031 93.164062 C 213.082031 92.914062 212.976562 92.726562 212.769531 92.601562 C 212.613281 92.507812 212.253906 92.382812 211.683594 92.226562 C 210.902344 92.035156 210.363281 91.867188 210.058594 91.726562 C 209.769531 91.59375 209.542969 91.394531 209.394531 91.144531 C 209.238281 90.894531 209.164062 90.617188 209.164062 90.3125 C 209.164062 90.035156 209.226562 89.78125 209.351562 89.539062 C 209.476562 89.304688 209.648438 89.101562 209.871094 88.9375 C 210.039062 88.828125 210.257812 88.726562 210.539062 88.644531 C 210.832031 88.5625 211.132812 88.519531 211.457031 88.519531 C 211.941406 88.519531 212.363281 88.59375 212.726562 88.726562 C 213.101562 88.867188 213.378906 89.054688 213.558594 89.289062 C 213.738281 89.53125 213.863281 89.847656 213.933594 90.25 L 212.894531 90.394531 C 212.851562 90.078125 212.710938 89.828125 212.476562 89.644531 C 212.253906 89.46875 211.941406 89.375 211.539062 89.375 C 211.050781 89.375 210.707031 89.457031 210.496094 89.625 C 210.289062 89.78125 210.183594 89.96875 210.183594 90.1875 C 210.183594 90.328125 210.226562 90.445312 210.308594 90.539062 C 210.394531 90.664062 210.527344 90.765625 210.726562 90.832031 C 210.820312 90.875 211.128906 90.96875 211.644531 91.101562 C 212.394531 91.300781 212.914062 91.457031 213.207031 91.582031 C 213.507812 91.707031 213.746094 91.894531 213.914062 92.144531 C 214.082031 92.382812 214.164062 92.679688 214.164062 93.039062 C 214.164062 93.40625 214.058594 93.738281 213.851562 94.039062 C 213.644531 94.347656 213.339844 94.59375 212.957031 94.769531 C 212.582031 94.9375 212.144531 95.019531 211.644531 95.019531 C 210.835938 95.019531 210.214844 94.851562 209.789062 94.519531 C 209.371094 94.175781 209.105469 93.675781 208.996094 93.019531 Z M 208.996094 93.019531 "/>
<path style=" stroke:none;fill-rule:nonzero;fill:rgb(0%,0%,0%);fill-opacity:1;" d="M 219.664062 92.875 L 220.769531 93 C 220.585938 93.640625 220.257812 94.140625 219.789062 94.5 C 219.332031 94.847656 218.738281 95.019531 218.019531 95.019531 C 217.113281 95.019531 216.394531 94.742188 215.851562 94.1875 C 215.320312 93.617188 215.058594 92.828125 215.058594 91.8125 C 215.058594 90.769531 215.332031 89.96875 215.871094 89.394531 C 216.414062 88.8125 217.113281 88.519531 217.976562 88.519531 C 218.808594 88.519531 219.480469 88.804688 219.996094 89.375 C 220.523438 89.929688 220.789062 90.722656 220.789062 91.75 C 220.789062 91.820312 220.789062 91.914062 220.789062 92.039062 L 216.144531 92.039062 C 216.183594 92.722656 216.378906 93.242188 216.726562 93.601562 C 217.070312 93.96875 217.507812 94.144531 218.039062 94.144531 C 218.425781 94.144531 218.753906 94.050781 219.019531 93.851562 C 219.292969 93.644531 219.507812 93.320312 219.664062 92.875 Z M 216.207031 91.164062 L 219.683594 91.164062 C 219.644531 90.640625 219.507812 90.242188 219.289062 89.976562 C 218.957031 89.578125 218.519531 89.375 217.976562 89.375 C 217.488281 89.375 217.082031 89.539062 216.746094 89.875 C 216.425781 90.195312 216.246094 90.625 216.207031 91.164062 Z M 216.207031 91.164062 "/>
<path style=" stroke:none;fill-rule:nonzero;fill:rgb(0%,0%,0%);fill-opacity:1;" d="M 226.128906 94.875 L 226.128906 94.082031 C 225.722656 94.707031 225.140625 95.019531 224.378906 95.019531 C 223.890625 95.019531 223.441406 94.878906 223.027344 94.601562 C 222.609375 94.328125 222.28125 93.945312 222.046875 93.457031 C 221.824219 92.972656 221.714844 92.410156 221.714844 91.769531 C 221.714844 91.144531 221.816406 90.582031 222.027344 90.082031 C 222.234375 89.570312 222.535156 89.179688 222.941406 88.914062 C 223.359375 88.65625 223.824219 88.519531 224.339844 88.519531 C 224.714844 88.519531 225.046875 88.597656 225.339844 88.75 C 225.628906 88.90625 225.863281 89.113281 226.046875 89.375 L 226.046875 86.289062 L 227.109375 86.289062 L 227.109375 94.875 Z M 222.796875 91.769531 C 222.796875 92.5625 222.964844 93.160156 223.296875 93.5625 C 223.628906 93.953125 224.027344 94.144531 224.484375 94.144531 C 224.941406 94.144531 225.328125 93.957031 225.652344 93.582031 C 225.984375 93.207031 226.152344 92.632812 226.152344 91.851562 C 226.152344 91.007812 225.984375 90.382812 225.652344 89.976562 C 225.316406 89.578125 224.910156 89.375 224.441406 89.375 C 223.96875 89.375 223.574219 89.570312 223.253906 89.957031 C 222.949219 90.347656 222.796875 90.953125 222.796875 91.769531 Z M 222.796875 91.769531 "/>
<path style=" stroke:none;fill-rule:nonzero;fill:rgb(0%,0%,0%);fill-opacity:1;" d="M 177.371094 108.601562 L 177.371094 100.015625 L 178.414062 100.015625 L 178.414062 108.601562 Z M 177.371094 108.601562 "/>
<path style=" stroke:none;fill-rule:nonzero;fill:rgb(0%,0%,0%);fill-opacity:1;" d="M 184.308594 106.601562 L 185.414062 106.726562 C 185.230469 107.367188 184.902344 107.867188 184.433594 108.226562 C 183.976562 108.574219 183.382812 108.746094 182.664062 108.746094 C 181.757812 108.746094 181.039062 108.46875 180.496094 107.914062 C 179.964844 107.34375 179.707031 106.554688 179.707031 105.539062 C 179.707031 104.496094 179.976562 103.695312 180.519531 103.121094 C 181.058594 102.539062 181.757812 102.246094 182.621094 102.246094 C 183.457031 102.246094 184.128906 102.53125 184.644531 103.101562 C 185.167969 103.65625 185.433594 104.449219 185.433594 105.476562 C 185.433594 105.546875 185.433594 105.640625 185.433594 105.765625 L 180.789062 105.765625 C 180.832031 106.449219 181.023438 106.96875 181.371094 107.328125 C 181.714844 107.695312 182.152344 107.871094 182.683594 107.871094 C 183.070312 107.871094 183.398438 107.777344 183.664062 107.578125 C 183.941406 107.371094 184.152344 107.046875 184.308594 106.601562 Z M 180.851562 104.890625 L 184.332031 104.890625 C 184.289062 104.367188 184.152344 103.96875 183.933594 103.703125 C 183.601562 103.304688 183.164062 103.101562 182.621094 103.101562 C 182.132812 103.101562 181.726562 103.265625 181.394531 103.601562 C 181.070312 103.921875 180.894531 104.351562 180.851562 104.890625 Z M 180.851562 104.890625 "/>
<path style=" stroke:none;fill-rule:nonzero;fill:rgb(0%,0%,0%);fill-opacity:1;" d="M 190.796875 107.828125 C 190.40625 108.164062 190.03125 108.402344 189.671875 108.539062 C 189.308594 108.671875 188.921875 108.746094 188.503906 108.746094 C 187.824219 108.746094 187.296875 108.578125 186.921875 108.246094 C 186.558594 107.914062 186.378906 107.484375 186.378906 106.953125 C 186.378906 106.652344 186.449219 106.371094 186.589844 106.121094 C 186.722656 105.871094 186.90625 105.671875 187.128906 105.515625 C 187.347656 105.367188 187.597656 105.246094 187.878906 105.164062 C 188.089844 105.121094 188.402344 105.074219 188.816406 105.015625 C 189.675781 104.921875 190.308594 104.796875 190.714844 104.640625 C 190.714844 104.507812 190.714844 104.414062 190.714844 104.371094 C 190.714844 103.945312 190.613281 103.640625 190.421875 103.476562 C 190.140625 103.226562 189.738281 103.101562 189.214844 103.101562 C 188.714844 103.101562 188.34375 103.195312 188.109375 103.371094 C 187.871094 103.539062 187.699219 103.84375 187.589844 104.289062 L 186.566406 104.164062 C 186.652344 103.71875 186.796875 103.367188 187.003906 103.101562 C 187.222656 102.824219 187.535156 102.617188 187.941406 102.476562 C 188.359375 102.324219 188.828125 102.246094 189.359375 102.246094 C 189.902344 102.246094 190.328125 102.308594 190.652344 102.433594 C 190.984375 102.558594 191.222656 102.71875 191.378906 102.914062 C 191.546875 103.09375 191.65625 103.328125 191.714844 103.621094 C 191.753906 103.804688 191.777344 104.121094 191.777344 104.578125 L 191.777344 105.996094 C 191.777344 106.96875 191.796875 107.589844 191.839844 107.851562 C 191.878906 108.117188 191.96875 108.367188 192.109375 108.601562 L 191.003906 108.601562 C 190.890625 108.382812 190.824219 108.121094 190.796875 107.828125 Z M 190.714844 105.476562 C 190.324219 105.632812 189.746094 105.761719 188.984375 105.871094 C 188.550781 105.945312 188.246094 106.015625 188.066406 106.101562 C 187.886719 106.171875 187.746094 106.28125 187.652344 106.433594 C 187.550781 106.589844 187.503906 106.757812 187.503906 106.933594 C 187.503906 107.214844 187.609375 107.449219 187.816406 107.640625 C 188.027344 107.824219 188.339844 107.914062 188.753906 107.914062 C 189.15625 107.914062 189.515625 107.824219 189.839844 107.640625 C 190.15625 107.464844 190.390625 107.21875 190.546875 106.914062 C 190.65625 106.679688 190.714844 106.328125 190.714844 105.871094 Z M 190.714844 105.476562 "/>
<path style=" stroke:none;fill-rule:nonzero;fill:rgb(0%,0%,0%);fill-opacity:1;" d="M 193.386719 108.601562 L 193.386719 102.371094 L 194.34375 102.371094 L 194.34375 103.328125 C 194.578125 102.886719 194.804688 102.59375 195.011719 102.453125 C 195.21875 102.320312 195.449219 102.246094 195.699219 102.246094 C 196.042969 102.246094 196.40625 102.359375 196.78125 102.578125 L 196.40625 103.558594 C 196.15625 103.40625 195.898438 103.328125 195.636719 103.328125 C 195.414062 103.328125 195.203125 103.402344 195.011719 103.539062 C 194.828125 103.679688 194.699219 103.871094 194.617188 104.121094 C 194.5 104.496094 194.449219 104.90625 194.449219 105.351562 L 194.449219 108.601562 Z M 193.386719 108.601562 "/>
<path style=" stroke:none;fill-rule:nonzero;fill:rgb(0%,0%,0%);fill-opacity:1;" d="M 197.402344 108.601562 L 197.402344 102.371094 L 198.363281 102.371094 L 198.363281 103.265625 C 198.804688 102.589844 199.464844 102.246094 200.339844 102.246094 C 200.714844 102.246094 201.054688 102.320312 201.363281 102.453125 C 201.679688 102.578125 201.914062 102.757812 202.070312 102.976562 C 202.222656 103.183594 202.332031 103.445312 202.402344 103.746094 C 202.445312 103.945312 202.464844 104.28125 202.464844 104.765625 L 202.464844 108.601562 L 201.402344 108.601562 L 201.402344 104.808594 C 201.402344 104.382812 201.363281 104.058594 201.277344 103.851562 C 201.195312 103.640625 201.050781 103.476562 200.839844 103.351562 C 200.632812 103.214844 200.386719 103.140625 200.113281 103.140625 C 199.664062 103.140625 199.277344 103.289062 198.945312 103.578125 C 198.621094 103.859375 198.464844 104.402344 198.464844 105.203125 L 198.464844 108.601562 Z M 197.402344 108.601562 "/>
<path style=" stroke:none;fill-rule:nonzero;fill:rgb(0%,0%,0%);fill-opacity:1;" d="M 204.078125 101.226562 L 204.078125 100.015625 L 205.140625 100.015625 L 205.140625 101.226562 Z M 204.078125 108.601562 L 204.078125 102.371094 L 205.140625 102.371094 L 205.140625 108.601562 Z M 204.078125 108.601562 "/>
<path style=" stroke:none;fill-rule:nonzero;fill:rgb(0%,0%,0%);fill-opacity:1;" d="M 206.746094 108.601562 L 206.746094 102.371094 L 207.703125 102.371094 L 207.703125 103.265625 C 208.144531 102.589844 208.808594 102.246094 209.683594 102.246094 C 210.058594 102.246094 210.394531 102.320312 210.703125 102.453125 C 211.019531 102.578125 211.253906 102.757812 211.410156 102.976562 C 211.5625 103.183594 211.671875 103.445312 211.746094 103.746094 C 211.785156 103.945312 211.808594 104.28125 211.808594 104.765625 L 211.808594 108.601562 L 210.746094 108.601562 L 210.746094 104.808594 C 210.746094 104.382812 210.703125 104.058594 210.621094 103.851562 C 210.535156 103.640625 210.390625 103.476562 210.183594 103.351562 C 209.972656 103.214844 209.730469 103.140625 209.453125 103.140625 C 209.003906 103.140625 208.621094 103.289062 208.285156 103.578125 C 207.964844 103.859375 207.808594 104.402344 207.808594 105.203125 L 207.808594 108.601562 Z M 206.746094 108.601562 "/>
<path style=" stroke:none;fill-rule:nonzero;fill:rgb(0%,0%,0%);fill-opacity:1;" d="M 213.230469 109.121094 L 214.253906 109.265625 C 214.292969 109.585938 214.410156 109.8125 214.605469 109.953125 C 214.867188 110.148438 215.230469 110.246094 215.691406 110.246094 C 216.175781 110.246094 216.550781 110.148438 216.816406 109.953125 C 217.074219 109.757812 217.257812 109.484375 217.355469 109.140625 C 217.410156 108.917969 217.429688 108.46875 217.417969 107.789062 C 216.960938 108.328125 216.386719 108.601562 215.710938 108.601562 C 214.847656 108.601562 214.179688 108.296875 213.710938 107.683594 C 213.253906 107.058594 213.023438 106.320312 213.023438 105.453125 C 213.023438 104.859375 213.128906 104.308594 213.335938 103.808594 C 213.554688 103.308594 213.867188 102.929688 214.273438 102.664062 C 214.675781 102.386719 215.152344 102.246094 215.710938 102.246094 C 216.445312 102.246094 217.050781 102.539062 217.523438 103.121094 L 217.523438 102.371094 L 218.503906 102.371094 L 218.503906 107.746094 C 218.503906 108.714844 218.398438 109.402344 218.191406 109.808594 C 217.992188 110.210938 217.679688 110.527344 217.253906 110.765625 C 216.835938 111 216.316406 111.121094 215.691406 111.121094 C 214.941406 111.121094 214.335938 110.953125 213.878906 110.621094 C 213.429688 110.289062 213.214844 109.789062 213.230469 109.121094 Z M 214.105469 105.371094 C 214.105469 106.195312 214.261719 106.789062 214.585938 107.164062 C 214.902344 107.539062 215.304688 107.726562 215.792969 107.726562 C 216.277344 107.726562 216.691406 107.539062 217.023438 107.164062 C 217.355469 106.789062 217.523438 106.203125 217.523438 105.414062 C 217.523438 104.652344 217.347656 104.074219 217.003906 103.683594 C 216.667969 103.296875 216.261719 103.101562 215.792969 103.101562 C 215.320312 103.101562 214.917969 103.296875 214.585938 103.683594 C 214.261719 104.058594 214.105469 104.621094 214.105469 105.371094 Z M 214.105469 105.371094 "/>
<path style="fill-rule:nonzero;fill:rgb(100%,100%,100%);fill-opacity:1;stroke-width:1;stroke-linecap:round;stroke-linejoin:round;stroke:rgb(0%,0%,0%);stroke-opacity:1;stroke-miterlimit:10;" d="M 203.961914 129.499023 L 278.961914 129.499023 L 278.961914 160.999023 L 203.961914 160.999023 Z M 203.961914 129.499023 " transform="matrix(1.333333,0,0,1.333333,-124,-33.333333)"/>
<path style=" stroke:none;fill-rule:nonzero;fill:rgb(0%,0%,0%);fill-opacity:1;" d="M 182.503906 163.667969 L 182.503906 155.082031 L 184.210938 155.082031 L 186.234375 161.167969 C 186.425781 161.722656 186.566406 162.144531 186.648438 162.4375 C 186.742188 162.121094 186.898438 161.660156 187.109375 161.0625 L 189.171875 155.082031 L 190.691406 155.082031 L 190.691406 163.667969 L 189.609375 163.667969 L 189.609375 156.480469 L 187.109375 163.667969 L 186.085938 163.667969 L 183.585938 156.355469 L 183.585938 163.667969 Z M 182.503906 163.667969 "/>
<path style=" stroke:none;fill-rule:nonzero;fill:rgb(0%,0%,0%);fill-opacity:1;" d="M 192 160.5625 C 192 159.410156 192.316406 158.558594 192.957031 158 C 193.5 157.542969 194.152344 157.3125 194.917969 157.3125 C 195.777344 157.3125 196.480469 157.59375 197.019531 158.144531 C 197.5625 158.703125 197.832031 159.472656 197.832031 160.457031 C 197.832031 161.265625 197.707031 161.894531 197.457031 162.355469 C 197.21875 162.8125 196.875 163.175781 196.417969 163.4375 C 195.957031 163.6875 195.457031 163.8125 194.917969 163.8125 C 194.042969 163.8125 193.332031 163.535156 192.792969 162.980469 C 192.261719 162.410156 192 161.605469 192 160.5625 Z M 193.082031 160.5625 C 193.082031 161.355469 193.253906 161.953125 193.605469 162.355469 C 193.949219 162.746094 194.386719 162.9375 194.917969 162.9375 C 195.441406 162.9375 195.878906 162.746094 196.230469 162.355469 C 196.574219 161.953125 196.75 161.34375 196.75 160.519531 C 196.75 159.761719 196.574219 159.175781 196.230469 158.769531 C 195.878906 158.371094 195.441406 158.167969 194.917969 158.167969 C 194.386719 158.167969 193.949219 158.371094 193.605469 158.769531 C 193.253906 159.160156 193.082031 159.761719 193.082031 160.5625 Z M 193.082031 160.5625 "/>
<path style=" stroke:none;fill-rule:nonzero;fill:rgb(0%,0%,0%);fill-opacity:1;" d="M 203.113281 163.667969 L 203.113281 162.875 C 202.707031 163.5 202.121094 163.8125 201.363281 163.8125 C 200.871094 163.8125 200.425781 163.671875 200.007812 163.394531 C 199.589844 163.121094 199.261719 162.738281 199.027344 162.25 C 198.804688 161.765625 198.695312 161.203125 198.695312 160.5625 C 198.695312 159.9375 198.800781 159.375 199.007812 158.875 C 199.214844 158.363281 199.519531 157.972656 199.925781 157.707031 C 200.339844 157.449219 200.804688 157.3125 201.320312 157.3125 C 201.695312 157.3125 202.027344 157.390625 202.320312 157.542969 C 202.613281 157.699219 202.847656 157.90625 203.027344 158.167969 L 203.027344 155.082031 L 204.089844 155.082031 L 204.089844 163.667969 Z M 199.777344 160.5625 C 199.777344 161.355469 199.945312 161.953125 200.277344 162.355469 C 200.613281 162.746094 201.007812 162.9375 201.464844 162.9375 C 201.925781 162.9375 202.308594 162.75 202.632812 162.375 C 202.964844 162 203.132812 161.425781 203.132812 160.644531 C 203.132812 159.800781 202.964844 159.175781 202.632812 158.769531 C 202.300781 158.371094 201.894531 158.167969 201.425781 158.167969 C 200.949219 158.167969 200.554688 158.363281 200.238281 158.75 C 199.929688 159.140625 199.777344 159.746094 199.777344 160.5625 Z M 199.777344 160.5625 "/>
<path style=" stroke:none;fill-rule:nonzero;fill:rgb(0%,0%,0%);fill-opacity:1;" d="M 209.996094 161.667969 L 211.097656 161.792969 C 210.917969 162.433594 210.589844 162.933594 210.121094 163.292969 C 209.660156 163.640625 209.066406 163.8125 208.347656 163.8125 C 207.441406 163.8125 206.722656 163.535156 206.183594 162.980469 C 205.652344 162.410156 205.390625 161.621094 205.390625 160.605469 C 205.390625 159.5625 205.660156 158.761719 206.203125 158.1875 C 206.746094 157.605469 207.441406 157.3125 208.308594 157.3125 C 209.140625 157.3125 209.8125 157.597656 210.328125 158.167969 C 210.855469 158.722656 211.121094 159.515625 211.121094 160.542969 C 211.121094 160.613281 211.121094 160.707031 211.121094 160.832031 L 206.472656 160.832031 C 206.515625 161.515625 206.707031 162.035156 207.058594 162.394531 C 207.402344 162.761719 207.839844 162.9375 208.371094 162.9375 C 208.753906 162.9375 209.082031 162.84375 209.347656 162.644531 C 209.625 162.4375 209.839844 162.113281 209.996094 161.667969 Z M 206.535156 159.957031 L 210.015625 159.957031 C 209.972656 159.433594 209.839844 159.035156 209.621094 158.769531 C 209.285156 158.371094 208.847656 158.167969 208.308594 158.167969 C 207.816406 158.167969 207.410156 158.332031 207.078125 158.667969 C 206.753906 158.988281 206.578125 159.417969 206.535156 159.957031 Z M 206.535156 159.957031 "/>
<path style=" stroke:none;fill-rule:nonzero;fill:rgb(0%,0%,0%);fill-opacity:1;" d="M 212.398438 163.667969 L 212.398438 155.082031 L 213.441406 155.082031 L 213.441406 163.667969 Z M 212.398438 163.667969 "/>
<path style="fill-rule:nonzero;fill:rgb(100%,100%,100%);fill-opacity:1;stroke-width:1;stroke-linecap:round;stroke-linejoin:round;stroke:rgb(0%,0%,0%);stroke-opacity:1;stroke-miterlimit:10;" d="M 305.200195 129.499023 L 380.200195 129.499023 L 380.200195 160.999023 L 305.200195 160.999023 Z M 305.200195 129.499023 " transform="matrix(1.333333,0,0,1.333333,-124,-33.333333)"/>
<path style=" stroke:none;fill-rule:nonzero;fill:rgb(0%,0%,0%);fill-opacity:1;" d="M 315.503906 159.480469 C 315.503906 158.0625 315.886719 156.953125 316.652344 156.144531 C 317.410156 155.328125 318.402344 154.917969 319.609375 154.917969 C 320.402344 154.917969 321.113281 155.113281 321.753906 155.5 C 322.390625 155.875 322.878906 156.40625 323.214844 157.082031 C 323.546875 157.765625 323.714844 158.53125 323.714844 159.375 C 323.714844 160.25 323.535156 161.035156 323.191406 161.730469 C 322.84375 162.410156 322.34375 162.933594 321.691406 163.292969 C 321.050781 163.640625 320.359375 163.8125 319.609375 163.8125 C 318.800781 163.8125 318.078125 163.621094 317.441406 163.230469 C 316.800781 162.84375 316.316406 162.308594 315.984375 161.625 C 315.660156 160.949219 315.503906 160.230469 315.503906 159.480469 Z M 316.671875 159.5 C 316.671875 160.542969 316.949219 161.363281 317.503906 161.957031 C 318.058594 162.542969 318.761719 162.832031 319.609375 162.832031 C 320.453125 162.832031 321.15625 162.535156 321.714844 161.9375 C 322.265625 161.34375 322.546875 160.488281 322.546875 159.375 C 322.546875 158.683594 322.425781 158.078125 322.191406 157.5625 C 321.953125 157.035156 321.609375 156.625 321.152344 156.332031 C 320.691406 156.042969 320.183594 155.894531 319.628906 155.894531 C 318.824219 155.894531 318.128906 156.175781 317.546875 156.730469 C 316.964844 157.285156 316.671875 158.207031 316.671875 159.5 Z M 316.671875 159.5 "/>
<path style=" stroke:none;fill-rule:nonzero;fill:rgb(0%,0%,0%);fill-opacity:1;" d="M 329.128906 163.667969 L 329.128906 162.75 C 328.640625 163.457031 327.984375 163.8125 327.152344 163.8125 C 326.785156 163.8125 326.449219 163.738281 326.128906 163.605469 C 325.808594 163.453125 325.566406 163.269531 325.402344 163.0625 C 325.246094 162.855469 325.140625 162.597656 325.089844 162.292969 C 325.046875 162.082031 325.027344 161.75 325.027344 161.292969 L 325.027344 157.4375 L 326.066406 157.4375 L 326.066406 160.894531 C 326.066406 161.453125 326.09375 161.824219 326.152344 162 C 326.203125 162.28125 326.339844 162.5 326.546875 162.667969 C 326.765625 162.824219 327.035156 162.894531 327.359375 162.894531 C 327.675781 162.894531 327.972656 162.824219 328.253906 162.667969 C 328.53125 162.5 328.722656 162.28125 328.839844 162 C 328.949219 161.722656 329.003906 161.3125 329.003906 160.769531 L 329.003906 157.4375 L 330.066406 157.4375 L 330.066406 163.667969 Z M 329.128906 163.667969 "/>
<path style=" stroke:none;fill-rule:nonzero;fill:rgb(0%,0%,0%);fill-opacity:1;" d="M 334.027344 162.730469 L 334.175781 163.644531 C 333.867188 163.714844 333.601562 163.75 333.382812 163.75 C 332.992188 163.75 332.695312 163.6875 332.488281 163.5625 C 332.277344 163.4375 332.121094 163.28125 332.027344 163.082031 C 331.945312 162.890625 331.902344 162.480469 331.902344 161.855469 L 331.902344 158.269531 L 331.132812 158.269531 L 331.132812 157.4375 L 331.902344 157.4375 L 331.902344 155.894531 L 332.964844 155.269531 L 332.964844 157.4375 L 334.027344 157.4375 L 334.027344 158.269531 L 332.964844 158.269531 L 332.964844 161.894531 C 332.964844 162.203125 332.976562 162.394531 333.007812 162.480469 C 333.050781 162.5625 333.113281 162.636719 333.195312 162.6875 C 333.277344 162.746094 333.394531 162.769531 333.550781 162.769531 C 333.675781 162.769531 333.832031 162.761719 334.027344 162.730469 Z M 334.027344 162.730469 "/>
<path style=" stroke:none;fill-rule:nonzero;fill:rgb(0%,0%,0%);fill-opacity:1;" d="M 335.050781 166.042969 L 335.050781 157.4375 L 336.007812 157.4375 L 336.007812 158.25 C 336.226562 157.933594 336.476562 157.699219 336.757812 157.542969 C 337.050781 157.390625 337.402344 157.3125 337.820312 157.3125 C 338.347656 157.3125 338.808594 157.453125 339.214844 157.730469 C 339.617188 157.996094 339.925781 158.375 340.132812 158.875 C 340.339844 159.375 340.445312 159.917969 340.445312 160.5 C 340.445312 161.140625 340.324219 161.71875 340.089844 162.230469 C 339.867188 162.746094 339.539062 163.140625 339.113281 163.417969 C 338.679688 163.675781 338.222656 163.8125 337.738281 163.8125 C 337.386719 163.8125 337.074219 163.734375 336.800781 163.582031 C 336.519531 163.433594 336.289062 163.246094 336.113281 163.019531 L 336.113281 166.042969 Z M 336.007812 160.582031 C 336.007812 161.390625 336.164062 161.988281 336.488281 162.375 C 336.820312 162.75 337.214844 162.9375 337.675781 162.9375 C 338.132812 162.9375 338.527344 162.746094 338.863281 162.355469 C 339.207031 161.953125 339.382812 161.332031 339.382812 160.5 C 339.382812 159.707031 339.214844 159.121094 338.882812 158.730469 C 338.558594 158.328125 338.175781 158.125 337.714844 158.125 C 337.269531 158.125 336.871094 158.34375 336.527344 158.769531 C 336.179688 159.1875 336.007812 159.792969 336.007812 160.582031 Z M 336.007812 160.582031 "/>
<path style=" stroke:none;fill-rule:nonzero;fill:rgb(0%,0%,0%);fill-opacity:1;" d="M 345.804688 163.667969 L 345.804688 162.75 C 345.3125 163.457031 344.65625 163.8125 343.824219 163.8125 C 343.460938 163.8125 343.121094 163.738281 342.804688 163.605469 C 342.480469 163.453125 342.242188 163.269531 342.074219 163.0625 C 341.917969 162.855469 341.8125 162.597656 341.761719 162.292969 C 341.71875 162.082031 341.699219 161.75 341.699219 161.292969 L 341.699219 157.4375 L 342.742188 157.4375 L 342.742188 160.894531 C 342.742188 161.453125 342.765625 161.824219 342.824219 162 C 342.875 162.28125 343.011719 162.5 343.21875 162.667969 C 343.4375 162.824219 343.710938 162.894531 344.03125 162.894531 C 344.351562 162.894531 344.648438 162.824219 344.929688 162.667969 C 345.203125 162.5 345.398438 162.28125 345.511719 162 C 345.621094 161.722656 345.679688 161.3125 345.679688 160.769531 L 345.679688 157.4375 L 346.742188 157.4375 L 346.742188 163.667969 Z M 345.804688 163.667969 "/>
<path style=" stroke:none;fill-rule:nonzero;fill:rgb(0%,0%,0%);fill-opacity:1;" d="M 350.703125 162.730469 L 350.847656 163.644531 C 350.539062 163.714844 350.273438 163.75 350.054688 163.75 C 349.664062 163.75 349.367188 163.6875 349.160156 163.5625 C 348.953125 163.4375 348.796875 163.28125 348.703125 163.082031 C 348.617188 162.890625 348.578125 162.480469 348.578125 161.855469 L 348.578125 158.269531 L 347.804688 158.269531 L 347.804688 157.4375 L 348.578125 157.4375 L 348.578125 155.894531 L 349.640625 155.269531 L 349.640625 157.4375 L 350.703125 157.4375 L 350.703125 158.269531 L 349.640625 158.269531 L 349.640625 161.894531 C 349.640625 162.203125 349.648438 162.394531 349.679688 162.480469 C 349.722656 162.5625 349.785156 162.636719 349.867188 162.6875 C 349.953125 162.746094 350.066406 162.769531 350.222656 162.769531 C 350.347656 162.769531 350.503906 162.761719 350.703125 162.730469 Z M 350.703125 162.730469 "/>
<path style="fill:none;stroke-width:1;stroke-linecap:round;stroke-linejoin:miter;stroke:rgb(0%,0%,0%);stroke-opacity:1;stroke-miterlimit:10;" d="M 305.200195 98.450195 L 284.862305 98.450195 " transform="matrix(1.333333,0,0,1.333333,-124,-33.333333)"/>
<path style="fill:none;stroke-width:1;stroke-linecap:butt;stroke-linejoin:miter;stroke:rgb(0%,0%,0%);stroke-opacity:1;stroke-miterlimit:10;" d="M 280.863281 98.450195 L 284.862305 98.450195 M 284.862305 99.950195 L 280.863281 98.450195 L 284.862305 96.950195 " transform="matrix(1.333333,0,0,1.333333,-124,-33.333333)"/>
<path style="fill:none;stroke-width:1;stroke-linecap:round;stroke-linejoin:miter;stroke:rgb(0%,0%,0%);stroke-opacity:1;stroke-miterlimit:10;" d="M 241.461914 114.200195 L 241.461914 123.601562 " transform="matrix(1.333333,0,0,1.333333,-124,-33.333333)"/>
<path style="fill:none;stroke-width:1;stroke-linecap:butt;stroke-linejoin:miter;stroke:rgb(0%,0%,0%);stroke-opacity:1;stroke-miterlimit:10;" d="M 241.461914 127.600586 L 241.461914 123.601562 M 242.961914 123.601562 L 241.461914 127.600586 L 239.961914 123.601562 " transform="matrix(1.333333,0,0,1.333333,-124,-33.333333)"/>
<path style="fill:none;stroke-width:1;stroke-linecap:round;stroke-linejoin:miter;stroke:rgb(0%,0%,0%);stroke-opacity:1;stroke-miterlimit:10;" d="M 168.999023 145.249023 L 198.061523 145.249023 " transform="matrix(1.333333,0,0,1.333333,-124,-33.333333)"/>
<path style="fill:none;stroke-width:1;stroke-linecap:butt;stroke-linejoin:miter;stroke:rgb(0%,0%,0%);stroke-opacity:1;stroke-miterlimit:10;" d="M 202.063477 145.249023 L 198.061523 145.249023 M 198.061523 143.749023 L 202.063477 145.249023 L 198.061523 146.749023 " transform="matrix(1.333333,0,0,1.333333,-124,-33.333333)"/>
<path style="fill-rule:nonzero;fill:rgb(69.803923%,85.09804%,100%);fill-opacity:1;stroke-width:1;stroke-linecap:round;stroke-linejoin:round;stroke:rgb(0%,0%,0%);stroke-opacity:1;stroke-miterlimit:10;" d="M 203.399414 26.397461 L 278.399414 26.397461 L 278.399414 57.897461 L 203.399414 57.897461 Z M 203.399414 26.397461 " transform="matrix(1.333333,0,0,1.333333,-124,-33.333333)"/>
<path style=" stroke:none;fill-rule:nonzero;fill:rgb(0%,0%,0%);fill-opacity:1;" d="M 164.476562 26.199219 L 164.476562 17.617188 L 170.683594 17.617188 L 170.683594 18.617188 L 165.601562 18.617188 L 165.601562 21.261719 L 170.351562 21.261719 L 170.351562 22.261719 L 165.601562 22.261719 L 165.601562 25.179688 L 170.871094 25.179688 L 170.871094 26.199219 Z M 164.476562 26.199219 "/>
<path style=" stroke:none;fill-rule:nonzero;fill:rgb(0%,0%,0%);fill-opacity:1;" d="M 172.3125 26.199219 L 172.3125 19.972656 L 173.269531 19.972656 L 173.269531 20.867188 C 173.714844 20.191406 174.375 19.847656 175.25 19.847656 C 175.625 19.847656 175.964844 19.917969 176.269531 20.054688 C 176.589844 20.179688 176.824219 20.355469 176.980469 20.574219 C 177.128906 20.785156 177.238281 21.042969 177.3125 21.347656 C 177.355469 21.542969 177.375 21.882812 177.375 22.367188 L 177.375 26.199219 L 176.3125 26.199219 L 176.3125 22.410156 C 176.3125 21.980469 176.269531 21.660156 176.1875 21.449219 C 176.105469 21.242188 175.957031 21.074219 175.75 20.949219 C 175.542969 20.816406 175.296875 20.742188 175.019531 20.742188 C 174.574219 20.742188 174.1875 20.886719 173.855469 21.179688 C 173.53125 21.460938 173.375 22.003906 173.375 22.804688 L 173.375 26.199219 Z M 172.3125 26.199219 "/>
<path style=" stroke:none;fill-rule:nonzero;fill:rgb(0%,0%,0%);fill-opacity:1;" d="M 180.714844 26.199219 L 178.339844 19.972656 L 179.464844 19.972656 L 180.800781 23.699219 C 180.933594 24.105469 181.070312 24.523438 181.195312 24.949219 C 181.289062 24.632812 181.425781 24.242188 181.589844 23.785156 L 182.964844 19.972656 L 184.050781 19.972656 L 181.695312 26.199219 Z M 180.714844 26.199219 "/>
<path style=" stroke:none;fill-rule:nonzero;fill:rgb(0%,0%,0%);fill-opacity:1;" d="M 184.988281 18.824219 L 184.988281 17.617188 L 186.050781 17.617188 L 186.050781 18.824219 Z M 184.988281 26.199219 L 184.988281 19.972656 L 186.050781 19.972656 L 186.050781 26.199219 Z M 184.988281 26.199219 "/>
<path style=" stroke:none;fill-rule:nonzero;fill:rgb(0%,0%,0%);fill-opacity:1;" d="M 187.632812 26.199219 L 187.632812 19.972656 L 188.589844 19.972656 L 188.589844 20.929688 C 188.824219 20.488281 189.050781 20.195312 189.257812 20.054688 C 189.464844 19.917969 189.695312 19.847656 189.945312 19.847656 C 190.289062 19.847656 190.652344 19.960938 191.027344 20.179688 L 190.652344 21.160156 C 190.402344 21.007812 190.144531 20.929688 189.882812 20.929688 C 189.660156 20.929688 189.449219 21.003906 189.257812 21.136719 C 189.074219 21.277344 188.945312 21.472656 188.863281 21.722656 C 188.746094 22.097656 188.695312 22.507812 188.695312 22.949219 L 188.695312 26.199219 Z M 187.632812 26.199219 "/>
<path style=" stroke:none;fill-rule:nonzero;fill:rgb(0%,0%,0%);fill-opacity:1;" d="M 191.253906 23.097656 C 191.253906 21.945312 191.570312 21.089844 192.210938 20.535156 C 192.753906 20.074219 193.40625 19.847656 194.171875 19.847656 C 195.03125 19.847656 195.734375 20.128906 196.273438 20.679688 C 196.816406 21.238281 197.085938 22.007812 197.085938 22.992188 C 197.085938 23.800781 196.960938 24.429688 196.710938 24.886719 C 196.472656 25.347656 196.128906 25.710938 195.671875 25.972656 C 195.210938 26.222656 194.710938 26.347656 194.171875 26.347656 C 193.296875 26.347656 192.585938 26.070312 192.046875 25.511719 C 191.515625 24.945312 191.253906 24.136719 191.253906 23.097656 Z M 192.335938 23.097656 C 192.335938 23.886719 192.507812 24.488281 192.859375 24.886719 C 193.203125 25.277344 193.640625 25.472656 194.171875 25.472656 C 194.695312 25.472656 195.132812 25.277344 195.484375 24.886719 C 195.828125 24.488281 196.003906 23.878906 196.003906 23.054688 C 196.003906 22.292969 195.828125 21.710938 195.484375 21.304688 C 195.132812 20.902344 194.695312 20.699219 194.171875 20.699219 C 193.640625 20.699219 193.203125 20.902344 192.859375 21.304688 C 192.507812 21.695312 192.335938 22.292969 192.335938 23.097656 Z M 192.335938 23.097656 "/>
<path style=" stroke:none;fill-rule:nonzero;fill:rgb(0%,0%,0%);fill-opacity:1;" d="M 198.324219 26.199219 L 198.324219 19.972656 L 199.28125 19.972656 L 199.28125 20.867188 C 199.726562 20.191406 200.386719 19.847656 201.261719 19.847656 C 201.636719 19.847656 201.976562 19.917969 202.28125 20.054688 C 202.601562 20.179688 202.835938 20.355469 202.992188 20.574219 C 203.140625 20.785156 203.25 21.042969 203.324219 21.347656 C 203.367188 21.542969 203.386719 21.882812 203.386719 22.367188 L 203.386719 26.199219 L 202.324219 26.199219 L 202.324219 22.410156 C 202.324219 21.980469 202.28125 21.660156 202.199219 21.449219 C 202.117188 21.242188 201.96875 21.074219 201.761719 20.949219 C 201.554688 20.816406 201.308594 20.742188 201.03125 20.742188 C 200.585938 20.742188 200.199219 20.886719 199.867188 21.179688 C 199.542969 21.460938 199.386719 22.003906 199.386719 22.804688 L 199.386719 26.199219 Z M 198.324219 26.199219 "/>
<path style=" stroke:none;fill-rule:nonzero;fill:rgb(0%,0%,0%);fill-opacity:1;" d="M 205 26.199219 L 205 19.972656 L 205.9375 19.972656 L 205.9375 20.847656 C 206.128906 20.542969 206.382812 20.300781 206.707031 20.117188 C 207.039062 19.941406 207.414062 19.847656 207.832031 19.847656 C 208.289062 19.847656 208.664062 19.945312 208.957031 20.136719 C 209.25 20.320312 209.457031 20.585938 209.582031 20.929688 C 210.082031 20.210938 210.71875 19.847656 211.5 19.847656 C 212.125 19.847656 212.601562 20.023438 212.9375 20.367188 C 213.269531 20.699219 213.4375 21.222656 213.4375 21.929688 L 213.4375 26.199219 L 212.375 26.199219 L 212.375 22.285156 C 212.375 21.855469 212.335938 21.550781 212.269531 21.367188 C 212.210938 21.191406 212.09375 21.042969 211.914062 20.929688 C 211.734375 20.804688 211.519531 20.742188 211.269531 20.742188 C 210.835938 20.742188 210.476562 20.886719 210.1875 21.179688 C 209.894531 21.472656 209.75 21.941406 209.75 22.574219 L 209.75 26.199219 L 208.6875 26.199219 L 208.6875 22.160156 C 208.6875 21.691406 208.601562 21.335938 208.4375 21.097656 C 208.269531 20.863281 207.988281 20.742188 207.601562 20.742188 C 207.296875 20.742188 207.019531 20.824219 206.769531 20.992188 C 206.519531 21.148438 206.335938 21.378906 206.226562 21.679688 C 206.113281 21.972656 206.0625 22.402344 206.0625 22.972656 L 206.0625 26.199219 Z M 205 26.199219 "/>
<path style=" stroke:none;fill-rule:nonzero;fill:rgb(0%,0%,0%);fill-opacity:1;" d="M 219.246094 24.199219 L 220.347656 24.324219 C 220.167969 24.964844 219.839844 25.464844 219.371094 25.824219 C 218.910156 26.175781 218.316406 26.347656 217.597656 26.347656 C 216.691406 26.347656 215.972656 26.070312 215.433594 25.511719 C 214.902344 24.945312 214.640625 24.152344 214.640625 23.136719 C 214.640625 22.097656 214.910156 21.292969 215.453125 20.722656 C 215.996094 20.136719 216.691406 19.847656 217.558594 19.847656 C 218.390625 19.847656 219.0625 20.132812 219.578125 20.699219 C 220.105469 21.257812 220.371094 22.050781 220.371094 23.074219 C 220.371094 23.148438 220.371094 23.242188 220.371094 23.367188 L 215.722656 23.367188 C 215.765625 24.050781 215.957031 24.570312 216.308594 24.929688 C 216.652344 25.292969 217.089844 25.472656 217.621094 25.472656 C 218.003906 25.472656 218.332031 25.378906 218.597656 25.179688 C 218.875 24.972656 219.089844 24.648438 219.246094 24.199219 Z M 215.785156 22.492188 L 219.265625 22.492188 C 219.222656 21.964844 219.089844 21.570312 218.871094 21.304688 C 218.535156 20.902344 218.097656 20.699219 217.558594 20.699219 C 217.066406 20.699219 216.660156 20.867188 216.328125 21.199219 C 216.003906 21.523438 215.828125 21.949219 215.785156 22.492188 Z M 215.785156 22.492188 "/>
<path style=" stroke:none;fill-rule:nonzero;fill:rgb(0%,0%,0%);fill-opacity:1;" d="M 221.667969 26.199219 L 221.667969 19.972656 L 222.628906 19.972656 L 222.628906 20.867188 C 223.070312 20.191406 223.730469 19.847656 224.605469 19.847656 C 224.980469 19.847656 225.320312 19.917969 225.628906 20.054688 C 225.945312 20.179688 226.179688 20.355469 226.335938 20.574219 C 226.488281 20.785156 226.597656 21.042969 226.667969 21.347656 C 226.710938 21.542969 226.730469 21.882812 226.730469 22.367188 L 226.730469 26.199219 L 225.667969 26.199219 L 225.667969 22.410156 C 225.667969 21.980469 225.628906 21.660156 225.542969 21.449219 C 225.460938 21.242188 225.316406 21.074219 225.105469 20.949219 C 224.898438 20.816406 224.652344 20.742188 224.378906 20.742188 C 223.929688 20.742188 223.542969 20.886719 223.210938 21.179688 C 222.886719 21.460938 222.730469 22.003906 222.730469 22.804688 L 222.730469 26.199219 Z M 221.667969 26.199219 "/>
<path style=" stroke:none;fill-rule:nonzero;fill:rgb(0%,0%,0%);fill-opacity:1;" d="M 230.65625 25.261719 L 230.800781 26.179688 C 230.496094 26.246094 230.230469 26.285156 230.011719 26.285156 C 229.621094 26.285156 229.324219 26.222656 229.113281 26.097656 C 228.90625 25.972656 228.75 25.816406 228.65625 25.617188 C 228.574219 25.425781 228.53125 25.011719 228.53125 24.386719 L 228.53125 20.804688 L 227.761719 20.804688 L 227.761719 19.972656 L 228.53125 19.972656 L 228.53125 18.429688 L 229.59375 17.804688 L 229.59375 19.972656 L 230.65625 19.972656 L 230.65625 20.804688 L 229.59375 20.804688 L 229.59375 24.429688 C 229.59375 24.738281 229.605469 24.929688 229.636719 25.011719 C 229.675781 25.097656 229.738281 25.167969 229.824219 25.222656 C 229.90625 25.277344 230.019531 25.304688 230.175781 25.304688 C 230.300781 25.304688 230.457031 25.292969 230.65625 25.261719 Z M 230.65625 25.261719 "/>
<path style="fill:none;stroke-width:1;stroke-linecap:round;stroke-linejoin:miter;stroke:rgb(0%,0%,0%);stroke-opacity:1;stroke-miterlimit:10;" d="M 278.399414 42.147461 L 288.366211 42.147461 C 288.389648 42.147461 288.410156 42.147461 288.433594 42.15332 L 319.286133 42.557617 C 319.30957 42.557617 319.333008 42.557617 319.350586 42.557617 L 351.536133 42.557617 C 354.292969 42.557617 356.53418 44.795898 356.53418 47.558594 L 356.53418 64.09082 " transform="matrix(1.333333,0,0,1.333333,-124,-33.333333)"/>
<path style="fill:none;stroke-width:1;stroke-linecap:butt;stroke-linejoin:miter;stroke:rgb(0%,0%,0%);stroke-opacity:1;stroke-miterlimit:10;" d="M 356.53418 68.089844 L 356.53418 64.09082 M 358.03418 64.09082 L 356.53418 68.089844 L 355.03418 64.09082 " transform="matrix(1.333333,0,0,1.333333,-124,-33.333333)"/>
<path style="fill:none;stroke-width:1;stroke-linecap:round;stroke-linejoin:miter;stroke:rgb(0%,0%,0%);stroke-opacity:1;stroke-miterlimit:10;" d="M 203.399414 42.147461 L 193.444336 42.147461 C 193.415039 42.147461 193.382812 42.147461 193.356445 42.147461 L 170.695312 41.734375 C 170.663086 41.734375 170.633789 41.734375 170.604492 41.734375 L 149.124023 41.734375 C 146.364258 41.734375 144.125977 43.972656 144.125977 46.735352 L 144.125977 64.899414 " transform="matrix(1.333333,0,0,1.333333,-124,-33.333333)"/>
<path style="fill:none;stroke-width:1;stroke-linecap:butt;stroke-linejoin:miter;stroke:rgb(0%,0%,0%);stroke-opacity:1;stroke-miterlimit:10;" d="M 144.125977 68.898438 L 144.125977 64.899414 M 145.625977 64.899414 L 144.125977 68.898438 L 142.625977 64.899414 " transform="matrix(1.333333,0,0,1.333333,-124,-33.333333)"/>
<path style="fill:none;stroke-width:1;stroke-linecap:round;stroke-linejoin:miter;stroke:rgb(0%,0%,0%);stroke-opacity:1;stroke-miterlimit:10;" d="M 278.961914 145.249023 L 299.299805 145.249023 " transform="matrix(1.333333,0,0,1.333333,-124,-33.333333)"/>
<path style="fill:none;stroke-width:1;stroke-linecap:butt;stroke-linejoin:miter;stroke:rgb(0%,0%,0%);stroke-opacity:1;stroke-miterlimit:10;" d="M 303.301758 145.249023 L 299.299805 145.249023 M 299.299805 143.749023 L 303.301758 145.249023 L 299.299805 146.749023 " transform="matrix(1.333333,0,0,1.333333,-124,-33.333333)"/>
</g>
</svg>
