<?xml version="1.0" encoding="UTF-8"?>
<svg xmlns="http://www.w3.org/2000/svg" xmlns:xlink="http://www.w3.org/1999/xlink" width="390.666667" height="65.333333" viewBox="0 0 390.666667 65.333333" version="1.1">
<g id="surface1">
<path style="fill-rule:nonzero;fill:rgb(100%,100%,100%);fill-opacity:1;stroke-width:1;stroke-linecap:round;stroke-linejoin:round;stroke:rgb(0%,0%,0%);stroke-opacity:1;stroke-miterlimit:10;" d="M 142.499023 19.90332 L 225.5 19.90332 L 225.5 51.40332 L 142.499023 51.40332 Z M 142.499023 19.90332 " transform="matrix(1.333333,0,0,1.333333,-18.666667,-14.666667)"/>
<path style=" stroke:none;fill-rule:nonzero;fill:rgb(0%,0%,0%);fill-opacity:1;" d="M 186.992188 37.367188 L 189.28125 28.804688 L 188.15625 28.804688 L 186.40625 35.929688 L 186.386719 35.929688 L 184.492188 28.804688 L 183.261719 28.804688 L 181.34375 35.929688 L 181.304688 35.929688 L 179.636719 28.804688 L 178.46875 28.804688 L 180.65625 37.367188 L 181.84375 37.367188 L 183.824219 30.160156 L 183.867188 30.160156 L 185.804688 37.367188 Z M 186.992188 37.367188 "/>
<path style=" stroke:none;fill-rule:nonzero;fill:rgb(0%,0%,0%);fill-opacity:1;" d="M 195.261719 37.347656 C 195.082031 37.441406 194.835938 37.492188 194.535156 37.492188 C 194.269531 37.492188 194.054688 37.421875 193.886719 37.285156 C 193.730469 37.132812 193.660156 36.890625 193.660156 36.554688 C 193.378906 36.890625 193.054688 37.132812 192.679688 37.285156 C 192.304688 37.421875 191.898438 37.492188 191.472656 37.492188 C 191.191406 37.492188 190.929688 37.457031 190.679688 37.390625 C 190.429688 37.335938 190.207031 37.242188 190.011719 37.117188 C 189.832031 36.984375 189.683594 36.800781 189.574219 36.578125 C 189.476562 36.359375 189.429688 36.085938 189.429688 35.765625 C 189.429688 35.421875 189.480469 35.132812 189.597656 34.910156 C 189.722656 34.691406 189.878906 34.507812 190.074219 34.367188 C 190.269531 34.234375 190.492188 34.128906 190.742188 34.054688 C 191.003906 33.972656 191.269531 33.910156 191.535156 33.867188 C 191.808594 33.816406 192.074219 33.773438 192.324219 33.742188 C 192.574219 33.71875 192.792969 33.675781 192.992188 33.617188 C 193.183594 33.566406 193.335938 33.488281 193.449219 33.390625 C 193.558594 33.296875 193.617188 33.148438 193.617188 32.953125 C 193.617188 32.734375 193.574219 32.550781 193.492188 32.410156 C 193.410156 32.273438 193.292969 32.171875 193.160156 32.097656 C 193.035156 32.03125 192.886719 31.984375 192.722656 31.953125 C 192.554688 31.925781 192.394531 31.910156 192.242188 31.910156 C 191.792969 31.910156 191.429688 31.992188 191.136719 32.160156 C 190.855469 32.328125 190.707031 32.640625 190.679688 33.097656 L 189.660156 33.097656 C 189.667969 32.710938 189.746094 32.382812 189.886719 32.117188 C 190.039062 31.859375 190.230469 31.648438 190.472656 31.492188 C 190.722656 31.328125 190.996094 31.210938 191.304688 31.140625 C 191.605469 31.054688 191.933594 31.015625 192.285156 31.015625 C 192.574219 31.015625 192.851562 31.035156 193.117188 31.078125 C 193.394531 31.117188 193.644531 31.203125 193.867188 31.328125 C 194.101562 31.453125 194.285156 31.628906 194.410156 31.847656 C 194.542969 32.070312 194.617188 32.363281 194.617188 32.722656 L 194.617188 35.910156 C 194.617188 36.160156 194.628906 36.34375 194.660156 36.453125 C 194.683594 36.566406 194.785156 36.617188 194.949219 36.617188 C 195.035156 36.617188 195.136719 36.597656 195.261719 36.554688 Z M 193.597656 34.160156 C 193.472656 34.257812 193.304688 34.328125 193.097656 34.367188 C 192.886719 34.410156 192.664062 34.445312 192.429688 34.472656 C 192.207031 34.503906 191.976562 34.535156 191.742188 34.578125 C 191.519531 34.617188 191.308594 34.679688 191.117188 34.765625 C 190.933594 34.835938 190.789062 34.945312 190.679688 35.097656 C 190.566406 35.253906 190.511719 35.453125 190.511719 35.703125 C 190.511719 35.867188 190.539062 36.015625 190.597656 36.140625 C 190.664062 36.253906 190.753906 36.34375 190.867188 36.410156 C 190.976562 36.484375 191.101562 36.535156 191.242188 36.578125 C 191.394531 36.609375 191.542969 36.617188 191.699219 36.617188 C 192.035156 36.617188 192.316406 36.570312 192.554688 36.472656 C 192.804688 36.378906 193.003906 36.257812 193.160156 36.117188 C 193.308594 35.984375 193.417969 35.835938 193.492188 35.679688 C 193.558594 35.515625 193.597656 35.359375 193.597656 35.203125 Z M 193.597656 34.160156 "/>
<path style=" stroke:none;fill-rule:nonzero;fill:rgb(0%,0%,0%);fill-opacity:1;" d="M 196.269531 28.804688 L 196.269531 37.367188 L 197.289062 37.367188 L 197.289062 35.015625 L 198.25 34.117188 L 200.375 37.367188 L 201.664062 37.367188 L 199.019531 33.410156 L 201.476562 31.160156 L 200.125 31.160156 L 197.289062 33.867188 L 197.289062 28.804688 Z M 196.269531 28.804688 "/>
<path style=" stroke:none;fill-rule:nonzero;fill:rgb(0%,0%,0%);fill-opacity:1;" d="M 206.746094 33.679688 L 203.183594 33.679688 C 203.195312 33.429688 203.246094 33.203125 203.332031 32.992188 C 203.414062 32.785156 203.527344 32.609375 203.683594 32.453125 C 203.835938 32.285156 204.019531 32.15625 204.226562 32.054688 C 204.445312 31.960938 204.691406 31.910156 204.957031 31.910156 C 205.207031 31.910156 205.433594 31.960938 205.644531 32.054688 C 205.863281 32.15625 206.050781 32.28125 206.207031 32.429688 C 206.355469 32.585938 206.476562 32.773438 206.558594 32.992188 C 206.652344 33.203125 206.714844 33.429688 206.746094 33.679688 Z M 207.726562 35.410156 L 206.707031 35.410156 C 206.621094 35.816406 206.441406 36.117188 206.164062 36.328125 C 205.882812 36.523438 205.527344 36.617188 205.101562 36.617188 C 204.769531 36.617188 204.476562 36.566406 204.226562 36.453125 C 203.976562 36.34375 203.769531 36.195312 203.601562 36.015625 C 203.445312 35.820312 203.335938 35.597656 203.269531 35.347656 C 203.195312 35.097656 203.167969 34.84375 203.183594 34.578125 L 207.808594 34.578125 C 207.835938 34.203125 207.808594 33.804688 207.726562 33.390625 C 207.644531 32.972656 207.488281 32.59375 207.269531 32.242188 C 207.042969 31.882812 206.746094 31.59375 206.371094 31.367188 C 206.007812 31.132812 205.558594 31.015625 205.019531 31.015625 C 204.585938 31.015625 204.191406 31.097656 203.832031 31.265625 C 203.480469 31.421875 203.175781 31.640625 202.914062 31.929688 C 202.648438 32.222656 202.445312 32.566406 202.308594 32.953125 C 202.167969 33.34375 202.101562 33.773438 202.101562 34.242188 C 202.113281 34.71875 202.183594 35.15625 202.308594 35.554688 C 202.433594 35.960938 202.613281 36.304688 202.851562 36.597656 C 203.101562 36.878906 203.402344 37.097656 203.769531 37.265625 C 204.144531 37.414062 204.582031 37.492188 205.082031 37.492188 C 205.773438 37.492188 206.351562 37.320312 206.808594 36.972656 C 207.277344 36.628906 207.585938 36.109375 207.726562 35.410156 Z M 207.726562 35.410156 "/>
<path style=" stroke:none;fill-rule:nonzero;fill:rgb(0%,0%,0%);fill-opacity:1;" d="M 218.359375 37.367188 L 220.339844 31.160156 L 219.277344 31.160156 L 217.882812 36.242188 L 217.859375 36.242188 L 216.570312 31.160156 L 215.445312 31.160156 L 214.195312 36.242188 L 214.171875 36.242188 L 212.777344 31.160156 L 211.652344 31.160156 L 213.632812 37.367188 L 214.734375 37.367188 L 215.984375 32.429688 L 216.007812 32.429688 L 217.277344 37.367188 Z M 218.359375 37.367188 "/>
<path style=" stroke:none;fill-rule:nonzero;fill:rgb(0%,0%,0%);fill-opacity:1;" d="M 222.0625 34.265625 C 222.0625 33.890625 222.109375 33.554688 222.207031 33.265625 C 222.300781 32.972656 222.4375 32.734375 222.601562 32.535156 C 222.78125 32.328125 222.988281 32.175781 223.226562 32.078125 C 223.460938 31.96875 223.710938 31.910156 223.976562 31.910156 C 224.238281 31.910156 224.488281 31.96875 224.726562 32.078125 C 224.960938 32.175781 225.171875 32.328125 225.351562 32.535156 C 225.53125 32.734375 225.671875 32.972656 225.769531 33.265625 C 225.863281 33.554688 225.914062 33.890625 225.914062 34.265625 C 225.914062 34.640625 225.863281 34.984375 225.769531 35.285156 C 225.671875 35.578125 225.53125 35.820312 225.351562 36.015625 C 225.171875 36.210938 224.960938 36.363281 224.726562 36.472656 C 224.488281 36.570312 224.238281 36.617188 223.976562 36.617188 C 223.710938 36.617188 223.460938 36.570312 223.226562 36.472656 C 222.988281 36.363281 222.78125 36.210938 222.601562 36.015625 C 222.4375 35.820312 222.300781 35.578125 222.207031 35.285156 C 222.109375 34.984375 222.0625 34.640625 222.0625 34.265625 Z M 220.976562 34.265625 C 220.976562 34.722656 221.039062 35.15625 221.164062 35.554688 C 221.289062 35.945312 221.476562 36.285156 221.726562 36.578125 C 221.988281 36.867188 222.3125 37.097656 222.6875 37.265625 C 223.0625 37.414062 223.488281 37.492188 223.976562 37.492188 C 224.476562 37.492188 224.914062 37.414062 225.289062 37.265625 C 225.664062 37.097656 225.976562 36.867188 226.226562 36.578125 C 226.476562 36.285156 226.664062 35.945312 226.789062 35.554688 C 226.925781 35.15625 227 34.722656 227 34.265625 C 227 33.820312 226.925781 33.40625 226.789062 33.015625 C 226.664062 32.613281 226.476562 32.265625 226.226562 31.972656 C 225.976562 31.671875 225.664062 31.429688 225.289062 31.265625 C 224.914062 31.097656 224.476562 31.015625 223.976562 31.015625 C 223.488281 31.015625 223.0625 31.097656 222.6875 31.265625 C 222.3125 31.429688 221.988281 31.671875 221.726562 31.972656 C 221.476562 32.265625 221.289062 32.613281 221.164062 33.015625 C 221.039062 33.40625 220.976562 33.820312 220.976562 34.265625 Z M 220.976562 34.265625 "/>
<path style=" stroke:none;fill-rule:nonzero;fill:rgb(0%,0%,0%);fill-opacity:1;" d="M 228.15625 31.160156 L 228.15625 37.367188 L 229.179688 37.367188 L 229.179688 34.617188 C 229.179688 34.21875 229.21875 33.863281 229.304688 33.554688 C 229.386719 33.238281 229.511719 32.972656 229.679688 32.765625 C 229.855469 32.546875 230.085938 32.378906 230.367188 32.265625 C 230.65625 32.15625 231.011719 32.097656 231.429688 32.097656 L 231.429688 31.015625 C 230.871094 31.003906 230.414062 31.117188 230.054688 31.367188 C 229.6875 31.609375 229.386719 31.972656 229.136719 32.472656 L 229.117188 32.472656 L 229.117188 31.160156 Z M 228.15625 31.160156 "/>
<path style=" stroke:none;fill-rule:nonzero;fill:rgb(0%,0%,0%);fill-opacity:1;" d="M 232.730469 34.328125 C 232.730469 34.023438 232.753906 33.722656 232.8125 33.429688 C 232.878906 33.140625 232.984375 32.882812 233.125 32.660156 C 233.277344 32.441406 233.46875 32.257812 233.707031 32.117188 C 233.941406 31.984375 234.234375 31.910156 234.582031 31.910156 C 234.925781 31.910156 235.230469 31.984375 235.480469 32.117188 C 235.730469 32.257812 235.925781 32.441406 236.082031 32.660156 C 236.234375 32.867188 236.34375 33.117188 236.417969 33.410156 C 236.5 33.691406 236.542969 33.972656 236.542969 34.265625 C 236.542969 34.554688 236.503906 34.84375 236.4375 35.117188 C 236.363281 35.398438 236.253906 35.648438 236.105469 35.867188 C 235.949219 36.09375 235.753906 36.273438 235.519531 36.410156 C 235.28125 36.550781 234.988281 36.617188 234.644531 36.617188 C 234.3125 36.617188 234.019531 36.554688 233.769531 36.429688 C 233.53125 36.296875 233.339844 36.117188 233.1875 35.910156 C 233.03125 35.691406 232.917969 35.441406 232.832031 35.160156 C 232.761719 34.882812 232.730469 34.609375 232.730469 34.328125 Z M 237.519531 37.367188 L 237.519531 28.804688 L 236.5 28.804688 L 236.5 31.992188 L 236.480469 31.992188 C 236.363281 31.816406 236.230469 31.660156 236.0625 31.535156 C 235.894531 31.410156 235.71875 31.316406 235.542969 31.242188 C 235.359375 31.160156 235.171875 31.109375 234.980469 31.078125 C 234.796875 31.035156 234.628906 31.015625 234.480469 31.015625 C 234.003906 31.015625 233.589844 31.109375 233.230469 31.285156 C 232.863281 31.453125 232.566406 31.679688 232.332031 31.972656 C 232.09375 32.265625 231.921875 32.613281 231.8125 33.015625 C 231.699219 33.40625 231.644531 33.816406 231.644531 34.242188 C 231.644531 34.691406 231.699219 35.109375 231.8125 35.492188 C 231.9375 35.882812 232.113281 36.234375 232.355469 36.535156 C 232.589844 36.828125 232.878906 37.066406 233.230469 37.242188 C 233.589844 37.410156 234.011719 37.492188 234.5 37.492188 C 234.925781 37.492188 235.324219 37.414062 235.6875 37.265625 C 236.046875 37.113281 236.3125 36.867188 236.480469 36.535156 L 236.5 36.535156 L 236.5 37.367188 Z M 237.519531 37.367188 "/>
<path style=" stroke:none;fill-rule:nonzero;fill:rgb(0%,0%,0%);fill-opacity:1;" d="M 242.429688 31.160156 L 242.429688 37.367188 L 243.453125 37.367188 L 243.453125 33.515625 C 243.453125 33.390625 243.476562 33.238281 243.535156 33.054688 C 243.585938 32.878906 243.679688 32.703125 243.804688 32.535156 C 243.941406 32.367188 244.117188 32.222656 244.328125 32.097656 C 244.546875 31.972656 244.804688 31.910156 245.097656 31.910156 C 245.332031 31.910156 245.519531 31.945312 245.660156 32.015625 C 245.8125 32.085938 245.929688 32.179688 246.015625 32.304688 C 246.109375 32.429688 246.171875 32.578125 246.203125 32.742188 C 246.242188 32.910156 246.265625 33.097656 246.265625 33.304688 L 246.265625 37.367188 L 247.285156 37.367188 L 247.285156 33.515625 C 247.285156 33.03125 247.429688 32.640625 247.722656 32.347656 C 248.015625 32.054688 248.410156 31.910156 248.910156 31.910156 C 249.160156 31.910156 249.359375 31.953125 249.515625 32.035156 C 249.664062 32.109375 249.785156 32.203125 249.867188 32.328125 C 249.960938 32.453125 250.023438 32.597656 250.054688 32.765625 C 250.097656 32.929688 250.117188 33.113281 250.117188 33.304688 L 250.117188 37.367188 L 251.117188 37.367188 L 251.117188 32.828125 C 251.117188 32.507812 251.066406 32.238281 250.972656 32.015625 C 250.875 31.78125 250.734375 31.59375 250.554688 31.453125 C 250.375 31.300781 250.160156 31.191406 249.910156 31.117188 C 249.660156 31.050781 249.375 31.015625 249.054688 31.015625 C 248.648438 31.015625 248.273438 31.113281 247.929688 31.304688 C 247.597656 31.488281 247.328125 31.742188 247.117188 32.078125 C 246.992188 31.691406 246.769531 31.421875 246.453125 31.265625 C 246.144531 31.097656 245.796875 31.015625 245.410156 31.015625 C 244.546875 31.015625 243.878906 31.367188 243.410156 32.078125 L 243.390625 32.078125 L 243.390625 31.160156 Z M 242.429688 31.160156 "/>
<path style=" stroke:none;fill-rule:nonzero;fill:rgb(0%,0%,0%);fill-opacity:1;" d="M 253.417969 34.265625 C 253.417969 33.890625 253.464844 33.554688 253.5625 33.265625 C 253.65625 32.972656 253.792969 32.734375 253.960938 32.535156 C 254.136719 32.328125 254.34375 32.175781 254.585938 32.078125 C 254.820312 31.96875 255.070312 31.910156 255.335938 31.910156 C 255.59375 31.910156 255.84375 31.96875 256.085938 32.078125 C 256.320312 32.175781 256.527344 32.328125 256.710938 32.535156 C 256.886719 32.734375 257.027344 32.972656 257.125 33.265625 C 257.21875 33.554688 257.273438 33.890625 257.273438 34.265625 C 257.273438 34.640625 257.21875 34.984375 257.125 35.285156 C 257.027344 35.578125 256.886719 35.820312 256.710938 36.015625 C 256.527344 36.210938 256.320312 36.363281 256.085938 36.472656 C 255.84375 36.570312 255.59375 36.617188 255.335938 36.617188 C 255.070312 36.617188 254.820312 36.570312 254.585938 36.472656 C 254.34375 36.363281 254.136719 36.210938 253.960938 36.015625 C 253.792969 35.820312 253.65625 35.578125 253.5625 35.285156 C 253.464844 34.984375 253.417969 34.640625 253.417969 34.265625 Z M 252.335938 34.265625 C 252.335938 34.722656 252.398438 35.15625 252.523438 35.554688 C 252.648438 35.945312 252.835938 36.285156 253.085938 36.578125 C 253.34375 36.867188 253.667969 37.097656 254.042969 37.265625 C 254.417969 37.414062 254.84375 37.492188 255.335938 37.492188 C 255.835938 37.492188 256.273438 37.414062 256.648438 37.265625 C 257.023438 37.097656 257.335938 36.867188 257.585938 36.578125 C 257.835938 36.285156 258.023438 35.945312 258.148438 35.554688 C 258.28125 35.15625 258.355469 34.722656 258.355469 34.265625 C 258.355469 33.820312 258.28125 33.40625 258.148438 33.015625 C 258.023438 32.613281 257.835938 32.265625 257.585938 31.972656 C 257.335938 31.671875 257.023438 31.429688 256.648438 31.265625 C 256.273438 31.097656 255.835938 31.015625 255.335938 31.015625 C 254.84375 31.015625 254.417969 31.097656 254.042969 31.265625 C 253.667969 31.429688 253.34375 31.671875 253.085938 31.972656 C 252.835938 32.265625 252.648438 32.613281 252.523438 33.015625 C 252.398438 33.40625 252.335938 33.820312 252.335938 34.265625 Z M 252.335938 34.265625 "/>
<path style=" stroke:none;fill-rule:nonzero;fill:rgb(0%,0%,0%);fill-opacity:1;" d="M 260.304688 34.328125 C 260.304688 34.023438 260.332031 33.722656 260.390625 33.429688 C 260.457031 33.140625 260.5625 32.882812 260.703125 32.660156 C 260.851562 32.441406 261.046875 32.257812 261.285156 32.117188 C 261.519531 31.984375 261.8125 31.910156 262.160156 31.910156 C 262.503906 31.910156 262.804688 31.984375 263.054688 32.117188 C 263.304688 32.257812 263.503906 32.441406 263.660156 32.660156 C 263.8125 32.867188 263.921875 33.117188 263.992188 33.410156 C 264.078125 33.691406 264.117188 33.972656 264.117188 34.265625 C 264.117188 34.554688 264.082031 34.84375 264.015625 35.117188 C 263.941406 35.398438 263.832031 35.648438 263.679688 35.867188 C 263.523438 36.09375 263.332031 36.273438 263.097656 36.410156 C 262.859375 36.550781 262.566406 36.617188 262.222656 36.617188 C 261.890625 36.617188 261.597656 36.554688 261.347656 36.429688 C 261.109375 36.296875 260.914062 36.117188 260.765625 35.910156 C 260.609375 35.691406 260.492188 35.441406 260.410156 35.160156 C 260.335938 34.882812 260.304688 34.609375 260.304688 34.328125 Z M 265.097656 37.367188 L 265.097656 28.804688 L 264.078125 28.804688 L 264.078125 31.992188 L 264.054688 31.992188 C 263.941406 31.816406 263.804688 31.660156 263.640625 31.535156 C 263.472656 31.410156 263.296875 31.316406 263.117188 31.242188 C 262.9375 31.160156 262.75 31.109375 262.554688 31.078125 C 262.375 31.035156 262.207031 31.015625 262.054688 31.015625 C 261.582031 31.015625 261.164062 31.109375 260.804688 31.285156 C 260.441406 31.453125 260.144531 31.679688 259.910156 31.972656 C 259.671875 32.265625 259.5 32.613281 259.390625 33.015625 C 259.273438 33.40625 259.222656 33.816406 259.222656 34.242188 C 259.222656 34.691406 259.273438 35.109375 259.390625 35.492188 C 259.515625 35.882812 259.691406 36.234375 259.929688 36.535156 C 260.164062 36.828125 260.457031 37.066406 260.804688 37.242188 C 261.164062 37.410156 261.585938 37.492188 262.078125 37.492188 C 262.503906 37.492188 262.898438 37.414062 263.265625 37.265625 C 263.625 37.113281 263.890625 36.867188 264.054688 36.535156 L 264.078125 36.535156 L 264.078125 37.367188 Z M 265.097656 37.367188 "/>
<path style=" stroke:none;fill-rule:nonzero;fill:rgb(0%,0%,0%);fill-opacity:1;" d="M 270.984375 33.679688 L 267.421875 33.679688 C 267.433594 33.429688 267.484375 33.203125 267.566406 32.992188 C 267.652344 32.785156 267.765625 32.609375 267.921875 32.453125 C 268.074219 32.285156 268.253906 32.15625 268.464844 32.054688 C 268.683594 31.960938 268.925781 31.910156 269.191406 31.910156 C 269.441406 31.910156 269.671875 31.960938 269.878906 32.054688 C 270.097656 32.15625 270.285156 32.28125 270.441406 32.429688 C 270.59375 32.585938 270.714844 32.773438 270.796875 32.992188 C 270.890625 33.203125 270.953125 33.429688 270.984375 33.679688 Z M 271.964844 35.410156 L 270.941406 35.410156 C 270.859375 35.816406 270.675781 36.117188 270.402344 36.328125 C 270.121094 36.523438 269.765625 36.617188 269.339844 36.617188 C 269.003906 36.617188 268.714844 36.566406 268.464844 36.453125 C 268.214844 36.34375 268.003906 36.195312 267.839844 36.015625 C 267.683594 35.820312 267.574219 35.597656 267.503906 35.347656 C 267.433594 35.097656 267.40625 34.84375 267.421875 34.578125 L 272.046875 34.578125 C 272.074219 34.203125 272.046875 33.804688 271.964844 33.390625 C 271.878906 32.972656 271.722656 32.59375 271.503906 32.242188 C 271.28125 31.882812 270.984375 31.59375 270.609375 31.367188 C 270.246094 31.132812 269.796875 31.015625 269.253906 31.015625 C 268.824219 31.015625 268.425781 31.097656 268.066406 31.265625 C 267.71875 31.421875 267.410156 31.640625 267.152344 31.929688 C 266.886719 32.222656 266.683594 32.566406 266.546875 32.953125 C 266.40625 33.34375 266.339844 33.773438 266.339844 34.242188 C 266.347656 34.71875 266.421875 35.15625 266.546875 35.554688 C 266.671875 35.960938 266.847656 36.304688 267.089844 36.597656 C 267.339844 36.878906 267.640625 37.097656 268.003906 37.265625 C 268.378906 37.414062 268.816406 37.492188 269.316406 37.492188 C 270.011719 37.492188 270.589844 37.320312 271.046875 36.972656 C 271.515625 36.628906 271.824219 36.109375 271.964844 35.410156 Z M 271.964844 35.410156 "/>
<path style=" stroke:none;fill-rule:nonzero;fill:rgb(0%,0%,0%);fill-opacity:1;" d="M 273.179688 28.804688 L 273.179688 37.367188 L 274.199219 37.367188 L 274.199219 28.804688 Z M 273.179688 28.804688 "/>
<path style=" stroke:none;fill-rule:nonzero;fill:rgb(0%,0%,0%);fill-opacity:1;" d="M 55.472656 30.058594 C 53.890625 28.472656 51.292969 28.488281 49.691406 30.082031 C 48.09375 31.683594 48.082031 34.285156 49.667969 35.863281 C 51.246094 37.449219 53.847656 37.4375 55.449219 35.839844 C 57.042969 34.238281 57.058594 31.640625 55.472656 30.058594 Z M 61.199219 41.59375 C 66.003906 36.785156 66.046875 29.011719 61.285156 24.246094 C 56.519531 19.484375 48.746094 19.527344 43.9375 24.332031 C 40.714844 27.558594 39.652344 32.097656 40.714844 36.183594 L 44.683594 35.09375 C 43.984375 32.371094 44.667969 29.359375 46.816406 27.207031 C 50.027344 24 55.199219 23.972656 58.378906 27.152344 C 61.558594 30.332031 61.53125 35.503906 58.324219 38.714844 C 56.171875 40.863281 53.160156 41.546875 50.4375 40.847656 L 49.347656 44.816406 C 53.433594 45.878906 57.972656 44.816406 61.199219 41.59375 Z M 67.09375 18.4375 C 59.152344 10.496094 46.203125 10.558594 38.183594 18.578125 C 32.8125 23.953125 31.027344 31.519531 32.796875 38.316406 L 36.75 37.246094 C 35.34375 31.800781 36.761719 25.753906 41.0625 21.453125 C 47.480469 15.035156 57.832031 14.984375 64.1875 21.34375 C 70.546875 27.699219 70.496094 38.050781 64.078125 44.46875 C 59.777344 48.769531 53.730469 50.1875 48.269531 48.765625 L 47.199219 52.71875 C 54.011719 54.503906 61.578125 52.71875 66.953125 47.347656 C 74.972656 39.328125 75.035156 26.378906 67.09375 18.4375 Z M 67.09375 18.4375 "/>
<path style=" stroke:none;fill-rule:nonzero;fill:rgb(100%,100%,100%);fill-opacity:1;" d="M 29.457031 11.300781 L 68.953125 50.800781 L 55.347656 64.40625 L 15.847656 24.90625 Z M 29.457031 11.300781 "/>
<path style=" stroke:none;fill-rule:nonzero;fill:rgb(100%,100%,100%);fill-opacity:1;" d="M 53.453125 1.332031 L 67.832031 15.71875 L 30.519531 53.035156 L 16.136719 38.652344 Z M 53.453125 1.332031 "/>
<path style=" stroke:none;fill-rule:nonzero;fill:rgb(0%,0%,0%);fill-opacity:1;" d="M 100.5625 50.988281 L 103.46875 50.988281 L 103.46875 48.082031 L 100.5625 48.082031 Z M 107.828125 35.003906 C 110.238281 35.003906 112.171875 33.058594 112.171875 30.644531 L 112.1875 21.925781 C 112.1875 19.515625 110.238281 17.566406 107.828125 17.566406 C 105.417969 17.566406 103.46875 19.515625 103.46875 21.925781 L 103.46875 30.644531 C 103.46875 33.058594 105.417969 35.003906 107.828125 35.003906 Z M 106.375 50.988281 L 109.28125 50.988281 L 109.28125 48.082031 L 106.375 48.082031 Z M 112.1875 50.988281 L 115.09375 50.988281 L 115.09375 48.082031 L 112.1875 48.082031 Z M 118 30.644531 L 115.53125 30.644531 C 115.53125 35.003906 111.839844 38.058594 107.828125 38.058594 C 103.816406 38.058594 100.125 35.003906 100.125 30.644531 L 97.65625 30.644531 C 97.65625 35.597656 101.609375 39.699219 106.375 40.410156 L 106.375 45.175781 L 109.28125 45.175781 L 109.28125 40.410156 C 114.046875 39.699219 118 35.597656 118 30.644531 Z M 118 30.644531 "/>
<path style=" stroke:none;fill-rule:nonzero;fill:rgb(0%,0%,0%);fill-opacity:1;" d="M 21.808594 41.542969 C 20.9375 42.53125 19.542969 42.996094 18.105469 42.996094 C 16.667969 42.996094 15.269531 42.53125 14.191406 41.6875 C 13.875 41.441406 13.421875 41.5 13.175781 41.816406 C 12.933594 42.140625 12.988281 42.589844 13.308594 42.839844 C 14.628906 43.886719 16.34375 44.449219 18.105469 44.449219 C 19.859375 44.449219 21.578125 43.886719 22.910156 42.847656 C 23.234375 42.605469 23.292969 42.15625 23.042969 41.832031 C 22.796875 41.5 22.332031 41.457031 21.808594 41.542969 Z M 14.542969 35.003906 C 14.542969 34.203125 13.816406 33.550781 13.015625 33.550781 C 12.214844 33.550781 11.5625 34.203125 11.5625 35.003906 C 11.5625 35.808594 12.214844 36.457031 13.015625 36.457031 C 13.816406 36.457031 14.46875 35.808594 14.542969 35.003906 Z M 18.175781 16.84375 C 8.46875 16.84375 0.667969 24.644531 0.667969 34.277344 C 0.667969 43.910156 8.46875 51.714844 18.105469 51.714844 C 27.734375 51.714844 35.542969 43.910156 35.542969 34.277344 C 35.542969 24.644531 27.734375 16.84375 18.175781 16.84375 Z M 29.800781 38.636719 C 28.082031 43.8125 23.464844 47.761719 17.984375 47.761719 C 12.496094 47.761719 7.875 43.8125 6.300781 38.359375 C 4.574219 38.203125 3.207031 36.644531 3.207031 34.699219 C 3.207031 32.855469 4.441406 31.34375 6.074219 31.066406 C 9.109375 28.949219 11.59375 25.996094 12.363281 23.730469 L 12.363281 23.714844 C 13.972656 27.535156 21.167969 31.253906 29.203125 31.066406 L 29.640625 31.027344 C 31.5 31.027344 32.996094 32.683594 32.996094 34.714844 C 32.996094 36.71875 31.515625 38.359375 29.800781 38.636719 Z M 24.714844 35.003906 C 24.714844 34.203125 23.988281 33.550781 23.1875 33.550781 C 22.386719 33.550781 21.734375 34.203125 21.734375 35.003906 C 21.734375 35.808594 22.386719 36.457031 23.1875 36.457031 C 23.988281 36.457031 24.640625 35.808594 24.714844 35.003906 Z M 24.714844 35.003906 "/>
<path style=" stroke:none;fill-rule:nonzero;fill:rgb(0%,0%,0%);fill-opacity:1;" d="M 340.152344 27.050781 L 340.152344 26.320312 L 339.320312 26.320312 C 339.164062 26.320312 339.011719 26.359375 338.859375 26.425781 C 338.703125 26.5 338.570312 26.601562 338.445312 26.738281 C 338.320312 26.863281 338.214844 27.023438 338.132812 27.21875 C 338.046875 27.414062 338.007812 27.632812 338.007812 27.882812 L 338.007812 30.070312 C 338.007812 30.28125 337.976562 30.476562 337.921875 30.65625 C 337.867188 30.835938 337.789062 30.988281 337.695312 31.113281 C 337.609375 31.226562 337.507812 31.316406 337.382812 31.382812 C 337.265625 31.457031 337.152344 31.488281 337.027344 31.488281 L 337.027344 32.300781 C 337.152344 32.300781 337.265625 32.335938 337.382812 32.40625 C 337.507812 32.476562 337.609375 32.570312 337.695312 32.695312 C 337.789062 32.8125 337.867188 32.957031 337.921875 33.132812 C 337.976562 33.300781 338.007812 33.5 338.007812 33.71875 L 338.007812 35.882812 C 338.007812 36.132812 338.046875 36.351562 338.132812 36.550781 C 338.214844 36.757812 338.320312 36.925781 338.445312 37.050781 C 338.570312 37.1875 338.703125 37.285156 338.859375 37.34375 C 339.011719 37.410156 339.164062 37.445312 339.320312 37.445312 L 340.152344 37.445312 L 340.152344 36.738281 L 339.546875 36.738281 C 339.433594 36.738281 339.339844 36.703125 339.257812 36.632812 C 339.183594 36.578125 339.132812 36.5 339.089844 36.40625 C 339.046875 36.304688 339.015625 36.195312 339.007812 36.070312 C 338.992188 35.945312 338.984375 35.820312 338.984375 35.695312 L 338.984375 33.53125 C 338.984375 33.226562 338.933594 32.976562 338.839844 32.78125 C 338.757812 32.570312 338.65625 32.40625 338.546875 32.28125 C 338.433594 32.15625 338.324219 32.066406 338.214844 32.007812 C 338.101562 31.957031 338.007812 31.921875 337.921875 31.90625 L 337.921875 31.882812 C 338.007812 31.859375 338.101562 31.816406 338.214844 31.757812 C 338.324219 31.691406 338.433594 31.59375 338.546875 31.46875 C 338.65625 31.34375 338.757812 31.1875 338.839844 30.988281 C 338.933594 30.796875 338.984375 30.550781 338.984375 30.257812 L 338.984375 28.070312 C 338.984375 27.945312 338.992188 27.820312 339.007812 27.695312 C 339.015625 27.570312 339.046875 27.460938 339.089844 27.363281 C 339.132812 27.269531 339.183594 27.191406 339.257812 27.132812 C 339.339844 27.082031 339.433594 27.050781 339.546875 27.050781 Z M 340.152344 27.050781 "/>
<path style=" stroke:none;fill-rule:nonzero;fill:rgb(0%,0%,0%);fill-opacity:1;" d="M 343.648438 35.925781 C 343.523438 36.226562 343.398438 36.488281 343.273438 36.695312 C 343.160156 36.90625 343.035156 37.070312 342.898438 37.195312 C 342.757812 37.332031 342.605469 37.429688 342.441406 37.488281 C 342.273438 37.539062 342.070312 37.570312 341.835938 37.570312 C 341.722656 37.570312 341.605469 37.5625 341.480469 37.550781 C 341.355469 37.535156 341.238281 37.507812 341.128906 37.46875 L 341.128906 36.53125 C 341.222656 36.570312 341.324219 36.601562 341.441406 36.632812 C 341.550781 36.660156 341.648438 36.675781 341.730469 36.675781 C 341.941406 36.675781 342.113281 36.625 342.253906 36.53125 C 342.386719 36.429688 342.503906 36.285156 342.585938 36.09375 L 343.003906 35.050781 L 340.542969 28.882812 L 341.691406 28.882812 L 343.503906 33.96875 L 343.523438 33.96875 L 345.273438 28.882812 L 346.335938 28.882812 Z M 343.648438 35.925781 "/>
<path style=" stroke:none;fill-rule:nonzero;fill:rgb(0%,0%,0%);fill-opacity:1;" d="M 351.523438 31.40625 L 347.960938 31.40625 C 347.972656 31.15625 348.023438 30.925781 348.105469 30.71875 C 348.191406 30.507812 348.304688 30.332031 348.460938 30.175781 C 348.613281 30.007812 348.792969 29.878906 349.003906 29.78125 C 349.222656 29.6875 349.464844 29.632812 349.730469 29.632812 C 349.980469 29.632812 350.210938 29.6875 350.417969 29.78125 C 350.636719 29.878906 350.824219 30.003906 350.980469 30.15625 C 351.132812 30.3125 351.253906 30.5 351.335938 30.71875 C 351.429688 30.925781 351.492188 31.15625 351.523438 31.40625 Z M 352.503906 33.132812 L 351.480469 33.132812 C 351.398438 33.539062 351.214844 33.84375 350.941406 34.050781 C 350.660156 34.25 350.304688 34.34375 349.878906 34.34375 C 349.542969 34.34375 349.253906 34.289062 349.003906 34.175781 C 348.753906 34.066406 348.542969 33.921875 348.378906 33.738281 C 348.222656 33.546875 348.113281 33.320312 348.042969 33.070312 C 347.972656 32.820312 347.945312 32.566406 347.960938 32.300781 L 352.585938 32.300781 C 352.613281 31.925781 352.585938 31.53125 352.503906 31.113281 C 352.417969 30.695312 352.261719 30.316406 352.042969 29.96875 C 351.820312 29.609375 351.523438 29.316406 351.148438 29.09375 C 350.785156 28.859375 350.335938 28.738281 349.792969 28.738281 C 349.363281 28.738281 348.964844 28.820312 348.605469 28.988281 C 348.257812 29.144531 347.949219 29.363281 347.691406 29.65625 C 347.425781 29.945312 347.222656 30.289062 347.085938 30.675781 C 346.945312 31.066406 346.878906 31.5 346.878906 31.96875 C 346.886719 32.441406 346.960938 32.878906 347.085938 33.28125 C 347.210938 33.6875 347.386719 34.03125 347.628906 34.320312 C 347.878906 34.601562 348.179688 34.820312 348.542969 34.988281 C 348.917969 35.140625 349.355469 35.21875 349.855469 35.21875 C 350.550781 35.21875 351.128906 35.046875 351.585938 34.695312 C 352.054688 34.351562 352.363281 33.832031 352.503906 33.132812 Z M 352.503906 33.132812 "/>
<path style=" stroke:none;fill-rule:nonzero;fill:rgb(0%,0%,0%);fill-opacity:1;" d="M 354.28125 33.132812 L 353.257812 33.132812 C 353.269531 33.523438 353.347656 33.851562 353.488281 34.113281 C 353.640625 34.378906 353.832031 34.59375 354.070312 34.757812 C 354.304688 34.925781 354.578125 35.046875 354.882812 35.113281 C 355.203125 35.179688 355.535156 35.21875 355.882812 35.21875 C 356.1875 35.21875 356.5 35.1875 356.820312 35.132812 C 357.140625 35.082031 357.425781 34.976562 357.675781 34.820312 C 357.925781 34.671875 358.125 34.46875 358.28125 34.21875 C 358.445312 33.96875 358.53125 33.65625 358.53125 33.28125 C 358.53125 32.988281 358.46875 32.75 358.34375 32.550781 C 358.226562 32.34375 358.078125 32.175781 357.882812 32.050781 C 357.703125 31.914062 357.488281 31.800781 357.238281 31.71875 C 357 31.632812 356.75 31.566406 356.488281 31.507812 C 356.25 31.457031 356.015625 31.40625 355.78125 31.363281 C 355.539062 31.3125 355.328125 31.25 355.132812 31.175781 C 354.9375 31.09375 354.78125 31 354.65625 30.882812 C 354.53125 30.757812 354.46875 30.613281 354.46875 30.445312 C 354.46875 30.28125 354.507812 30.148438 354.59375 30.050781 C 354.675781 29.957031 354.78125 29.878906 354.90625 29.820312 C 355.03125 29.753906 355.164062 29.707031 355.320312 29.675781 C 355.472656 29.648438 355.625 29.632812 355.78125 29.632812 C 355.945312 29.632812 356.113281 29.65625 356.28125 29.695312 C 356.445312 29.738281 356.597656 29.800781 356.738281 29.882812 C 356.875 29.957031 356.988281 30.0625 357.070312 30.195312 C 357.15625 30.320312 357.207031 30.488281 357.238281 30.695312 L 358.238281 30.695312 C 358.222656 30.320312 358.144531 30.007812 358.007812 29.757812 C 357.867188 29.5 357.679688 29.296875 357.445312 29.15625 C 357.222656 29.003906 356.96875 28.898438 356.675781 28.84375 C 356.382812 28.773438 356.054688 28.738281 355.695312 28.738281 C 355.429688 28.738281 355.160156 28.773438 354.882812 28.84375 C 354.601562 28.914062 354.351562 29.019531 354.132812 29.15625 C 353.910156 29.296875 353.726562 29.484375 353.59375 29.71875 C 353.453125 29.941406 353.382812 30.207031 353.382812 30.507812 C 353.382812 30.914062 353.476562 31.226562 353.675781 31.445312 C 353.882812 31.671875 354.132812 31.84375 354.425781 31.96875 C 354.726562 32.09375 355.054688 32.191406 355.40625 32.257812 C 355.765625 32.332031 356.09375 32.40625 356.382812 32.488281 C 356.6875 32.570312 356.9375 32.6875 357.132812 32.820312 C 357.34375 32.945312 357.445312 33.144531 357.445312 33.40625 C 357.445312 33.601562 357.394531 33.757812 357.300781 33.882812 C 357.203125 34.007812 357.078125 34.109375 356.925781 34.175781 C 356.785156 34.234375 356.625 34.273438 356.445312 34.300781 C 356.265625 34.332031 356.097656 34.34375 355.945312 34.34375 C 355.738281 34.34375 355.535156 34.320312 355.34375 34.28125 C 355.144531 34.238281 354.96875 34.175781 354.800781 34.09375 C 354.644531 34 354.519531 33.875 354.425781 33.71875 C 354.328125 33.550781 354.28125 33.359375 354.28125 33.132812 Z M 354.28125 33.132812 "/>
<path style=" stroke:none;fill-rule:nonzero;fill:rgb(0%,0%,0%);fill-opacity:1;" d="M 359.882812 33.757812 L 359.882812 35.09375 L 360.59375 35.09375 C 360.59375 35.1875 360.578125 35.289062 360.550781 35.40625 C 360.535156 35.515625 360.5 35.625 360.445312 35.738281 C 360.390625 35.847656 360.3125 35.945312 360.21875 36.03125 C 360.132812 36.125 360.019531 36.195312 359.882812 36.238281 L 359.882812 36.84375 C 360.351562 36.703125 360.695312 36.46875 360.90625 36.132812 C 361.113281 35.8125 361.21875 35.425781 361.21875 34.96875 L 361.21875 33.757812 Z M 359.882812 33.757812 "/>
<path style=" stroke:none;fill-rule:nonzero;fill:rgb(0%,0%,0%);fill-opacity:1;" d="M 366.328125 28.882812 L 366.328125 35.09375 L 367.347656 35.09375 L 367.347656 31.59375 C 367.347656 31.316406 367.378906 31.0625 367.453125 30.820312 C 367.535156 30.585938 367.648438 30.378906 367.804688 30.195312 C 367.957031 30.019531 368.144531 29.878906 368.367188 29.78125 C 368.585938 29.6875 368.859375 29.632812 369.179688 29.632812 C 369.566406 29.632812 369.875 29.753906 370.097656 29.988281 C 370.316406 30.210938 370.429688 30.507812 370.429688 30.882812 L 370.429688 35.09375 L 371.453125 35.09375 L 371.453125 31.007812 C 371.453125 30.675781 371.414062 30.375 371.347656 30.09375 C 371.289062 29.816406 371.171875 29.582031 370.992188 29.382812 C 370.828125 29.175781 370.601562 29.019531 370.328125 28.90625 C 370.0625 28.796875 369.726562 28.738281 369.328125 28.738281 C 368.410156 28.738281 367.734375 29.113281 367.304688 29.863281 L 367.285156 29.863281 L 367.285156 28.882812 Z M 366.328125 28.882812 "/>
<path style=" stroke:none;fill-rule:nonzero;fill:rgb(0%,0%,0%);fill-opacity:1;" d="M 373.75 31.988281 C 373.75 31.613281 373.796875 31.28125 373.894531 30.988281 C 373.988281 30.695312 374.125 30.457031 374.289062 30.257812 C 374.46875 30.050781 374.675781 29.898438 374.914062 29.800781 C 375.148438 29.691406 375.398438 29.632812 375.664062 29.632812 C 375.925781 29.632812 376.175781 29.691406 376.414062 29.800781 C 376.648438 29.898438 376.859375 30.050781 377.039062 30.257812 C 377.21875 30.457031 377.359375 30.695312 377.457031 30.988281 C 377.550781 31.28125 377.601562 31.613281 377.601562 31.988281 C 377.601562 32.363281 377.550781 32.707031 377.457031 33.007812 C 377.359375 33.300781 377.21875 33.546875 377.039062 33.738281 C 376.859375 33.9375 376.648438 34.085938 376.414062 34.195312 C 376.175781 34.296875 375.925781 34.34375 375.664062 34.34375 C 375.398438 34.34375 375.148438 34.296875 374.914062 34.195312 C 374.675781 34.085938 374.46875 33.9375 374.289062 33.738281 C 374.125 33.546875 373.988281 33.300781 373.894531 33.007812 C 373.796875 32.707031 373.75 32.363281 373.75 31.988281 Z M 372.664062 31.988281 C 372.664062 32.445312 372.726562 32.878906 372.851562 33.28125 C 372.976562 33.671875 373.164062 34.007812 373.414062 34.300781 C 373.675781 34.59375 374 34.820312 374.375 34.988281 C 374.75 35.140625 375.175781 35.21875 375.664062 35.21875 C 376.164062 35.21875 376.601562 35.140625 376.976562 34.988281 C 377.351562 34.820312 377.664062 34.59375 377.914062 34.300781 C 378.164062 34.007812 378.351562 33.671875 378.476562 33.28125 C 378.613281 32.878906 378.6875 32.445312 378.6875 31.988281 C 378.6875 31.546875 378.613281 31.128906 378.476562 30.738281 C 378.351562 30.335938 378.164062 29.988281 377.914062 29.695312 C 377.664062 29.394531 377.351562 29.15625 376.976562 28.988281 C 376.601562 28.820312 376.164062 28.738281 375.664062 28.738281 C 375.175781 28.738281 374.75 28.820312 374.375 28.988281 C 374 29.15625 373.675781 29.394531 373.414062 29.695312 C 373.164062 29.988281 372.976562 30.335938 372.851562 30.738281 C 372.726562 31.128906 372.664062 31.546875 372.664062 31.988281 Z M 372.664062 31.988281 "/>
<path style=" stroke:none;fill-rule:nonzero;fill:rgb(0%,0%,0%);fill-opacity:1;" d="M 379.40625 36.738281 L 379.40625 37.445312 L 380.242188 37.445312 C 380.390625 37.445312 380.542969 37.410156 380.699219 37.34375 C 380.851562 37.285156 380.992188 37.1875 381.117188 37.050781 C 381.242188 36.925781 381.335938 36.757812 381.40625 36.550781 C 381.492188 36.351562 381.53125 36.132812 381.53125 35.882812 L 381.53125 33.71875 C 381.53125 33.507812 381.558594 33.320312 381.617188 33.15625 C 381.667969 32.976562 381.746094 32.820312 381.84375 32.695312 C 381.9375 32.570312 382.042969 32.476562 382.15625 32.40625 C 382.28125 32.335938 382.40625 32.300781 382.53125 32.300781 L 382.53125 31.488281 C 382.40625 31.488281 382.28125 31.460938 382.15625 31.40625 C 382.042969 31.335938 381.9375 31.238281 381.84375 31.113281 C 381.746094 30.988281 381.667969 30.84375 381.617188 30.675781 C 381.558594 30.5 381.53125 30.296875 381.53125 30.070312 L 381.53125 27.882812 C 381.53125 27.632812 381.492188 27.414062 381.40625 27.21875 C 381.335938 27.023438 381.242188 26.863281 381.117188 26.738281 C 380.992188 26.601562 380.851562 26.5 380.699219 26.425781 C 380.542969 26.359375 380.390625 26.320312 380.242188 26.320312 L 379.40625 26.320312 L 379.40625 27.050781 L 380.011719 27.050781 C 380.121094 27.050781 380.210938 27.082031 380.28125 27.132812 C 380.367188 27.191406 380.429688 27.273438 380.46875 27.382812 C 380.511719 27.484375 380.539062 27.59375 380.554688 27.71875 C 380.5625 27.832031 380.574219 27.957031 380.574219 28.09375 L 380.574219 30.257812 C 380.574219 30.566406 380.617188 30.820312 380.699219 31.03125 C 380.78125 31.226562 380.875 31.382812 380.992188 31.507812 C 381.101562 31.632812 381.210938 31.726562 381.324219 31.78125 C 381.449219 31.835938 381.542969 31.875 381.617188 31.882812 L 381.617188 31.90625 C 381.542969 31.9375 381.449219 31.984375 381.324219 32.050781 C 381.210938 32.109375 381.101562 32.195312 380.992188 32.320312 C 380.875 32.445312 380.78125 32.609375 380.699219 32.800781 C 380.617188 33 380.574219 33.238281 380.574219 33.53125 L 380.574219 35.695312 C 380.574219 35.832031 380.5625 35.957031 380.554688 36.070312 C 380.539062 36.195312 380.511719 36.304688 380.46875 36.40625 C 380.429688 36.5 380.367188 36.578125 380.28125 36.632812 C 380.210938 36.703125 380.121094 36.738281 380.011719 36.738281 Z M 379.40625 36.738281 "/>
<path style="fill:none;stroke-width:1;stroke-linecap:round;stroke-linejoin:round;stroke:rgb(0%,0%,0%);stroke-opacity:1;stroke-miterlimit:10;" d="M 111.5 35.257812 L 129.602539 35.178711 " transform="matrix(1.333333,0,0,1.333333,-18.666667,-14.666667)"/>
<path style="fill:none;stroke-width:1;stroke-linecap:butt;stroke-linejoin:miter;stroke:rgb(0%,0%,0%);stroke-opacity:1;stroke-miterlimit:10;" d="M 133.601562 35.161133 L 129.602539 35.178711 M 129.59375 33.678711 L 133.601562 35.161133 L 129.605469 36.678711 " transform="matrix(1.333333,0,0,1.333333,-18.666667,-14.666667)"/>
<path style="fill:none;stroke-width:1;stroke-linecap:round;stroke-linejoin:round;stroke:rgb(0%,0%,0%);stroke-opacity:1;stroke-miterlimit:10;" d="M 232.499023 35.257812 L 250.601562 35.178711 " transform="matrix(1.333333,0,0,1.333333,-18.666667,-14.666667)"/>
<path style="fill:none;stroke-width:1;stroke-linecap:butt;stroke-linejoin:miter;stroke:rgb(0%,0%,0%);stroke-opacity:1;stroke-miterlimit:10;" d="M 254.600586 35.161133 L 250.601562 35.178711 M 250.592773 33.678711 L 254.600586 35.161133 L 250.604492 36.678711 " transform="matrix(1.333333,0,0,1.333333,-18.666667,-14.666667)"/>
</g>
</svg>
