<?xml version="1.0" encoding="UTF-8"?>
<svg xmlns="http://www.w3.org/2000/svg" xmlns:xlink="http://www.w3.org/1999/xlink" width="201.333333" height="701.333333" viewBox="0 0 201.333333 701.333333" version="1.1">
<defs>
<clipPath id="clip1">
  <path d="M 41 686 L 47.332031 686 L 47.332031 692 L 41 692 Z M 41 686 "/>
</clipPath>
<clipPath id="clip2">
  <path d="M 29 609.5 L 35.332031 609.5 L 35.332031 615.832031 L 29 615.832031 Z M 29 609.5 "/>
</clipPath>
<clipPath id="clip3">
  <path d="M 186 206.667969 L 193 206.667969 L 193 213 L 186 213 Z M 186 206.667969 "/>
</clipPath>
<clipPath id="clip4">
  <path d="M 186.066406 213.296875 L 192.734375 213.183594 L 192.613281 206.515625 L 185.949219 206.636719 Z M 186.066406 213.296875 "/>
</clipPath>
<clipPath id="clip5">
  <path d="M 185.953125 206.800781 L 192.285156 206.6875 L 192.394531 213.019531 L 186.0625 213.128906 Z M 185.953125 206.800781 "/>
</clipPath>
<clipPath id="clip6">
  <path d="M 186.0625 213.128906 L 192.394531 213.019531 L 192.285156 206.6875 L 185.953125 206.800781 Z M 186.0625 213.128906 "/>
</clipPath>
</defs>
<g id="surface1">
<path style="fill:none;stroke-width:1;stroke-linecap:round;stroke-linejoin:round;stroke:rgb(0%,0%,0%);stroke-opacity:1;stroke-dasharray:4,4;stroke-miterlimit:10;" d="M 189.792969 230.585937 L 239.56543 230.585937 L 239.56543 297.239258 L 189.792969 297.239258 Z M 189.792969 230.585937 " transform="matrix(1.333333,0,0,1.333333,-222.666667,189.333333)"/>
<path style=" stroke:none;fill-rule:nonzero;fill:rgb(69.803923%,85.09804%,100%);fill-opacity:1;" d="M 36.875 579.09375 L 90.699219 579.09375 L 90.699219 568.785156 L 36.875 568.785156 Z M 36.875 579.09375 "/>
<path style="fill:none;stroke-width:1;stroke-linecap:round;stroke-linejoin:round;stroke:rgb(0%,0%,0%);stroke-opacity:1;stroke-miterlimit:10;" d="M 194.65625 284.588867 L 235.024414 284.588867 L 235.024414 292.320312 L 194.65625 292.320312 Z M 194.65625 284.588867 " transform="matrix(1.333333,0,0,1.333333,-222.666667,189.333333)"/>
<path style="fill:none;stroke-width:1;stroke-linecap:round;stroke-linejoin:round;stroke:rgb(0%,0%,0%);stroke-opacity:1;stroke-miterlimit:10;" d="M 214.838867 303.957031 L 214.838867 295.821289 " transform="matrix(1.333333,0,0,1.333333,-222.666667,189.333333)"/>
<path style="fill:none;stroke-width:1;stroke-linecap:butt;stroke-linejoin:miter;stroke:rgb(0%,0%,0%);stroke-opacity:1;stroke-miterlimit:10;" d="M 214.838867 294.21875 L 214.838867 295.821289 M 214.238281 295.821289 L 214.838867 294.21875 L 215.436523 295.821289 " transform="matrix(1.333333,0,0,1.333333,-222.666667,189.333333)"/>
<path style="fill-rule:nonzero;fill:rgb(40.000001%,74.901962%,100%);fill-opacity:1;stroke-width:1;stroke-linecap:round;stroke-linejoin:round;stroke:rgb(0%,0%,0%);stroke-opacity:1;stroke-miterlimit:10;" d="M 216.725586 221.213867 C 217.859375 222.347656 217.859375 224.18457 216.725586 225.31543 C 215.594727 226.446289 213.760742 226.446289 212.629883 225.31543 C 211.496094 224.18457 211.496094 222.347656 212.629883 221.213867 C 213.760742 220.083008 215.594727 220.083008 216.725586 221.213867 " transform="matrix(1.333333,0,0,1.333333,-222.666667,189.333333)"/>
<path style=" stroke:none;fill-rule:nonzero;fill:rgb(0%,0%,0%);fill-opacity:1;" d="M 63.480469 488.808594 L 63.480469 487.496094 L 62.1875 487.496094 L 62.1875 486.953125 L 63.480469 486.953125 L 63.480469 485.660156 L 64.042969 485.660156 L 64.042969 486.953125 L 65.332031 486.953125 L 65.332031 487.496094 L 64.042969 487.496094 L 64.042969 488.808594 Z M 63.480469 488.808594 "/>
<path style="fill:none;stroke-width:1;stroke-linecap:round;stroke-linejoin:round;stroke:rgb(0%,0%,0%);stroke-opacity:1;stroke-miterlimit:10;" d="M 194.65625 272.307617 L 235.024414 272.307617 L 235.024414 280.039062 L 194.65625 280.039062 Z M 194.65625 272.307617 " transform="matrix(1.333333,0,0,1.333333,-222.666667,189.333333)"/>
<path style=" stroke:none;fill-rule:nonzero;fill:rgb(40.000001%,74.901962%,100%);fill-opacity:1;" d="M 36.875 477.253906 L 90.699219 477.253906 L 90.699219 466.953125 L 36.875 466.953125 Z M 36.875 477.253906 "/>
<path style="fill:none;stroke-width:1;stroke-linecap:round;stroke-linejoin:round;stroke:rgb(0%,0%,0%);stroke-opacity:1;stroke-miterlimit:10;" d="M 194.65625 208.214844 L 235.024414 208.214844 L 235.024414 215.94043 L 194.65625 215.94043 Z M 194.65625 208.214844 " transform="matrix(1.333333,0,0,1.333333,-222.666667,189.333333)"/>
<path style=" stroke:none;fill-rule:nonzero;fill:rgb(40.000001%,74.901962%,100%);fill-opacity:1;" d="M 36.875 546.34375 L 90.699219 546.34375 L 90.699219 536.035156 L 36.875 536.035156 Z M 36.875 546.34375 "/>
<path style="fill:none;stroke-width:1;stroke-linecap:round;stroke-linejoin:round;stroke:rgb(0%,0%,0%);stroke-opacity:1;stroke-miterlimit:10;" d="M 194.65625 260.026367 L 235.024414 260.026367 L 235.024414 267.757812 L 194.65625 267.757812 Z M 194.65625 260.026367 " transform="matrix(1.333333,0,0,1.333333,-222.666667,189.333333)"/>
<path style="fill:none;stroke-width:1;stroke-linecap:round;stroke-linejoin:round;stroke:rgb(0%,0%,0%);stroke-opacity:1;stroke-miterlimit:10;" d="M 214.838867 284.588867 L 214.838867 283.540039 " transform="matrix(1.333333,0,0,1.333333,-222.666667,189.333333)"/>
<path style="fill:none;stroke-width:1;stroke-linecap:butt;stroke-linejoin:miter;stroke:rgb(0%,0%,0%);stroke-opacity:1;stroke-miterlimit:10;" d="M 214.838867 281.9375 L 214.838867 283.540039 M 214.238281 283.540039 L 214.838867 281.9375 L 215.436523 283.540039 " transform="matrix(1.333333,0,0,1.333333,-222.666667,189.333333)"/>
<path style="fill:none;stroke-width:1;stroke-linecap:round;stroke-linejoin:round;stroke:rgb(0%,0%,0%);stroke-opacity:1;stroke-miterlimit:10;" d="M 214.838867 272.307617 L 214.838867 271.258789 " transform="matrix(1.333333,0,0,1.333333,-222.666667,189.333333)"/>
<path style="fill:none;stroke-width:1;stroke-linecap:butt;stroke-linejoin:miter;stroke:rgb(0%,0%,0%);stroke-opacity:1;stroke-miterlimit:10;" d="M 214.838867 269.65625 L 214.838867 271.258789 M 214.238281 271.258789 L 214.838867 269.65625 L 215.436523 271.258789 " transform="matrix(1.333333,0,0,1.333333,-222.666667,189.333333)"/>
<path style="fill:none;stroke-width:1;stroke-linecap:round;stroke-linejoin:round;stroke:rgb(0%,0%,0%);stroke-opacity:1;stroke-miterlimit:10;" d="M 214.797852 234.473633 L 214.745117 229.663086 " transform="matrix(1.333333,0,0,1.333333,-222.666667,189.333333)"/>
<path style="fill:none;stroke-width:1;stroke-linecap:butt;stroke-linejoin:miter;stroke:rgb(0%,0%,0%);stroke-opacity:1;stroke-miterlimit:10;" d="M 214.730469 228.063477 L 214.745117 229.663086 M 214.144531 229.671875 L 214.730469 228.063477 L 215.348633 229.657227 " transform="matrix(1.333333,0,0,1.333333,-222.666667,189.333333)"/>
<path style="fill:none;stroke-width:1;stroke-linecap:round;stroke-linejoin:round;stroke:rgb(0%,0%,0%);stroke-opacity:1;stroke-miterlimit:10;" d="M 214.71875 220.367187 L 214.733398 219.441406 " transform="matrix(1.333333,0,0,1.333333,-222.666667,189.333333)"/>
<path style="fill:none;stroke-width:1;stroke-linecap:butt;stroke-linejoin:miter;stroke:rgb(0%,0%,0%);stroke-opacity:1;stroke-miterlimit:10;" d="M 214.756836 217.844727 L 214.733398 219.441406 M 214.132812 219.432617 L 214.756836 217.844727 L 215.331055 219.453125 " transform="matrix(1.333333,0,0,1.333333,-222.666667,189.333333)"/>
<path style="fill:none;stroke-width:1;stroke-linecap:round;stroke-linejoin:round;stroke:rgb(0%,0%,0%);stroke-opacity:1;stroke-miterlimit:10;" d="M 214.838867 300.713867 L 224.823242 300.713867 C 224.832031 300.713867 224.84375 300.713867 224.855469 300.713867 L 241.542969 300.535156 C 243.183594 300.514648 244.507812 299.18457 244.510742 297.543945 L 244.71875 227.026367 C 244.71875 227.023437 244.71875 227.020508 244.71875 227.020508 L 244.71875 225.145508 C 244.71875 224.105469 243.875 223.264648 242.84082 223.264648 L 221.079102 223.264648 " transform="matrix(1.333333,0,0,1.333333,-222.666667,189.333333)"/>
<path style="fill:none;stroke-width:1;stroke-linecap:butt;stroke-linejoin:miter;stroke:rgb(0%,0%,0%);stroke-opacity:1;stroke-miterlimit:10;" d="M 219.476562 223.264648 L 221.079102 223.264648 M 221.079102 223.862305 L 219.476562 223.264648 L 221.079102 222.664062 " transform="matrix(1.333333,0,0,1.333333,-222.666667,189.333333)"/>
<path style=" stroke:none;fill-rule:nonzero;fill:rgb(69.803923%,85.09804%,100%);fill-opacity:1;" d="M 36.875 528.644531 L 90.699219 528.644531 L 90.699219 518.34375 L 36.875 518.34375 Z M 36.875 528.644531 "/>
<path style="fill:none;stroke-width:1;stroke-linecap:round;stroke-linejoin:round;stroke:rgb(0%,0%,0%);stroke-opacity:1;stroke-miterlimit:10;" d="M 194.65625 246.757812 L 235.024414 246.757812 L 235.024414 254.483398 L 194.65625 254.483398 Z M 194.65625 246.757812 " transform="matrix(1.333333,0,0,1.333333,-222.666667,189.333333)"/>
<path style="fill:none;stroke-width:1;stroke-linecap:round;stroke-linejoin:round;stroke:rgb(0%,0%,0%);stroke-opacity:1;stroke-miterlimit:10;" d="M 214.838867 260.026367 L 214.838867 257.984375 " transform="matrix(1.333333,0,0,1.333333,-222.666667,189.333333)"/>
<path style="fill:none;stroke-width:1;stroke-linecap:butt;stroke-linejoin:miter;stroke:rgb(0%,0%,0%);stroke-opacity:1;stroke-miterlimit:10;" d="M 214.838867 256.387695 L 214.838867 257.984375 M 214.238281 257.984375 L 214.838867 256.387695 L 215.436523 257.984375 " transform="matrix(1.333333,0,0,1.333333,-222.666667,189.333333)"/>
<path style="fill:none;stroke-width:1;stroke-linecap:round;stroke-linejoin:round;stroke:rgb(0%,0%,0%);stroke-opacity:1;stroke-miterlimit:10;" d="M 194.65625 234.473633 L 235.024414 234.473633 L 235.024414 242.202148 L 194.65625 242.202148 Z M 194.65625 234.473633 " transform="matrix(1.333333,0,0,1.333333,-222.666667,189.333333)"/>
<path style="fill:none;stroke-width:1;stroke-linecap:round;stroke-linejoin:round;stroke:rgb(0%,0%,0%);stroke-opacity:1;stroke-miterlimit:10;" d="M 214.838867 246.757812 L 214.838867 245.703125 " transform="matrix(1.333333,0,0,1.333333,-222.666667,189.333333)"/>
<path style="fill:none;stroke-width:1;stroke-linecap:butt;stroke-linejoin:miter;stroke:rgb(0%,0%,0%);stroke-opacity:1;stroke-miterlimit:10;" d="M 214.838867 244.106445 L 214.838867 245.703125 M 214.238281 245.703125 L 214.838867 244.106445 L 215.436523 245.703125 " transform="matrix(1.333333,0,0,1.333333,-222.666667,189.333333)"/>
<path style="fill:none;stroke-width:1;stroke-linecap:round;stroke-linejoin:round;stroke:rgb(0%,0%,0%);stroke-opacity:1;stroke-dasharray:4,4;stroke-miterlimit:10;" d="M 189.792969 37.053711 L 239.56543 37.053711 L 239.56543 103.707031 L 189.792969 103.707031 Z M 189.792969 37.053711 " transform="matrix(1.333333,0,0,1.333333,-222.666667,189.333333)"/>
<path style=" stroke:none;fill-rule:nonzero;fill:rgb(69.803923%,85.09804%,100%);fill-opacity:1;" d="M 36.875 321.050781 L 90.699219 321.050781 L 90.699219 310.746094 L 36.875 310.746094 Z M 36.875 321.050781 "/>
<path style="fill:none;stroke-width:1;stroke-linecap:round;stroke-linejoin:round;stroke:rgb(0%,0%,0%);stroke-opacity:1;stroke-miterlimit:10;" d="M 194.65625 91.05957 L 235.024414 91.05957 L 235.024414 98.788086 L 194.65625 98.788086 Z M 194.65625 91.05957 " transform="matrix(1.333333,0,0,1.333333,-222.666667,189.333333)"/>
<path style="fill:none;stroke-width:1;stroke-linecap:round;stroke-linejoin:round;stroke:rgb(0%,0%,0%);stroke-opacity:1;stroke-miterlimit:10;" d="M 214.967773 111.801758 L 214.894531 102.289062 " transform="matrix(1.333333,0,0,1.333333,-222.666667,189.333333)"/>
<path style="fill:none;stroke-width:1;stroke-linecap:butt;stroke-linejoin:miter;stroke:rgb(0%,0%,0%);stroke-opacity:1;stroke-miterlimit:10;" d="M 214.882812 100.686523 L 214.894531 102.289062 M 214.296875 102.291992 L 214.882812 100.686523 L 215.495117 102.286133 " transform="matrix(1.333333,0,0,1.333333,-222.666667,189.333333)"/>
<path style="fill-rule:nonzero;fill:rgb(40.000001%,74.901962%,100%);fill-opacity:1;stroke-width:1;stroke-linecap:round;stroke-linejoin:round;stroke:rgb(0%,0%,0%);stroke-opacity:1;stroke-miterlimit:10;" d="M 216.725586 27.68457 C 217.859375 28.81543 217.859375 30.652344 216.725586 31.786133 C 215.594727 32.914062 213.760742 32.914062 212.629883 31.786133 C 211.496094 30.652344 211.496094 28.81543 212.629883 27.68457 C 213.760742 26.550781 215.594727 26.550781 216.725586 27.68457 " transform="matrix(1.333333,0,0,1.333333,-222.666667,189.333333)"/>
<path style=" stroke:none;fill-rule:nonzero;fill:rgb(0%,0%,0%);fill-opacity:1;" d="M 63.480469 230.765625 L 63.480469 229.453125 L 62.1875 229.453125 L 62.1875 228.910156 L 63.480469 228.910156 L 63.480469 227.617188 L 64.042969 227.617188 L 64.042969 228.910156 L 65.332031 228.910156 L 65.332031 229.453125 L 64.042969 229.453125 L 64.042969 230.765625 Z M 63.480469 230.765625 "/>
<path style="fill:none;stroke-width:1;stroke-linecap:round;stroke-linejoin:round;stroke:rgb(0%,0%,0%);stroke-opacity:1;stroke-miterlimit:10;" d="M 194.65625 78.77832 L 235.024414 78.77832 L 235.024414 86.506836 L 194.65625 86.506836 Z M 194.65625 78.77832 " transform="matrix(1.333333,0,0,1.333333,-222.666667,189.333333)"/>
<path style=" stroke:none;fill-rule:nonzero;fill:rgb(40.000001%,74.901962%,100%);fill-opacity:1;" d="M 36.875 219.214844 L 90.699219 219.214844 L 90.699219 208.90625 L 36.875 208.90625 Z M 36.875 219.214844 "/>
<path style="fill:none;stroke-width:1;stroke-linecap:round;stroke-linejoin:round;stroke:rgb(0%,0%,0%);stroke-opacity:1;stroke-miterlimit:10;" d="M 194.65625 14.679687 L 235.024414 14.679687 L 235.024414 22.411133 L 194.65625 22.411133 Z M 194.65625 14.679687 " transform="matrix(1.333333,0,0,1.333333,-222.666667,189.333333)"/>
<path style=" stroke:none;fill-rule:nonzero;fill:rgb(40.000001%,74.901962%,100%);fill-opacity:1;" d="M 36.875 288.296875 L 90.699219 288.296875 L 90.699219 277.996094 L 36.875 277.996094 Z M 36.875 288.296875 "/>
<path style="fill:none;stroke-width:1;stroke-linecap:round;stroke-linejoin:round;stroke:rgb(0%,0%,0%);stroke-opacity:1;stroke-miterlimit:10;" d="M 194.65625 66.49707 L 235.024414 66.49707 L 235.024414 74.222656 L 194.65625 74.222656 Z M 194.65625 66.49707 " transform="matrix(1.333333,0,0,1.333333,-222.666667,189.333333)"/>
<path style="fill:none;stroke-width:1;stroke-linecap:round;stroke-linejoin:round;stroke:rgb(0%,0%,0%);stroke-opacity:1;stroke-miterlimit:10;" d="M 214.838867 91.05957 L 214.838867 90.007812 " transform="matrix(1.333333,0,0,1.333333,-222.666667,189.333333)"/>
<path style="fill:none;stroke-width:1;stroke-linecap:butt;stroke-linejoin:miter;stroke:rgb(0%,0%,0%);stroke-opacity:1;stroke-miterlimit:10;" d="M 214.838867 88.405273 L 214.838867 90.007812 M 214.238281 90.007812 L 214.838867 88.405273 L 215.436523 90.007812 " transform="matrix(1.333333,0,0,1.333333,-222.666667,189.333333)"/>
<path style="fill:none;stroke-width:1;stroke-linecap:round;stroke-linejoin:round;stroke:rgb(0%,0%,0%);stroke-opacity:1;stroke-miterlimit:10;" d="M 214.838867 78.77832 L 214.838867 77.723633 " transform="matrix(1.333333,0,0,1.333333,-222.666667,189.333333)"/>
<path style="fill:none;stroke-width:1;stroke-linecap:butt;stroke-linejoin:miter;stroke:rgb(0%,0%,0%);stroke-opacity:1;stroke-miterlimit:10;" d="M 214.838867 76.124023 L 214.838867 77.723633 M 214.238281 77.723633 L 214.838867 76.124023 L 215.436523 77.723633 " transform="matrix(1.333333,0,0,1.333333,-222.666667,189.333333)"/>
<path style="fill:none;stroke-width:1;stroke-linecap:round;stroke-linejoin:round;stroke:rgb(0%,0%,0%);stroke-opacity:1;stroke-miterlimit:10;" d="M 214.797852 40.941406 L 214.745117 36.133789 " transform="matrix(1.333333,0,0,1.333333,-222.666667,189.333333)"/>
<path style="fill:none;stroke-width:1;stroke-linecap:butt;stroke-linejoin:miter;stroke:rgb(0%,0%,0%);stroke-opacity:1;stroke-miterlimit:10;" d="M 214.730469 34.53125 L 214.745117 36.133789 M 214.144531 36.136719 L 214.730469 34.53125 L 215.348633 36.125 " transform="matrix(1.333333,0,0,1.333333,-222.666667,189.333333)"/>
<path style="fill:none;stroke-width:1;stroke-linecap:round;stroke-linejoin:round;stroke:rgb(0%,0%,0%);stroke-opacity:1;stroke-miterlimit:10;" d="M 214.71875 26.834961 L 214.733398 25.90918 " transform="matrix(1.333333,0,0,1.333333,-222.666667,189.333333)"/>
<path style="fill:none;stroke-width:1;stroke-linecap:butt;stroke-linejoin:miter;stroke:rgb(0%,0%,0%);stroke-opacity:1;stroke-miterlimit:10;" d="M 214.756836 24.3125 L 214.733398 25.90918 M 214.132812 25.90332 L 214.756836 24.3125 L 215.331055 25.917969 " transform="matrix(1.333333,0,0,1.333333,-222.666667,189.333333)"/>
<path style="fill:none;stroke-width:1;stroke-linecap:round;stroke-linejoin:round;stroke:rgb(0%,0%,0%);stroke-opacity:1;stroke-miterlimit:10;" d="M 214.941406 108.174805 L 263.266602 108.174805 C 264.921875 108.174805 266.266602 106.833008 266.266602 105.174805 L 266.266602 77.74707 " transform="matrix(1.333333,0,0,1.333333,-222.666667,189.333333)"/>
<path style="fill:none;stroke-width:1;stroke-linecap:butt;stroke-linejoin:miter;stroke:rgb(0%,0%,0%);stroke-opacity:1;stroke-miterlimit:10;" d="M 266.266602 76.144531 L 266.266602 77.74707 M 265.663086 77.74707 L 266.266602 76.144531 L 266.867188 77.74707 " transform="matrix(1.333333,0,0,1.333333,-222.666667,189.333333)"/>
<path style=" stroke:none;fill-rule:nonzero;fill:rgb(69.803923%,85.09804%,100%);fill-opacity:1;" d="M 36.875 270.605469 L 90.699219 270.605469 L 90.699219 260.296875 L 36.875 260.296875 Z M 36.875 270.605469 "/>
<path style="fill:none;stroke-width:1;stroke-linecap:round;stroke-linejoin:round;stroke:rgb(0%,0%,0%);stroke-opacity:1;stroke-miterlimit:10;" d="M 194.65625 53.222656 L 235.024414 53.222656 L 235.024414 60.954102 L 194.65625 60.954102 Z M 194.65625 53.222656 " transform="matrix(1.333333,0,0,1.333333,-222.666667,189.333333)"/>
<path style="fill:none;stroke-width:1;stroke-linecap:round;stroke-linejoin:round;stroke:rgb(0%,0%,0%);stroke-opacity:1;stroke-miterlimit:10;" d="M 214.838867 66.49707 L 214.838867 64.452148 " transform="matrix(1.333333,0,0,1.333333,-222.666667,189.333333)"/>
<path style="fill:none;stroke-width:1;stroke-linecap:butt;stroke-linejoin:miter;stroke:rgb(0%,0%,0%);stroke-opacity:1;stroke-miterlimit:10;" d="M 214.838867 62.855469 L 214.838867 64.452148 M 214.238281 64.452148 L 214.838867 62.855469 L 215.436523 64.452148 " transform="matrix(1.333333,0,0,1.333333,-222.666667,189.333333)"/>
<path style="fill:none;stroke-width:1;stroke-linecap:round;stroke-linejoin:round;stroke:rgb(0%,0%,0%);stroke-opacity:1;stroke-miterlimit:10;" d="M 194.65625 40.941406 L 235.024414 40.941406 L 235.024414 48.672852 L 194.65625 48.672852 Z M 194.65625 40.941406 " transform="matrix(1.333333,0,0,1.333333,-222.666667,189.333333)"/>
<path style="fill:none;stroke-width:1;stroke-linecap:round;stroke-linejoin:round;stroke:rgb(0%,0%,0%);stroke-opacity:1;stroke-miterlimit:10;" d="M 214.838867 53.222656 L 214.838867 52.170898 " transform="matrix(1.333333,0,0,1.333333,-222.666667,189.333333)"/>
<path style="fill:none;stroke-width:1;stroke-linecap:butt;stroke-linejoin:miter;stroke:rgb(0%,0%,0%);stroke-opacity:1;stroke-miterlimit:10;" d="M 214.838867 50.574219 L 214.838867 52.170898 M 214.238281 52.170898 L 214.838867 50.574219 L 215.436523 52.170898 " transform="matrix(1.333333,0,0,1.333333,-222.666667,189.333333)"/>
<path style=" stroke:none;fill-rule:nonzero;fill:rgb(69.803923%,85.09804%,100%);fill-opacity:1;" d="M 105.441406 288.328125 L 159.265625 288.328125 L 159.265625 278.019531 L 105.441406 278.019531 Z M 105.441406 288.328125 "/>
<path style="fill:none;stroke-width:1;stroke-linecap:round;stroke-linejoin:round;stroke:rgb(0%,0%,0%);stroke-opacity:1;stroke-miterlimit:10;" d="M 246.081055 66.514648 L 286.449219 66.514648 L 286.449219 74.246094 L 246.081055 74.246094 Z M 246.081055 66.514648 " transform="matrix(1.333333,0,0,1.333333,-222.666667,189.333333)"/>
<path style="fill:none;stroke-width:1;stroke-linecap:round;stroke-linejoin:round;stroke:rgb(0%,0%,0%);stroke-opacity:1;stroke-miterlimit:10;" d="M 266.266602 66.514648 L 266.266602 32.735352 C 266.266602 31.077148 264.921875 29.735352 263.266602 29.735352 L 221.079102 29.735352 " transform="matrix(1.333333,0,0,1.333333,-222.666667,189.333333)"/>
<path style="fill:none;stroke-width:1;stroke-linecap:butt;stroke-linejoin:miter;stroke:rgb(0%,0%,0%);stroke-opacity:1;stroke-miterlimit:10;" d="M 219.476562 29.735352 L 221.079102 29.735352 M 221.079102 30.333008 L 219.476562 29.735352 L 221.079102 29.131836 " transform="matrix(1.333333,0,0,1.333333,-222.666667,189.333333)"/>
<path style="fill:none;stroke-width:1;stroke-linecap:round;stroke-linejoin:round;stroke:rgb(0%,0%,0%);stroke-opacity:1;stroke-dasharray:4,4;stroke-miterlimit:10;" d="M 189.954102 134.175781 L 239.726562 134.175781 L 239.726562 200.829102 L 189.954102 200.829102 Z M 189.954102 134.175781 " transform="matrix(1.333333,0,0,1.333333,-222.666667,189.333333)"/>
<path style=" stroke:none;fill-rule:nonzero;fill:rgb(69.803923%,85.09804%,100%);fill-opacity:1;" d="M 37.089844 450.546875 L 90.910156 450.546875 L 90.910156 440.238281 L 37.089844 440.238281 Z M 37.089844 450.546875 "/>
<path style="fill:none;stroke-width:1;stroke-linecap:round;stroke-linejoin:round;stroke:rgb(0%,0%,0%);stroke-opacity:1;stroke-miterlimit:10;" d="M 194.817383 188.178711 L 235.182617 188.178711 L 235.182617 195.910156 L 194.817383 195.910156 Z M 194.817383 188.178711 " transform="matrix(1.333333,0,0,1.333333,-222.666667,189.333333)"/>
<path style="fill:none;stroke-width:1;stroke-linecap:round;stroke-linejoin:round;stroke:rgb(0%,0%,0%);stroke-opacity:1;stroke-miterlimit:10;" d="M 214.871094 208.214844 L 214.941406 199.411133 " transform="matrix(1.333333,0,0,1.333333,-222.666667,189.333333)"/>
<path style="fill:none;stroke-width:1;stroke-linecap:butt;stroke-linejoin:miter;stroke:rgb(0%,0%,0%);stroke-opacity:1;stroke-miterlimit:10;" d="M 214.953125 197.808594 L 214.941406 199.411133 M 214.34082 199.402344 L 214.953125 197.808594 L 215.539062 199.414062 " transform="matrix(1.333333,0,0,1.333333,-222.666667,189.333333)"/>
<path style="fill-rule:nonzero;fill:rgb(40.000001%,74.901962%,100%);fill-opacity:1;stroke-width:1;stroke-linecap:round;stroke-linejoin:round;stroke:rgb(0%,0%,0%);stroke-opacity:1;stroke-miterlimit:10;" d="M 216.889648 124.803711 C 218.020508 125.9375 218.020508 127.768555 216.889648 128.902344 C 215.758789 130.036133 213.921875 130.036133 212.788086 128.902344 C 211.657227 127.768555 211.657227 125.9375 212.788086 124.803711 C 213.921875 123.672852 215.758789 123.672852 216.889648 124.803711 " transform="matrix(1.333333,0,0,1.333333,-222.666667,189.333333)"/>
<path style=" stroke:none;fill-rule:nonzero;fill:rgb(0%,0%,0%);fill-opacity:1;" d="M 63.691406 360.257812 L 63.691406 358.945312 L 62.402344 358.945312 L 62.402344 358.402344 L 63.691406 358.402344 L 63.691406 357.113281 L 64.253906 357.113281 L 64.253906 358.402344 L 65.546875 358.402344 L 65.546875 358.945312 L 64.253906 358.945312 L 64.253906 360.257812 Z M 63.691406 360.257812 "/>
<path style="fill:none;stroke-width:1;stroke-linecap:round;stroke-linejoin:round;stroke:rgb(0%,0%,0%);stroke-opacity:1;stroke-miterlimit:10;" d="M 194.817383 175.897461 L 235.182617 175.897461 L 235.182617 183.625977 L 194.817383 183.625977 Z M 194.817383 175.897461 " transform="matrix(1.333333,0,0,1.333333,-222.666667,189.333333)"/>
<path style=" stroke:none;fill-rule:nonzero;fill:rgb(40.000001%,74.901962%,100%);fill-opacity:1;" d="M 37.089844 348.707031 L 90.910156 348.707031 L 90.910156 338.402344 L 37.089844 338.402344 Z M 37.089844 348.707031 "/>
<path style="fill:none;stroke-width:1;stroke-linecap:round;stroke-linejoin:round;stroke:rgb(0%,0%,0%);stroke-opacity:1;stroke-miterlimit:10;" d="M 194.817383 111.801758 L 235.182617 111.801758 L 235.182617 119.530273 L 194.817383 119.530273 Z M 194.817383 111.801758 " transform="matrix(1.333333,0,0,1.333333,-222.666667,189.333333)"/>
<path style=" stroke:none;fill-rule:nonzero;fill:rgb(40.000001%,74.901962%,100%);fill-opacity:1;" d="M 37.089844 417.792969 L 90.910156 417.792969 L 90.910156 407.484375 L 37.089844 407.484375 Z M 37.089844 417.792969 "/>
<path style="fill:none;stroke-width:1;stroke-linecap:round;stroke-linejoin:round;stroke:rgb(0%,0%,0%);stroke-opacity:1;stroke-miterlimit:10;" d="M 194.817383 163.613281 L 235.182617 163.613281 L 235.182617 171.344727 L 194.817383 171.344727 Z M 194.817383 163.613281 " transform="matrix(1.333333,0,0,1.333333,-222.666667,189.333333)"/>
<path style="fill:none;stroke-width:1;stroke-linecap:round;stroke-linejoin:round;stroke:rgb(0%,0%,0%);stroke-opacity:1;stroke-miterlimit:10;" d="M 215 188.178711 L 215 187.124023 " transform="matrix(1.333333,0,0,1.333333,-222.666667,189.333333)"/>
<path style="fill:none;stroke-width:1;stroke-linecap:butt;stroke-linejoin:miter;stroke:rgb(0%,0%,0%);stroke-opacity:1;stroke-miterlimit:10;" d="M 215 185.527344 L 215 187.124023 M 214.399414 187.124023 L 215 185.527344 L 215.600586 187.124023 " transform="matrix(1.333333,0,0,1.333333,-222.666667,189.333333)"/>
<path style="fill:none;stroke-width:1;stroke-linecap:round;stroke-linejoin:round;stroke:rgb(0%,0%,0%);stroke-opacity:1;stroke-miterlimit:10;" d="M 215 175.897461 L 215 174.842773 " transform="matrix(1.333333,0,0,1.333333,-222.666667,189.333333)"/>
<path style="fill:none;stroke-width:1;stroke-linecap:butt;stroke-linejoin:miter;stroke:rgb(0%,0%,0%);stroke-opacity:1;stroke-miterlimit:10;" d="M 215 173.246094 L 215 174.842773 M 214.399414 174.842773 L 215 173.246094 L 215.600586 174.842773 " transform="matrix(1.333333,0,0,1.333333,-222.666667,189.333333)"/>
<path style="fill:none;stroke-width:1;stroke-linecap:round;stroke-linejoin:round;stroke:rgb(0%,0%,0%);stroke-opacity:1;stroke-miterlimit:10;" d="M 214.956055 138.063477 L 214.90625 133.25293 " transform="matrix(1.333333,0,0,1.333333,-222.666667,189.333333)"/>
<path style="fill:none;stroke-width:1;stroke-linecap:butt;stroke-linejoin:miter;stroke:rgb(0%,0%,0%);stroke-opacity:1;stroke-miterlimit:10;" d="M 214.891602 131.65332 L 214.90625 133.25293 M 214.308594 133.258789 L 214.891602 131.65332 L 215.506836 133.24707 " transform="matrix(1.333333,0,0,1.333333,-222.666667,189.333333)"/>
<path style="fill:none;stroke-width:1;stroke-linecap:round;stroke-linejoin:round;stroke:rgb(0%,0%,0%);stroke-opacity:1;stroke-miterlimit:10;" d="M 214.879883 123.957031 L 214.894531 123.03125 " transform="matrix(1.333333,0,0,1.333333,-222.666667,189.333333)"/>
<path style="fill:none;stroke-width:1;stroke-linecap:butt;stroke-linejoin:miter;stroke:rgb(0%,0%,0%);stroke-opacity:1;stroke-miterlimit:10;" d="M 214.917969 121.428711 L 214.894531 123.03125 M 214.293945 123.022461 L 214.917969 121.428711 L 215.492188 123.040039 " transform="matrix(1.333333,0,0,1.333333,-222.666667,189.333333)"/>
<path style="fill:none;stroke-width:1;stroke-linecap:round;stroke-linejoin:round;stroke:rgb(0%,0%,0%);stroke-opacity:1;stroke-miterlimit:10;" d="M 214.90332 203.984375 L 224.893555 203.984375 C 224.902344 203.984375 224.905273 203.984375 224.914062 203.984375 L 241.657227 204.075195 C 243.3125 204.081055 244.663086 202.745117 244.671875 201.089844 C 244.671875 201.086914 244.671875 201.086914 244.671875 201.081055 L 244.879883 130.616211 C 244.879883 130.613281 244.879883 130.610352 244.879883 130.604492 L 244.879883 128.735352 C 244.879883 127.695312 244.039062 126.854492 242.999023 126.854492 L 221.237305 126.854492 " transform="matrix(1.333333,0,0,1.333333,-222.666667,189.333333)"/>
<path style="fill:none;stroke-width:1;stroke-linecap:butt;stroke-linejoin:miter;stroke:rgb(0%,0%,0%);stroke-opacity:1;stroke-miterlimit:10;" d="M 219.637695 126.854492 L 221.237305 126.854492 M 221.237305 127.452148 L 219.637695 126.854492 L 221.237305 126.253906 " transform="matrix(1.333333,0,0,1.333333,-222.666667,189.333333)"/>
<path style=" stroke:none;fill-rule:nonzero;fill:rgb(69.803923%,85.09804%,100%);fill-opacity:1;" d="M 37.089844 400.097656 L 90.910156 400.097656 L 90.910156 389.792969 L 37.089844 389.792969 Z M 37.089844 400.097656 "/>
<path style="fill:none;stroke-width:1;stroke-linecap:round;stroke-linejoin:round;stroke:rgb(0%,0%,0%);stroke-opacity:1;stroke-miterlimit:10;" d="M 194.817383 150.344727 L 235.182617 150.344727 L 235.182617 158.073242 L 194.817383 158.073242 Z M 194.817383 150.344727 " transform="matrix(1.333333,0,0,1.333333,-222.666667,189.333333)"/>
<path style="fill:none;stroke-width:1;stroke-linecap:round;stroke-linejoin:round;stroke:rgb(0%,0%,0%);stroke-opacity:1;stroke-miterlimit:10;" d="M 215 163.613281 L 215 161.574219 " transform="matrix(1.333333,0,0,1.333333,-222.666667,189.333333)"/>
<path style="fill:none;stroke-width:1;stroke-linecap:butt;stroke-linejoin:miter;stroke:rgb(0%,0%,0%);stroke-opacity:1;stroke-miterlimit:10;" d="M 215 159.977539 L 215 161.574219 M 214.399414 161.574219 L 215 159.977539 L 215.600586 161.574219 " transform="matrix(1.333333,0,0,1.333333,-222.666667,189.333333)"/>
<path style="fill:none;stroke-width:1;stroke-linecap:round;stroke-linejoin:round;stroke:rgb(0%,0%,0%);stroke-opacity:1;stroke-miterlimit:10;" d="M 194.817383 138.063477 L 235.182617 138.063477 L 235.182617 145.791992 L 194.817383 145.791992 Z M 194.817383 138.063477 " transform="matrix(1.333333,0,0,1.333333,-222.666667,189.333333)"/>
<path style="fill:none;stroke-width:1;stroke-linecap:round;stroke-linejoin:round;stroke:rgb(0%,0%,0%);stroke-opacity:1;stroke-miterlimit:10;" d="M 215 150.344727 L 215 149.292969 " transform="matrix(1.333333,0,0,1.333333,-222.666667,189.333333)"/>
<path style="fill:none;stroke-width:1;stroke-linecap:butt;stroke-linejoin:miter;stroke:rgb(0%,0%,0%);stroke-opacity:1;stroke-miterlimit:10;" d="M 215 147.69043 L 215 149.292969 M 214.399414 149.292969 L 215 147.69043 L 215.600586 149.292969 " transform="matrix(1.333333,0,0,1.333333,-222.666667,189.333333)"/>
<path style="fill:none;stroke-width:1;stroke-linecap:round;stroke-linejoin:round;stroke:rgb(0%,0%,0%);stroke-opacity:1;stroke-dasharray:4,4;stroke-miterlimit:10;" d="M 189.792969 -59.356445 L 239.56543 -59.356445 L 239.56543 7.293945 L 189.792969 7.293945 Z M 189.792969 -59.356445 " transform="matrix(1.333333,0,0,1.333333,-222.666667,189.333333)"/>
<path style=" stroke:none;fill-rule:nonzero;fill:rgb(69.803923%,85.09804%,100%);fill-opacity:1;" d="M 36.875 192.503906 L 90.699219 192.503906 L 90.699219 182.199219 L 36.875 182.199219 Z M 36.875 192.503906 "/>
<path style="fill:none;stroke-width:1;stroke-linecap:round;stroke-linejoin:round;stroke:rgb(0%,0%,0%);stroke-opacity:1;stroke-miterlimit:10;" d="M 194.65625 -5.350586 L 235.024414 -5.350586 L 235.024414 2.37793 L 194.65625 2.37793 Z M 194.65625 -5.350586 " transform="matrix(1.333333,0,0,1.333333,-222.666667,189.333333)"/>
<path style="fill:none;stroke-width:1;stroke-linecap:round;stroke-linejoin:round;stroke:rgb(0%,0%,0%);stroke-opacity:1;stroke-miterlimit:10;" d="M 214.838867 14.679687 L 214.838867 5.878906 " transform="matrix(1.333333,0,0,1.333333,-222.666667,189.333333)"/>
<path style="fill:none;stroke-width:1;stroke-linecap:butt;stroke-linejoin:miter;stroke:rgb(0%,0%,0%);stroke-opacity:1;stroke-miterlimit:10;" d="M 214.838867 4.276367 L 214.838867 5.878906 M 214.238281 5.878906 L 214.838867 4.276367 L 215.436523 5.878906 " transform="matrix(1.333333,0,0,1.333333,-222.666667,189.333333)"/>
<path style="fill-rule:nonzero;fill:rgb(40.000001%,74.901962%,100%);fill-opacity:1;stroke-width:1;stroke-linecap:round;stroke-linejoin:round;stroke:rgb(0%,0%,0%);stroke-opacity:1;stroke-miterlimit:10;" d="M 216.725586 -68.725586 C 217.859375 -67.594727 217.859375 -65.760742 216.725586 -64.629883 C 215.594727 -63.496094 213.760742 -63.496094 212.629883 -64.629883 C 211.496094 -65.760742 211.496094 -67.594727 212.629883 -68.725586 C 213.760742 -69.859375 215.594727 -69.859375 216.725586 -68.725586 " transform="matrix(1.333333,0,0,1.333333,-222.666667,189.333333)"/>
<path style=" stroke:none;fill-rule:nonzero;fill:rgb(0%,0%,0%);fill-opacity:1;" d="M 63.480469 102.214844 L 63.480469 100.902344 L 62.1875 100.902344 L 62.1875 100.363281 L 63.480469 100.363281 L 63.480469 99.070312 L 64.042969 99.070312 L 64.042969 100.363281 L 65.332031 100.363281 L 65.332031 100.902344 L 64.042969 100.902344 L 64.042969 102.214844 Z M 63.480469 102.214844 "/>
<path style="fill:none;stroke-width:1;stroke-linecap:round;stroke-linejoin:round;stroke:rgb(0%,0%,0%);stroke-opacity:1;stroke-miterlimit:10;" d="M 194.65625 -17.631836 L 235.024414 -17.631836 L 235.024414 -9.90625 L 194.65625 -9.90625 Z M 194.65625 -17.631836 " transform="matrix(1.333333,0,0,1.333333,-222.666667,189.333333)"/>
<path style=" stroke:none;fill-rule:nonzero;fill:rgb(40.000001%,74.901962%,100%);fill-opacity:1;" d="M 36.875 90.667969 L 90.699219 90.667969 L 90.699219 80.359375 L 36.875 80.359375 Z M 36.875 90.667969 "/>
<path style="fill:none;stroke-width:1;stroke-linecap:round;stroke-linejoin:round;stroke:rgb(0%,0%,0%);stroke-opacity:1;stroke-miterlimit:10;" d="M 194.65625 -81.730469 L 235.024414 -81.730469 L 235.024414 -73.999023 L 194.65625 -73.999023 Z M 194.65625 -81.730469 " transform="matrix(1.333333,0,0,1.333333,-222.666667,189.333333)"/>
<path style=" stroke:none;fill-rule:nonzero;fill:rgb(40.000001%,74.901962%,100%);fill-opacity:1;" d="M 36.875 159.75 L 90.699219 159.75 L 90.699219 149.441406 L 36.875 149.441406 Z M 36.875 159.75 "/>
<path style="fill:none;stroke-width:1;stroke-linecap:round;stroke-linejoin:round;stroke:rgb(0%,0%,0%);stroke-opacity:1;stroke-miterlimit:10;" d="M 194.65625 -29.918945 L 235.024414 -29.918945 L 235.024414 -22.1875 L 194.65625 -22.1875 Z M 194.65625 -29.918945 " transform="matrix(1.333333,0,0,1.333333,-222.666667,189.333333)"/>
<path style="fill:none;stroke-width:1;stroke-linecap:round;stroke-linejoin:round;stroke:rgb(0%,0%,0%);stroke-opacity:1;stroke-miterlimit:10;" d="M 214.838867 -5.350586 L 214.838867 -6.405273 " transform="matrix(1.333333,0,0,1.333333,-222.666667,189.333333)"/>
<path style="fill:none;stroke-width:1;stroke-linecap:butt;stroke-linejoin:miter;stroke:rgb(0%,0%,0%);stroke-opacity:1;stroke-miterlimit:10;" d="M 214.838867 -8.004883 L 214.838867 -6.405273 M 214.238281 -6.405273 L 214.838867 -8.004883 L 215.436523 -6.405273 " transform="matrix(1.333333,0,0,1.333333,-222.666667,189.333333)"/>
<path style="fill:none;stroke-width:1;stroke-linecap:round;stroke-linejoin:round;stroke:rgb(0%,0%,0%);stroke-opacity:1;stroke-miterlimit:10;" d="M 214.838867 -17.631836 L 214.838867 -18.686523 " transform="matrix(1.333333,0,0,1.333333,-222.666667,189.333333)"/>
<path style="fill:none;stroke-width:1;stroke-linecap:butt;stroke-linejoin:miter;stroke:rgb(0%,0%,0%);stroke-opacity:1;stroke-miterlimit:10;" d="M 214.838867 -20.286133 L 214.838867 -18.686523 M 214.238281 -18.686523 L 214.838867 -20.286133 L 215.436523 -18.686523 " transform="matrix(1.333333,0,0,1.333333,-222.666667,189.333333)"/>
<path style="fill:none;stroke-width:1;stroke-linecap:round;stroke-linejoin:round;stroke:rgb(0%,0%,0%);stroke-opacity:1;stroke-miterlimit:10;" d="M 214.797852 -55.46875 L 214.745117 -60.282227 " transform="matrix(1.333333,0,0,1.333333,-222.666667,189.333333)"/>
<path style="fill:none;stroke-width:1;stroke-linecap:butt;stroke-linejoin:miter;stroke:rgb(0%,0%,0%);stroke-opacity:1;stroke-miterlimit:10;" d="M 214.730469 -61.878906 L 214.745117 -60.282227 M 214.144531 -60.273438 L 214.730469 -61.878906 L 215.348633 -60.285156 " transform="matrix(1.333333,0,0,1.333333,-222.666667,189.333333)"/>
<path style="fill:none;stroke-width:1;stroke-linecap:round;stroke-linejoin:round;stroke:rgb(0%,0%,0%);stroke-opacity:1;stroke-miterlimit:10;" d="M 214.71875 -69.578125 L 214.733398 -70.500977 " transform="matrix(1.333333,0,0,1.333333,-222.666667,189.333333)"/>
<path style="fill:none;stroke-width:1;stroke-linecap:butt;stroke-linejoin:miter;stroke:rgb(0%,0%,0%);stroke-opacity:1;stroke-miterlimit:10;" d="M 214.756836 -72.100586 L 214.733398 -70.500977 M 214.132812 -70.506836 L 214.756836 -72.100586 L 215.331055 -70.492188 " transform="matrix(1.333333,0,0,1.333333,-222.666667,189.333333)"/>
<path style="fill:none;stroke-width:1;stroke-linecap:round;stroke-linejoin:round;stroke:rgb(0%,0%,0%);stroke-opacity:1;stroke-miterlimit:10;" d="M 214.838867 10.774414 L 219.12793 10.774414 C 219.133789 10.774414 219.136719 10.774414 219.139648 10.774414 L 243.230469 10.569336 C 243.933594 10.563477 244.504883 9.992187 244.507812 9.286133 L 244.71875 -62.918945 C 244.71875 -62.918945 244.71875 -62.921875 244.71875 -62.921875 L 244.71875 -65.391602 C 244.71875 -66.100586 244.141602 -66.680664 243.429688 -66.680664 L 221.079102 -66.680664 " transform="matrix(1.333333,0,0,1.333333,-222.666667,189.333333)"/>
<path style="fill:none;stroke-width:1;stroke-linecap:butt;stroke-linejoin:miter;stroke:rgb(0%,0%,0%);stroke-opacity:1;stroke-miterlimit:10;" d="M 219.476562 -66.680664 L 221.079102 -66.680664 M 221.079102 -66.077148 L 219.476562 -66.680664 L 221.079102 -67.27832 " transform="matrix(1.333333,0,0,1.333333,-222.666667,189.333333)"/>
<path style=" stroke:none;fill-rule:nonzero;fill:rgb(69.803923%,85.09804%,100%);fill-opacity:1;" d="M 36.875 142.058594 L 90.699219 142.058594 L 90.699219 131.75 L 36.875 131.75 Z M 36.875 142.058594 "/>
<path style="fill:none;stroke-width:1;stroke-linecap:round;stroke-linejoin:round;stroke:rgb(0%,0%,0%);stroke-opacity:1;stroke-miterlimit:10;" d="M 194.65625 -43.1875 L 235.024414 -43.1875 L 235.024414 -35.456055 L 194.65625 -35.456055 Z M 194.65625 -43.1875 " transform="matrix(1.333333,0,0,1.333333,-222.666667,189.333333)"/>
<path style="fill:none;stroke-width:1;stroke-linecap:round;stroke-linejoin:round;stroke:rgb(0%,0%,0%);stroke-opacity:1;stroke-miterlimit:10;" d="M 214.838867 -29.918945 L 214.838867 -31.958008 " transform="matrix(1.333333,0,0,1.333333,-222.666667,189.333333)"/>
<path style="fill:none;stroke-width:1;stroke-linecap:butt;stroke-linejoin:miter;stroke:rgb(0%,0%,0%);stroke-opacity:1;stroke-miterlimit:10;" d="M 214.838867 -33.557617 L 214.838867 -31.958008 M 214.238281 -31.958008 L 214.838867 -33.557617 L 215.436523 -31.958008 " transform="matrix(1.333333,0,0,1.333333,-222.666667,189.333333)"/>
<path style="fill:none;stroke-width:1;stroke-linecap:round;stroke-linejoin:round;stroke:rgb(0%,0%,0%);stroke-opacity:1;stroke-miterlimit:10;" d="M 194.65625 -55.46875 L 235.024414 -55.46875 L 235.024414 -47.737305 L 194.65625 -47.737305 Z M 194.65625 -55.46875 " transform="matrix(1.333333,0,0,1.333333,-222.666667,189.333333)"/>
<path style="fill:none;stroke-width:1;stroke-linecap:round;stroke-linejoin:round;stroke:rgb(0%,0%,0%);stroke-opacity:1;stroke-miterlimit:10;" d="M 214.838867 -43.1875 L 214.838867 -44.239258 " transform="matrix(1.333333,0,0,1.333333,-222.666667,189.333333)"/>
<path style="fill:none;stroke-width:1;stroke-linecap:butt;stroke-linejoin:miter;stroke:rgb(0%,0%,0%);stroke-opacity:1;stroke-miterlimit:10;" d="M 214.838867 -45.838867 L 214.838867 -44.239258 M 214.238281 -44.239258 L 214.838867 -45.838867 L 215.436523 -44.239258 " transform="matrix(1.333333,0,0,1.333333,-222.666667,189.333333)"/>
<path style="fill:none;stroke-width:1;stroke-linecap:round;stroke-linejoin:miter;stroke:rgb(0%,0%,0%);stroke-opacity:1;stroke-miterlimit:10;" d="M 304.950195 -73.799805 L 305.1875 102.426758 " transform="matrix(1.333333,0,0,1.333333,-222.666667,189.333333)"/>
<path style="fill:none;stroke-width:1;stroke-linecap:butt;stroke-linejoin:miter;stroke:rgb(0%,0%,0%);stroke-opacity:1;stroke-miterlimit:10;" d="M 305.1875 102.426758 L 305.199219 110.424805 M 300.198242 110.433594 L 310.200195 110.421875 M 303.186523 102.429687 L 305.199219 109.425781 L 307.188477 102.426758 " transform="matrix(1.333333,0,0,1.333333,-222.666667,189.333333)"/>
<path style="fill:none;stroke-width:1;stroke-linecap:butt;stroke-linejoin:miter;stroke:rgb(0%,0%,0%);stroke-opacity:1;stroke-miterlimit:10;" d="M 304.950195 -73.799805 L 305 -81.800781 M 310.000977 -81.768555 L 299.999023 -81.833008 M 306.948242 -73.788086 L 304.991211 -80.801758 L 302.949219 -73.811523 " transform="matrix(1.333333,0,0,1.333333,-222.666667,189.333333)"/>
<path style=" stroke:none;fill-rule:nonzero;fill:rgb(69.803923%,85.09804%,100%);fill-opacity:1;" d="M 1.332031 699.574219 L 126.667969 699.574219 L 126.667969 675.574219 L 1.332031 675.574219 Z M 1.332031 699.574219 "/>
<path style="fill:none;stroke-width:1;stroke-linecap:round;stroke-linejoin:round;stroke:rgb(0%,0%,0%);stroke-opacity:1;stroke-miterlimit:10;" d="M 167.999023 364.680664 L 262.000977 364.680664 L 262.000977 382.680664 L 167.999023 382.680664 Z M 167.999023 364.680664 " transform="matrix(1.333333,0,0,1.333333,-222.666667,189.333333)"/>
<path style=" stroke:none;fill-rule:nonzero;fill:rgb(0%,0%,0%);fill-opacity:1;" d="M 31.554688 684.78125 L 31.554688 683.757812 L 37.117188 683.757812 L 37.117188 684.570312 C 36.574219 685.15625 36.035156 685.9375 35.492188 686.90625 C 34.949219 687.863281 34.535156 688.859375 34.242188 689.882812 C 34.035156 690.59375 33.898438 691.378906 33.847656 692.238281 L 32.761719 692.238281 C 32.773438 691.5625 32.910156 690.75 33.160156 689.800781 C 33.410156 688.84375 33.769531 687.921875 34.242188 687.03125 C 34.726562 686.144531 35.230469 685.394531 35.761719 684.78125 Z M 31.554688 684.78125 "/>
<g clip-path="url(#clip1)" clip-rule="nonzero">
<path style=" stroke:none;fill-rule:nonzero;fill:rgb(0%,0%,0%);fill-opacity:1;" d="M 44.480469 688.886719 L 46.855469 686.511719 C 46.980469 686.367188 47.023438 686.34375 47.023438 686.261719 C 47.023438 686.117188 46.898438 686.011719 46.773438 686.011719 C 46.691406 686.011719 46.628906 686.054688 46.523438 686.179688 L 44.128906 688.554688 L 41.730469 686.179688 C 41.605469 686.03125 41.566406 686.011719 41.480469 686.011719 C 41.355469 686.011719 41.230469 686.117188 41.230469 686.261719 C 41.230469 686.34375 41.292969 686.40625 41.398438 686.511719 L 43.773438 688.886719 L 41.398438 691.28125 C 41.273438 691.386719 41.230469 691.46875 41.230469 691.53125 C 41.230469 691.679688 41.355469 691.78125 41.480469 691.78125 C 41.566406 691.78125 41.605469 691.761719 41.730469 691.617188 L 44.128906 689.242188 L 46.523438 691.617188 C 46.628906 691.742188 46.710938 691.78125 46.773438 691.78125 C 46.917969 691.78125 47.023438 691.679688 47.023438 691.53125 C 47.023438 691.449219 46.980469 691.429688 46.855469 691.28125 Z M 44.480469 688.886719 "/>
<path style=" stroke:none;fill-rule:nonzero;fill:rgb(0%,0%,0%);fill-opacity:1;" d="M 44.480469 688.886719 L 46.855469 686.511719 C 46.980469 686.367188 47.023438 686.34375 47.023438 686.261719 C 47.023438 686.117188 46.898438 686.011719 46.773438 686.011719 C 46.691406 686.011719 46.628906 686.054688 46.523438 686.179688 L 44.128906 688.554688 L 41.730469 686.179688 C 41.605469 686.03125 41.566406 686.011719 41.480469 686.011719 C 41.355469 686.011719 41.230469 686.117188 41.230469 686.261719 C 41.230469 686.34375 41.292969 686.40625 41.398438 686.511719 L 43.773438 688.886719 L 41.398438 691.28125 C 41.273438 691.386719 41.230469 691.46875 41.230469 691.53125 C 41.230469 691.679688 41.355469 691.78125 41.480469 691.78125 C 41.566406 691.78125 41.605469 691.761719 41.730469 691.617188 L 44.128906 689.242188 L 46.523438 691.617188 C 46.628906 691.742188 46.710938 691.78125 46.773438 691.78125 C 46.917969 691.78125 47.023438 691.679688 47.023438 691.53125 C 47.023438 691.449219 46.980469 691.429688 46.855469 691.28125 Z M 44.480469 688.886719 "/>
</g>
<path style=" stroke:none;fill-rule:nonzero;fill:rgb(0%,0%,0%);fill-opacity:1;" d="M 51.5625 684.78125 L 51.5625 683.757812 L 57.125 683.757812 L 57.125 684.570312 C 56.582031 685.15625 56.042969 685.9375 55.5 686.90625 C 54.957031 687.863281 54.542969 688.859375 54.25 689.882812 C 54.042969 690.59375 53.90625 691.378906 53.855469 692.238281 L 52.769531 692.238281 C 52.78125 691.5625 52.917969 690.75 53.167969 689.800781 C 53.417969 688.84375 53.777344 687.921875 54.25 687.03125 C 54.734375 686.144531 55.238281 685.394531 55.769531 684.78125 Z M 51.5625 684.78125 "/>
<path style=" stroke:none;fill-rule:nonzero;fill:rgb(0%,0%,0%);fill-opacity:1;" d="M 64.152344 682.59375 L 63.382812 682.863281 C 63.738281 683.34375 64.070312 683.90625 64.382812 684.53125 L 65.113281 684.195312 C 64.839844 683.632812 64.527344 683.113281 64.152344 682.59375 Z M 70.050781 682.59375 C 69.757812 683.195312 69.402344 683.71875 68.945312 684.15625 L 69.632812 684.550781 C 70.113281 684.070312 70.507812 683.507812 70.820312 682.882812 Z M 62.550781 684.613281 L 62.550781 685.40625 L 66.027344 685.40625 C 65.839844 685.820312 65.589844 686.238281 65.320312 686.613281 L 61.863281 686.613281 L 61.863281 687.40625 L 64.714844 687.40625 C 63.882812 688.34375 62.820312 689.113281 61.527344 689.675781 L 62.007812 690.425781 C 62.800781 690.050781 63.527344 689.59375 64.175781 689.070312 L 64.175781 692.34375 C 64.175781 692.96875 64.527344 693.28125 65.257812 693.28125 L 69.695312 693.28125 C 70.339844 693.28125 70.757812 693.175781 71.007812 693.007812 C 71.257812 692.78125 71.425781 692.195312 71.527344 691.257812 L 70.675781 690.988281 C 70.613281 691.59375 70.507812 691.988281 70.382812 692.21875 C 70.277344 692.382812 69.964844 692.488281 69.464844 692.488281 L 65.613281 692.488281 C 65.238281 692.488281 65.050781 692.34375 65.050781 692.070312 L 65.050781 689.363281 L 68.902344 689.363281 L 68.902344 690.257812 C 68.902344 690.507812 68.738281 690.632812 68.425781 690.632812 C 67.925781 690.632812 67.382812 690.613281 66.777344 690.59375 L 66.964844 691.34375 C 67.550781 691.363281 68.132812 691.382812 68.757812 691.382812 C 69.402344 691.34375 69.738281 691.050781 69.757812 690.488281 L 69.757812 688.863281 C 70.363281 689.363281 71.089844 689.84375 71.945312 690.300781 L 72.507812 689.59375 C 71.050781 688.945312 69.964844 688.238281 69.320312 687.40625 L 72.152344 687.40625 L 72.152344 686.613281 L 66.320312 686.613281 C 66.550781 686.238281 66.738281 685.820312 66.945312 685.40625 L 71.488281 685.40625 L 71.488281 684.613281 L 67.238281 684.613281 C 67.445312 683.96875 67.632812 683.257812 67.757812 682.507812 L 66.902344 682.40625 C 66.777344 683.195312 66.589844 683.925781 66.363281 684.613281 Z M 65.777344 687.40625 L 68.445312 687.40625 C 68.714844 687.820312 69.050781 688.21875 69.464844 688.59375 L 64.714844 688.59375 C 65.089844 688.238281 65.445312 687.84375 65.777344 687.40625 Z M 65.777344 687.40625 "/>
<path style=" stroke:none;fill-rule:nonzero;fill:rgb(0%,0%,0%);fill-opacity:1;" d="M 73.925781 684.28125 C 74.507812 684.21875 75.050781 684.113281 75.570312 684.007812 L 75.570312 685.71875 L 73.800781 685.71875 L 73.800781 686.550781 L 75.527344 686.550781 C 75.113281 687.945312 74.402344 689.175781 73.445312 690.257812 L 73.800781 691.15625 C 74.527344 690.21875 75.113281 689.132812 75.570312 687.96875 L 75.570312 693.382812 L 76.382812 693.382812 L 76.382812 687.90625 C 76.738281 688.382812 77.152344 689.050781 77.652344 689.882812 L 78.132812 689.175781 C 77.527344 688.425781 76.964844 687.757812 76.382812 687.15625 L 76.382812 686.550781 L 77.863281 686.550781 L 77.863281 685.71875 L 76.382812 685.71875 L 76.382812 683.820312 C 76.882812 683.695312 77.363281 683.570312 77.800781 683.40625 L 77.488281 682.59375 C 76.425781 683.03125 75.175781 683.300781 73.757812 683.445312 Z M 78.570312 683.15625 L 78.570312 688.738281 L 83.757812 688.738281 L 83.757812 683.15625 Z M 82.902344 687.925781 L 79.445312 687.925781 L 79.445312 683.988281 L 82.902344 683.988281 Z M 79.613281 689.507812 C 79.070312 690.84375 78.402344 691.988281 77.632812 692.945312 L 78.363281 693.46875 C 79.132812 692.445312 79.820312 691.257812 80.382812 689.882812 Z M 82.550781 689.445312 L 81.863281 689.882812 C 82.695312 691.175781 83.382812 692.363281 83.882812 693.445312 L 84.613281 692.925781 C 84.132812 691.945312 83.445312 690.78125 82.550781 689.445312 Z M 82.550781 689.445312 "/>
<path style=" stroke:none;fill-rule:nonzero;fill:rgb(0%,0%,0%);fill-opacity:1;" d="M 88.902344 687.03125 L 88.902344 687.800781 L 95.402344 687.800781 L 95.402344 687.03125 Z M 88.050781 688.988281 L 88.050781 689.78125 L 90.675781 689.78125 C 89.839844 691.132812 89.132812 691.96875 88.613281 692.28125 C 88.550781 692.300781 88.507812 692.34375 88.425781 692.363281 L 88.613281 693.09375 C 90.882812 692.945312 92.964844 692.738281 94.863281 692.488281 C 95.113281 692.78125 95.320312 693.09375 95.527344 693.40625 L 96.214844 692.925781 C 95.695312 692.15625 94.925781 691.238281 93.945312 690.195312 L 93.300781 690.59375 C 93.652344 691.007812 94.007812 691.40625 94.339844 691.800781 C 92.800781 692.03125 91.238281 692.195312 89.652344 692.300781 C 90.214844 691.800781 90.863281 690.945312 91.589844 689.78125 L 96.195312 689.78125 L 96.195312 688.988281 Z M 94.738281 683.71875 L 94.738281 685.113281 L 87.675781 685.113281 L 87.675781 683.71875 Z M 87.675781 685.882812 L 95.570312 685.882812 L 95.570312 682.90625 L 86.839844 682.90625 L 86.839844 686.882812 C 86.820312 689.300781 86.402344 691.257812 85.570312 692.78125 L 86.195312 693.363281 C 87.175781 691.550781 87.675781 689.382812 87.675781 686.882812 Z M 87.675781 685.882812 "/>
<path style="fill:none;stroke-width:1;stroke-linecap:round;stroke-linejoin:round;stroke:rgb(0%,0%,0%);stroke-opacity:1;stroke-miterlimit:10;" d="M 167.999023 336.078125 L 262.000977 336.078125 L 262.000977 354.078125 L 167.999023 354.078125 Z M 167.999023 336.078125 " transform="matrix(1.333333,0,0,1.333333,-222.666667,189.333333)"/>
<path style=" stroke:none;fill-rule:nonzero;fill:rgb(0%,0%,0%);fill-opacity:1;" d="M 32.082031 649.542969 C 31.6875 649.707031 31.3125 649.875 30.917969 650.019531 L 30.917969 647.355469 L 32.105469 647.355469 L 32.105469 646.519531 L 30.917969 646.519531 L 30.917969 644.292969 L 30.082031 644.292969 L 30.082031 646.519531 L 28.730469 646.519531 L 28.730469 647.355469 L 30.082031 647.355469 L 30.082031 650.292969 C 29.582031 650.4375 29.082031 650.5625 28.582031 650.667969 L 28.769531 651.480469 C 29.207031 651.375 29.644531 651.25 30.082031 651.125 L 30.082031 653.980469 C 30.082031 654.292969 29.9375 654.4375 29.644531 654.4375 C 29.355469 654.4375 29.042969 654.417969 28.730469 654.375 L 28.894531 655.230469 L 29.9375 655.230469 C 30.582031 655.230469 30.917969 654.875 30.917969 654.1875 L 30.917969 650.832031 C 31.292969 650.6875 31.6875 650.519531 32.082031 650.355469 Z M 33.519531 648.707031 L 35.207031 648.707031 L 35.207031 647.875 L 33.519531 647.875 L 33.519531 644.417969 L 32.667969 644.417969 L 32.667969 653.832031 C 32.667969 654.082031 32.542969 654.269531 32.269531 654.355469 L 32.480469 655.167969 C 33.519531 654.917969 34.4375 654.625 35.25 654.292969 L 35.082031 653.5 C 34.605469 653.730469 34.105469 653.917969 33.519531 654.0625 Z M 37.832031 655.144531 C 38.3125 655.144531 38.644531 655 38.875 654.769531 C 39.125 654.480469 39.292969 653.6875 39.375 652.355469 L 38.582031 652.105469 C 38.542969 653.1875 38.4375 653.832031 38.292969 654.0625 C 38.167969 654.230469 37.980469 654.3125 37.6875 654.3125 L 37.105469 654.3125 C 36.792969 654.3125 36.644531 654.144531 36.644531 653.832031 L 36.644531 648.832031 C 37.457031 648.5625 38.332031 648.167969 39.25 647.667969 L 38.75 646.957031 C 38.0625 647.375 37.355469 647.730469 36.644531 647.957031 L 36.644531 644.332031 L 35.792969 644.332031 L 35.792969 654 C 35.792969 654.75 36.144531 655.144531 36.832031 655.144531 Z M 37.832031 655.144531 "/>
<path style=" stroke:none;fill-rule:nonzero;fill:rgb(0%,0%,0%);fill-opacity:1;" d="M 41.832031 649.332031 L 41.832031 652.394531 L 45.5625 652.394531 L 45.5625 653.0625 L 41.542969 653.0625 L 41.542969 653.644531 L 45.5625 653.644531 L 45.5625 654.355469 L 40.644531 654.355469 L 40.644531 655.019531 L 51.355469 655.019531 L 51.355469 654.355469 L 46.417969 654.355469 L 46.417969 653.644531 L 50.480469 653.644531 L 50.480469 653.0625 L 46.417969 653.0625 L 46.417969 652.394531 L 50.1875 652.394531 L 50.1875 649.332031 Z M 49.355469 651.855469 L 46.417969 651.855469 L 46.417969 651.125 L 49.355469 651.125 Z M 45.5625 651.855469 L 42.667969 651.855469 L 42.667969 651.125 L 45.5625 651.125 Z M 42.667969 650.605469 L 42.667969 649.875 L 45.5625 649.875 L 45.5625 650.605469 Z M 46.417969 649.875 L 49.355469 649.875 L 49.355469 650.605469 L 46.417969 650.605469 Z M 42.105469 644.5 L 42.105469 647.457031 L 49.9375 647.457031 L 49.9375 644.5 Z M 49.105469 646.9375 L 42.9375 646.9375 L 42.9375 646.230469 L 49.105469 646.230469 Z M 42.9375 645.707031 L 42.9375 645.019531 L 49.105469 645.019531 L 49.105469 645.707031 Z M 40.625 648.082031 L 40.625 648.730469 L 51.375 648.730469 L 51.375 648.082031 Z M 40.625 648.082031 "/>
<path style=" stroke:none;fill-rule:nonzero;fill:rgb(0%,0%,0%);fill-opacity:1;" d="M 52.855469 646.042969 L 52.855469 646.875 L 54.5625 646.875 L 54.5625 648.855469 L 52.6875 648.855469 L 52.6875 649.6875 L 54.519531 649.6875 C 54.355469 651.957031 53.6875 653.644531 52.519531 654.769531 L 53.167969 655.332031 C 54.144531 654.394531 54.8125 653.0625 55.144531 651.375 C 55.625 651.894531 56.207031 652.605469 56.875 653.519531 L 57.355469 652.769531 C 56.644531 651.957031 55.957031 651.230469 55.292969 650.582031 C 55.332031 650.292969 55.355469 650 55.375 649.6875 L 57.1875 649.6875 L 57.1875 648.855469 L 55.4375 648.855469 L 55.4375 646.875 L 57.019531 646.875 L 57.019531 646.042969 L 55.4375 646.042969 L 55.4375 644.394531 L 54.5625 644.394531 L 54.5625 646.042969 Z M 62.605469 644.8125 L 57.730469 644.8125 L 57.730469 651.394531 L 58.5625 651.394531 L 58.5625 645.605469 L 61.769531 645.605469 L 61.769531 651.394531 L 62.605469 651.394531 Z M 62.269531 655.144531 C 62.644531 655.144531 62.9375 655.0625 63.125 654.875 C 63.3125 654.644531 63.457031 654.0625 63.542969 653.0625 L 62.792969 652.832031 C 62.75 653.582031 62.667969 654.042969 62.5625 654.1875 C 62.480469 654.3125 62.332031 654.375 62.125 654.375 L 61.519531 654.375 C 61.25 654.375 61.125 654.230469 61.125 653.980469 L 61.125 651.457031 L 60.355469 651.457031 L 60.355469 654.144531 C 60.355469 654.8125 60.644531 655.144531 61.269531 655.144531 Z M 59.769531 646.605469 L 59.769531 648.730469 C 59.75 650.25 59.480469 651.480469 58.980469 652.417969 C 58.457031 653.332031 57.542969 654.0625 56.207031 654.605469 L 56.667969 655.332031 C 58.019531 654.769531 59 654 59.605469 653.019531 C 60.207031 651.9375 60.542969 650.519531 60.5625 648.730469 L 60.5625 646.605469 Z M 59.769531 646.605469 "/>
<path style=" stroke:none;fill-rule:nonzero;fill:rgb(0%,0%,0%);fill-opacity:1;" d="M 64.730469 645.375 L 64.730469 646.167969 L 67.542969 646.167969 L 67.542969 647.3125 L 68.4375 647.3125 L 68.4375 646.167969 L 71.5625 646.167969 L 71.5625 647.3125 L 72.457031 647.3125 L 72.457031 646.167969 L 75.269531 646.167969 L 75.269531 645.375 L 72.457031 645.375 L 72.457031 644.292969 L 71.5625 644.292969 L 71.5625 645.375 L 68.4375 645.375 L 68.4375 644.292969 L 67.542969 644.292969 L 67.542969 645.375 Z M 66.269531 647.1875 L 65.6875 647.75 C 66.5 648.3125 67.125 648.855469 67.582031 649.355469 L 68.167969 648.769531 C 67.667969 648.25 67.042969 647.730469 66.269531 647.1875 Z M 65.519531 649.230469 L 64.9375 649.792969 C 65.75 650.355469 66.375 650.875 66.832031 651.375 L 67.417969 650.792969 C 66.894531 650.269531 66.269531 649.75 65.519531 649.230469 Z M 66.9375 651.832031 C 66.480469 652.855469 65.855469 653.917969 65.082031 654.957031 L 65.875 655.394531 C 66.625 654.355469 67.207031 653.269531 67.667969 652.167969 Z M 73.394531 648.5 L 73.394531 650.75 C 73.394531 651.042969 73.230469 651.1875 72.917969 651.1875 C 72.480469 651.1875 72.019531 651.167969 71.5 651.125 L 71.707031 651.9375 C 72.1875 651.957031 72.707031 651.980469 73.230469 651.980469 C 73.894531 651.957031 74.230469 651.625 74.25 651 L 74.25 647.730469 L 69.042969 647.730469 L 69.042969 653.957031 C 69.042969 654.707031 69.4375 655.082031 70.207031 655.082031 L 73.4375 655.082031 C 74.0625 655.082031 74.480469 654.980469 74.707031 654.769531 C 74.9375 654.5 75.105469 653.792969 75.207031 652.644531 L 74.375 652.375 C 74.3125 653.144531 74.230469 653.667969 74.082031 653.917969 C 73.980469 654.144531 73.6875 654.269531 73.207031 654.269531 L 70.542969 654.269531 C 70.125 654.269531 69.9375 654.0625 69.9375 653.667969 L 69.9375 648.5 Z M 73.394531 648.5 "/>
<path style=" stroke:none;fill-rule:nonzero;fill:rgb(0%,0%,0%);fill-opacity:1;" d="M 80.167969 644.207031 C 79.394531 646.105469 78.167969 647.792969 76.457031 649.25 L 76.730469 650.144531 C 77.375 649.625 77.957031 649.0625 78.5 648.480469 L 78.5 655.332031 L 79.355469 655.332031 L 79.355469 647.417969 C 80 646.542969 80.542969 645.605469 80.957031 644.582031 Z M 85.6875 655.105469 C 86.269531 655.105469 86.667969 654.957031 86.875 654.6875 C 87.082031 654.394531 87.230469 653.5625 87.3125 652.167969 L 86.519531 651.917969 C 86.457031 653.105469 86.375 653.792969 86.25 653.980469 C 86.105469 654.167969 85.855469 654.292969 85.542969 654.292969 L 83.605469 654.292969 C 83.207031 654.292969 83 654.082031 83 653.730469 L 83 649.667969 C 84.5 648.730469 85.8125 647.667969 86.917969 646.457031 L 86.3125 645.769531 C 85.375 646.855469 84.269531 647.8125 83 648.644531 L 83 644.355469 L 82.144531 644.355469 L 82.144531 649.167969 C 81.542969 649.542969 80.875 649.855469 80.207031 650.167969 L 80.605469 650.980469 C 81.125 650.730469 81.644531 650.457031 82.144531 650.1875 L 82.144531 653.832031 C 82.144531 654.6875 82.5625 655.105469 83.394531 655.105469 Z M 85.6875 655.105469 "/>
<path style=" stroke:none;fill-rule:nonzero;fill:rgb(0%,0%,0%);fill-opacity:1;" d="M 91.894531 648.894531 L 91.894531 649.667969 L 98.394531 649.667969 L 98.394531 648.894531 Z M 91.042969 650.855469 L 91.042969 651.644531 L 93.667969 651.644531 C 92.832031 653 92.125 653.832031 91.605469 654.144531 C 91.542969 654.167969 91.5 654.207031 91.417969 654.230469 L 91.605469 654.957031 C 93.875 654.8125 95.957031 654.605469 97.855469 654.355469 C 98.105469 654.644531 98.3125 654.957031 98.519531 655.269531 L 99.207031 654.792969 C 98.6875 654.019531 97.917969 653.105469 96.9375 652.0625 L 96.292969 652.457031 C 96.644531 652.875 97 653.269531 97.332031 653.667969 C 95.792969 653.894531 94.230469 654.0625 92.644531 654.167969 C 93.207031 653.667969 93.855469 652.8125 94.582031 651.644531 L 99.1875 651.644531 L 99.1875 650.855469 Z M 97.730469 645.582031 L 97.730469 646.980469 L 90.667969 646.980469 L 90.667969 645.582031 Z M 90.667969 647.75 L 98.5625 647.75 L 98.5625 644.769531 L 89.832031 644.769531 L 89.832031 648.75 C 89.8125 651.167969 89.394531 653.125 88.5625 654.644531 L 89.1875 655.230469 C 90.167969 653.417969 90.667969 651.25 90.667969 648.75 Z M 90.667969 647.75 "/>
<path style=" stroke:none;fill-rule:nonzero;fill:rgb(40.000001%,74.901962%,100%);fill-opacity:1;" d="M 1.332031 623.300781 L 126.667969 623.300781 L 126.667969 599.300781 L 1.332031 599.300781 Z M 1.332031 623.300781 "/>
<path style="fill:none;stroke-width:1;stroke-linecap:round;stroke-linejoin:round;stroke:rgb(0%,0%,0%);stroke-opacity:1;stroke-miterlimit:10;" d="M 167.999023 307.475586 L 262.000977 307.475586 L 262.000977 325.475586 L 167.999023 325.475586 Z M 167.999023 307.475586 " transform="matrix(1.333333,0,0,1.333333,-222.666667,189.333333)"/>
<path style=" stroke:none;fill-rule:nonzero;fill:rgb(0%,0%,0%);fill-opacity:1;" d="M 19.492188 613.699219 L 20.554688 613.554688 C 20.679688 614.152344 20.878906 614.585938 21.160156 614.847656 C 21.449219 615.113281 21.808594 615.242188 22.242188 615.242188 C 22.726562 615.242188 23.136719 615.074219 23.472656 614.742188 C 23.816406 614.398438 23.992188 613.964844 23.992188 613.449219 C 23.992188 612.964844 23.832031 612.570312 23.511719 612.261719 C 23.207031 611.945312 22.808594 611.785156 22.324219 611.785156 C 22.117188 611.785156 21.867188 611.824219 21.574219 611.910156 L 21.699219 610.972656 C 21.769531 610.988281 21.824219 610.992188 21.867188 610.992188 C 22.308594 610.992188 22.710938 610.878906 23.074219 610.636719 C 23.433594 610.402344 23.617188 610.042969 23.617188 609.554688 C 23.617188 609.167969 23.480469 608.847656 23.222656 608.597656 C 22.957031 608.347656 22.617188 608.222656 22.199219 608.222656 C 21.792969 608.222656 21.457031 608.355469 21.179688 608.617188 C 20.914062 608.867188 20.742188 609.253906 20.660156 609.761719 L 19.597656 609.574219 C 19.730469 608.867188 20.023438 608.320312 20.472656 607.929688 C 20.929688 607.542969 21.496094 607.347656 22.179688 607.347656 C 22.648438 607.347656 23.082031 607.449219 23.472656 607.660156 C 23.871094 607.855469 24.179688 608.128906 24.386719 608.472656 C 24.597656 608.820312 24.699219 609.191406 24.699219 609.574219 C 24.699219 609.949219 24.597656 610.292969 24.386719 610.597656 C 24.191406 610.902344 23.898438 611.148438 23.511719 611.324219 C 24.023438 611.441406 24.417969 611.679688 24.699219 612.054688 C 24.976562 612.417969 25.117188 612.878906 25.117188 613.429688 C 25.117188 614.179688 24.835938 614.820312 24.285156 615.347656 C 23.742188 615.863281 23.054688 616.117188 22.222656 616.117188 C 21.472656 616.117188 20.847656 615.898438 20.347656 615.449219 C 19.847656 615.007812 19.558594 614.425781 19.492188 613.699219 Z M 19.492188 613.699219 "/>
<g clip-path="url(#clip2)" clip-rule="nonzero">
<path style=" stroke:none;fill-rule:nonzero;fill:rgb(0%,0%,0%);fill-opacity:1;" d="M 32.480469 612.648438 L 34.855469 610.273438 C 34.980469 610.128906 35.023438 610.109375 35.023438 610.023438 C 35.023438 609.878906 34.898438 609.773438 34.773438 609.773438 C 34.691406 609.773438 34.628906 609.816406 34.523438 609.941406 L 32.128906 612.316406 L 29.730469 609.941406 C 29.605469 609.796875 29.566406 609.773438 29.480469 609.773438 C 29.355469 609.773438 29.230469 609.878906 29.230469 610.023438 C 29.230469 610.109375 29.292969 610.171875 29.398438 610.273438 L 31.773438 612.648438 L 29.398438 615.046875 C 29.273438 615.148438 29.230469 615.234375 29.230469 615.296875 C 29.230469 615.441406 29.355469 615.546875 29.480469 615.546875 C 29.566406 615.546875 29.605469 615.523438 29.730469 615.378906 L 32.128906 613.003906 L 34.523438 615.378906 C 34.628906 615.503906 34.710938 615.546875 34.773438 615.546875 C 34.917969 615.546875 35.023438 615.441406 35.023438 615.296875 C 35.023438 615.210938 34.980469 615.191406 34.855469 615.046875 Z M 32.480469 612.648438 "/>
<path style=" stroke:none;fill-rule:nonzero;fill:rgb(0%,0%,0%);fill-opacity:1;" d="M 32.480469 612.648438 L 34.855469 610.273438 C 34.980469 610.128906 35.023438 610.109375 35.023438 610.023438 C 35.023438 609.878906 34.898438 609.773438 34.773438 609.773438 C 34.691406 609.773438 34.628906 609.816406 34.523438 609.941406 L 32.128906 612.316406 L 29.730469 609.941406 C 29.605469 609.796875 29.566406 609.773438 29.480469 609.773438 C 29.355469 609.773438 29.230469 609.878906 29.230469 610.023438 C 29.230469 610.109375 29.292969 610.171875 29.398438 610.273438 L 31.773438 612.648438 L 29.398438 615.046875 C 29.273438 615.148438 29.230469 615.234375 29.230469 615.296875 C 29.230469 615.441406 29.355469 615.546875 29.480469 615.546875 C 29.566406 615.546875 29.605469 615.523438 29.730469 615.378906 L 32.128906 613.003906 L 34.523438 615.378906 C 34.628906 615.503906 34.710938 615.546875 34.773438 615.546875 C 34.917969 615.546875 35.023438 615.441406 35.023438 615.296875 C 35.023438 615.210938 34.980469 615.191406 34.855469 615.046875 Z M 32.480469 612.648438 "/>
</g>
<path style=" stroke:none;fill-rule:nonzero;fill:rgb(0%,0%,0%);fill-opacity:1;" d="M 39.5 613.699219 L 40.5625 613.554688 C 40.6875 614.152344 40.886719 614.585938 41.167969 614.847656 C 41.457031 615.113281 41.816406 615.242188 42.25 615.242188 C 42.734375 615.242188 43.144531 615.074219 43.480469 614.742188 C 43.824219 614.398438 44 613.964844 44 613.449219 C 44 612.964844 43.839844 612.570312 43.519531 612.261719 C 43.214844 611.945312 42.816406 611.785156 42.332031 611.785156 C 42.125 611.785156 41.875 611.824219 41.582031 611.910156 L 41.707031 610.972656 C 41.777344 610.988281 41.832031 610.992188 41.875 610.992188 C 42.316406 610.992188 42.71875 610.878906 43.082031 610.636719 C 43.441406 610.402344 43.625 610.042969 43.625 609.554688 C 43.625 609.167969 43.488281 608.847656 43.230469 608.597656 C 42.964844 608.347656 42.625 608.222656 42.207031 608.222656 C 41.800781 608.222656 41.464844 608.355469 41.1875 608.617188 C 40.921875 608.867188 40.75 609.253906 40.667969 609.761719 L 39.605469 609.574219 C 39.738281 608.867188 40.03125 608.320312 40.480469 607.929688 C 40.9375 607.542969 41.503906 607.347656 42.1875 607.347656 C 42.65625 607.347656 43.089844 607.449219 43.480469 607.660156 C 43.878906 607.855469 44.1875 608.128906 44.394531 608.472656 C 44.605469 608.820312 44.707031 609.191406 44.707031 609.574219 C 44.707031 609.949219 44.605469 610.292969 44.394531 610.597656 C 44.199219 610.902344 43.90625 611.148438 43.519531 611.324219 C 44.03125 611.441406 44.425781 611.679688 44.707031 612.054688 C 44.984375 612.417969 45.125 612.878906 45.125 613.429688 C 45.125 614.179688 44.84375 614.820312 44.292969 615.347656 C 43.75 615.863281 43.0625 616.117188 42.230469 616.117188 C 41.480469 616.117188 40.855469 615.898438 40.355469 615.449219 C 39.855469 615.007812 39.566406 614.425781 39.5 613.699219 Z M 39.5 613.699219 "/>
<path style=" stroke:none;fill-rule:nonzero;fill:rgb(0%,0%,0%);fill-opacity:1;" d="M 49.738281 610.847656 L 49.738281 611.535156 L 50.882812 611.535156 L 50.882812 615.699219 L 49.757812 615.742188 L 49.863281 616.492188 C 51.550781 616.386719 52.945312 616.261719 54.089844 616.136719 L 54.089844 617.199219 L 54.925781 617.199219 L 54.925781 616.035156 C 55.152344 615.992188 55.402344 615.949219 55.613281 615.910156 L 55.613281 615.222656 C 55.402344 615.261719 55.152344 615.304688 54.925781 615.324219 L 54.925781 611.535156 L 60.320312 611.535156 L 60.320312 610.847656 Z M 51.652344 615.660156 L 51.652344 614.617188 L 54.089844 614.617188 L 54.089844 615.449219 C 53.363281 615.535156 52.550781 615.597656 51.652344 615.660156 Z M 51.652344 613.992188 L 51.652344 613.097656 L 54.089844 613.097656 L 54.089844 613.992188 Z M 51.652344 612.449219 L 51.652344 611.535156 L 54.089844 611.535156 L 54.089844 612.449219 Z M 51.257812 606.597656 L 51.257812 610.054688 L 58.839844 610.054688 L 58.839844 606.597656 Z M 58.007812 609.429688 L 52.070312 609.429688 L 52.070312 608.617188 L 58.007812 608.617188 Z M 52.070312 608.011719 L 52.070312 607.242188 L 58.007812 607.242188 L 58.007812 608.011719 Z M 55.925781 613.054688 C 56.175781 613.929688 56.613281 614.722656 57.277344 615.410156 C 56.777344 615.847656 56.152344 616.199219 55.425781 616.511719 L 55.863281 617.179688 C 56.652344 616.847656 57.320312 616.429688 57.882812 615.949219 C 58.425781 616.410156 59.089844 616.804688 59.882812 617.179688 L 60.320312 616.472656 C 59.570312 616.160156 58.964844 615.804688 58.425781 615.410156 C 59.007812 614.742188 59.402344 613.949219 59.632812 613.011719 L 59.632812 612.347656 L 55.550781 612.347656 L 55.550781 613.054688 Z M 57.820312 614.886719 C 57.257812 614.347656 56.882812 613.742188 56.675781 613.054688 L 58.863281 613.054688 C 58.652344 613.722656 58.300781 614.347656 57.820312 614.886719 Z M 57.820312 614.886719 "/>
<path style=" stroke:none;fill-rule:nonzero;fill:rgb(0%,0%,0%);fill-opacity:1;" d="M 61.738281 609.324219 L 61.738281 610.160156 L 66.257812 610.160156 C 65.632812 613.117188 64.050781 615.222656 61.507812 616.492188 L 62.050781 617.199219 C 64.589844 615.867188 66.257812 613.742188 66.988281 610.824219 C 67.902344 613.554688 69.550781 615.636719 71.964844 617.117188 L 72.507812 616.429688 C 70.050781 614.972656 68.382812 612.867188 67.550781 610.160156 L 72.277344 610.160156 L 72.277344 609.324219 L 67.300781 609.324219 C 67.382812 608.574219 67.445312 607.804688 67.445312 606.949219 L 67.445312 606.179688 L 66.570312 606.179688 L 66.570312 607.160156 C 66.550781 607.910156 66.507812 608.617188 66.402344 609.324219 Z M 61.738281 609.324219 "/>
<path style=" stroke:none;fill-rule:nonzero;fill:rgb(0%,0%,0%);fill-opacity:1;" d="M 78.507812 615.886719 L 78.507812 607.511719 L 84.214844 607.511719 L 84.214844 606.679688 L 77.632812 606.679688 L 77.632812 616.761719 L 84.320312 616.761719 L 84.320312 615.886719 Z M 74.464844 606.386719 L 73.863281 606.992188 C 74.863281 607.636719 75.632812 608.242188 76.175781 608.824219 L 76.777344 608.199219 C 76.152344 607.617188 75.402344 606.992188 74.464844 606.386719 Z M 74.238281 609.324219 L 73.613281 609.929688 C 74.550781 610.554688 75.257812 611.136719 75.800781 611.699219 L 76.425781 611.074219 C 75.820312 610.492188 75.089844 609.910156 74.238281 609.324219 Z M 75.652344 612.867188 C 75.132812 614.179688 74.488281 615.472656 73.777344 616.722656 L 74.652344 617.117188 C 75.320312 615.910156 75.902344 614.574219 76.464844 613.179688 Z M 75.652344 612.867188 "/>
<path style=" stroke:none;fill-rule:nonzero;fill:rgb(0%,0%,0%);fill-opacity:1;" d="M 90.652344 612.992188 L 90.652344 617.136719 L 91.445312 617.136719 L 91.445312 612.910156 L 92.089844 612.804688 C 92.550781 614.597656 93.800781 616.011719 95.839844 617.054688 L 96.277344 616.324219 C 95.363281 615.910156 94.589844 615.410156 94.007812 614.824219 C 94.695312 614.410156 95.277344 614.011719 95.714844 613.617188 L 95.257812 613.011719 C 94.800781 613.449219 94.214844 613.867188 93.527344 614.285156 C 93.175781 613.804688 92.902344 613.261719 92.757812 612.679688 C 93.570312 612.511719 94.320312 612.304688 95.007812 612.035156 L 94.613281 611.367188 C 92.527344 612.074219 89.863281 612.449219 86.675781 612.449219 L 86.925781 613.179688 C 88.277344 613.179688 89.527344 613.117188 90.652344 612.992188 Z M 85.945312 606.617188 L 85.945312 607.304688 L 86.863281 607.304688 L 86.863281 610.785156 C 86.464844 610.804688 86.089844 610.847656 85.675781 610.886719 L 85.757812 611.597656 C 87.195312 611.492188 88.550781 611.324219 89.777344 611.160156 L 89.777344 611.824219 L 90.550781 611.824219 L 90.550781 611.054688 C 90.820312 611.011719 91.089844 610.972656 91.382812 610.929688 L 91.382812 610.261719 C 91.113281 610.304688 90.820312 610.347656 90.550781 610.410156 L 90.550781 607.304688 L 91.382812 607.304688 L 91.382812 606.617188 Z M 87.613281 610.722656 L 87.613281 609.910156 L 89.777344 609.910156 L 89.777344 610.492188 C 89.113281 610.574219 88.382812 610.660156 87.613281 610.722656 Z M 87.613281 609.304688 L 87.613281 608.617188 L 89.777344 608.617188 L 89.777344 609.304688 Z M 87.613281 608.011719 L 87.613281 607.304688 L 89.777344 607.304688 L 89.777344 608.011719 Z M 92.195312 608.136719 L 91.675781 608.660156 C 92.320312 609.074219 92.945312 609.511719 93.488281 609.910156 C 92.945312 610.410156 92.300781 610.785156 91.589844 611.011719 L 91.925781 611.722656 C 92.757812 611.429688 93.488281 610.992188 94.113281 610.386719 C 94.632812 610.785156 95.089844 611.179688 95.488281 611.597656 L 96.050781 611.035156 C 95.632812 610.636719 95.152344 610.242188 94.613281 609.824219 C 95.089844 609.222656 95.527344 608.492188 95.863281 607.617188 L 95.863281 606.992188 L 91.738281 606.992188 L 91.738281 607.722656 L 94.988281 607.722656 C 94.695312 608.324219 94.382812 608.886719 93.988281 609.367188 C 93.445312 608.949219 92.839844 608.554688 92.195312 608.136719 Z M 88.527344 613.261719 C 88.195312 613.554688 87.820312 613.785156 87.425781 614.011719 C 86.945312 614.242188 86.445312 614.429688 85.863281 614.574219 L 86.277344 615.242188 C 86.964844 614.992188 87.550781 614.761719 87.988281 614.511719 C 88.382812 614.285156 88.777344 614.011719 89.175781 613.660156 Z M 89.464844 614.574219 C 89.007812 614.949219 88.527344 615.285156 88.007812 615.554688 C 87.402344 615.867188 86.757812 616.117188 86.007812 616.304688 L 86.425781 616.992188 C 87.320312 616.679688 88.027344 616.386719 88.589844 616.074219 C 89.089844 615.785156 89.613281 615.429688 90.113281 614.972656 Z M 89.464844 614.574219 "/>
<path style=" stroke:none;fill-rule:nonzero;fill:rgb(0%,0%,0%);fill-opacity:1;" d="M 100.902344 610.761719 L 100.902344 611.535156 L 107.402344 611.535156 L 107.402344 610.761719 Z M 100.050781 612.722656 L 100.050781 613.511719 L 102.675781 613.511719 C 101.839844 614.867188 101.132812 615.699219 100.613281 616.011719 C 100.550781 616.035156 100.507812 616.074219 100.425781 616.097656 L 100.613281 616.824219 C 102.882812 616.679688 104.964844 616.472656 106.863281 616.222656 C 107.113281 616.511719 107.320312 616.824219 107.527344 617.136719 L 108.214844 616.660156 C 107.695312 615.886719 106.925781 614.972656 105.945312 613.929688 L 105.300781 614.324219 C 105.652344 614.742188 106.007812 615.136719 106.339844 615.535156 C 104.800781 615.761719 103.238281 615.929688 101.652344 616.035156 C 102.214844 615.535156 102.863281 614.679688 103.589844 613.511719 L 108.195312 613.511719 L 108.195312 612.722656 Z M 106.738281 607.449219 L 106.738281 608.847656 L 99.675781 608.847656 L 99.675781 607.449219 Z M 99.675781 609.617188 L 107.570312 609.617188 L 107.570312 606.636719 L 98.839844 606.636719 L 98.839844 610.617188 C 98.820312 613.035156 98.402344 614.992188 97.570312 616.511719 L 98.195312 617.097656 C 99.175781 615.285156 99.675781 613.117188 99.675781 610.617188 Z M 99.675781 609.617188 "/>
<path style="fill:none;stroke-width:1;stroke-linecap:round;stroke-linejoin:round;stroke:rgb(0%,0%,0%);stroke-opacity:1;stroke-miterlimit:10;" d="M 215 364.680664 L 215 359.975586 " transform="matrix(1.333333,0,0,1.333333,-222.666667,189.333333)"/>
<path style="fill:none;stroke-width:1;stroke-linecap:butt;stroke-linejoin:miter;stroke:rgb(0%,0%,0%);stroke-opacity:1;stroke-miterlimit:10;" d="M 215 355.976562 L 215 359.975586 M 213.5 359.975586 L 215 355.976562 L 216.5 359.975586 " transform="matrix(1.333333,0,0,1.333333,-222.666667,189.333333)"/>
<path style="fill:none;stroke-width:1;stroke-linecap:round;stroke-linejoin:round;stroke:rgb(0%,0%,0%);stroke-opacity:1;stroke-miterlimit:10;" d="M 215 336.078125 L 215 331.378906 " transform="matrix(1.333333,0,0,1.333333,-222.666667,189.333333)"/>
<path style="fill:none;stroke-width:1;stroke-linecap:butt;stroke-linejoin:miter;stroke:rgb(0%,0%,0%);stroke-opacity:1;stroke-miterlimit:10;" d="M 215 327.379883 L 215 331.378906 M 213.5 331.378906 L 215 327.379883 L 216.5 331.378906 " transform="matrix(1.333333,0,0,1.333333,-222.666667,189.333333)"/>
<path style="fill:none;stroke-width:1;stroke-linecap:round;stroke-linejoin:round;stroke:rgb(0%,0%,0%);stroke-opacity:1;stroke-miterlimit:10;" d="M 214.950195 307.475586 L 214.894531 298.217773 " transform="matrix(1.333333,0,0,1.333333,-222.666667,189.333333)"/>
<path style="fill:none;stroke-width:1;stroke-linecap:butt;stroke-linejoin:miter;stroke:rgb(0%,0%,0%);stroke-opacity:1;stroke-miterlimit:10;" d="M 214.871094 294.21875 L 214.894531 298.217773 M 213.394531 298.229492 L 214.871094 294.21875 L 216.394531 298.211914 " transform="matrix(1.333333,0,0,1.333333,-222.666667,189.333333)"/>
<path style=" stroke:none;fill-rule:nonzero;fill:rgb(100%,100%,100%);fill-opacity:1;" d="M 167.191406 196.28125 L 200.527344 195.703125 L 201 222.753906 L 167.660156 223.339844 Z M 167.191406 196.28125 "/>
<path style=" stroke:none;fill-rule:nonzero;fill:rgb(0%,0%,0%);fill-opacity:1;" d="M 176.285156 211.195312 L 177.347656 211.03125 C 177.480469 211.628906 177.691406 212.0625 177.972656 212.320312 C 178.261719 212.570312 178.621094 212.691406 179.054688 212.675781 C 179.539062 212.675781 179.949219 212.503906 180.285156 212.15625 C 180.628906 211.8125 180.792969 211.378906 180.785156 210.863281 C 180.769531 210.378906 180.601562 209.984375 180.285156 209.675781 C 179.960938 209.375 179.558594 209.21875 179.074219 209.21875 C 178.867188 209.21875 178.621094 209.269531 178.347656 209.363281 L 178.449219 208.425781 C 178.519531 208.441406 178.574219 208.445312 178.617188 208.445312 C 179.058594 208.4375 179.457031 208.3125 179.804688 208.070312 C 180.164062 207.820312 180.347656 207.457031 180.347656 206.96875 C 180.332031 206.582031 180.191406 206.269531 179.929688 206.03125 C 179.664062 205.78125 179.324219 205.65625 178.910156 205.65625 C 178.503906 205.671875 178.164062 205.8125 177.886719 206.070312 C 177.621094 206.335938 177.457031 206.726562 177.386719 207.238281 L 176.324219 207.050781 C 176.449219 206.34375 176.730469 205.796875 177.179688 205.40625 C 177.621094 205.003906 178.183594 204.796875 178.867188 204.78125 C 179.335938 204.78125 179.769531 204.878906 180.160156 205.070312 C 180.558594 205.269531 180.867188 205.539062 181.074219 205.882812 C 181.292969 206.21875 181.414062 206.582031 181.429688 206.96875 C 181.429688 207.34375 181.332031 207.691406 181.136719 208.007812 C 180.941406 208.316406 180.648438 208.5625 180.261719 208.738281 C 180.773438 208.851562 181.167969 209.085938 181.449219 209.445312 C 181.742188 209.8125 181.894531 210.269531 181.910156 210.820312 C 181.917969 211.570312 181.660156 212.210938 181.117188 212.738281 C 180.574219 213.269531 179.886719 213.535156 179.054688 213.550781 C 178.304688 213.5625 177.667969 213.359375 177.160156 212.925781 C 176.660156 212.484375 176.367188 211.90625 176.285156 211.195312 Z M 176.285156 211.195312 "/>
<g clip-path="url(#clip3)" clip-rule="nonzero">
<g clip-path="url(#clip4)" clip-rule="nonzero">
<g clip-path="url(#clip5)" clip-rule="nonzero">
<g clip-path="url(#clip6)" clip-rule="nonzero">
<path style=" stroke:none;fill-rule:nonzero;fill:rgb(0%,0%,0%);fill-opacity:1;" d="M 189.480469 209.890625 L 191.835938 207.476562 C 191.9375 207.328125 191.980469 207.308594 191.980469 207.226562 C 191.980469 207.078125 191.855469 206.976562 191.730469 206.976562 C 191.648438 206.976562 191.585938 207.015625 191.480469 207.140625 L 189.125 209.558594 L 186.6875 207.226562 C 186.5625 207.078125 186.523438 207.058594 186.4375 207.058594 C 186.3125 207.058594 186.1875 207.183594 186.1875 207.328125 C 186.1875 207.414062 186.25 207.453125 186.375 207.558594 L 188.773438 209.890625 L 186.4375 212.328125 C 186.335938 212.453125 186.292969 212.539062 186.292969 212.601562 C 186.292969 212.746094 186.417969 212.828125 186.542969 212.828125 C 186.625 212.828125 186.667969 212.808594 186.792969 212.664062 L 189.148438 210.246094 L 191.585938 212.578125 C 191.6875 212.703125 191.773438 212.746094 191.835938 212.746094 C 191.980469 212.746094 192.085938 212.640625 192.085938 212.496094 C 192.085938 212.414062 192.042969 212.390625 191.898438 212.246094 Z M 189.480469 209.890625 "/>
<path style=" stroke:none;fill-rule:nonzero;fill:rgb(0%,0%,0%);fill-opacity:1;" d="M 189.480469 209.890625 L 191.835938 207.476562 C 191.9375 207.328125 191.980469 207.308594 191.980469 207.226562 C 191.980469 207.078125 191.855469 206.976562 191.730469 206.976562 C 191.648438 206.976562 191.585938 207.015625 191.480469 207.140625 L 189.125 209.558594 L 186.6875 207.226562 C 186.5625 207.078125 186.523438 207.058594 186.4375 207.058594 C 186.3125 207.058594 186.1875 207.183594 186.1875 207.328125 C 186.1875 207.414062 186.25 207.453125 186.375 207.558594 L 188.773438 209.890625 L 186.4375 212.328125 C 186.335938 212.453125 186.292969 212.539062 186.292969 212.601562 C 186.292969 212.746094 186.417969 212.828125 186.542969 212.828125 C 186.625 212.828125 186.667969 212.808594 186.792969 212.664062 L 189.148438 210.246094 L 191.585938 212.578125 C 191.6875 212.703125 191.773438 212.746094 191.835938 212.746094 C 191.980469 212.746094 192.085938 212.640625 192.085938 212.496094 C 192.085938 212.414062 192.042969 212.390625 191.898438 212.246094 Z M 189.480469 209.890625 "/>
</g>
</g>
</g>
</g>
<path style=" stroke:none;fill-rule:nonzero;fill:rgb(40.000001%,74.901962%,100%);fill-opacity:1;" d="M 1.332031 64.53125 L 126.667969 64.53125 L 126.667969 40.53125 L 1.332031 40.53125 Z M 1.332031 64.53125 "/>
<path style="fill:none;stroke-width:1;stroke-linecap:round;stroke-linejoin:round;stroke:rgb(0%,0%,0%);stroke-opacity:1;stroke-miterlimit:10;" d="M 167.999023 -111.601562 L 262.000977 -111.601562 L 262.000977 -93.601562 L 167.999023 -93.601562 Z M 167.999023 -111.601562 " transform="matrix(1.333333,0,0,1.333333,-222.666667,189.333333)"/>
<path style=" stroke:none;fill-rule:nonzero;fill:rgb(0%,0%,0%);fill-opacity:1;" d="M 27.6875 47.429688 C 26.292969 48.949219 24.542969 50.222656 22.4375 51.242188 L 22.855469 51.992188 C 24.980469 50.929688 26.6875 49.660156 28 48.222656 C 29.417969 49.742188 31.105469 50.972656 33.105469 51.929688 L 33.542969 51.160156 C 31.5625 50.242188 29.832031 49.011719 28.3125 47.429688 Z M 24.644531 51.222656 L 24.644531 52.054688 L 27.5625 52.054688 L 27.5625 54.136719 L 24.082031 54.136719 L 24.082031 54.972656 L 27.5625 54.972656 L 27.5625 57.179688 L 23 57.179688 L 23 58.035156 L 33 58.035156 L 33 57.179688 L 28.4375 57.179688 L 28.4375 54.972656 L 31.917969 54.972656 L 31.917969 54.136719 L 28.4375 54.136719 L 28.4375 52.054688 L 31.355469 52.054688 L 31.355469 51.222656 Z M 24.644531 51.222656 "/>
<path style=" stroke:none;fill-rule:nonzero;fill:rgb(0%,0%,0%);fill-opacity:1;" d="M 37.957031 53.699219 L 37.957031 56.722656 L 42.1875 56.722656 L 42.1875 53.699219 Z M 41.417969 55.992188 L 38.75 55.992188 L 38.75 54.410156 L 41.417969 54.410156 Z M 43.417969 48.679688 L 43.417969 49.992188 L 36.855469 49.992188 L 36.855469 48.679688 Z M 36.855469 50.785156 L 44.25 50.785156 L 44.25 47.867188 L 36 47.867188 L 36 52.574219 C 36 54.679688 35.5 56.410156 34.519531 57.742188 L 35.1875 58.347656 C 36.269531 56.742188 36.8125 54.847656 36.855469 52.617188 L 44 52.617188 C 43.980469 55.074219 43.957031 56.535156 43.875 57.011719 C 43.792969 57.410156 43.519531 57.597656 43.105469 57.597656 C 42.644531 57.597656 42.105469 57.574219 41.457031 57.554688 L 41.644531 58.285156 C 42.394531 58.324219 42.894531 58.324219 43.207031 58.324219 C 44.0625 58.324219 44.5625 57.992188 44.667969 57.324219 C 44.792969 56.636719 44.855469 54.804688 44.855469 51.847656 L 36.855469 51.847656 Z M 36.855469 50.785156 "/>
<path style=" stroke:none;fill-rule:nonzero;fill:rgb(0%,0%,0%);fill-opacity:1;" d="M 47.167969 47.929688 L 47.167969 48.785156 L 51.5 48.785156 L 51.5 53.304688 L 46.6875 53.304688 L 46.6875 54.136719 L 51.5 54.136719 L 51.5 58.386719 L 52.394531 58.386719 L 52.394531 54.136719 L 57.3125 54.136719 L 57.3125 53.304688 L 52.394531 53.304688 L 52.394531 48.785156 L 56.855469 48.785156 L 56.855469 47.929688 Z M 48.625 49.554688 L 47.832031 49.949219 C 48.269531 50.742188 48.707031 51.660156 49.125 52.679688 L 49.917969 52.285156 C 49.519531 51.304688 49.082031 50.386719 48.625 49.554688 Z M 55.4375 49.492188 C 55.082031 50.386719 54.625 51.304688 54.019531 52.242188 L 54.792969 52.636719 C 55.375 51.722656 55.855469 50.804688 56.230469 49.847656 Z M 55.4375 49.492188 "/>
<path style=" stroke:none;fill-rule:nonzero;fill:rgb(0%,0%,0%);fill-opacity:1;" d="M 67.019531 53.847656 C 65.917969 54.574219 64.582031 55.199219 63.042969 55.699219 L 63.417969 56.511719 C 64.9375 55.972656 66.207031 55.347656 67.25 54.636719 Z M 64.605469 51.304688 L 64.0625 51.847656 C 64.855469 52.449219 65.480469 53.035156 65.9375 53.554688 L 66.542969 52.972656 C 66.019531 52.410156 65.375 51.847656 64.605469 51.304688 Z M 64.292969 47.324219 C 63.9375 49.035156 63.25 50.472656 62.230469 51.660156 L 62.792969 52.410156 C 63.394531 51.722656 63.894531 50.929688 64.3125 50.054688 L 68.207031 50.054688 C 68.1875 53.699219 68.125 55.847656 68 56.554688 C 67.894531 57.179688 67.542969 57.492188 66.917969 57.492188 C 66.4375 57.492188 65.875 57.472656 65.230469 57.449219 L 65.4375 58.261719 C 66.207031 58.285156 66.75 58.304688 67.0625 58.304688 C 68.125 58.304688 68.707031 57.804688 68.832031 56.847656 C 68.980469 55.886719 69.042969 53.347656 69.042969 49.222656 L 64.667969 49.222656 C 64.855469 48.660156 65.042969 48.054688 65.167969 47.429688 Z M 58.5625 50.597656 L 58.5625 51.429688 L 59.875 51.429688 L 59.875 55.699219 C 59.417969 55.824219 58.9375 55.910156 58.4375 55.992188 L 58.667969 56.910156 C 60.019531 56.617188 61.269531 56.242188 62.4375 55.804688 L 62.4375 54.910156 C 61.894531 55.117188 61.332031 55.304688 60.75 55.472656 L 60.75 51.429688 L 62 51.429688 L 62 50.597656 L 60.75 50.597656 L 60.75 47.449219 L 59.875 47.449219 L 59.875 50.597656 Z M 58.5625 50.597656 "/>
<path style=" stroke:none;fill-rule:nonzero;fill:rgb(0%,0%,0%);fill-opacity:1;" d="M 75.5 57.117188 L 75.5 48.742188 L 81.207031 48.742188 L 81.207031 47.910156 L 74.625 47.910156 L 74.625 57.992188 L 81.3125 57.992188 L 81.3125 57.117188 Z M 71.457031 47.617188 L 70.855469 48.222656 C 71.855469 48.867188 72.625 49.472656 73.167969 50.054688 L 73.769531 49.429688 C 73.144531 48.847656 72.394531 48.222656 71.457031 47.617188 Z M 71.230469 50.554688 L 70.605469 51.160156 C 71.542969 51.785156 72.25 52.367188 72.792969 52.929688 L 73.417969 52.304688 C 72.8125 51.722656 72.082031 51.136719 71.230469 50.554688 Z M 72.644531 54.097656 C 72.125 55.410156 71.480469 56.699219 70.769531 57.949219 L 71.644531 58.347656 C 72.3125 57.136719 72.894531 55.804688 73.457031 54.410156 Z M 72.644531 54.097656 "/>
<path style=" stroke:none;fill-rule:nonzero;fill:rgb(0%,0%,0%);fill-opacity:1;" d="M 87.644531 54.222656 L 87.644531 58.367188 L 88.4375 58.367188 L 88.4375 54.136719 L 89.082031 54.035156 C 89.542969 55.824219 90.792969 57.242188 92.832031 58.285156 L 93.269531 57.554688 C 92.355469 57.136719 91.582031 56.636719 91 56.054688 C 91.6875 55.636719 92.269531 55.242188 92.707031 54.847656 L 92.25 54.242188 C 91.792969 54.679688 91.207031 55.097656 90.519531 55.511719 C 90.167969 55.035156 89.894531 54.492188 89.75 53.910156 C 90.5625 53.742188 91.3125 53.535156 92 53.261719 L 91.605469 52.597656 C 89.519531 53.304688 86.855469 53.679688 83.667969 53.679688 L 83.917969 54.410156 C 85.269531 54.410156 86.519531 54.347656 87.644531 54.222656 Z M 82.9375 47.847656 L 82.9375 48.535156 L 83.855469 48.535156 L 83.855469 52.011719 C 83.457031 52.035156 83.082031 52.074219 82.667969 52.117188 L 82.75 52.824219 C 84.1875 52.722656 85.542969 52.554688 86.769531 52.386719 L 86.769531 53.054688 L 87.542969 53.054688 L 87.542969 52.285156 C 87.8125 52.242188 88.082031 52.199219 88.375 52.160156 L 88.375 51.492188 C 88.105469 51.535156 87.8125 51.574219 87.542969 51.636719 L 87.542969 48.535156 L 88.375 48.535156 L 88.375 47.847656 Z M 84.605469 51.949219 L 84.605469 51.136719 L 86.769531 51.136719 L 86.769531 51.722656 C 86.105469 51.804688 85.375 51.886719 84.605469 51.949219 Z M 84.605469 50.535156 L 84.605469 49.847656 L 86.769531 49.847656 L 86.769531 50.535156 Z M 84.605469 49.242188 L 84.605469 48.535156 L 86.769531 48.535156 L 86.769531 49.242188 Z M 89.1875 49.367188 L 88.667969 49.886719 C 89.3125 50.304688 89.9375 50.742188 90.480469 51.136719 C 89.9375 51.636719 89.292969 52.011719 88.582031 52.242188 L 88.917969 52.949219 C 89.75 52.660156 90.480469 52.222656 91.105469 51.617188 C 91.625 52.011719 92.082031 52.410156 92.480469 52.824219 L 93.042969 52.261719 C 92.625 51.867188 92.144531 51.472656 91.605469 51.054688 C 92.082031 50.449219 92.519531 49.722656 92.855469 48.847656 L 92.855469 48.222656 L 88.730469 48.222656 L 88.730469 48.949219 L 91.980469 48.949219 C 91.6875 49.554688 91.375 50.117188 90.980469 50.597656 C 90.4375 50.179688 89.832031 49.785156 89.1875 49.367188 Z M 85.519531 54.492188 C 85.1875 54.785156 84.8125 55.011719 84.417969 55.242188 C 83.9375 55.472656 83.4375 55.660156 82.855469 55.804688 L 83.269531 56.472656 C 83.957031 56.222656 84.542969 55.992188 84.980469 55.742188 C 85.375 55.511719 85.769531 55.242188 86.167969 54.886719 Z M 86.457031 55.804688 C 86 56.179688 85.519531 56.511719 85 56.785156 C 84.394531 57.097656 83.75 57.347656 83 57.535156 L 83.417969 58.222656 C 84.3125 57.910156 85.019531 57.617188 85.582031 57.304688 C 86.082031 57.011719 86.605469 56.660156 87.105469 56.199219 Z M 86.457031 55.804688 "/>
<path style=" stroke:none;fill-rule:nonzero;fill:rgb(0%,0%,0%);fill-opacity:1;" d="M 97.894531 51.992188 L 97.894531 52.761719 L 104.394531 52.761719 L 104.394531 51.992188 Z M 97.042969 53.949219 L 97.042969 54.742188 L 99.667969 54.742188 C 98.832031 56.097656 98.125 56.929688 97.605469 57.242188 C 97.542969 57.261719 97.5 57.304688 97.417969 57.324219 L 97.605469 58.054688 C 99.875 57.910156 101.957031 57.699219 103.855469 57.449219 C 104.105469 57.742188 104.3125 58.054688 104.519531 58.367188 L 105.207031 57.886719 C 104.6875 57.117188 103.917969 56.199219 102.9375 55.160156 L 102.292969 55.554688 C 102.644531 55.972656 103 56.367188 103.332031 56.761719 C 101.792969 56.992188 100.230469 57.160156 98.644531 57.261719 C 99.207031 56.761719 99.855469 55.910156 100.582031 54.742188 L 105.1875 54.742188 L 105.1875 53.949219 Z M 103.730469 48.679688 L 103.730469 50.074219 L 96.667969 50.074219 L 96.667969 48.679688 Z M 96.667969 50.847656 L 104.5625 50.847656 L 104.5625 47.867188 L 95.832031 47.867188 L 95.832031 51.847656 C 95.8125 54.261719 95.394531 56.222656 94.5625 57.742188 L 95.1875 58.324219 C 96.167969 56.511719 96.667969 54.347656 96.667969 51.847656 Z M 96.667969 50.847656 "/>
<path style="fill:none;stroke-width:1;stroke-linecap:round;stroke-linejoin:round;stroke:rgb(0%,0%,0%);stroke-opacity:1;stroke-miterlimit:10;" d="M 214.862305 -81.730469 L 214.90332 -87.698242 " transform="matrix(1.333333,0,0,1.333333,-222.666667,189.333333)"/>
<path style="fill:none;stroke-width:1;stroke-linecap:butt;stroke-linejoin:miter;stroke:rgb(0%,0%,0%);stroke-opacity:1;stroke-miterlimit:10;" d="M 214.929688 -91.700195 L 214.90332 -87.698242 M 213.40332 -87.709961 L 214.929688 -91.700195 L 216.40332 -87.692383 " transform="matrix(1.333333,0,0,1.333333,-222.666667,189.333333)"/>
<path style="fill:none;stroke-width:1;stroke-linecap:round;stroke-linejoin:round;stroke:rgb(0%,0%,0%);stroke-opacity:1;stroke-miterlimit:10;" d="M 167.679688 -141.469727 L 261.678711 -141.469727 L 261.678711 -123.469727 L 167.679688 -123.469727 Z M 167.679688 -141.469727 " transform="matrix(1.333333,0,0,1.333333,-222.666667,189.333333)"/>
<path style=" stroke:none;fill-rule:nonzero;fill:rgb(0%,0%,0%);fill-opacity:1;" d="M 45.257812 7.601562 C 43.863281 9.125 42.113281 10.394531 40.007812 11.414062 L 40.425781 12.164062 C 42.550781 11.101562 44.257812 9.832031 45.570312 8.394531 C 46.988281 9.914062 48.675781 11.144531 50.675781 12.101562 L 51.113281 11.332031 C 49.132812 10.414062 47.402344 9.1875 45.882812 7.601562 Z M 42.214844 11.394531 L 42.214844 12.226562 L 45.132812 12.226562 L 45.132812 14.3125 L 41.652344 14.3125 L 41.652344 15.144531 L 45.132812 15.144531 L 45.132812 17.351562 L 40.570312 17.351562 L 40.570312 18.207031 L 50.570312 18.207031 L 50.570312 17.351562 L 46.007812 17.351562 L 46.007812 15.144531 L 49.488281 15.144531 L 49.488281 14.3125 L 46.007812 14.3125 L 46.007812 12.226562 L 48.925781 12.226562 L 48.925781 11.394531 Z M 42.214844 11.394531 "/>
<path style=" stroke:none;fill-rule:nonzero;fill:rgb(0%,0%,0%);fill-opacity:1;" d="M 53.113281 7.769531 L 52.527344 8.332031 C 53.363281 9.019531 54.050781 9.644531 54.527344 10.226562 L 55.152344 9.625 C 54.589844 9 53.902344 8.394531 53.113281 7.769531 Z M 60.070312 18.351562 L 62.820312 18.351562 L 63.027344 17.5 C 62.714844 17.519531 62.257812 17.519531 61.695312 17.539062 C 61.089844 17.5625 60.527344 17.5625 59.964844 17.5625 C 59.027344 17.5625 58.257812 17.5625 57.632812 17.539062 C 56.925781 17.519531 56.402344 17.414062 56.027344 17.25 C 55.695312 17.101562 55.402344 16.851562 55.113281 16.5 C 55.007812 16.394531 54.925781 16.289062 54.820312 16.226562 L 54.820312 11.726562 L 52.300781 11.726562 L 52.300781 12.519531 L 54.027344 12.519531 L 54.027344 16.164062 C 53.527344 16.394531 52.964844 17 52.320312 18.019531 L 52.964844 18.601562 C 53.632812 17.5 54.113281 16.9375 54.382812 16.9375 C 54.527344 16.9375 54.695312 17.039062 54.839844 17.25 C 55.214844 17.664062 55.632812 17.976562 56.113281 18.125 C 56.589844 18.25 57.195312 18.332031 57.964844 18.332031 C 58.714844 18.351562 59.425781 18.351562 60.070312 18.351562 Z M 55.652344 8.8125 L 55.652344 9.601562 L 57.238281 9.601562 C 56.839844 10.457031 56.402344 11.1875 55.925781 11.75 L 56.113281 12.539062 L 58.882812 12.539062 L 58.882812 13.976562 L 55.550781 13.976562 L 55.550781 14.789062 L 58.882812 14.789062 L 58.882812 17.019531 L 59.714844 17.019531 L 59.714844 14.789062 L 62.839844 14.789062 L 62.839844 13.976562 L 59.714844 13.976562 L 59.714844 12.539062 L 62.320312 12.539062 L 62.320312 11.75 L 59.714844 11.75 L 59.714844 10.332031 L 58.882812 10.332031 L 58.882812 11.75 L 56.945312 11.75 C 57.382812 11.125 57.777344 10.414062 58.152344 9.601562 L 62.695312 9.601562 L 62.695312 8.8125 L 58.488281 8.8125 C 58.632812 8.4375 58.757812 8.082031 58.882812 7.6875 L 58.070312 7.476562 C 57.925781 7.9375 57.757812 8.394531 57.589844 8.8125 Z M 55.652344 8.8125 "/>
<path style=" stroke:none;fill-rule:nonzero;fill:rgb(0%,0%,0%);fill-opacity:1;" d="M 69.925781 9.601562 L 69.214844 9.9375 C 69.464844 10.375 69.695312 10.851562 69.945312 11.375 L 68.113281 11.375 L 68.113281 12.207031 L 74.800781 12.207031 L 74.800781 11.375 L 72.863281 11.375 C 73.132812 10.894531 73.382812 10.351562 73.613281 9.75 L 72.800781 9.457031 C 72.550781 10.144531 72.277344 10.769531 71.945312 11.375 L 70.777344 11.375 C 70.507812 10.726562 70.238281 10.144531 69.925781 9.601562 Z M 71.507812 7.5 L 70.613281 7.644531 C 70.738281 7.9375 70.882812 8.269531 71.027344 8.644531 L 68.382812 8.644531 L 68.382812 9.4375 L 74.589844 9.4375 L 74.589844 8.644531 L 71.902344 8.644531 C 71.757812 8.226562 71.632812 7.832031 71.507812 7.5 Z M 65.507812 18.457031 C 66.214844 18.457031 66.589844 18.125 66.589844 17.414062 L 66.589844 13.875 C 66.925781 13.707031 67.257812 13.539062 67.589844 13.375 L 67.589844 12.5 C 67.257812 12.664062 66.925781 12.832031 66.589844 13 L 66.589844 10.707031 L 67.570312 10.707031 L 67.570312 9.875 L 66.589844 9.875 L 66.589844 7.601562 L 65.695312 7.601562 L 65.695312 9.875 L 64.238281 9.875 L 64.238281 10.707031 L 65.695312 10.707031 L 65.695312 13.375 C 65.132812 13.601562 64.570312 13.769531 64.007812 13.914062 L 64.238281 14.789062 C 64.714844 14.625 65.214844 14.4375 65.695312 14.25 L 65.695312 17.207031 C 65.695312 17.519531 65.527344 17.664062 65.214844 17.664062 C 64.925781 17.664062 64.613281 17.644531 64.300781 17.625 L 64.464844 18.457031 Z M 70.445312 12.539062 C 70.320312 12.875 70.175781 13.207031 70.007812 13.5625 L 67.945312 13.5625 L 67.945312 14.414062 L 69.550781 14.414062 C 69.300781 14.875 69.027344 15.332031 68.695312 15.832031 C 69.527344 16.164062 70.320312 16.476562 71.050781 16.832031 C 70.300781 17.25 69.214844 17.582031 67.820312 17.832031 L 68.175781 18.625 C 69.902344 18.289062 71.152344 17.8125 71.945312 17.25 C 72.902344 17.707031 73.738281 18.144531 74.445312 18.582031 L 74.925781 17.894531 C 74.175781 17.457031 73.382812 17.039062 72.550781 16.664062 C 73.113281 16.0625 73.488281 15.289062 73.675781 14.414062 L 74.988281 14.414062 L 74.988281 13.5625 L 70.882812 13.5625 C 71.027344 13.269531 71.152344 12.957031 71.277344 12.625 Z M 72.863281 14.414062 C 72.675781 15.1875 72.300781 15.8125 71.757812 16.3125 C 71.113281 16.019531 70.445312 15.75 69.757812 15.476562 C 69.988281 15.144531 70.214844 14.789062 70.425781 14.414062 Z M 72.863281 14.414062 "/>
<path style=" stroke:none;fill-rule:nonzero;fill:rgb(0%,0%,0%);fill-opacity:1;" d="M 79.464844 12.164062 L 79.464844 12.9375 L 85.964844 12.9375 L 85.964844 12.164062 Z M 78.613281 14.125 L 78.613281 14.914062 L 81.238281 14.914062 C 80.402344 16.269531 79.695312 17.101562 79.175781 17.414062 C 79.113281 17.4375 79.070312 17.476562 78.988281 17.5 L 79.175781 18.226562 C 81.445312 18.082031 83.527344 17.875 85.425781 17.625 C 85.675781 17.914062 85.882812 18.226562 86.089844 18.539062 L 86.777344 18.0625 C 86.257812 17.289062 85.488281 16.375 84.507812 15.332031 L 83.863281 15.726562 C 84.214844 16.144531 84.570312 16.539062 84.902344 16.9375 C 83.363281 17.164062 81.800781 17.332031 80.214844 17.4375 C 80.777344 16.9375 81.425781 16.082031 82.152344 14.914062 L 86.757812 14.914062 L 86.757812 14.125 Z M 85.300781 8.851562 L 85.300781 10.25 L 78.238281 10.25 L 78.238281 8.851562 Z M 78.238281 11.019531 L 86.132812 11.019531 L 86.132812 8.039062 L 77.402344 8.039062 L 77.402344 12.019531 C 77.382812 14.4375 76.964844 16.394531 76.132812 17.914062 L 76.757812 18.5 C 77.738281 16.6875 78.238281 14.519531 78.238281 12.019531 Z M 78.238281 11.019531 "/>
<path style="fill:none;stroke-width:1;stroke-linecap:round;stroke-linejoin:round;stroke:rgb(0%,0%,0%);stroke-opacity:1;stroke-miterlimit:10;" d="M 214.90332 -111.601562 L 214.838867 -117.569336 " transform="matrix(1.333333,0,0,1.333333,-222.666667,189.333333)"/>
<path style="fill:none;stroke-width:1;stroke-linecap:butt;stroke-linejoin:miter;stroke:rgb(0%,0%,0%);stroke-opacity:1;stroke-miterlimit:10;" d="M 214.797852 -121.571289 L 214.838867 -117.569336 M 213.338867 -117.554688 L 214.797852 -121.571289 L 216.338867 -117.586914 " transform="matrix(1.333333,0,0,1.333333,-222.666667,189.333333)"/>
</g>
</svg>
