<?xml version="1.0" encoding="UTF-8"?>
<svg xmlns="http://www.w3.org/2000/svg" xmlns:xlink="http://www.w3.org/1999/xlink" width="382.666667" height="172" viewBox="0 0 382.666667 172" version="1.1">
<g id="surface1">
<path style="fill-rule:nonzero;fill:rgb(100%,100%,100%);fill-opacity:1;stroke-width:1;stroke-linecap:round;stroke-linejoin:round;stroke:rgb(0%,0%,0%);stroke-opacity:1;stroke-miterlimit:10;" d="M 96.600586 136.500977 L 171.600586 136.500977 L 171.600586 168.000977 L 96.600586 168.000977 Z M 96.600586 136.500977 " transform="matrix(1.333333,0,0,1.333333,-128,-117.333333)"/>
<path style=" stroke:none;fill-rule:nonzero;fill:rgb(0%,0%,0%);fill-opacity:1;" d="M 35.097656 89 L 38.410156 80.417969 L 39.621094 80.417969 L 43.140625 89 L 41.847656 89 L 40.847656 86.394531 L 37.246094 86.394531 L 36.308594 89 Z M 37.578125 85.480469 L 40.496094 85.480469 L 39.597656 83.082031 C 39.316406 82.363281 39.121094 81.769531 38.996094 81.3125 C 38.878906 81.871094 38.722656 82.417969 38.515625 82.957031 Z M 37.578125 85.480469 "/>
<path style=" stroke:none;fill-rule:nonzero;fill:rgb(0%,0%,0%);fill-opacity:1;" d="M 43.726562 89.519531 L 44.75 89.667969 C 44.789062 89.984375 44.90625 90.214844 45.101562 90.355469 C 45.363281 90.546875 45.726562 90.644531 46.1875 90.644531 C 46.671875 90.644531 47.046875 90.546875 47.3125 90.355469 C 47.570312 90.15625 47.753906 89.886719 47.851562 89.542969 C 47.90625 89.316406 47.925781 88.871094 47.914062 88.1875 C 47.457031 88.730469 46.882812 89 46.207031 89 C 45.34375 89 44.675781 88.699219 44.207031 88.082031 C 43.75 87.457031 43.519531 86.71875 43.519531 85.855469 C 43.519531 85.261719 43.625 84.707031 43.832031 84.207031 C 44.050781 83.707031 44.363281 83.328125 44.769531 83.0625 C 45.171875 82.785156 45.648438 82.644531 46.207031 82.644531 C 46.941406 82.644531 47.546875 82.9375 48.019531 83.519531 L 48.019531 82.769531 L 49 82.769531 L 49 88.144531 C 49 89.113281 48.894531 89.800781 48.6875 90.207031 C 48.488281 90.609375 48.175781 90.925781 47.75 91.167969 C 47.332031 91.402344 46.8125 91.519531 46.1875 91.519531 C 45.4375 91.519531 44.832031 91.355469 44.375 91.019531 C 43.925781 90.6875 43.710938 90.1875 43.726562 89.519531 Z M 44.601562 85.769531 C 44.601562 86.59375 44.757812 87.1875 45.082031 87.5625 C 45.398438 87.9375 45.800781 88.125 46.289062 88.125 C 46.773438 88.125 47.1875 87.9375 47.519531 87.5625 C 47.851562 87.1875 48.019531 86.605469 48.019531 85.8125 C 48.019531 85.050781 47.84375 84.472656 47.5 84.082031 C 47.164062 83.699219 46.757812 83.5 46.289062 83.5 C 45.816406 83.5 45.414062 83.699219 45.082031 84.082031 C 44.757812 84.457031 44.601562 85.019531 44.601562 85.769531 Z M 44.601562 85.769531 "/>
<path style=" stroke:none;fill-rule:nonzero;fill:rgb(0%,0%,0%);fill-opacity:1;" d="M 54.839844 87 L 55.945312 87.125 C 55.761719 87.765625 55.433594 88.265625 54.964844 88.625 C 54.507812 88.972656 53.914062 89.144531 53.195312 89.144531 C 52.289062 89.144531 51.570312 88.871094 51.027344 88.3125 C 50.496094 87.746094 50.234375 86.953125 50.234375 85.9375 C 50.234375 84.894531 50.507812 84.09375 51.046875 83.519531 C 51.589844 82.9375 52.289062 82.644531 53.152344 82.644531 C 53.984375 82.644531 54.65625 82.933594 55.171875 83.5 C 55.699219 84.058594 55.964844 84.847656 55.964844 85.875 C 55.964844 85.949219 55.964844 86.042969 55.964844 86.167969 L 51.320312 86.167969 C 51.359375 86.847656 51.554688 87.371094 51.902344 87.730469 C 52.246094 88.09375 52.683594 88.269531 53.214844 88.269531 C 53.601562 88.269531 53.929688 88.175781 54.195312 87.980469 C 54.46875 87.769531 54.683594 87.449219 54.839844 87 Z M 51.382812 85.292969 L 54.859375 85.292969 C 54.820312 84.765625 54.683594 84.371094 54.464844 84.105469 C 54.132812 83.703125 53.695312 83.5 53.152344 83.5 C 52.664062 83.5 52.257812 83.667969 51.921875 84 C 51.601562 84.324219 51.421875 84.75 51.382812 85.292969 Z M 51.382812 85.292969 "/>
<path style=" stroke:none;fill-rule:nonzero;fill:rgb(0%,0%,0%);fill-opacity:1;" d="M 57.265625 89 L 57.265625 82.769531 L 58.222656 82.769531 L 58.222656 83.667969 C 58.664062 82.988281 59.328125 82.644531 60.203125 82.644531 C 60.578125 82.644531 60.914062 82.71875 61.222656 82.855469 C 61.539062 82.980469 61.773438 83.15625 61.929688 83.375 C 62.082031 83.582031 62.191406 83.84375 62.265625 84.144531 C 62.304688 84.34375 62.328125 84.683594 62.328125 85.167969 L 62.328125 89 L 61.265625 89 L 61.265625 85.207031 C 61.265625 84.78125 61.222656 84.457031 61.140625 84.25 C 61.054688 84.042969 60.910156 83.875 60.703125 83.75 C 60.492188 83.613281 60.25 83.542969 59.972656 83.542969 C 59.523438 83.542969 59.140625 83.6875 58.804688 83.980469 C 58.484375 84.261719 58.328125 84.800781 58.328125 85.605469 L 58.328125 89 Z M 57.265625 89 "/>
<path style=" stroke:none;fill-rule:nonzero;fill:rgb(0%,0%,0%);fill-opacity:1;" d="M 66.25 88.0625 L 66.398438 88.980469 C 66.089844 89.046875 65.824219 89.082031 65.605469 89.082031 C 65.214844 89.082031 64.917969 89.019531 64.710938 88.894531 C 64.5 88.769531 64.34375 88.613281 64.25 88.417969 C 64.167969 88.222656 64.125 87.8125 64.125 87.1875 L 64.125 83.605469 L 63.355469 83.605469 L 63.355469 82.769531 L 64.125 82.769531 L 64.125 81.230469 L 65.1875 80.605469 L 65.1875 82.769531 L 66.25 82.769531 L 66.25 83.605469 L 65.1875 83.605469 L 65.1875 87.230469 C 65.1875 87.535156 65.199219 87.730469 65.230469 87.8125 C 65.273438 87.894531 65.335938 87.96875 65.417969 88.019531 C 65.5 88.078125 65.617188 88.105469 65.773438 88.105469 C 65.898438 88.105469 66.054688 88.09375 66.25 88.0625 Z M 66.25 88.0625 "/>
<path style="fill-rule:nonzero;fill:rgb(69.803923%,85.09804%,100%);fill-opacity:1;stroke-width:1;stroke-linecap:round;stroke-linejoin:round;stroke:rgb(0%,0%,0%);stroke-opacity:1;stroke-miterlimit:10;" d="M 201.999023 88.500977 L 276.999023 88.500977 L 276.999023 120.000977 L 201.999023 120.000977 Z M 201.999023 88.500977 " transform="matrix(1.333333,0,0,1.333333,-128,-117.333333)"/>
<path style=" stroke:none;fill-rule:nonzero;fill:rgb(0%,0%,0%);fill-opacity:1;" d="M 174.636719 25 L 177.949219 16.417969 L 179.15625 16.417969 L 182.679688 25 L 181.386719 25 L 180.386719 22.394531 L 176.78125 22.394531 L 175.84375 25 Z M 177.117188 21.480469 L 180.03125 21.480469 L 179.136719 19.082031 C 178.855469 18.363281 178.65625 17.769531 178.53125 17.3125 C 178.417969 17.871094 178.261719 18.417969 178.054688 18.957031 Z M 177.117188 21.480469 "/>
<path style=" stroke:none;fill-rule:nonzero;fill:rgb(0%,0%,0%);fill-opacity:1;" d="M 187.515625 22.730469 L 188.558594 22.855469 C 188.441406 23.578125 188.152344 24.140625 187.683594 24.542969 C 187.207031 24.949219 186.628906 25.144531 185.953125 25.144531 C 185.105469 25.144531 184.421875 24.871094 183.910156 24.3125 C 183.394531 23.761719 183.140625 22.957031 183.140625 21.917969 C 183.140625 21.238281 183.25 20.644531 183.472656 20.144531 C 183.691406 19.644531 184.027344 19.269531 184.472656 19.019531 C 184.933594 18.769531 185.433594 18.644531 185.972656 18.644531 C 186.640625 18.644531 187.1875 18.824219 187.621094 19.167969 C 188.046875 19.5 188.328125 19.980469 188.453125 20.605469 L 187.433594 20.769531 C 187.332031 20.355469 187.160156 20.042969 186.910156 19.832031 C 186.660156 19.613281 186.359375 19.5 186.015625 19.5 C 185.472656 19.5 185.035156 19.699219 184.703125 20.082031 C 184.378906 20.457031 184.222656 21.058594 184.222656 21.875 C 184.222656 22.722656 184.378906 23.332031 184.703125 23.707031 C 185.019531 24.082031 185.4375 24.269531 185.953125 24.269531 C 186.371094 24.269531 186.714844 24.144531 186.996094 23.894531 C 187.269531 23.644531 187.441406 23.261719 187.515625 22.730469 Z M 187.515625 22.730469 "/>
<path style=" stroke:none;fill-rule:nonzero;fill:rgb(0%,0%,0%);fill-opacity:1;" d="M 191.765625 24.0625 L 191.910156 24.980469 C 191.605469 25.046875 191.339844 25.082031 191.121094 25.082031 C 190.730469 25.082031 190.433594 25.019531 190.222656 24.894531 C 190.015625 24.769531 189.859375 24.613281 189.765625 24.417969 C 189.683594 24.222656 189.640625 23.8125 189.640625 23.1875 L 189.640625 19.605469 L 188.871094 19.605469 L 188.871094 18.769531 L 189.640625 18.769531 L 189.640625 17.230469 L 190.703125 16.605469 L 190.703125 18.769531 L 191.765625 18.769531 L 191.765625 19.605469 L 190.703125 19.605469 L 190.703125 23.230469 C 190.703125 23.535156 190.714844 23.730469 190.746094 23.8125 C 190.785156 23.894531 190.847656 23.96875 190.933594 24.019531 C 191.015625 24.078125 191.128906 24.105469 191.285156 24.105469 C 191.410156 24.105469 191.566406 24.09375 191.765625 24.0625 Z M 191.765625 24.0625 "/>
<path style=" stroke:none;fill-rule:nonzero;fill:rgb(0%,0%,0%);fill-opacity:1;" d="M 192.785156 17.625 L 192.785156 16.417969 L 193.847656 16.417969 L 193.847656 17.625 Z M 192.785156 25 L 192.785156 18.769531 L 193.847656 18.769531 L 193.847656 25 Z M 192.785156 25 "/>
<path style=" stroke:none;fill-rule:nonzero;fill:rgb(0%,0%,0%);fill-opacity:1;" d="M 195.058594 21.894531 C 195.058594 20.746094 195.375 19.890625 196.015625 19.332031 C 196.558594 18.875 197.207031 18.644531 197.972656 18.644531 C 198.832031 18.644531 199.535156 18.925781 200.078125 19.480469 C 200.621094 20.035156 200.890625 20.808594 200.890625 21.792969 C 200.890625 22.597656 200.765625 23.230469 200.515625 23.6875 C 200.277344 24.144531 199.933594 24.511719 199.472656 24.769531 C 199.015625 25.019531 198.515625 25.144531 197.972656 25.144531 C 197.097656 25.144531 196.390625 24.871094 195.847656 24.3125 C 195.316406 23.746094 195.058594 22.9375 195.058594 21.894531 Z M 196.140625 21.894531 C 196.140625 22.6875 196.3125 23.285156 196.660156 23.6875 C 197.003906 24.078125 197.441406 24.269531 197.972656 24.269531 C 198.5 24.269531 198.9375 24.078125 199.285156 23.6875 C 199.628906 23.285156 199.808594 22.675781 199.808594 21.855469 C 199.808594 21.09375 199.628906 20.511719 199.285156 20.105469 C 198.9375 19.703125 198.5 19.5 197.972656 19.5 C 197.441406 19.5 197.003906 19.703125 196.660156 20.105469 C 196.3125 20.496094 196.140625 21.09375 196.140625 21.894531 Z M 196.140625 21.894531 "/>
<path style=" stroke:none;fill-rule:nonzero;fill:rgb(0%,0%,0%);fill-opacity:1;" d="M 202.128906 25 L 202.128906 18.769531 L 203.085938 18.769531 L 203.085938 19.667969 C 203.527344 18.988281 204.191406 18.644531 205.066406 18.644531 C 205.441406 18.644531 205.777344 18.71875 206.085938 18.855469 C 206.402344 18.980469 206.636719 19.15625 206.792969 19.375 C 206.945312 19.582031 207.054688 19.84375 207.128906 20.144531 C 207.167969 20.34375 207.191406 20.683594 207.191406 21.167969 L 207.191406 25 L 206.128906 25 L 206.128906 21.207031 C 206.128906 20.78125 206.085938 20.457031 206.003906 20.25 C 205.917969 20.042969 205.773438 19.875 205.566406 19.75 C 205.355469 19.613281 205.113281 19.542969 204.835938 19.542969 C 204.386719 19.542969 204.003906 19.6875 203.667969 19.980469 C 203.347656 20.261719 203.191406 20.800781 203.191406 21.605469 L 203.191406 25 Z M 202.128906 25 "/>
<path style="fill-rule:nonzero;fill:rgb(40.000001%,74.901962%,100%);fill-opacity:1;stroke-width:1;stroke-linecap:round;stroke-linejoin:round;stroke:rgb(0%,0%,0%);stroke-opacity:1;stroke-miterlimit:10;" d="M 201.999023 136.500977 L 276.999023 136.500977 L 276.999023 168.000977 L 201.999023 168.000977 Z M 201.999023 136.500977 " transform="matrix(1.333333,0,0,1.333333,-128,-117.333333)"/>
<path style=" stroke:none;fill-rule:nonzero;fill:rgb(0%,0%,0%);fill-opacity:1;" d="M 171.597656 89 L 171.597656 80.417969 L 175.410156 80.417969 C 176.167969 80.417969 176.753906 80.496094 177.160156 80.644531 C 177.558594 80.800781 177.878906 81.074219 178.117188 81.457031 C 178.351562 81.847656 178.472656 82.28125 178.472656 82.75 C 178.472656 83.363281 178.269531 83.875 177.867188 84.292969 C 177.476562 84.707031 176.871094 84.972656 176.054688 85.082031 C 176.347656 85.238281 176.574219 85.386719 176.742188 85.519531 C 177.074219 85.828125 177.386719 86.207031 177.679688 86.667969 L 179.179688 89 L 177.742188 89 L 176.597656 87.207031 C 176.273438 86.699219 176.003906 86.308594 175.785156 86.042969 C 175.574219 85.765625 175.378906 85.574219 175.199219 85.457031 C 175.035156 85.347656 174.867188 85.269531 174.699219 85.230469 C 174.558594 85.203125 174.347656 85.1875 174.054688 85.1875 L 172.742188 85.1875 L 172.742188 89 Z M 172.742188 84.207031 L 175.179688 84.207031 C 175.707031 84.207031 176.117188 84.15625 176.410156 84.042969 C 176.699219 83.933594 176.917969 83.761719 177.074219 83.519531 C 177.226562 83.285156 177.304688 83.03125 177.304688 82.75 C 177.304688 82.347656 177.148438 82.015625 176.847656 81.75 C 176.554688 81.488281 176.085938 81.355469 175.449219 81.355469 L 172.742188 81.355469 Z M 172.742188 84.207031 "/>
<path style=" stroke:none;fill-rule:nonzero;fill:rgb(0%,0%,0%);fill-opacity:1;" d="M 184.367188 87 L 185.472656 87.125 C 185.289062 87.765625 184.960938 88.265625 184.492188 88.625 C 184.035156 88.972656 183.441406 89.144531 182.722656 89.144531 C 181.816406 89.144531 181.097656 88.871094 180.554688 88.3125 C 180.023438 87.746094 179.761719 86.953125 179.761719 85.9375 C 179.761719 84.894531 180.035156 84.09375 180.574219 83.519531 C 181.117188 82.9375 181.816406 82.644531 182.679688 82.644531 C 183.511719 82.644531 184.183594 82.933594 184.699219 83.5 C 185.226562 84.058594 185.492188 84.847656 185.492188 85.875 C 185.492188 85.949219 185.492188 86.042969 185.492188 86.167969 L 180.847656 86.167969 C 180.886719 86.847656 181.082031 87.371094 181.429688 87.730469 C 181.773438 88.09375 182.210938 88.269531 182.742188 88.269531 C 183.128906 88.269531 183.457031 88.175781 183.722656 87.980469 C 183.996094 87.769531 184.210938 87.449219 184.367188 87 Z M 180.910156 85.292969 L 184.386719 85.292969 C 184.347656 84.765625 184.210938 84.371094 183.992188 84.105469 C 183.660156 83.703125 183.222656 83.5 182.679688 83.5 C 182.191406 83.5 181.785156 83.667969 181.449219 84 C 181.128906 84.324219 180.949219 84.75 180.910156 85.292969 Z M 180.910156 85.292969 "/>
<path style=" stroke:none;fill-rule:nonzero;fill:rgb(0%,0%,0%);fill-opacity:1;" d="M 187.9375 89 L 186.039062 82.769531 L 187.125 82.769531 L 188.125 86.375 L 188.476562 87.707031 C 188.488281 87.640625 188.601562 87.207031 188.8125 86.417969 L 189.789062 82.769531 L 190.875 82.769531 L 191.8125 86.394531 L 192.125 87.582031 L 192.476562 86.375 L 193.539062 82.769531 L 194.5625 82.769531 L 192.625 89 L 191.539062 89 L 190.539062 85.269531 L 190.289062 84.207031 L 189.039062 89 Z M 187.9375 89 "/>
<path style=" stroke:none;fill-rule:nonzero;fill:rgb(0%,0%,0%);fill-opacity:1;" d="M 199.519531 88.230469 C 199.128906 88.5625 198.753906 88.800781 198.394531 88.9375 C 198.03125 89.074219 197.644531 89.144531 197.226562 89.144531 C 196.546875 89.144531 196.019531 88.980469 195.644531 88.644531 C 195.28125 88.3125 195.101562 87.886719 195.101562 87.355469 C 195.101562 87.050781 195.171875 86.769531 195.3125 86.519531 C 195.445312 86.269531 195.628906 86.074219 195.851562 85.917969 C 196.070312 85.765625 196.320312 85.644531 196.601562 85.5625 C 196.8125 85.519531 197.125 85.472656 197.539062 85.417969 C 198.398438 85.324219 199.03125 85.199219 199.4375 85.042969 C 199.4375 84.90625 199.4375 84.8125 199.4375 84.769531 C 199.4375 84.34375 199.335938 84.042969 199.144531 83.875 C 198.863281 83.625 198.460938 83.5 197.9375 83.5 C 197.4375 83.5 197.066406 83.59375 196.832031 83.769531 C 196.59375 83.9375 196.421875 84.246094 196.3125 84.6875 L 195.289062 84.5625 C 195.375 84.121094 195.519531 83.765625 195.726562 83.5 C 195.945312 83.222656 196.257812 83.015625 196.664062 82.875 C 197.082031 82.722656 197.550781 82.644531 198.082031 82.644531 C 198.625 82.644531 199.050781 82.707031 199.375 82.832031 C 199.707031 82.957031 199.945312 83.121094 200.101562 83.3125 C 200.269531 83.496094 200.378906 83.730469 200.4375 84.019531 C 200.476562 84.203125 200.5 84.519531 200.5 84.980469 L 200.5 86.394531 C 200.5 87.371094 200.519531 87.988281 200.5625 88.25 C 200.601562 88.515625 200.691406 88.765625 200.832031 89 L 199.726562 89 C 199.613281 88.78125 199.546875 88.519531 199.519531 88.230469 Z M 199.4375 85.875 C 199.046875 86.03125 198.46875 86.160156 197.707031 86.269531 C 197.273438 86.34375 196.96875 86.417969 196.789062 86.5 C 196.609375 86.574219 196.46875 86.683594 196.375 86.832031 C 196.273438 86.988281 196.226562 87.15625 196.226562 87.332031 C 196.226562 87.613281 196.332031 87.847656 196.539062 88.042969 C 196.75 88.222656 197.0625 88.3125 197.476562 88.3125 C 197.878906 88.3125 198.238281 88.222656 198.5625 88.042969 C 198.878906 87.863281 199.113281 87.621094 199.269531 87.3125 C 199.378906 87.078125 199.4375 86.730469 199.4375 86.269531 Z M 199.4375 85.875 "/>
<path style=" stroke:none;fill-rule:nonzero;fill:rgb(0%,0%,0%);fill-opacity:1;" d="M 202.109375 89 L 202.109375 82.769531 L 203.070312 82.769531 L 203.070312 83.730469 C 203.304688 83.285156 203.527344 82.996094 203.734375 82.855469 C 203.945312 82.71875 204.171875 82.644531 204.421875 82.644531 C 204.765625 82.644531 205.132812 82.761719 205.507812 82.980469 L 205.132812 83.957031 C 204.882812 83.808594 204.621094 83.730469 204.359375 83.730469 C 204.136719 83.730469 203.929688 83.800781 203.734375 83.9375 C 203.554688 84.078125 203.421875 84.269531 203.339844 84.519531 C 203.226562 84.894531 203.171875 85.308594 203.171875 85.75 L 203.171875 89 Z M 202.109375 89 "/>
<path style=" stroke:none;fill-rule:nonzero;fill:rgb(0%,0%,0%);fill-opacity:1;" d="M 210.167969 89 L 210.167969 88.207031 C 209.761719 88.832031 209.179688 89.144531 208.417969 89.144531 C 207.929688 89.144531 207.480469 89.003906 207.066406 88.730469 C 206.648438 88.453125 206.320312 88.074219 206.085938 87.582031 C 205.863281 87.097656 205.753906 86.535156 205.753906 85.894531 C 205.753906 85.269531 205.855469 84.707031 206.066406 84.207031 C 206.273438 83.699219 206.574219 83.308594 206.980469 83.042969 C 207.398438 82.78125 207.863281 82.644531 208.378906 82.644531 C 208.753906 82.644531 209.085938 82.722656 209.378906 82.875 C 209.667969 83.03125 209.902344 83.238281 210.085938 83.5 L 210.085938 80.417969 L 211.148438 80.417969 L 211.148438 89 Z M 206.835938 85.894531 C 206.835938 86.6875 207.003906 87.285156 207.335938 87.6875 C 207.667969 88.078125 208.066406 88.269531 208.523438 88.269531 C 208.980469 88.269531 209.367188 88.082031 209.691406 87.707031 C 210.023438 87.332031 210.191406 86.761719 210.191406 85.980469 C 210.191406 85.136719 210.023438 84.511719 209.691406 84.105469 C 209.355469 83.703125 208.949219 83.5 208.480469 83.5 C 208.007812 83.5 207.613281 83.699219 207.292969 84.082031 C 206.988281 84.472656 206.835938 85.078125 206.835938 85.894531 Z M 206.835938 85.894531 "/>
<path style="fill-rule:nonzero;fill:rgb(100%,100%,100%);fill-opacity:1;stroke-width:1;stroke-linecap:round;stroke-linejoin:round;stroke:rgb(0%,0%,0%);stroke-opacity:1;stroke-miterlimit:10;" d="M 307.397461 136.500977 L 382.397461 136.500977 L 382.397461 168.000977 L 307.397461 168.000977 Z M 307.397461 136.500977 " transform="matrix(1.333333,0,0,1.333333,-128,-117.333333)"/>
<path style=" stroke:none;fill-rule:nonzero;fill:rgb(0%,0%,0%);fill-opacity:1;" d="M 299.140625 89 L 299.140625 80.417969 L 305.351562 80.417969 L 305.351562 81.417969 L 300.265625 81.417969 L 300.265625 84.0625 L 305.015625 84.0625 L 305.015625 85.0625 L 300.265625 85.0625 L 300.265625 87.980469 L 305.539062 87.980469 L 305.539062 89 Z M 299.140625 89 "/>
<path style=" stroke:none;fill-rule:nonzero;fill:rgb(0%,0%,0%);fill-opacity:1;" d="M 306.980469 89 L 306.980469 82.769531 L 307.9375 82.769531 L 307.9375 83.667969 C 308.378906 82.988281 309.042969 82.644531 309.917969 82.644531 C 310.292969 82.644531 310.628906 82.71875 310.9375 82.855469 C 311.253906 82.980469 311.488281 83.15625 311.644531 83.375 C 311.796875 83.582031 311.90625 83.84375 311.980469 84.144531 C 312.019531 84.34375 312.042969 84.683594 312.042969 85.167969 L 312.042969 89 L 310.980469 89 L 310.980469 85.207031 C 310.980469 84.78125 310.9375 84.457031 310.855469 84.25 C 310.769531 84.042969 310.625 83.875 310.417969 83.75 C 310.207031 83.613281 309.964844 83.542969 309.6875 83.542969 C 309.238281 83.542969 308.855469 83.6875 308.519531 83.980469 C 308.199219 84.261719 308.042969 84.800781 308.042969 85.605469 L 308.042969 89 Z M 306.980469 89 "/>
<path style=" stroke:none;fill-rule:nonzero;fill:rgb(0%,0%,0%);fill-opacity:1;" d="M 315.382812 89 L 313.007812 82.769531 L 314.132812 82.769531 L 315.464844 86.5 C 315.601562 86.90625 315.738281 87.324219 315.863281 87.75 C 315.957031 87.433594 316.089844 87.042969 316.257812 86.582031 L 317.632812 82.769531 L 318.714844 82.769531 L 316.363281 89 Z M 315.382812 89 "/>
<path style=" stroke:none;fill-rule:nonzero;fill:rgb(0%,0%,0%);fill-opacity:1;" d="M 319.652344 81.625 L 319.652344 80.417969 L 320.714844 80.417969 L 320.714844 81.625 Z M 319.652344 89 L 319.652344 82.769531 L 320.714844 82.769531 L 320.714844 89 Z M 319.652344 89 "/>
<path style=" stroke:none;fill-rule:nonzero;fill:rgb(0%,0%,0%);fill-opacity:1;" d="M 322.300781 89 L 322.300781 82.769531 L 323.257812 82.769531 L 323.257812 83.730469 C 323.492188 83.285156 323.714844 82.996094 323.925781 82.855469 C 324.132812 82.71875 324.363281 82.644531 324.613281 82.644531 C 324.957031 82.644531 325.320312 82.761719 325.695312 82.980469 L 325.320312 83.957031 C 325.070312 83.808594 324.808594 83.730469 324.550781 83.730469 C 324.324219 83.730469 324.117188 83.800781 323.925781 83.9375 C 323.742188 84.078125 323.613281 84.269531 323.527344 84.519531 C 323.414062 84.894531 323.363281 85.308594 323.363281 85.75 L 323.363281 89 Z M 322.300781 89 "/>
<path style=" stroke:none;fill-rule:nonzero;fill:rgb(0%,0%,0%);fill-opacity:1;" d="M 325.921875 85.894531 C 325.921875 84.746094 326.238281 83.890625 326.878906 83.332031 C 327.421875 82.875 328.070312 82.644531 328.835938 82.644531 C 329.695312 82.644531 330.398438 82.925781 330.941406 83.480469 C 331.484375 84.035156 331.753906 84.808594 331.753906 85.792969 C 331.753906 86.597656 331.628906 87.230469 331.378906 87.6875 C 331.140625 88.144531 330.796875 88.511719 330.335938 88.769531 C 329.878906 89.019531 329.378906 89.144531 328.835938 89.144531 C 327.960938 89.144531 327.253906 88.871094 326.710938 88.3125 C 326.179688 87.746094 325.921875 86.9375 325.921875 85.894531 Z M 327.003906 85.894531 C 327.003906 86.6875 327.175781 87.285156 327.523438 87.6875 C 327.867188 88.078125 328.304688 88.269531 328.835938 88.269531 C 329.363281 88.269531 329.800781 88.078125 330.148438 87.6875 C 330.492188 87.285156 330.671875 86.675781 330.671875 85.855469 C 330.671875 85.09375 330.492188 84.511719 330.148438 84.105469 C 329.800781 83.703125 329.363281 83.5 328.835938 83.5 C 328.304688 83.5 327.867188 83.703125 327.523438 84.105469 C 327.175781 84.496094 327.003906 85.09375 327.003906 85.894531 Z M 327.003906 85.894531 "/>
<path style=" stroke:none;fill-rule:nonzero;fill:rgb(0%,0%,0%);fill-opacity:1;" d="M 332.992188 89 L 332.992188 82.769531 L 333.949219 82.769531 L 333.949219 83.667969 C 334.390625 82.988281 335.054688 82.644531 335.929688 82.644531 C 336.304688 82.644531 336.640625 82.71875 336.949219 82.855469 C 337.265625 82.980469 337.5 83.15625 337.65625 83.375 C 337.808594 83.582031 337.917969 83.84375 337.992188 84.144531 C 338.03125 84.34375 338.054688 84.683594 338.054688 85.167969 L 338.054688 89 L 336.992188 89 L 336.992188 85.207031 C 336.992188 84.78125 336.949219 84.457031 336.867188 84.25 C 336.78125 84.042969 336.636719 83.875 336.429688 83.75 C 336.21875 83.613281 335.976562 83.542969 335.699219 83.542969 C 335.25 83.542969 334.867188 83.6875 334.53125 83.980469 C 334.210938 84.261719 334.054688 84.800781 334.054688 85.605469 L 334.054688 89 Z M 332.992188 89 "/>
<path style=" stroke:none;fill-rule:nonzero;fill:rgb(0%,0%,0%);fill-opacity:1;" d="M 339.664062 89 L 339.664062 82.769531 L 340.601562 82.769531 L 340.601562 83.644531 C 340.796875 83.34375 341.050781 83.097656 341.375 82.917969 C 341.707031 82.738281 342.082031 82.644531 342.5 82.644531 C 342.957031 82.644531 343.332031 82.746094 343.625 82.9375 C 343.914062 83.121094 344.125 83.386719 344.25 83.730469 C 344.75 83.011719 345.382812 82.644531 346.164062 82.644531 C 346.789062 82.644531 347.269531 82.824219 347.601562 83.167969 C 347.9375 83.5 348.101562 84.019531 348.101562 84.730469 L 348.101562 89 L 347.039062 89 L 347.039062 85.082031 C 347.039062 84.65625 347.003906 84.347656 346.9375 84.167969 C 346.878906 83.988281 346.757812 83.84375 346.582031 83.730469 C 346.398438 83.605469 346.1875 83.542969 345.9375 83.542969 C 345.503906 83.542969 345.144531 83.6875 344.851562 83.980469 C 344.5625 84.269531 344.414062 84.738281 344.414062 85.375 L 344.414062 89 L 343.351562 89 L 343.351562 84.957031 C 343.351562 84.488281 343.269531 84.136719 343.101562 83.894531 C 342.9375 83.660156 342.65625 83.542969 342.269531 83.542969 C 341.960938 83.542969 341.6875 83.625 341.4375 83.792969 C 341.1875 83.949219 341.003906 84.175781 340.894531 84.480469 C 340.78125 84.769531 340.726562 85.203125 340.726562 85.769531 L 340.726562 89 Z M 339.664062 89 "/>
<path style=" stroke:none;fill-rule:nonzero;fill:rgb(0%,0%,0%);fill-opacity:1;" d="M 353.910156 87 L 355.015625 87.125 C 354.832031 87.765625 354.503906 88.265625 354.035156 88.625 C 353.578125 88.972656 352.984375 89.144531 352.265625 89.144531 C 351.359375 89.144531 350.640625 88.871094 350.097656 88.3125 C 349.566406 87.746094 349.308594 86.953125 349.308594 85.9375 C 349.308594 84.894531 349.578125 84.09375 350.121094 83.519531 C 350.660156 82.9375 351.359375 82.644531 352.222656 82.644531 C 353.058594 82.644531 353.730469 82.933594 354.246094 83.5 C 354.769531 84.058594 355.035156 84.847656 355.035156 85.875 C 355.035156 85.949219 355.035156 86.042969 355.035156 86.167969 L 350.390625 86.167969 C 350.433594 86.847656 350.625 87.371094 350.972656 87.730469 C 351.316406 88.09375 351.753906 88.269531 352.285156 88.269531 C 352.671875 88.269531 353 88.175781 353.265625 87.980469 C 353.542969 87.769531 353.753906 87.449219 353.910156 87 Z M 350.453125 85.292969 L 353.933594 85.292969 C 353.890625 84.765625 353.753906 84.371094 353.535156 84.105469 C 353.203125 83.703125 352.765625 83.5 352.222656 83.5 C 351.734375 83.5 351.328125 83.667969 350.996094 84 C 350.671875 84.324219 350.496094 84.75 350.453125 85.292969 Z M 350.453125 85.292969 "/>
<path style=" stroke:none;fill-rule:nonzero;fill:rgb(0%,0%,0%);fill-opacity:1;" d="M 356.335938 89 L 356.335938 82.769531 L 357.292969 82.769531 L 357.292969 83.667969 C 357.738281 82.988281 358.398438 82.644531 359.273438 82.644531 C 359.648438 82.644531 359.988281 82.71875 360.292969 82.855469 C 360.613281 82.980469 360.847656 83.15625 361.003906 83.375 C 361.152344 83.582031 361.261719 83.84375 361.335938 84.144531 C 361.378906 84.34375 361.398438 84.683594 361.398438 85.167969 L 361.398438 89 L 360.335938 89 L 360.335938 85.207031 C 360.335938 84.78125 360.292969 84.457031 360.210938 84.25 C 360.128906 84.042969 359.980469 83.875 359.773438 83.75 C 359.566406 83.613281 359.320312 83.542969 359.042969 83.542969 C 358.597656 83.542969 358.210938 83.6875 357.878906 83.980469 C 357.554688 84.261719 357.398438 84.800781 357.398438 85.605469 L 357.398438 89 Z M 356.335938 89 "/>
<path style=" stroke:none;fill-rule:nonzero;fill:rgb(0%,0%,0%);fill-opacity:1;" d="M 365.324219 88.0625 L 365.46875 88.980469 C 365.160156 89.046875 364.894531 89.082031 364.675781 89.082031 C 364.285156 89.082031 363.988281 89.019531 363.78125 88.894531 C 363.574219 88.769531 363.417969 88.613281 363.324219 88.417969 C 363.238281 88.222656 363.199219 87.8125 363.199219 87.1875 L 363.199219 83.605469 L 362.425781 83.605469 L 362.425781 82.769531 L 363.199219 82.769531 L 363.199219 81.230469 L 364.261719 80.605469 L 364.261719 82.769531 L 365.324219 82.769531 L 365.324219 83.605469 L 364.261719 83.605469 L 364.261719 87.230469 C 364.261719 87.535156 364.269531 87.730469 364.300781 87.8125 C 364.34375 87.894531 364.40625 87.96875 364.488281 88.019531 C 364.574219 88.078125 364.6875 88.105469 364.84375 88.105469 C 364.96875 88.105469 365.125 88.09375 365.324219 88.0625 Z M 365.324219 88.0625 "/>
<path style="fill:none;stroke-width:1;stroke-linecap:round;stroke-linejoin:miter;stroke:rgb(0%,0%,0%);stroke-opacity:1;stroke-miterlimit:10;" d="M 239.499023 120.000977 L 239.499023 128.250977 L 239.499023 127.799805 L 239.499023 130.600586 " transform="matrix(1.333333,0,0,1.333333,-128,-117.333333)"/>
<path style="fill:none;stroke-width:1;stroke-linecap:butt;stroke-linejoin:miter;stroke:rgb(0%,0%,0%);stroke-opacity:1;stroke-miterlimit:10;" d="M 239.499023 134.602539 L 239.499023 130.600586 M 240.999023 130.600586 L 239.499023 134.602539 L 237.999023 130.600586 " transform="matrix(1.333333,0,0,1.333333,-128,-117.333333)"/>
<path style="fill:none;stroke-width:1;stroke-linecap:round;stroke-linejoin:miter;stroke:rgb(0%,0%,0%);stroke-opacity:1;stroke-miterlimit:10;" d="M 201.999023 152.250977 L 177.500977 152.250977 " transform="matrix(1.333333,0,0,1.333333,-128,-117.333333)"/>
<path style="fill:none;stroke-width:1;stroke-linecap:butt;stroke-linejoin:miter;stroke:rgb(0%,0%,0%);stroke-opacity:1;stroke-miterlimit:10;" d="M 173.499023 152.250977 L 177.500977 152.250977 M 177.500977 153.750977 L 173.499023 152.250977 L 177.500977 150.750977 " transform="matrix(1.333333,0,0,1.333333,-128,-117.333333)"/>
<path style="fill:none;stroke-width:1;stroke-linecap:round;stroke-linejoin:miter;stroke:rgb(0%,0%,0%);stroke-opacity:1;stroke-miterlimit:10;" d="M 307.397461 152.250977 L 282.899414 152.250977 " transform="matrix(1.333333,0,0,1.333333,-128,-117.333333)"/>
<path style="fill:none;stroke-width:1;stroke-linecap:butt;stroke-linejoin:miter;stroke:rgb(0%,0%,0%);stroke-opacity:1;stroke-miterlimit:10;" d="M 278.897461 152.250977 L 282.899414 152.250977 M 282.899414 153.750977 L 278.897461 152.250977 L 282.899414 150.750977 " transform="matrix(1.333333,0,0,1.333333,-128,-117.333333)"/>
<path style="fill-rule:nonzero;fill:rgb(69.803923%,85.09804%,100%);fill-opacity:1;stroke-width:1;stroke-linecap:round;stroke-linejoin:round;stroke:rgb(0%,0%,0%);stroke-opacity:1;stroke-miterlimit:10;" d="M 201.999023 184.500977 L 276.999023 184.500977 L 276.999023 216.000977 L 201.999023 216.000977 Z M 201.999023 184.500977 " transform="matrix(1.333333,0,0,1.333333,-128,-117.333333)"/>
<path style=" stroke:none;fill-rule:nonzero;fill:rgb(0%,0%,0%);fill-opacity:1;" d="M 159.566406 148.8125 C 159.566406 147.394531 159.949219 146.285156 160.714844 145.480469 C 161.472656 144.660156 162.464844 144.25 163.671875 144.25 C 164.464844 144.25 165.175781 144.449219 165.816406 144.832031 C 166.453125 145.207031 166.941406 145.738281 167.277344 146.417969 C 167.609375 147.097656 167.777344 147.863281 167.777344 148.707031 C 167.777344 149.582031 167.597656 150.371094 167.253906 151.0625 C 166.90625 151.746094 166.40625 152.265625 165.753906 152.625 C 165.113281 152.972656 164.421875 153.144531 163.671875 153.144531 C 162.863281 153.144531 162.140625 152.953125 161.503906 152.5625 C 160.863281 152.175781 160.378906 151.640625 160.046875 150.957031 C 159.722656 150.28125 159.566406 149.5625 159.566406 148.8125 Z M 160.734375 148.832031 C 160.734375 149.875 161.011719 150.699219 161.566406 151.292969 C 162.121094 151.875 162.824219 152.167969 163.671875 152.167969 C 164.515625 152.167969 165.21875 151.871094 165.777344 151.269531 C 166.328125 150.675781 166.609375 149.824219 166.609375 148.707031 C 166.609375 148.015625 166.488281 147.410156 166.253906 146.894531 C 166.015625 146.371094 165.671875 145.957031 165.214844 145.667969 C 164.753906 145.375 164.246094 145.230469 163.691406 145.230469 C 162.886719 145.230469 162.191406 145.511719 161.609375 146.0625 C 161.027344 146.621094 160.734375 147.542969 160.734375 148.832031 Z M 160.734375 148.832031 "/>
<path style=" stroke:none;fill-rule:nonzero;fill:rgb(0%,0%,0%);fill-opacity:1;" d="M 170.089844 153 L 169.109375 153 L 169.109375 144.417969 L 170.152344 144.417969 L 170.152344 147.480469 C 170.59375 146.925781 171.160156 146.644531 171.859375 146.644531 C 172.246094 146.644531 172.609375 146.722656 172.941406 146.875 C 173.285156 147.03125 173.574219 147.246094 173.796875 147.519531 C 174.015625 147.800781 174.191406 148.140625 174.316406 148.542969 C 174.441406 148.933594 174.503906 149.347656 174.503906 149.792969 C 174.503906 150.863281 174.238281 151.6875 173.714844 152.269531 C 173.183594 152.855469 172.550781 153.144531 171.816406 153.144531 C 171.078125 153.144531 170.503906 152.84375 170.089844 152.230469 Z M 170.066406 149.832031 C 170.066406 150.582031 170.171875 151.125 170.378906 151.457031 C 170.714844 152 171.15625 152.269531 171.714844 152.269531 C 172.183594 152.269531 172.589844 152.074219 172.921875 151.667969 C 173.253906 151.265625 173.421875 150.667969 173.421875 149.875 C 173.421875 149.074219 173.261719 148.472656 172.941406 148.082031 C 172.621094 147.699219 172.234375 147.5 171.777344 147.5 C 171.300781 147.5 170.902344 147.703125 170.566406 148.105469 C 170.234375 148.511719 170.066406 149.082031 170.066406 149.832031 Z M 170.066406 149.832031 "/>
<path style=" stroke:none;fill-rule:nonzero;fill:rgb(0%,0%,0%);fill-opacity:1;" d="M 175.367188 151.144531 L 176.410156 150.980469 C 176.460938 151.394531 176.621094 151.71875 176.886719 151.9375 C 177.164062 152.160156 177.539062 152.269531 178.011719 152.269531 C 178.496094 152.269531 178.855469 152.175781 179.097656 151.980469 C 179.332031 151.785156 179.449219 151.558594 179.449219 151.292969 C 179.449219 151.042969 179.347656 150.855469 179.136719 150.730469 C 178.980469 150.636719 178.621094 150.511719 178.054688 150.355469 C 177.273438 150.160156 176.730469 149.996094 176.429688 149.855469 C 176.136719 149.71875 175.914062 149.519531 175.761719 149.269531 C 175.605469 149.019531 175.535156 148.746094 175.535156 148.4375 C 175.535156 148.160156 175.597656 147.90625 175.722656 147.667969 C 175.847656 147.433594 176.019531 147.230469 176.242188 147.0625 C 176.410156 146.953125 176.628906 146.855469 176.910156 146.769531 C 177.199219 146.6875 177.503906 146.644531 177.824219 146.644531 C 178.308594 146.644531 178.730469 146.71875 179.097656 146.855469 C 179.472656 146.996094 179.746094 147.183594 179.929688 147.417969 C 180.105469 147.65625 180.230469 147.972656 180.304688 148.375 L 179.261719 148.519531 C 179.222656 148.203125 179.082031 147.953125 178.847656 147.769531 C 178.621094 147.59375 178.308594 147.5 177.910156 147.5 C 177.417969 147.5 177.074219 147.582031 176.867188 147.75 C 176.660156 147.90625 176.554688 148.09375 176.554688 148.3125 C 176.554688 148.453125 176.597656 148.574219 176.679688 148.667969 C 176.761719 148.792969 176.898438 148.890625 177.097656 148.957031 C 177.191406 149 177.496094 149.09375 178.011719 149.230469 C 178.761719 149.425781 179.285156 149.582031 179.574219 149.707031 C 179.878906 149.832031 180.117188 150.019531 180.285156 150.269531 C 180.449219 150.511719 180.535156 150.808594 180.535156 151.167969 C 180.535156 151.53125 180.429688 151.863281 180.222656 152.167969 C 180.011719 152.472656 179.710938 152.71875 179.324219 152.894531 C 178.949219 153.0625 178.511719 153.144531 178.011719 153.144531 C 177.207031 153.144531 176.585938 152.980469 176.160156 152.644531 C 175.742188 152.300781 175.476562 151.800781 175.367188 151.144531 Z M 175.367188 151.144531 "/>
<path style=" stroke:none;fill-rule:nonzero;fill:rgb(0%,0%,0%);fill-opacity:1;" d="M 186.035156 151 L 187.136719 151.125 C 186.957031 151.765625 186.628906 152.265625 186.160156 152.625 C 185.699219 152.972656 185.105469 153.144531 184.386719 153.144531 C 183.480469 153.144531 182.761719 152.871094 182.222656 152.3125 C 181.691406 151.746094 181.429688 150.953125 181.429688 149.9375 C 181.429688 148.894531 181.699219 148.09375 182.242188 147.519531 C 182.785156 146.9375 183.480469 146.644531 184.347656 146.644531 C 185.179688 146.644531 185.851562 146.933594 186.367188 147.5 C 186.894531 148.058594 187.160156 148.847656 187.160156 149.875 C 187.160156 149.949219 187.160156 150.042969 187.160156 150.167969 L 182.511719 150.167969 C 182.554688 150.847656 182.746094 151.371094 183.097656 151.730469 C 183.441406 152.09375 183.878906 152.269531 184.410156 152.269531 C 184.792969 152.269531 185.121094 152.175781 185.386719 151.980469 C 185.664062 151.769531 185.878906 151.449219 186.035156 151 Z M 182.574219 149.292969 L 186.054688 149.292969 C 186.011719 148.765625 185.878906 148.371094 185.660156 148.105469 C 185.324219 147.703125 184.886719 147.5 184.347656 147.5 C 183.855469 147.5 183.449219 147.667969 183.117188 148 C 182.792969 148.324219 182.617188 148.75 182.574219 149.292969 Z M 182.574219 149.292969 "/>
<path style=" stroke:none;fill-rule:nonzero;fill:rgb(0%,0%,0%);fill-opacity:1;" d="M 188.4375 153 L 188.4375 146.769531 L 189.394531 146.769531 L 189.394531 147.730469 C 189.628906 147.285156 189.855469 146.996094 190.0625 146.855469 C 190.269531 146.71875 190.5 146.644531 190.75 146.644531 C 191.09375 146.644531 191.457031 146.761719 191.832031 146.980469 L 191.457031 147.957031 C 191.207031 147.808594 190.949219 147.730469 190.6875 147.730469 C 190.464844 147.730469 190.253906 147.800781 190.0625 147.9375 C 189.878906 148.078125 189.75 148.269531 189.667969 148.519531 C 189.550781 148.894531 189.5 149.308594 189.5 149.75 L 189.5 153 Z M 188.4375 153 "/>
<path style=" stroke:none;fill-rule:nonzero;fill:rgb(0%,0%,0%);fill-opacity:1;" d="M 194.183594 153 L 191.808594 146.769531 L 192.933594 146.769531 L 194.265625 150.5 C 194.402344 150.90625 194.539062 151.324219 194.664062 151.75 C 194.757812 151.433594 194.890625 151.042969 195.058594 150.582031 L 196.433594 146.769531 L 197.515625 146.769531 L 195.164062 153 Z M 194.183594 153 "/>
<path style=" stroke:none;fill-rule:nonzero;fill:rgb(0%,0%,0%);fill-opacity:1;" d="M 202.515625 152.230469 C 202.125 152.5625 201.75 152.800781 201.390625 152.9375 C 201.027344 153.074219 200.640625 153.144531 200.226562 153.144531 C 199.542969 153.144531 199.015625 152.980469 198.640625 152.644531 C 198.277344 152.3125 198.101562 151.886719 198.101562 151.355469 C 198.101562 151.050781 198.167969 150.769531 198.308594 150.519531 C 198.445312 150.269531 198.625 150.074219 198.851562 149.917969 C 199.070312 149.765625 199.320312 149.644531 199.601562 149.5625 C 199.808594 149.519531 200.121094 149.472656 200.539062 149.417969 C 201.398438 149.324219 202.027344 149.199219 202.433594 149.042969 C 202.433594 148.90625 202.433594 148.8125 202.433594 148.769531 C 202.433594 148.34375 202.335938 148.042969 202.140625 147.875 C 201.859375 147.625 201.460938 147.5 200.933594 147.5 C 200.433594 147.5 200.0625 147.59375 199.828125 147.769531 C 199.589844 147.9375 199.417969 148.246094 199.308594 148.6875 L 198.289062 148.5625 C 198.371094 148.121094 198.515625 147.765625 198.726562 147.5 C 198.945312 147.222656 199.257812 147.015625 199.664062 146.875 C 200.078125 146.722656 200.546875 146.644531 201.078125 146.644531 C 201.621094 146.644531 202.046875 146.707031 202.371094 146.832031 C 202.703125 146.957031 202.945312 147.121094 203.101562 147.3125 C 203.265625 147.496094 203.375 147.730469 203.433594 148.019531 C 203.476562 148.203125 203.496094 148.519531 203.496094 148.980469 L 203.496094 150.394531 C 203.496094 151.371094 203.515625 151.988281 203.558594 152.25 C 203.601562 152.515625 203.6875 152.765625 203.828125 153 L 202.726562 153 C 202.609375 152.78125 202.542969 152.519531 202.515625 152.230469 Z M 202.433594 149.875 C 202.042969 150.03125 201.464844 150.160156 200.703125 150.269531 C 200.273438 150.34375 199.964844 150.417969 199.789062 150.5 C 199.605469 150.574219 199.464844 150.683594 199.371094 150.832031 C 199.273438 150.988281 199.226562 151.15625 199.226562 151.332031 C 199.226562 151.613281 199.328125 151.847656 199.539062 152.042969 C 199.746094 152.222656 200.058594 152.3125 200.476562 152.3125 C 200.875 152.3125 201.234375 152.222656 201.558594 152.042969 C 201.875 151.863281 202.109375 151.621094 202.265625 151.3125 C 202.375 151.078125 202.433594 150.730469 202.433594 150.269531 Z M 202.433594 149.875 "/>
<path style=" stroke:none;fill-rule:nonzero;fill:rgb(0%,0%,0%);fill-opacity:1;" d="M 207.441406 152.0625 L 207.585938 152.980469 C 207.277344 153.046875 207.011719 153.082031 206.792969 153.082031 C 206.402344 153.082031 206.105469 153.019531 205.898438 152.894531 C 205.691406 152.769531 205.535156 152.613281 205.441406 152.417969 C 205.355469 152.222656 205.316406 151.8125 205.316406 151.1875 L 205.316406 147.605469 L 204.542969 147.605469 L 204.542969 146.769531 L 205.316406 146.769531 L 205.316406 145.230469 L 206.378906 144.605469 L 206.378906 146.769531 L 207.441406 146.769531 L 207.441406 147.605469 L 206.378906 147.605469 L 206.378906 151.230469 C 206.378906 151.535156 206.386719 151.730469 206.417969 151.8125 C 206.460938 151.894531 206.523438 151.96875 206.605469 152.019531 C 206.691406 152.078125 206.804688 152.105469 206.960938 152.105469 C 207.085938 152.105469 207.242188 152.09375 207.441406 152.0625 Z M 207.441406 152.0625 "/>
<path style=" stroke:none;fill-rule:nonzero;fill:rgb(0%,0%,0%);fill-opacity:1;" d="M 208.460938 145.625 L 208.460938 144.417969 L 209.523438 144.417969 L 209.523438 145.625 Z M 208.460938 153 L 208.460938 146.769531 L 209.523438 146.769531 L 209.523438 153 Z M 208.460938 153 "/>
<path style=" stroke:none;fill-rule:nonzero;fill:rgb(0%,0%,0%);fill-opacity:1;" d="M 210.730469 149.894531 C 210.730469 148.746094 211.050781 147.890625 211.691406 147.332031 C 212.230469 146.875 212.882812 146.644531 213.648438 146.644531 C 214.507812 146.644531 215.210938 146.925781 215.753906 147.480469 C 216.292969 148.035156 216.566406 148.808594 216.566406 149.792969 C 216.566406 150.597656 216.441406 151.230469 216.191406 151.6875 C 215.949219 152.144531 215.605469 152.511719 215.148438 152.769531 C 214.691406 153.019531 214.191406 153.144531 213.648438 153.144531 C 212.773438 153.144531 212.066406 152.871094 211.523438 152.3125 C 210.992188 151.746094 210.730469 150.9375 210.730469 149.894531 Z M 211.816406 149.894531 C 211.816406 150.6875 211.988281 151.285156 212.335938 151.6875 C 212.679688 152.078125 213.117188 152.269531 213.648438 152.269531 C 214.175781 152.269531 214.613281 152.078125 214.960938 151.6875 C 215.304688 151.285156 215.480469 150.675781 215.480469 149.855469 C 215.480469 149.09375 215.304688 148.511719 214.960938 148.105469 C 214.613281 147.703125 214.175781 147.5 213.648438 147.5 C 213.117188 147.5 212.679688 147.703125 212.335938 148.105469 C 211.988281 148.496094 211.816406 149.09375 211.816406 149.894531 Z M 211.816406 149.894531 "/>
<path style=" stroke:none;fill-rule:nonzero;fill:rgb(0%,0%,0%);fill-opacity:1;" d="M 217.800781 153 L 217.800781 146.769531 L 218.761719 146.769531 L 218.761719 147.667969 C 219.203125 146.988281 219.863281 146.644531 220.738281 146.644531 C 221.113281 146.644531 221.453125 146.71875 221.761719 146.855469 C 222.078125 146.980469 222.3125 147.15625 222.46875 147.375 C 222.621094 147.582031 222.730469 147.84375 222.800781 148.144531 C 222.84375 148.34375 222.863281 148.683594 222.863281 149.167969 L 222.863281 153 L 221.800781 153 L 221.800781 149.207031 C 221.800781 148.78125 221.761719 148.457031 221.675781 148.25 C 221.59375 148.042969 221.449219 147.875 221.238281 147.75 C 221.03125 147.613281 220.785156 147.542969 220.511719 147.542969 C 220.0625 147.542969 219.675781 147.6875 219.34375 147.980469 C 219.019531 148.261719 218.863281 148.800781 218.863281 149.605469 L 218.863281 153 Z M 217.800781 153 "/>
<path style="fill:none;stroke-width:1;stroke-linecap:round;stroke-linejoin:miter;stroke:rgb(0%,0%,0%);stroke-opacity:1;stroke-miterlimit:10;" d="M 134.100586 136.500977 L 134.100586 108.285156 C 134.100586 106.079102 135.890625 104.286133 138.102539 104.286133 L 177.202148 104.286133 C 177.208008 104.286133 177.210937 104.286133 177.213867 104.286133 L 187.092773 104.250977 C 187.098633 104.250977 187.101562 104.250977 187.104492 104.250977 L 196.101562 104.250977 " transform="matrix(1.333333,0,0,1.333333,-128,-117.333333)"/>
<path style="fill:none;stroke-width:1;stroke-linecap:butt;stroke-linejoin:miter;stroke:rgb(0%,0%,0%);stroke-opacity:1;stroke-miterlimit:10;" d="M 200.100586 104.250977 L 196.101562 104.250977 M 196.101562 102.750977 L 200.100586 104.250977 L 196.101562 105.750977 " transform="matrix(1.333333,0,0,1.333333,-128,-117.333333)"/>
<path style="fill:none;stroke-width:1;stroke-linecap:round;stroke-linejoin:miter;stroke:rgb(0%,0%,0%);stroke-opacity:1;stroke-miterlimit:10;" d="M 276.999023 104.250977 L 286.989258 104.250977 C 286.995117 104.250977 287.003906 104.250977 287.012695 104.250977 L 296.950195 104.198242 C 296.956055 104.198242 296.964844 104.198242 296.967773 104.198242 L 340.898438 104.198242 C 343.110352 104.198242 344.897461 105.991211 344.897461 108.200195 L 344.897461 130.600586 " transform="matrix(1.333333,0,0,1.333333,-128,-117.333333)"/>
<path style="fill:none;stroke-width:1;stroke-linecap:butt;stroke-linejoin:miter;stroke:rgb(0%,0%,0%);stroke-opacity:1;stroke-miterlimit:10;" d="M 344.897461 134.602539 L 344.897461 130.600586 M 346.397461 130.600586 L 344.897461 134.602539 L 343.397461 130.600586 " transform="matrix(1.333333,0,0,1.333333,-128,-117.333333)"/>
<path style="fill:none;stroke-width:1;stroke-linecap:round;stroke-linejoin:miter;stroke:rgb(0%,0%,0%);stroke-opacity:1;stroke-miterlimit:10;" d="M 344.897461 168.000977 L 344.897461 195.90332 C 344.897461 198.109375 343.110352 199.902344 340.898438 199.902344 L 307.230469 199.902344 C 307.204102 199.902344 307.171875 199.902344 307.139648 199.902344 L 291.946289 200.250977 C 291.914062 200.250977 291.887695 200.250977 291.855469 200.250977 L 282.899414 200.250977 " transform="matrix(1.333333,0,0,1.333333,-128,-117.333333)"/>
<path style="fill:none;stroke-width:1;stroke-linecap:butt;stroke-linejoin:miter;stroke:rgb(0%,0%,0%);stroke-opacity:1;stroke-miterlimit:10;" d="M 278.897461 200.250977 L 282.899414 200.250977 M 282.899414 201.750977 L 278.897461 200.250977 L 282.899414 198.750977 " transform="matrix(1.333333,0,0,1.333333,-128,-117.333333)"/>
<path style="fill:none;stroke-width:1;stroke-linecap:round;stroke-linejoin:miter;stroke:rgb(0%,0%,0%);stroke-opacity:1;stroke-miterlimit:10;" d="M 201.999023 200.250977 L 192.020508 200.250977 C 192.008789 200.250977 191.991211 200.250977 191.979492 200.250977 L 185.551758 200.31543 C 185.53418 200.31543 185.522461 200.31543 185.507812 200.31543 L 138.102539 200.31543 C 135.890625 200.31543 134.100586 198.522461 134.100586 196.316406 L 134.100586 173.898438 " transform="matrix(1.333333,0,0,1.333333,-128,-117.333333)"/>
<path style="fill:none;stroke-width:1;stroke-linecap:butt;stroke-linejoin:miter;stroke:rgb(0%,0%,0%);stroke-opacity:1;stroke-miterlimit:10;" d="M 134.100586 169.899414 L 134.100586 173.898438 M 132.600586 173.898438 L 134.100586 169.899414 L 135.600586 173.898438 " transform="matrix(1.333333,0,0,1.333333,-128,-117.333333)"/>
</g>
</svg>
